  0
SECTION
  2
HEADER
  9
$INSUNITS
 70
     4
  9
$MEASUREMENT
 70
     1
  9
$DIMALT
 70
     1
  9
$DIMALTD
 70
     3
  9
$DIMALTF
 40
0.039370078740157
  0
ENDSEC
  0
SECTION
  2
TABLES
  0
TABLE
  2
LTYPE
 70
     5
  0
LTYPE
  2
CONTINUOUS
 70
     0
  3
CONTINUOUS
 72
    65
 73
     0
 40
0
  0
LTYPE
  2
DASHED
 70
     0
  3
DASHED
 72
    65
 73
     2
 40
0.75
 49
0.5
 49
-0.25
  0
LTYPE
  2
DOT
 70
     0
  3
DOT
 72
    65
 73
     2
 40
0.25
 49
0
 49
-0.25
  0
LTYPE
  2
CENTER
 70
     0
  3
CENTER
 72
    65
 73
     4
 40
2
 49
1.25
 49
-0.25
 49
0.25
 49
-0.25
  0
LTYPE
  2
DASHDOT
 70
     0
  3
DASHDOT
 72
    65
 73
     4
 40
1
 49
0.5
 49
-0.25
 49
0
 49
-0.25
  0
ENDTAB
  0
TABLE
  2
LAYER
 70
     5
  0
LAYER
  2
0
 70
     0
 62
     1
  6
CONTINUOUS
  0
LAYER
  2
EndPoints
 70
     0
 62
     1
  6
CONTINUOUS
  0
LAYER
  2
BEM
 70
     0
 62
     1
  6
CONTINUOUS
  0
LAYER
  2
OperationStart
 70
     0
 62
     1
  6
CONTINUOUS
  0
LAYER
  2
c-elements
 70
     0
 62
     1
  6
CONTINUOUS
  0
ENDTAB
  0
ENDSEC
  0
SECTION
  2
BLOCKS
  0
BLOCK
  2
Fig_000
 10
0
 20
0
 30
0
 70
    64
  8
0
  0
POINT
  8
0
 62
     1
  6
CONTINUOUS
 10
-1
 20
5.392
 30
0
  0
POINT
  8
0
 62
     1
  6
CONTINUOUS
 10
-2
 20
5.392
 30
0
  0
POINT
  8
EndPoints
 62
     1
  6
CONTINUOUS
 10
1
 20
5.392
 30
0
  0
POINT
  8
EndPoints
 62
     1
  6
CONTINUOUS
 10
2
 20
5.392
 30
0
  0
LINE
  8
0
 62
     2
  6
CONTINUOUS
 10
-2
 20
5.392
 30
0
 11
-2
 21
6.4468984791138
 31
0
  0
LINE
  8
0
 62
     2
  6
CONTINUOUS
 10
-2
 20
6.4468984791138
 30
0
 11
-2
 21
7.55
 31
0
  0
LINE
  8
0
 62
     2
  6
CONTINUOUS
 10
-2
 20
7.55
 30
0
 11
2
 21
7.55
 31
0
  0
LINE
  8
0
 62
     2
  6
CONTINUOUS
 10
2
 20
7.55
 30
0
 11
2
 21
6.4468984791138
 31
0
  0
LINE
  8
0
 62
     2
  6
CONTINUOUS
 10
2
 20
6.4468984791138
 30
0
 11
2
 21
5.392
 31
0
  0
ENDBLK
  0
BLOCK
  2
Fig_001
 10
0
 20
0
 30
0
 70
    64
  8
0
  0
POINT
  8
0
 62
     1
  6
CONTINUOUS
 10
-1
 20
5.392
 30
0
  0
POINT
  8
0
 62
     1
  6
CONTINUOUS
 10
-2
 20
5.392
 30
0
  0
POINT
  8
EndPoints
 62
     1
  6
CONTINUOUS
 10
1
 20
5.392
 30
0
  0
POINT
  8
EndPoints
 62
     1
  6
CONTINUOUS
 10
2
 20
5.392
 30
0
  0
LINE
  8
0
 62
     2
  6
CONTINUOUS
 10
-2
 20
5.392
 30
0
 11
-2
 21
7.55
 31
0
  0
LINE
  8
0
 62
     2
  6
CONTINUOUS
 10
-2
 20
7.55
 30
0
 11
-2
 21
9.65
 31
0
  0
LINE
  8
0
 62
     2
  6
CONTINUOUS
 10
-2
 20
9.65
 30
0
 11
2
 21
9.65
 31
0
  0
LINE
  8
0
 62
     2
  6
CONTINUOUS
 10
2
 20
9.65
 30
0
 11
2
 21
6.4468984791138
 31
0
  0
LINE
  8
0
 62
     2
  6
CONTINUOUS
 10
2
 20
6.4468984791138
 30
0
 11
2
 21
5.392
 31
0
  0
ENDBLK
  0
BLOCK
  2
OperationStart-00000
 10
0
 20
0
 30
0
 70
    64
  8
0
  0
ENDBLK
  0
BLOCK
  2
RULE-Fig_001-00003-1615576881
 10
0
 20
0
 30
0
 70
    64
  8
0
  0
LINE
  8
0
 62
     3
  6
CONTINUOUS
 10
-1
 20
5.392
 30
0
 11
-1
 21
5.392
 31
18
  0
LINE
  8
0
 62
     6
  6
CONTINUOUS
 10
-1
 20
5.392
 30
0
 11
-2
 21
5.392
 31
0
  0
LINE
  8
0
 62
     6
  6
CONTINUOUS
 10
-1
 20
5.392
 30
6
 11
-2
 21
5.392
 31
6
  0
LINE
  8
0
 62
     6
  6
CONTINUOUS
 10
-1
 20
5.392
 30
12
 11
-2
 21
5.392
 31
12
  0
LINE
  8
0
 62
     6
  6
CONTINUOUS
 10
-1
 20
5.392
 30
18
 11
-2
 21
5.392
 31
18
  0
LINE
  8
0
 62
     3
  6
CONTINUOUS
 10
-2
 20
5.392
 30
0
 11
-2
 21
5.392
 31
18
  0
LINE
  8
0
 62
     6
  6
CONTINUOUS
 10
-2
 20
5.392
 30
0
 11
-2
 21
7.55
 31
0
  0
LINE
  8
0
 62
     6
  6
CONTINUOUS
 10
-2
 20
5.392
 30
6
 11
-2
 21
7.1822994930379
 31
6
  0
LINE
  8
0
 62
     6
  6
CONTINUOUS
 10
-2
 20
5.392
 30
12
 11
-2
 21
6.8145989860759
 31
12
  0
LINE
  8
0
 62
     6
  6
CONTINUOUS
 10
-2
 20
5.392
 30
18
 11
-2
 21
6.4468984791138
 31
18
  0
LINE
  8
0
 62
     3
  6
CONTINUOUS
 10
-2
 20
7.55
 30
0
 11
-2
 21
6.4468984791138
 31
18
  0
LINE
  8
0
 62
     6
  6
CONTINUOUS
 10
-2
 20
7.55
 30
0
 11
-2
 21
9.65
 31
0
  0
LINE
  8
0
 62
     6
  6
CONTINUOUS
 10
-2
 20
7.1822994930379
 30
6
 11
-2
 21
8.95
 31
6
  0
LINE
  8
0
 62
     6
  6
CONTINUOUS
 10
-2
 20
6.8145989860759
 30
12
 11
-2
 21
8.25
 31
12
  0
LINE
  8
0
 62
     6
  6
CONTINUOUS
 10
-2
 20
6.4468984791138
 30
18
 11
-2
 21
7.55
 31
18
  0
LINE
  8
0
 62
     3
  6
CONTINUOUS
 10
-2
 20
9.65
 30
0
 11
-2
 21
7.55
 31
18
  0
LINE
  8
0
 62
     6
  6
CONTINUOUS
 10
-2
 20
9.65
 30
0
 11
2
 21
9.65
 31
0
  0
LINE
  8
0
 62
     6
  6
CONTINUOUS
 10
-2
 20
8.95
 30
6
 11
2
 21
8.95
 31
6
  0
LINE
  8
0
 62
     6
  6
CONTINUOUS
 10
-2
 20
8.25
 30
12
 11
2
 21
8.25
 31
12
  0
LINE
  8
0
 62
     6
  6
CONTINUOUS
 10
-2
 20
7.55
 30
18
 11
2
 21
7.55
 31
18
  0
LINE
  8
0
 62
     3
  6
CONTINUOUS
 10
2
 20
9.65
 30
0
 11
2
 21
7.55
 31
18
  0
LINE
  8
0
 62
     6
  6
CONTINUOUS
 10
2
 20
9.65
 30
0
 11
2
 21
6.4468984791138
 31
0
  0
LINE
  8
0
 62
     6
  6
CONTINUOUS
 10
2
 20
8.95
 30
6
 11
2
 21
6.4468984791138
 31
6
  0
LINE
  8
0
 62
     6
  6
CONTINUOUS
 10
2
 20
8.25
 30
12
 11
2
 21
6.4468984791138
 31
12
  0
LINE
  8
0
 62
     6
  6
CONTINUOUS
 10
2
 20
7.55
 30
18
 11
2
 21
6.4468984791138
 31
18
  0
LINE
  8
0
 62
     3
  6
CONTINUOUS
 10
2
 20
6.4468984791138
 30
0
 11
2
 21
6.4468984791138
 31
18
  0
LINE
  8
0
 62
     6
  6
CONTINUOUS
 10
2
 20
6.4468984791138
 30
0
 11
2
 21
5.392
 31
0
  0
LINE
  8
0
 62
     6
  6
CONTINUOUS
 10
2
 20
6.4468984791138
 30
6
 11
2
 21
5.392
 31
6
  0
LINE
  8
0
 62
     6
  6
CONTINUOUS
 10
2
 20
6.4468984791138
 30
12
 11
2
 21
5.392
 31
12
  0
LINE
  8
0
 62
     6
  6
CONTINUOUS
 10
2
 20
6.4468984791138
 30
18
 11
2
 21
5.392
 31
18
  0
LINE
  8
0
 62
     3
  6
CONTINUOUS
 10
2
 20
5.392
 30
0
 11
2
 21
5.392
 31
18
  0
LINE
  8
0
 62
     6
  6
CONTINUOUS
 10
2
 20
5.392
 30
0
 11
1
 21
5.392
 31
0
  0
LINE
  8
0
 62
     6
  6
CONTINUOUS
 10
2
 20
5.392
 30
6
 11
1
 21
5.392
 31
6
  0
LINE
  8
0
 62
     6
  6
CONTINUOUS
 10
2
 20
5.392
 30
12
 11
1
 21
5.392
 31
12
  0
LINE
  8
0
 62
     6
  6
CONTINUOUS
 10
2
 20
5.392
 30
18
 11
1
 21
5.392
 31
18
  0
LINE
  8
0
 62
     3
  6
CONTINUOUS
 10
1
 20
5.392
 30
0
 11
1
 21
5.392
 31
18
  0
ENDBLK
  0
ENDSEC
  0
SECTION
  2
ENTITIES
  0
CIRCLE
  8
0
 62
     2
  6
CONTINUOUS
 10
0
 20
0
 30
0
 40
8.15
  0
CIRCLE
  8
0
 62
     2
  6
CONTINUOUS
 10
0
 20
0
 30
0
 40
6.75
  0
TEXT
  8
BEM
 62
     1
  6
CONTINUOUS
 10
36.583
 20
5.539
 30
0
 40
5
 41
0.8
 50
90
 51
0
  1
18
  0
LINE
  8
BEM
 62
     1
  6
CONTINUOUS
 10
0
 20
11.316666666667
 30
-2.0410779985789e-016
 11
0
 21
42.583
 31
-4.033129303632e-015
  0
LINE
  8
BEM
 62
     1
  6
CONTINUOUS
 10
0
 20
9.2166666666667
 30
18
 11
0
 21
42.583
 31
18
  0
SOLID
  8
BEM
 62
     1
  6
CONTINUOUS
 10
37.583
 20
-3.4208059040583e-015
 30
0
 11
36.243
 21
4
 31
0
 12
38.923
 22
4
 32
0
 13
38.923
 23
4
 33
0
  0
LINE
  8
BEM
 62
     1
  6
CONTINUOUS
 10
37.583
 20
-3.4208059040583e-015
 30
0
 11
37.583
 21
9
 31
0
  0
SOLID
  8
BEM
 62
     1
  6
CONTINUOUS
 10
37.583
 20
18
 30
0
 11
38.923
 21
14
 31
0
 12
36.243
 22
14
 32
0
 13
36.243
 23
14
 33
0
  0
LINE
  8
BEM
 62
     1
  6
CONTINUOUS
 10
37.583
 20
18
 30
0
 11
37.583
 21
9
 31
0
  0
INSERT
  2
OperationStart-00000
  8
OperationStart
 10
0
 20
0
 30
0
 50
0
  0
INSERT
  2
Fig_000
  8
0
 10
0
 20
0
 30
18
 50
0
  0
INSERT
  2
Fig_001
  8
0
 10
0
 20
0
 30
0
 50
0
  0
TEXT
  8
BEM
 62
     1
  6
CONTINUOUS
 10
18.413
 20
-7.153
 30
0
 40
5
 41
0.8
 50
90
 51
0
  1
14.3
  0
LINE
  8
BEM
 62
     1
  6
CONTINUOUS
 10
1.6666666666667
 20
-6.75
 30
0
 11
24.413
 21
-6.75
 31
0
  0
LINE
  8
BEM
 62
     1
  6
CONTINUOUS
 10
3.6666666666667
 20
7.55
 30
0
 11
24.413
 21
7.55
 31
0
  0
SOLID
  8
BEM
 62
     1
  6
CONTINUOUS
 10
19.413
 20
-6.75
 30
0
 11
18.073
 21
-2.75
 31
0
 12
20.753
 22
-2.75
 32
0
 13
20.753
 23
-2.75
 33
0
  0
LINE
  8
BEM
 62
     1
  6
CONTINUOUS
 10
19.413
 20
-6.75
 30
0
 11
19.413
 21
0.4
 31
0
  0
SOLID
  8
BEM
 62
     1
  6
CONTINUOUS
 10
19.413
 20
7.55
 30
0
 11
20.753
 21
3.55
 31
0
 12
18.073
 22
3.55
 32
0
 13
18.073
 23
3.55
 33
0
  0
LINE
  8
BEM
 62
     1
  6
CONTINUOUS
 10
19.413
 20
7.55
 30
0
 11
19.413
 21
0.4
 31
0
  0
TEXT
  8
BEM
 62
     1
  6
CONTINUOUS
 10
20.395
 20
11.84
 30
0
 40
5
 41
0.8
 50
90
 51
0
  1
17.8
  0
LINE
  8
BEM
 62
     1
  6
CONTINUOUS
 10
1.6666666666667
 20
-8.15
 30
0
 11
26.395
 21
-8.15
 31
0
  0
LINE
  8
BEM
 62
     1
  6
CONTINUOUS
 10
3.6666666666667
 20
9.65
 30
0
 11
26.395
 21
9.65
 31
0
  0
SOLID
  8
BEM
 62
     1
  6
CONTINUOUS
 10
21.395
 20
-8.15
 30
0
 11
22.735
 21
-12.15
 31
0
 12
20.055
 22
-12.15
 32
0
 13
20.055
 23
-12.15
 33
0
  0
LINE
  8
BEM
 62
     1
  6
CONTINUOUS
 10
21.395
 20
-8.15
 30
0
 11
21.395
 21
-16.15
 31
0
  0
SOLID
  8
BEM
 62
     1
  6
CONTINUOUS
 10
21.395
 20
9.65
 30
0
 11
20.055
 21
13.65
 31
0
 12
22.735
 22
13.65
 32
0
 13
22.735
 23
13.65
 33
0
  0
LINE
  8
BEM
 62
     1
  6
CONTINUOUS
 10
21.395
 20
9.65
 30
0
 11
21.395
 21
26.506666666667
 31
0
  0
TEXT
  8
BEM
 62
     1
  6
CONTINUOUS
 10
5.107
 20
11.937
 30
0
 40
5
 41
0.8
 50
0
 51
0
  1
4
  0
LINE
  8
BEM
 62
     1
  6
CONTINUOUS
 10
-2
 20
7.0586666666667
 30
0
 11
-2
 21
15.937
 31
0
  0
LINE
  8
BEM
 62
     1
  6
CONTINUOUS
 10
2
 20
7.0586666666667
 30
0
 11
2
 21
15.937
 31
0
  0
SOLID
  8
BEM
 62
     1
  6
CONTINUOUS
 10
-2
 20
10.937
 30
0
 11
-6
 21
9.597
 31
0
 12
-6
 22
12.277
 32
0
 13
-6
 23
12.277
 33
0
  0
LINE
  8
BEM
 62
     1
  6
CONTINUOUS
 10
-2
 20
10.937
 30
0
 11
-10
 21
10.937
 31
0
  0
SOLID
  8
BEM
 62
     1
  6
CONTINUOUS
 10
2
 20
10.937
 30
0
 11
6
 21
12.277
 31
0
 12
6
 22
9.597
 32
0
 13
6
 23
9.597
 33
0
  0
LINE
  8
BEM
 62
     1
  6
CONTINUOUS
 10
2
 20
10.937
 30
0
 11
9.107
 21
10.937
 31
0
  0
INSERT
  2
RULE-Fig_001-00003-1615576881
  8
0
 10
0
 20
0
 30
0
 50
0
  0
ENDSEC
  0
EOF
