  0
SECTION
  2
HEADER
  9
$INSUNITS
 70
     4
  9
$MEASUREMENT
 70
     1
  9
$DIMALT
 70
     1
  9
$DIMALTD
 70
     3
  9
$DIMALTF
 40
0.039370078740157
  0
ENDSEC
  0
SECTION
  2
TABLES
  0
TABLE
  2
LTYPE
 70
     5
  0
LTYPE
  2
CONTINUOUS
 70
     0
  3
CONTINUOUS
 72
    65
 73
     0
 40
0
  0
LTYPE
  2
DASHED
 70
     0
  3
DASHED
 72
    65
 73
     2
 40
0.75
 49
0.5
 49
-0.25
  0
LTYPE
  2
DOT
 70
     0
  3
DOT
 72
    65
 73
     2
 40
0.25
 49
0
 49
-0.25
  0
LTYPE
  2
CENTER
 70
     0
  3
CENTER
 72
    65
 73
     4
 40
2
 49
1.25
 49
-0.25
 49
0.25
 49
-0.25
  0
LTYPE
  2
DASHDOT
 70
     0
  3
DASHDOT
 72
    65
 73
     4
 40
1
 49
0.5
 49
-0.25
 49
0
 49
-0.25
  0
ENDTAB
  0
TABLE
  2
LAYER
 70
     5
  0
LAYER
  2
0
 70
     0
 62
     1
  6
CONTINUOUS
  0
LAYER
  2
BEM
 70
     0
 62
     1
  6
CONTINUOUS
  0
LAYER
  2
EndPoints
 70
     0
 62
     1
  6
CONTINUOUS
  0
LAYER
  2
OperationStart
 70
     0
 62
     1
  6
CONTINUOUS
  0
LAYER
  2
c-elements
 70
     0
 62
     1
  6
CONTINUOUS
  0
ENDTAB
  0
ENDSEC
  0
SECTION
  2
BLOCKS
  0
BLOCK
  2
GENSEC-Fig_007-00024-1600151572
 10
0
 20
0
 30
0
 70
    64
  8
0
  0
LINE
  8
0
 62
     3
  6
CONTINUOUS
 10
323.65
 20
-24
 30
0
 11
323.65
 21
-24
 31
20
  0
LINE
  8
0
 62
     6
  6
CONTINUOUS
 10
323.65
 20
-24
 30
0
 11
323.65
 21
-25.15
 31
0
  0
LINE
  8
0
 62
     6
  6
CONTINUOUS
 10
323.65
 20
-24
 30
20
 11
323.65
 21
-25.15
 31
20
  0
LINE
  8
0
 62
     3
  6
CONTINUOUS
 10
323.65
 20
-25.15
 30
0
 11
323.65
 21
-25.15
 31
20
  0
LINE
  8
0
 62
     6
  6
CONTINUOUS
 10
323.65
 20
-25.15
 30
0
 11
320.55
 21
-25.15
 31
0
  0
LINE
  8
0
 62
     6
  6
CONTINUOUS
 10
323.65
 20
-25.15
 30
20
 11
320.55
 21
-25.15
 31
20
  0
LINE
  8
0
 62
     3
  6
CONTINUOUS
 10
320.55
 20
-25.15
 30
0
 11
320.55
 21
-25.15
 31
20
  0
LINE
  8
0
 62
     6
  6
CONTINUOUS
 10
320.55
 20
-25.15
 30
0
 11
320.50364745084
 21
-25.142658477444
 31
0
  0
LINE
  8
0
 62
     6
  6
CONTINUOUS
 10
320.55
 20
-25.15
 30
20
 11
320.50364745084
 21
-25.142658477444
 31
20
  0
LINE
  8
0
 62
     6
  6
CONTINUOUS
 10
320.50364745084
 20
-25.142658477444
 30
0
 11
320.46183221216
 21
-25.121352549156
 31
0
  0
LINE
  8
0
 62
     6
  6
CONTINUOUS
 10
320.50364745084
 20
-25.142658477444
 30
20
 11
320.46183221216
 21
-25.121352549156
 31
20
  0
LINE
  8
0
 62
     6
  6
CONTINUOUS
 10
320.46183221216
 20
-25.121352549156
 30
0
 11
320.42864745084
 21
-25.088167787844
 31
0
  0
LINE
  8
0
 62
     6
  6
CONTINUOUS
 10
320.46183221216
 20
-25.121352549156
 30
20
 11
320.42864745084
 21
-25.088167787844
 31
20
  0
LINE
  8
0
 62
     6
  6
CONTINUOUS
 10
320.42864745084
 20
-25.088167787844
 30
0
 11
320.40734152256
 21
-25.046352549156
 31
0
  0
LINE
  8
0
 62
     6
  6
CONTINUOUS
 10
320.42864745084
 20
-25.088167787844
 30
20
 11
320.40734152256
 21
-25.046352549156
 31
20
  0
LINE
  8
0
 62
     6
  6
CONTINUOUS
 10
320.40734152256
 20
-25.046352549156
 30
0
 11
320.4
 21
-25
 31
0
  0
LINE
  8
0
 62
     6
  6
CONTINUOUS
 10
320.40734152256
 20
-25.046352549156
 30
20
 11
320.4
 21
-25
 31
20
  0
LINE
  8
0
 62
     3
  6
CONTINUOUS
 10
320.4
 20
-25
 30
0
 11
320.4
 21
-25
 31
20
  0
LINE
  8
0
 62
     6
  6
CONTINUOUS
 10
320.4
 20
-25
 30
0
 11
320.4
 21
-0.15
 31
0
  0
LINE
  8
0
 62
     6
  6
CONTINUOUS
 10
320.4
 20
-25
 30
20
 11
320.4
 21
-0.15
 31
20
  0
LINE
  8
0
 62
     3
  6
CONTINUOUS
 10
320.4
 20
-0.15
 30
0
 11
320.4
 21
-0.15
 31
20
  0
LINE
  8
0
 62
     6
  6
CONTINUOUS
 10
320.4
 20
-0.15
 30
0
 11
310.9
 21
-0.15
 31
0
  0
LINE
  8
0
 62
     6
  6
CONTINUOUS
 10
320.4
 20
-0.15
 30
20
 11
310.9
 21
-0.15
 31
20
  0
LINE
  8
0
 62
     3
  6
CONTINUOUS
 10
310.9
 20
-0.15
 30
0
 11
310.9
 21
-0.15
 31
20
  0
LINE
  8
0
 62
     6
  6
CONTINUOUS
 10
310.9
 20
-0.15
 30
0
 11
310.9
 21
-25
 31
0
  0
LINE
  8
0
 62
     6
  6
CONTINUOUS
 10
310.9
 20
-0.15
 30
20
 11
310.9
 21
-25
 31
20
  0
LINE
  8
0
 62
     3
  6
CONTINUOUS
 10
310.9
 20
-25
 30
0
 11
310.9
 21
-25
 31
20
  0
LINE
  8
0
 62
     6
  6
CONTINUOUS
 10
310.9
 20
-25
 30
0
 11
310.89265847744
 21
-25.046352549156
 31
0
  0
LINE
  8
0
 62
     6
  6
CONTINUOUS
 10
310.9
 20
-25
 30
20
 11
310.89265847744
 21
-25.046352549156
 31
20
  0
LINE
  8
0
 62
     6
  6
CONTINUOUS
 10
310.89265847744
 20
-25.046352549156
 30
0
 11
310.87135254916
 21
-25.088167787844
 31
0
  0
LINE
  8
0
 62
     6
  6
CONTINUOUS
 10
310.89265847744
 20
-25.046352549156
 30
20
 11
310.87135254916
 21
-25.088167787844
 31
20
  0
LINE
  8
0
 62
     6
  6
CONTINUOUS
 10
310.87135254916
 20
-25.088167787844
 30
0
 11
310.83816778784
 21
-25.121352549156
 31
0
  0
LINE
  8
0
 62
     6
  6
CONTINUOUS
 10
310.87135254916
 20
-25.088167787844
 30
20
 11
310.83816778784
 21
-25.121352549156
 31
20
  0
LINE
  8
0
 62
     6
  6
CONTINUOUS
 10
310.83816778784
 20
-25.121352549156
 30
0
 11
310.79635254916
 21
-25.142658477444
 31
0
  0
LINE
  8
0
 62
     6
  6
CONTINUOUS
 10
310.83816778784
 20
-25.121352549156
 30
20
 11
310.79635254916
 21
-25.142658477444
 31
20
  0
LINE
  8
0
 62
     6
  6
CONTINUOUS
 10
310.79635254916
 20
-25.142658477444
 30
0
 11
310.75
 21
-25.15
 31
0
  0
LINE
  8
0
 62
     6
  6
CONTINUOUS
 10
310.79635254916
 20
-25.142658477444
 30
20
 11
310.75
 21
-25.15
 31
20
  0
LINE
  8
0
 62
     3
  6
CONTINUOUS
 10
310.75
 20
-25.15
 30
0
 11
310.75
 21
-25.15
 31
20
  0
LINE
  8
0
 62
     6
  6
CONTINUOUS
 10
310.75
 20
-25.15
 30
0
 11
307.65
 21
-25.15
 31
0
  0
LINE
  8
0
 62
     6
  6
CONTINUOUS
 10
310.75
 20
-25.15
 30
20
 11
307.65
 21
-25.15
 31
20
  0
LINE
  8
0
 62
     3
  6
CONTINUOUS
 10
307.65
 20
-25.15
 30
0
 11
307.65
 21
-25.15
 31
20
  0
LINE
  8
0
 62
     6
  6
CONTINUOUS
 10
307.65
 20
-25.15
 30
0
 11
307.65
 21
-24
 31
0
  0
LINE
  8
0
 62
     6
  6
CONTINUOUS
 10
307.65
 20
-25.15
 30
20
 11
307.65
 21
-24
 31
20
  0
LINE
  8
0
 62
     3
  6
CONTINUOUS
 10
307.65
 20
-24
 30
0
 11
307.65
 21
-24
 31
20
  0
ENDBLK
  0
BLOCK
  2
Fig_000
 10
0
 20
0
 30
0
 70
    64
  8
0
  0
POINT
  8
0
 62
     1
  6
CONTINUOUS
 10
61
 20
-24
 30
0
  0
POINT
  8
0
 62
     1
  6
CONTINUOUS
 10
61
 20
-25
 30
0
  0
POINT
  8
EndPoints
 62
     1
  6
CONTINUOUS
 10
39
 20
-24
 30
0
  0
POINT
  8
EndPoints
 62
     1
  6
CONTINUOUS
 10
39
 20
-25
 30
0
  0
LINE
  8
0
 62
     2
  6
CONTINUOUS
 10
61
 20
-25
 30
0
 11
49.65
 21
-25
 31
0
  0
LINE
  8
0
 62
     2
  6
CONTINUOUS
 10
49.65
 20
-25
 30
0
 11
49.65
 21
0.5
 31
0
  0
LINE
  8
0
 62
     2
  6
CONTINUOUS
 10
49.65
 20
0.5
 30
0
 11
41.65
 21
0.5
 31
0
  0
LINE
  8
0
 62
     2
  6
CONTINUOUS
 10
41.65
 20
0.5
 30
0
 11
41.65
 21
-25
 31
0
  0
LINE
  8
0
 62
     2
  6
CONTINUOUS
 10
41.65
 20
-25
 30
0
 11
39
 21
-25
 31
0
  0
ENDBLK
  0
BLOCK
  2
OperationStart-00001
 10
0
 20
0
 30
0
 70
    64
  8
0
  0
ENDBLK
  0
BLOCK
  2
Fig_001
 10
0
 20
0
 30
0
 70
    64
  8
0
  0
POINT
  8
0
 62
     1
  6
CONTINUOUS
 10
285.65
 20
-24
 30
0
  0
POINT
  8
0
 62
     1
  6
CONTINUOUS
 10
285.65
 20
-25.15
 30
0
  0
POINT
  8
EndPoints
 62
     1
  6
CONTINUOUS
 10
245.65
 20
-24
 30
0
  0
POINT
  8
EndPoints
 62
     1
  6
CONTINUOUS
 10
245.65
 20
-25.15
 30
0
  0
LINE
  8
0
 62
     2
  6
CONTINUOUS
 10
245.65
 20
-25.15
 30
0
 11
256.65
 21
-25.15
 31
0
  0
ARC
  8
0
 62
     2
  6
CONTINUOUS
 10
256.65
 20
-25
 30
0
 40
0.14999999999998
 50
-90
 51
5.4281466563652e-012
  0
LINE
  8
0
 62
     2
  6
CONTINUOUS
 10
256.8
 20
-25
 30
0
 11
256.8
 21
-1.15
 31
0
  0
LINE
  8
0
 62
     2
  6
CONTINUOUS
 10
256.8
 20
-1.15
 30
0
 11
274.5
 21
-1.15
 31
0
  0
LINE
  8
0
 62
     2
  6
CONTINUOUS
 10
274.5
 20
-1.15
 30
0
 11
274.5
 21
-25
 31
0
  0
ARC
  8
0
 62
     2
  6
CONTINUOUS
 10
274.65
 20
-25
 30
0
 40
0.14999999999998
 50
180
 51
-90
  0
LINE
  8
0
 62
     2
  6
CONTINUOUS
 10
274.65
 20
-25.15
 30
0
 11
285.65
 21
-25.15
 31
0
  0
ENDBLK
  0
BLOCK
  2
Fig_002
 10
0
 20
0
 30
0
 70
    64
  8
0
  0
POINT
  8
0
 62
     1
  6
CONTINUOUS
 10
103.15
 20
-24
 30
0
  0
POINT
  8
0
 62
     1
  6
CONTINUOUS
 10
103.15
 20
-25.15
 30
0
  0
POINT
  8
EndPoints
 62
     1
  6
CONTINUOUS
 10
88.15
 20
-24
 30
0
  0
POINT
  8
EndPoints
 62
     1
  6
CONTINUOUS
 10
88.15
 20
-25.15
 30
0
  0
LINE
  8
0
 62
     2
  6
CONTINUOUS
 10
88.15
 20
-25.15
 30
0
 11
91.65
 21
-25.15
 31
0
  0
ARC
  8
0
 62
     2
  6
CONTINUOUS
 10
91.65
 20
-25
 30
0
 40
0.15000000000001
 50
-90.000000000005
 51
-2.7140733281824e-012
  0
LINE
  8
0
 62
     2
  6
CONTINUOUS
 10
91.8
 20
-25
 30
0
 11
91.8
 21
-0.15
 31
0
  0
LINE
  8
0
 62
     2
  6
CONTINUOUS
 10
91.8
 20
-0.15
 30
0
 11
99.5
 21
-0.15
 31
0
  0
LINE
  8
0
 62
     2
  6
CONTINUOUS
 10
99.5
 20
-0.15
 30
0
 11
99.5
 21
-25
 31
0
  0
ARC
  8
0
 62
     2
  6
CONTINUOUS
 10
99.65
 20
-25
 30
0
 40
0.15000000000002
 50
180
 51
-90.000000000005
  0
LINE
  8
0
 62
     2
  6
CONTINUOUS
 10
99.65
 20
-25.15
 30
0
 11
103.15
 21
-25.15
 31
0
  0
ENDBLK
  0
BLOCK
  2
OperationStart-00000
 10
0
 20
0
 30
0
 70
    64
  8
0
  0
ENDBLK
  0
BLOCK
  2
Fig_003_000
 10
0
 20
0
 30
0
 70
    64
  8
0
  0
LINE
  8
0
 62
     2
  6
CONTINUOUS
 10
-18.5
 20
-25.15
 30
0
 11
-14
 21
-25.15
 31
0
  0
ARC
  8
0
 62
     2
  6
CONTINUOUS
 10
-14
 20
-25
 30
0
 40
0.15
 50
-90
 51
0
  0
LINE
  8
0
 62
     2
  6
CONTINUOUS
 10
-13.85
 20
-25
 30
0
 11
-13.85
 21
-0.15
 31
0
  0
LINE
  8
0
 62
     2
  6
CONTINUOUS
 10
-13.85
 20
-0.15
 30
0
 11
13.85
 21
-0.15
 31
0
  0
LINE
  8
0
 62
     2
  6
CONTINUOUS
 10
13.85
 20
-0.15
 30
0
 11
13.85
 21
-25
 31
0
  0
ARC
  8
0
 62
     2
  6
CONTINUOUS
 10
14
 20
-25
 30
0
 40
0.15
 50
180
 51
-90
  0
LINE
  8
0
 62
     2
  6
CONTINUOUS
 10
14
 20
-25.15
 30
0
 11
18.5
 21
-25.15
 31
0
  0
POINT
  8
0
 62
     1
  6
CONTINUOUS
 10
18.5
 20
-24
 30
0
  0
ENDBLK
  0
BLOCK
  2
Fig_003
 10
0
 20
0
 30
0
 70
    64
  8
0
  0
POINT
  8
0
 62
     1
  6
CONTINUOUS
 10
149.65
 20
-24
 30
0
  0
POINT
  8
0
 62
     1
  6
CONTINUOUS
 10
149.65
 20
-25.15
 30
0
  0
POINT
  8
EndPoints
 62
     1
  6
CONTINUOUS
 10
141.65
 20
-24
 30
0
  0
POINT
  8
EndPoints
 62
     1
  6
CONTINUOUS
 10
141.65
 20
-25.15
 30
0
  0
LINE
  8
0
 62
     2
  6
CONTINUOUS
 10
141.65
 20
-25.15
 30
0
 11
143.25
 21
-25.15
 31
0
  0
ARC
  8
0
 62
     2
  6
CONTINUOUS
 10
143.25
 20
-25
 30
0
 40
0.14999999999998
 50
-90.000000000011
 51
5.4281466563652e-012
  0
LINE
  8
0
 62
     2
  6
CONTINUOUS
 10
143.4
 20
-25
 30
0
 11
143.4
 21
0.35
 31
0
  0
LINE
  8
0
 62
     2
  6
CONTINUOUS
 10
143.4
 20
0.35
 30
0
 11
147.9
 21
0.35
 31
0
  0
LINE
  8
0
 62
     2
  6
CONTINUOUS
 10
147.9
 20
0.35
 30
0
 11
147.9
 21
-25
 31
0
  0
ARC
  8
0
 62
     2
  6
CONTINUOUS
 10
148.05
 20
-25
 30
0
 40
0.15000000000003
 50
179.99999999999
 51
-90.000000000011
  0
LINE
  8
0
 62
     2
  6
CONTINUOUS
 10
148.05
 20
-25.15
 30
0
 11
149.65
 21
-25.15
 31
0
  0
ENDBLK
  0
BLOCK
  2
OperationStart-00002
 10
0
 20
0
 30
0
 70
    64
  8
0
  0
ENDBLK
  0
BLOCK
  2
Fig_006
 10
0
 20
0
 30
0
 70
    64
  8
0
  0
POINT
  8
0
 62
     1
  6
CONTINUOUS
 10
412.45
 20
-24
 30
0
  0
POINT
  8
0
 62
     1
  6
CONTINUOUS
 10
412.45
 20
-25.15
 30
0
  0
POINT
  8
EndPoints
 62
     1
  6
CONTINUOUS
 10
398.85
 20
-24
 30
0
  0
POINT
  8
EndPoints
 62
     1
  6
CONTINUOUS
 10
398.85
 20
-25.15
 30
0
  0
LINE
  8
0
 62
     2
  6
CONTINUOUS
 10
412.45
 20
-25.15
 30
0
 11
410.45
 21
-25.15
 31
0
  0
ARC
  8
0
 62
     2
  6
CONTINUOUS
 10
410.45
 20
-25
 30
0
 40
0.14999999999992
 50
-179.99999999999
 51
-89.999999999978
  0
LINE
  8
0
 62
     2
  6
CONTINUOUS
 10
410.3
 20
-25
 30
0
 11
410.3
 21
0.35
 31
0
  0
LINE
  8
0
 62
     2
  6
CONTINUOUS
 10
410.3
 20
0.35
 30
0
 11
401
 21
0.35
 31
0
  0
LINE
  8
0
 62
     2
  6
CONTINUOUS
 10
401
 20
0.35
 30
0
 11
401
 21
-25
 31
0
  0
ARC
  8
0
 62
     2
  6
CONTINUOUS
 10
400.85
 20
-25
 30
0
 40
0.15000000000003
 50
-89.999999999978
 51
-1.0856293312726e-011
  0
LINE
  8
0
 62
     2
  6
CONTINUOUS
 10
400.85
 20
-25.15
 30
0
 11
398.85
 21
-25.15
 31
0
  0
ENDBLK
  0
BLOCK
  2
OperationStart-00003
 10
0
 20
0
 30
0
 70
    64
  8
0
  0
ENDBLK
  0
BLOCK
  2
GENSEC-Fig_006-00036-1600238389
 10
0
 20
0
 30
0
 70
    64
  8
0
  0
LINE
  8
0
 62
     3
  6
CONTINUOUS
 10
412.45
 20
-24
 30
0
 11
412.45
 21
-24
 31
20
  0
LINE
  8
0
 62
     6
  6
CONTINUOUS
 10
412.45
 20
-24
 30
0
 11
412.45
 21
-25.15
 31
0
  0
LINE
  8
0
 62
     6
  6
CONTINUOUS
 10
412.45
 20
-24
 30
20
 11
412.45
 21
-25.15
 31
20
  0
LINE
  8
0
 62
     3
  6
CONTINUOUS
 10
412.45
 20
-25.15
 30
0
 11
412.45
 21
-25.15
 31
20
  0
LINE
  8
0
 62
     6
  6
CONTINUOUS
 10
412.45
 20
-25.15
 30
0
 11
410.45
 21
-25.15
 31
0
  0
LINE
  8
0
 62
     6
  6
CONTINUOUS
 10
412.45
 20
-25.15
 30
20
 11
410.45
 21
-25.15
 31
20
  0
LINE
  8
0
 62
     3
  6
CONTINUOUS
 10
410.45
 20
-25.15
 30
0
 11
410.45
 21
-25.15
 31
20
  0
LINE
  8
0
 62
     6
  6
CONTINUOUS
 10
410.45
 20
-25.15
 30
0
 11
410.40364745084
 21
-25.142658477444
 31
0
  0
LINE
  8
0
 62
     6
  6
CONTINUOUS
 10
410.45
 20
-25.15
 30
20
 11
410.40364745084
 21
-25.142658477444
 31
20
  0
LINE
  8
0
 62
     6
  6
CONTINUOUS
 10
410.40364745084
 20
-25.142658477444
 30
0
 11
410.36183221216
 21
-25.121352549156
 31
0
  0
LINE
  8
0
 62
     6
  6
CONTINUOUS
 10
410.40364745084
 20
-25.142658477444
 30
20
 11
410.36183221216
 21
-25.121352549156
 31
20
  0
LINE
  8
0
 62
     6
  6
CONTINUOUS
 10
410.36183221216
 20
-25.121352549156
 30
0
 11
410.32864745084
 21
-25.088167787844
 31
0
  0
LINE
  8
0
 62
     6
  6
CONTINUOUS
 10
410.36183221216
 20
-25.121352549156
 30
20
 11
410.32864745084
 21
-25.088167787844
 31
20
  0
LINE
  8
0
 62
     6
  6
CONTINUOUS
 10
410.32864745084
 20
-25.088167787844
 30
0
 11
410.30734152256
 21
-25.046352549156
 31
0
  0
LINE
  8
0
 62
     6
  6
CONTINUOUS
 10
410.32864745084
 20
-25.088167787844
 30
20
 11
410.30734152256
 21
-25.046352549156
 31
20
  0
LINE
  8
0
 62
     6
  6
CONTINUOUS
 10
410.30734152256
 20
-25.046352549156
 30
0
 11
410.3
 21
-25
 31
0
  0
LINE
  8
0
 62
     6
  6
CONTINUOUS
 10
410.30734152256
 20
-25.046352549156
 30
20
 11
410.3
 21
-25
 31
20
  0
LINE
  8
0
 62
     3
  6
CONTINUOUS
 10
410.3
 20
-25
 30
0
 11
410.3
 21
-25
 31
20
  0
LINE
  8
0
 62
     6
  6
CONTINUOUS
 10
410.3
 20
-25
 30
0
 11
410.3
 21
0.35
 31
0
  0
LINE
  8
0
 62
     6
  6
CONTINUOUS
 10
410.3
 20
-25
 30
20
 11
410.3
 21
0.35
 31
20
  0
LINE
  8
0
 62
     3
  6
CONTINUOUS
 10
410.3
 20
0.35
 30
0
 11
410.3
 21
0.35
 31
20
  0
LINE
  8
0
 62
     6
  6
CONTINUOUS
 10
410.3
 20
0.35
 30
0
 11
401
 21
0.35
 31
0
  0
LINE
  8
0
 62
     6
  6
CONTINUOUS
 10
410.3
 20
0.35
 30
20
 11
401
 21
0.35
 31
20
  0
LINE
  8
0
 62
     3
  6
CONTINUOUS
 10
401
 20
0.35
 30
0
 11
401
 21
0.35
 31
20
  0
LINE
  8
0
 62
     6
  6
CONTINUOUS
 10
401
 20
0.35
 30
0
 11
401
 21
-25
 31
0
  0
LINE
  8
0
 62
     6
  6
CONTINUOUS
 10
401
 20
0.35
 30
20
 11
401
 21
-25
 31
20
  0
LINE
  8
0
 62
     3
  6
CONTINUOUS
 10
401
 20
-25
 30
0
 11
401
 21
-25
 31
20
  0
LINE
  8
0
 62
     6
  6
CONTINUOUS
 10
401
 20
-25
 30
0
 11
400.99265847744
 21
-25.046352549156
 31
0
  0
LINE
  8
0
 62
     6
  6
CONTINUOUS
 10
401
 20
-25
 30
20
 11
400.99265847744
 21
-25.046352549156
 31
20
  0
LINE
  8
0
 62
     6
  6
CONTINUOUS
 10
400.99265847744
 20
-25.046352549156
 30
0
 11
400.97135254916
 21
-25.088167787844
 31
0
  0
LINE
  8
0
 62
     6
  6
CONTINUOUS
 10
400.99265847744
 20
-25.046352549156
 30
20
 11
400.97135254916
 21
-25.088167787844
 31
20
  0
LINE
  8
0
 62
     6
  6
CONTINUOUS
 10
400.97135254916
 20
-25.088167787844
 30
0
 11
400.93816778784
 21
-25.121352549156
 31
0
  0
LINE
  8
0
 62
     6
  6
CONTINUOUS
 10
400.97135254916
 20
-25.088167787844
 30
20
 11
400.93816778784
 21
-25.121352549156
 31
20
  0
LINE
  8
0
 62
     6
  6
CONTINUOUS
 10
400.93816778784
 20
-25.121352549156
 30
0
 11
400.89635254916
 21
-25.142658477444
 31
0
  0
LINE
  8
0
 62
     6
  6
CONTINUOUS
 10
400.93816778784
 20
-25.121352549156
 30
20
 11
400.89635254916
 21
-25.142658477444
 31
20
  0
LINE
  8
0
 62
     6
  6
CONTINUOUS
 10
400.89635254916
 20
-25.142658477444
 30
0
 11
400.85
 21
-25.15
 31
0
  0
LINE
  8
0
 62
     6
  6
CONTINUOUS
 10
400.89635254916
 20
-25.142658477444
 30
20
 11
400.85
 21
-25.15
 31
20
  0
LINE
  8
0
 62
     3
  6
CONTINUOUS
 10
400.85
 20
-25.15
 30
0
 11
400.85
 21
-25.15
 31
20
  0
LINE
  8
0
 62
     6
  6
CONTINUOUS
 10
400.85
 20
-25.15
 30
0
 11
398.85
 21
-25.15
 31
0
  0
LINE
  8
0
 62
     6
  6
CONTINUOUS
 10
400.85
 20
-25.15
 30
20
 11
398.85
 21
-25.15
 31
20
  0
LINE
  8
0
 62
     3
  6
CONTINUOUS
 10
398.85
 20
-25.15
 30
0
 11
398.85
 21
-25.15
 31
20
  0
LINE
  8
0
 62
     6
  6
CONTINUOUS
 10
398.85
 20
-25.15
 30
0
 11
398.85
 21
-24
 31
0
  0
LINE
  8
0
 62
     6
  6
CONTINUOUS
 10
398.85
 20
-25.15
 30
20
 11
398.85
 21
-24
 31
20
  0
LINE
  8
0
 62
     3
  6
CONTINUOUS
 10
398.85
 20
-24
 30
0
 11
398.85
 21
-24
 31
20
  0
ENDBLK
  0
BLOCK
  2
Fig_004
 10
0
 20
0
 30
0
 70
    64
  8
0
  0
POINT
  8
0
 62
     1
  6
CONTINUOUS
 10
238.15
 20
-24
 30
0
  0
POINT
  8
0
 62
     1
  6
CONTINUOUS
 10
238.15
 20
-25.15
 30
0
  0
POINT
  8
EndPoints
 62
     1
  6
CONTINUOUS
 10
193.15
 20
-24
 30
0
  0
POINT
  8
EndPoints
 62
     1
  6
CONTINUOUS
 10
193.15
 20
-25.15
 30
0
  0
LINE
  8
0
 62
     2
  6
CONTINUOUS
 10
238.15
 20
-25.15
 30
0
 11
227.15
 21
-25.15
 31
0
  0
ARC
  8
0
 62
     2
  6
CONTINUOUS
 10
227.15
 20
-25
 30
0
 40
0.15000000000003
 50
180
 51
-90.000000000011
  0
LINE
  8
0
 62
     2
  6
CONTINUOUS
 10
227
 20
-25
 30
0
 11
227
 21
-0.15
 31
0
  0
LINE
  8
0
 62
     2
  6
CONTINUOUS
 10
227
 20
-0.15
 30
0
 11
204.3
 21
-0.15
 31
0
  0
LINE
  8
0
 62
     2
  6
CONTINUOUS
 10
204.3
 20
-0.15
 30
0
 11
204.3
 21
-25
 31
0
  0
ARC
  8
0
 62
     2
  6
CONTINUOUS
 10
204.15
 20
-25
 30
0
 40
0.14999999999998
 50
-90.000000000011
 51
5.4281466563652e-012
  0
LINE
  8
0
 62
     2
  6
CONTINUOUS
 10
204.15
 20
-25.15
 30
0
 11
193.15
 21
-25.15
 31
0
  0
ENDBLK
  0
BLOCK
  2
OperationStart-00007
 10
0
 20
0
 30
0
 70
    64
  8
0
  0
ENDBLK
  0
BLOCK
  2
OperationStart-00004
 10
0
 20
0
 30
0
 70
    64
  8
0
  0
ENDBLK
  0
BLOCK
  2
OperationStart-00005
 10
0
 20
0
 30
0
 70
    64
  8
0
  0
ENDBLK
  0
BLOCK
  2
Fig_007
 10
0
 20
0
 30
0
 70
    64
  8
0
  0
POINT
  8
0
 62
     1
  6
CONTINUOUS
 10
323.65
 20
-24
 30
0
  0
POINT
  8
0
 62
     1
  6
CONTINUOUS
 10
323.65
 20
-25.15
 30
0
  0
POINT
  8
EndPoints
 62
     1
  6
CONTINUOUS
 10
307.65
 20
-24
 30
0
  0
POINT
  8
EndPoints
 62
     1
  6
CONTINUOUS
 10
307.65
 20
-25.15
 30
0
  0
LINE
  8
0
 62
     2
  6
CONTINUOUS
 10
323.65
 20
-25.15
 30
0
 11
320.55
 21
-25.15
 31
0
  0
ARC
  8
0
 62
     2
  6
CONTINUOUS
 10
320.55
 20
-25
 30
0
 40
0.14999999999998
 50
179.99999999999
 51
-90
  0
LINE
  8
0
 62
     2
  6
CONTINUOUS
 10
320.4
 20
-25
 30
0
 11
320.4
 21
-0.15
 31
0
  0
LINE
  8
0
 62
     2
  6
CONTINUOUS
 10
320.4
 20
-0.15
 30
0
 11
310.9
 21
-0.15
 31
0
  0
LINE
  8
0
 62
     2
  6
CONTINUOUS
 10
310.9
 20
-0.15
 30
0
 11
310.9
 21
-25
 31
0
  0
ARC
  8
0
 62
     2
  6
CONTINUOUS
 10
310.75
 20
-25
 30
0
 40
0.14999999999997
 50
-90
 51
1.085629331273e-011
  0
LINE
  8
0
 62
     2
  6
CONTINUOUS
 10
310.75
 20
-25.15
 30
0
 11
307.65
 21
-25.15
 31
0
  0
ENDBLK
  0
BLOCK
  2
Fig_008
 10
0
 20
0
 30
0
 70
    64
  8
0
  0
POINT
  8
0
 62
     1
  6
CONTINUOUS
 10
377.65
 20
-24
 30
0
  0
POINT
  8
0
 62
     1
  6
CONTINUOUS
 10
377.65
 20
-25.15
 30
0
  0
POINT
  8
EndPoints
 62
     1
  6
CONTINUOUS
 10
353.65
 20
-24
 30
0
  0
POINT
  8
EndPoints
 62
     1
  6
CONTINUOUS
 10
353.65
 20
-25.15
 30
0
  0
LINE
  8
0
 62
     2
  6
CONTINUOUS
 10
353.65
 20
-25.15
 30
0
 11
361.65
 21
-25.15
 31
0
  0
ARC
  8
0
 62
     2
  6
CONTINUOUS
 10
361.65
 20
-25
 30
0
 40
0.14999999999997
 50
-90
 51
1.085629331273e-011
  0
LINE
  8
0
 62
     2
  6
CONTINUOUS
 10
361.8
 20
-25
 30
0
 11
361.8
 21
0.35
 31
0
  0
LINE
  8
0
 62
     2
  6
CONTINUOUS
 10
361.8
 20
0.35
 30
0
 11
369.5
 21
0.35
 31
0
  0
LINE
  8
0
 62
     2
  6
CONTINUOUS
 10
369.5
 20
0.35
 30
0
 11
369.5
 21
-25
 31
0
  0
ARC
  8
0
 62
     2
  6
CONTINUOUS
 10
369.65
 20
-25
 30
0
 40
0.14999999999998
 50
180
 51
-90
  0
LINE
  8
0
 62
     2
  6
CONTINUOUS
 10
369.65
 20
-25.15
 30
0
 11
377.65
 21
-25.15
 31
0
  0
ENDBLK
  0
BLOCK
  2
OperationStart-00006
 10
0
 20
0
 30
0
 70
    64
  8
0
  0
ENDBLK
  0
ENDSEC
  0
SECTION
  2
ENTITIES
  0
INSERT
  2
OperationStart-00000
  8
OperationStart
 10
0
 20
0
 30
0
 50
0
  0
POINT
  8
0
 62
     1
  6
CONTINUOUS
 10
18.5
 20
-24
 30
0
  0
POINT
  8
0
 62
     1
  6
CONTINUOUS
 10
18.5
 20
-25
 30
0
  0
POINT
  8
EndPoints
 62
     1
  6
CONTINUOUS
 10
-18.5
 20
-24
 30
0
  0
POINT
  8
EndPoints
 62
     1
  6
CONTINUOUS
 10
-18.5
 20
-25
 30
0
  0
LINE
  8
0
 62
     2
  6
CONTINUOUS
 10
-18.5
 20
-25
 30
0
 11
-14
 21
-25
 31
0
  0
LINE
  8
0
 62
     2
  6
CONTINUOUS
 10
-14
 20
-25
 30
0
 11
-14
 21
0
 31
0
  0
LINE
  8
0
 62
     2
  6
CONTINUOUS
 10
-14
 20
0
 30
0
 11
14
 21
0
 31
0
  0
LINE
  8
0
 62
     2
  6
CONTINUOUS
 10
14
 20
0
 30
0
 11
14
 21
-25
 31
0
  0
LINE
  8
0
 62
     2
  6
CONTINUOUS
 10
14
 20
-25
 30
0
 11
18.5
 21
-25
 31
0
  0
INSERT
  2
Fig_003_000
  8
0
 10
0
 20
0
 30
0
 50
0
  0
TEXT
  8
BEM
 62
     1
  6
CONTINUOUS
 10
24.291
 20
18.97
 30
0
 40
5
 41
0.8
 50
0
 51
0
  1
10.3
  0
LINE
  8
BEM
 62
     1
  6
CONTINUOUS
 10
40.5
 20
2.1666666666667
 30
0
 11
40.5
 21
22.97
 31
0
  0
LINE
  8
BEM
 62
     1
  6
CONTINUOUS
 10
50.8
 20
2.1666666666667
 30
0
 11
50.8
 21
22.97
 31
0
  0
SOLID
  8
BEM
 62
     1
  6
CONTINUOUS
 10
40.5
 20
17.97
 30
0
 11
36.5
 21
16.63
 31
0
 12
36.5
 22
19.31
 32
0
 13
36.5
 23
19.31
 33
0
  0
LINE
  8
BEM
 62
     1
  6
CONTINUOUS
 10
40.5
 20
17.97
 30
0
 11
24.291
 21
17.97
 31
0
  0
SOLID
  8
BEM
 62
     1
  6
CONTINUOUS
 10
50.8
 20
17.97
 30
0
 11
54.8
 21
19.31
 31
0
 12
54.8
 22
16.63
 32
0
 13
54.8
 23
16.63
 33
0
  0
LINE
  8
BEM
 62
     1
  6
CONTINUOUS
 10
50.8
 20
17.97
 30
0
 11
58.8
 21
17.97
 31
0
  0
TEXT
  8
BEM
 62
     1
  6
CONTINUOUS
 10
46.271
 20
8.222
 30
0
 40
5
 41
0.8
 50
0
 51
0
  1
8
  0
LINE
  8
BEM
 62
     1
  6
CONTINUOUS
 10
41.65
 20
2.1666666666667
 30
0
 11
41.65
 21
12.222
 31
0
  0
LINE
  8
BEM
 62
     1
  6
CONTINUOUS
 10
49.65
 20
2.1666666666667
 30
0
 11
49.65
 21
12.222
 31
0
  0
SOLID
  8
BEM
 62
     1
  6
CONTINUOUS
 10
41.65
 20
7.222
 30
0
 11
45.65
 21
8.562
 31
0
 12
45.65
 22
5.882
 32
0
 13
45.65
 23
5.882
 33
0
  0
LINE
  8
BEM
 62
     1
  6
CONTINUOUS
 10
41.65
 20
7.222
 30
0
 11
45.65
 21
7.222
 31
0
  0
SOLID
  8
BEM
 62
     1
  6
CONTINUOUS
 10
49.65
 20
7.222
 30
0
 11
45.65
 21
5.882
 31
0
 12
45.65
 22
8.562
 32
0
 13
45.65
 23
8.562
 33
0
  0
LINE
  8
BEM
 62
     1
  6
CONTINUOUS
 10
49.65
 20
7.222
 30
0
 11
45.65
 21
7.222
 31
0
  0
TEXT
  8
BEM
 62
     1
  6
CONTINUOUS
 10
51.589
 20
21.945
 30
0
 40
5
 41
0.8
 50
0
 51
0
  1
19
  0
LINE
  8
BEM
 62
     1
  6
CONTINUOUS
 10
40.5
 20
2.1666666666667
 30
0
 11
40.5
 21
25.945
 31
0
  0
LINE
  8
BEM
 62
     1
  6
CONTINUOUS
 10
59.5
 20
2.1666666666667
 30
0
 11
59.5
 21
25.945
 31
0
  0
SOLID
  8
BEM
 62
     1
  6
CONTINUOUS
 10
40.5
 20
20.945
 30
0
 11
44.5
 21
22.285
 31
0
 12
44.5
 22
19.605
 32
0
 13
44.5
 23
19.605
 33
0
  0
LINE
  8
BEM
 62
     1
  6
CONTINUOUS
 10
40.5
 20
20.945
 30
0
 11
50
 21
20.945
 31
0
  0
SOLID
  8
BEM
 62
     1
  6
CONTINUOUS
 10
59.5
 20
20.945
 30
0
 11
55.5
 21
19.605
 31
0
 12
55.5
 22
22.285
 32
0
 13
55.5
 23
22.285
 33
0
  0
LINE
  8
BEM
 62
     1
  6
CONTINUOUS
 10
59.5
 20
20.945
 30
0
 11
50
 21
20.945
 31
0
  0
LINE
  8
0
 62
     2
  6
CONTINUOUS
 10
61
 20
-24.85
 30
0
 11
49.8
 21
-24.85
 31
0
  0
LINE
  8
0
 62
     2
  6
CONTINUOUS
 10
49.8
 20
-24.85
 30
0
 11
49.8
 21
0.5
 31
0
  0
ARC
  8
0
 62
     2
  6
CONTINUOUS
 10
49.65
 20
0.5
 30
0
 40
0.15
 50
0
 51
90
  0
LINE
  8
0
 62
     2
  6
CONTINUOUS
 10
49.65
 20
0.65
 30
0
 11
41.65
 21
0.65
 31
0
  0
ARC
  8
0
 62
     2
  6
CONTINUOUS
 10
41.65
 20
0.5
 30
0
 40
0.15
 50
90
 51
180
  0
LINE
  8
0
 62
     2
  6
CONTINUOUS
 10
41.5
 20
0.5
 30
0
 11
41.5
 21
-24.85
 31
0
  0
LINE
  8
0
 62
     2
  6
CONTINUOUS
 10
41.5
 20
-24.85
 30
0
 11
39
 21
-24.85
 31
0
  0
POINT
  8
0
 62
     1
  6
CONTINUOUS
 10
61
 20
-24
 30
0
  0
INSERT
  2
Fig_000
  8
0
 10
0
 20
0
 30
0
 50
0
  0
TEXT
  8
BEM
 62
     1
  6
CONTINUOUS
 10
26.633
 20
4.35
 30
0
 40
5
 41
0.8
 50
0
 51
0
  1
9.5
  0
LINE
  8
BEM
 62
     1
  6
CONTINUOUS
 10
40.5
 20
2.1666666666667
 30
0
 11
40.5
 21
8.35
 31
0
  0
LINE
  8
BEM
 62
     1
  6
CONTINUOUS
 10
50
 20
2.1666666666667
 30
0
 11
50
 21
8.35
 31
0
  0
SOLID
  8
BEM
 62
     1
  6
CONTINUOUS
 10
40.5
 20
3.35
 30
0
 11
36.5
 21
2.01
 31
0
 12
36.5
 22
4.69
 32
0
 13
36.5
 23
4.69
 33
0
  0
LINE
  8
BEM
 62
     1
  6
CONTINUOUS
 10
40.5
 20
3.35
 30
0
 11
26.633
 21
3.35
 31
0
  0
SOLID
  8
BEM
 62
     1
  6
CONTINUOUS
 10
50
 20
3.35
 30
0
 11
54
 21
4.69
 31
0
 12
54
 22
2.01
 32
0
 13
54
 23
2.01
 33
0
  0
LINE
  8
BEM
 62
     1
  6
CONTINUOUS
 10
50
 20
3.35
 30
0
 11
58
 21
3.35
 31
0
  0
TEXT
  8
BEM
 62
     1
  6
CONTINUOUS
 10
69.389
 20
7.898
 30
0
 40
5
 41
0.8
 50
0
 51
0
  1
9.5
  0
LINE
  8
BEM
 62
     1
  6
CONTINUOUS
 10
50
 20
2.1666666666667
 30
0
 11
50
 21
11.898
 31
0
  0
LINE
  8
BEM
 62
     1
  6
CONTINUOUS
 10
59.5
 20
2.1666666666667
 30
0
 11
59.5
 21
11.898
 31
0
  0
SOLID
  8
BEM
 62
     1
  6
CONTINUOUS
 10
50
 20
6.898
 30
0
 11
46
 21
5.558
 31
0
 12
46
 22
8.238
 32
0
 13
46
 23
8.238
 33
0
  0
LINE
  8
BEM
 62
     1
  6
CONTINUOUS
 10
50
 20
6.898
 30
0
 11
42
 21
6.898
 31
0
  0
SOLID
  8
BEM
 62
     1
  6
CONTINUOUS
 10
59.5
 20
6.898
 30
0
 11
63.5
 21
8.238
 31
0
 12
63.5
 22
5.558
 32
0
 13
63.5
 23
5.558
 33
0
  0
LINE
  8
BEM
 62
     1
  6
CONTINUOUS
 10
59.5
 20
6.898
 30
0
 11
80.055666666667
 21
6.898
 31
0
  0
INSERT
  2
OperationStart-00001
  8
OperationStart
 10
50
 20
0
 30
0
 50
0
  0
TEXT
  8
BEM
 62
     1
  6
CONTINUOUS
 10
96.302
 20
20.827
 30
0
 40
5
 41
0.8
 50
0
 51
0
  1
8
  0
LINE
  8
BEM
 62
     1
  6
CONTINUOUS
 10
91.65
 20
1.6666666666667
 30
0
 11
91.65
 21
24.827
 31
0
  0
LINE
  8
BEM
 62
     1
  6
CONTINUOUS
 10
99.65
 20
1.6666666666667
 30
0
 11
99.65
 21
24.827
 31
0
  0
SOLID
  8
BEM
 62
     1
  6
CONTINUOUS
 10
91.65
 20
19.827
 30
0
 11
95.65
 21
21.167
 31
0
 12
95.65
 22
18.487
 32
0
 13
95.65
 23
18.487
 33
0
  0
LINE
  8
BEM
 62
     1
  6
CONTINUOUS
 10
91.65
 20
19.827
 30
0
 11
95.65
 21
19.827
 31
0
  0
SOLID
  8
BEM
 62
     1
  6
CONTINUOUS
 10
99.65
 20
19.827
 30
0
 11
95.65
 21
18.487
 31
0
 12
95.65
 22
21.167
 32
0
 13
95.65
 23
21.167
 33
0
  0
LINE
  8
BEM
 62
     1
  6
CONTINUOUS
 10
99.65
 20
19.827
 30
0
 11
95.65
 21
19.827
 31
0
  0
TEXT
  8
BEM
 62
     1
  6
CONTINUOUS
 10
71.545
 20
-14.27
 30
0
 40
5
 41
0.8
 50
90
 51
0
  1
25
  0
LINE
  8
BEM
 62
     1
  6
CONTINUOUS
 10
89.983333333333
 20
-25
 30
0
 11
67.545
 21
-25
 31
0
  0
LINE
  8
BEM
 62
     1
  6
CONTINUOUS
 10
89.983333333333
 20
2.0410779985789e-016
 30
0
 11
67.545
 21
2.9520111093447e-015
 31
0
  0
SOLID
  8
BEM
 62
     1
  6
CONTINUOUS
 10
72.545
 20
-25
 30
0
 11
71.205
 21
-21
 31
0
 12
73.885
 22
-21
 32
0
 13
73.885
 23
-21
 33
0
  0
LINE
  8
BEM
 62
     1
  6
CONTINUOUS
 10
72.545
 20
-25
 30
0
 11
72.545
 21
-12.5
 31
0
  0
SOLID
  8
BEM
 62
     1
  6
CONTINUOUS
 10
72.545
 20
2.339687709771e-015
 30
0
 11
73.885
 21
-4
 31
0
 12
71.205
 22
-4
 32
0
 13
71.205
 23
-4
 33
0
  0
LINE
  8
BEM
 62
     1
  6
CONTINUOUS
 10
72.545
 20
2.339687709771e-015
 30
0
 11
72.545
 21
-12.5
 31
0
  0
POINT
  8
0
 62
     1
  6
CONTINUOUS
 10
88.15
 20
-24
 30
0
  0
POINT
  8
0
 62
     1
  6
CONTINUOUS
 10
88.15
 20
-25
 30
0
  0
POINT
  8
EndPoints
 62
     1
  6
CONTINUOUS
 10
103.15
 20
-24
 30
0
  0
POINT
  8
EndPoints
 62
     1
  6
CONTINUOUS
 10
103.15
 20
-25
 30
0
  0
LINE
  8
0
 62
     2
  6
CONTINUOUS
 10
88.15
 20
-25
 30
0
 11
91.65
 21
-25
 31
0
  0
LINE
  8
0
 62
     2
  6
CONTINUOUS
 10
91.65
 20
-25
 30
0
 11
91.65
 21
0
 31
0
  0
LINE
  8
0
 62
     2
  6
CONTINUOUS
 10
91.65
 20
0
 30
0
 11
99.65
 21
0
 31
0
  0
LINE
  8
0
 62
     2
  6
CONTINUOUS
 10
99.65
 20
0
 30
0
 11
99.65
 21
-25
 31
0
  0
LINE
  8
0
 62
     2
  6
CONTINUOUS
 10
99.65
 20
-25
 30
0
 11
103.15
 21
-25
 31
0
  0
TEXT
  8
BEM
 62
     1
  6
CONTINUOUS
 10
159.468
 20
29.44
 30
0
 40
5
 41
0.8
 50
0
 51
0
  1
4.8
  0
LINE
  8
BEM
 62
     1
  6
CONTINUOUS
 10
143.25
 20
2.1666666666667
 30
0
 11
143.25
 21
33.44
 31
0
  0
LINE
  8
BEM
 62
     1
  6
CONTINUOUS
 10
148.05
 20
2.1666666666667
 30
0
 11
148.05
 21
33.44
 31
0
  0
SOLID
  8
BEM
 62
     1
  6
CONTINUOUS
 10
143.25
 20
28.44
 30
0
 11
139.25
 21
27.1
 31
0
 12
139.25
 22
29.78
 32
0
 13
139.25
 23
29.78
 33
0
  0
LINE
  8
BEM
 62
     1
  6
CONTINUOUS
 10
143.25
 20
28.44
 30
0
 11
135.25
 21
28.44
 31
0
  0
SOLID
  8
BEM
 62
     1
  6
CONTINUOUS
 10
148.05
 20
28.44
 30
0
 11
152.05
 21
29.78
 31
0
 12
152.05
 22
27.1
 32
0
 13
152.05
 23
27.1
 33
0
  0
LINE
  8
BEM
 62
     1
  6
CONTINUOUS
 10
148.05
 20
28.44
 30
0
 11
170.13466666667
 21
28.44
 31
0
  0
POINT
  8
0
 62
     1
  6
CONTINUOUS
 10
149.65
 20
-24
 30
0
  0
POINT
  8
0
 62
     1
  6
CONTINUOUS
 10
149.65
 20
-25
 30
0
  0
POINT
  8
EndPoints
 62
     1
  6
CONTINUOUS
 10
141.65
 20
-24
 30
0
  0
POINT
  8
EndPoints
 62
     1
  6
CONTINUOUS
 10
141.65
 20
-25
 30
0
  0
LINE
  8
0
 62
     2
  6
CONTINUOUS
 10
141.65
 20
-25
 30
0
 11
142.65
 21
-25
 31
0
  0
LINE
  8
0
 62
     2
  6
CONTINUOUS
 10
142.65
 20
-25
 30
0
 11
143.25
 21
-25
 31
0
  0
LINE
  8
0
 62
     2
  6
CONTINUOUS
 10
143.25
 20
-25
 30
0
 11
143.25
 21
0.5
 31
0
  0
LINE
  8
0
 62
     2
  6
CONTINUOUS
 10
143.25
 20
0.5
 30
0
 11
148.05
 21
0.5
 31
0
  0
LINE
  8
0
 62
     2
  6
CONTINUOUS
 10
148.05
 20
0.5
 30
0
 11
148.05
 21
-25
 31
0
  0
LINE
  8
0
 62
     2
  6
CONTINUOUS
 10
148.05
 20
-25
 30
0
 11
148.65
 21
-25
 31
0
  0
LINE
  8
0
 62
     2
  6
CONTINUOUS
 10
148.65
 20
-25
 30
0
 11
149.65
 21
-25
 31
0
  0
INSERT
  2
OperationStart-00002
  8
OperationStart
 10
95.65
 20
0
 30
0
 50
0
  0
INSERT
  2
Fig_002
  8
0
 10
0
 20
0
 30
0
 50
0
  0
INSERT
  2
Fig_003
  8
0
 10
0
 20
0
 30
0
 50
0
  0
INSERT
  2
OperationStart-00003
  8
OperationStart
 10
145.65
 20
0
 30
0
 50
0
  0
TEXT
  8
BEM
 62
     1
  6
CONTINUOUS
 10
217.843
 20
37.81
 30
0
 40
5
 41
0.8
 50
0
 51
0
  1
23
  0
LINE
  8
BEM
 62
     1
  6
CONTINUOUS
 10
204.15
 20
2.1666666666667
 30
0
 11
204.15
 21
41.81
 31
0
  0
LINE
  8
BEM
 62
     1
  6
CONTINUOUS
 10
227.15
 20
2.1666666666667
 30
0
 11
227.15
 21
41.81
 31
0
  0
SOLID
  8
BEM
 62
     1
  6
CONTINUOUS
 10
204.15
 20
36.81
 30
0
 11
208.15
 21
38.15
 31
0
 12
208.15
 22
35.47
 32
0
 13
208.15
 23
35.47
 33
0
  0
LINE
  8
BEM
 62
     1
  6
CONTINUOUS
 10
204.15
 20
36.81
 30
0
 11
215.65
 21
36.81
 31
0
  0
SOLID
  8
BEM
 62
     1
  6
CONTINUOUS
 10
227.15
 20
36.81
 30
0
 11
223.15
 21
35.47
 31
0
 12
223.15
 22
38.15
 32
0
 13
223.15
 23
38.15
 33
0
  0
LINE
  8
BEM
 62
     1
  6
CONTINUOUS
 10
227.15
 20
36.81
 30
0
 11
215.65
 21
36.81
 31
0
  0
POINT
  8
0
 62
     1
  6
CONTINUOUS
 10
238.15
 20
-24
 30
0
  0
POINT
  8
0
 62
     1
  6
CONTINUOUS
 10
238.15
 20
-25
 30
0
  0
POINT
  8
EndPoints
 62
     1
  6
CONTINUOUS
 10
193.15
 20
-24
 30
0
  0
POINT
  8
EndPoints
 62
     1
  6
CONTINUOUS
 10
193.15
 20
-25
 30
0
  0
LINE
  8
0
 62
     2
  6
CONTINUOUS
 10
238.15
 20
-25
 30
0
 11
227.15
 21
-25
 31
0
  0
LINE
  8
0
 62
     2
  6
CONTINUOUS
 10
227.15
 20
-25
 30
0
 11
227.15
 21
0
 31
0
  0
LINE
  8
0
 62
     2
  6
CONTINUOUS
 10
227.15
 20
0
 30
0
 11
204.15
 21
0
 31
0
  0
LINE
  8
0
 62
     2
  6
CONTINUOUS
 10
204.15
 20
0
 30
0
 11
204.15
 21
-25
 31
0
  0
LINE
  8
0
 62
     2
  6
CONTINUOUS
 10
204.15
 20
-25
 30
0
 11
193.15
 21
-25
 31
0
  0
TEXT
  8
BEM
 62
     1
  6
CONTINUOUS
 10
266.771
 20
24.442
 30
0
 40
5
 41
0.8
 50
0
 51
0
  1
18
  0
SOLID
  8
BEM
 62
     1
  6
CONTINUOUS
 10
256.65
 20
23.442
 30
0
 11
260.65
 21
24.782
 31
0
 12
260.65
 22
22.102
 32
0
 13
260.65
 23
22.102
 33
0
  0
LINE
  8
BEM
 62
     1
  6
CONTINUOUS
 10
256.65
 20
23.442
 30
0
 11
265.65
 21
23.442
 31
0
  0
SOLID
  8
BEM
 62
     1
  6
CONTINUOUS
 10
274.65
 20
23.442
 30
0
 11
270.65
 21
22.102
 31
0
 12
270.65
 22
24.782
 32
0
 13
270.65
 23
24.782
 33
0
  0
LINE
  8
BEM
 62
     1
  6
CONTINUOUS
 10
274.65
 20
23.442
 30
0
 11
265.65
 21
23.442
 31
0
  0
INSERT
  2
OperationStart-00004
  8
OperationStart
 10
215.65
 20
0
 30
0
 50
0
  0
INSERT
  2
Fig_004
  8
0
 10
0
 20
0
 30
0
 50
0
  0
INSERT
  2
OperationStart-00005
  8
OperationStart
 10
265.65
 20
0
 30
0
 50
0
  0
TEXT
  8
BEM
 62
     1
  6
CONTINUOUS
 10
310.8
 20
32.604
 30
0
 40
5
 41
0.8
 50
0
 51
0
  1
9.8
  0
LINE
  8
BEM
 62
     1
  6
CONTINUOUS
 10
310.75
 20
1.6666666666667
 30
0
 11
310.75
 21
36.604
 31
0
  0
LINE
  8
BEM
 62
     1
  6
CONTINUOUS
 10
320.55
 20
1.6666666666667
 30
0
 11
320.55
 21
36.604
 31
0
  0
SOLID
  8
BEM
 62
     1
  6
CONTINUOUS
 10
310.75
 20
31.604
 30
0
 11
314.75
 21
32.944
 31
0
 12
314.75
 22
30.264
 32
0
 13
314.75
 23
30.264
 33
0
  0
LINE
  8
BEM
 62
     1
  6
CONTINUOUS
 10
310.75
 20
31.604
 30
0
 11
315.65
 21
31.604
 31
0
  0
SOLID
  8
BEM
 62
     1
  6
CONTINUOUS
 10
320.55
 20
31.604
 30
0
 11
316.55
 21
30.264
 31
0
 12
316.55
 22
32.944
 32
0
 13
316.55
 23
32.944
 33
0
  0
LINE
  8
BEM
 62
     1
  6
CONTINUOUS
 10
320.55
 20
31.604
 30
0
 11
315.65
 21
31.604
 31
0
  0
TEXT
  8
BEM
 62
     1
  6
CONTINUOUS
 10
366.212
 20
36.526
 30
0
 40
5
 41
0.8
 50
0
 51
0
  1
8
  0
LINE
  8
BEM
 62
     1
  6
CONTINUOUS
 10
361.65
 20
2.1666666666667
 30
0
 11
361.65
 21
40.526
 31
0
  0
LINE
  8
BEM
 62
     1
  6
CONTINUOUS
 10
369.65
 20
2.1666666666667
 30
0
 11
369.65
 21
40.526
 31
0
  0
SOLID
  8
BEM
 62
     1
  6
CONTINUOUS
 10
361.65
 20
35.526
 30
0
 11
365.65
 21
36.866
 31
0
 12
365.65
 22
34.186
 32
0
 13
365.65
 23
34.186
 33
0
  0
LINE
  8
BEM
 62
     1
  6
CONTINUOUS
 10
361.65
 20
35.526
 30
0
 11
365.65
 21
35.526
 31
0
  0
SOLID
  8
BEM
 62
     1
  6
CONTINUOUS
 10
369.65
 20
35.526
 30
0
 11
365.65
 21
34.186
 31
0
 12
365.65
 22
36.866
 32
0
 13
365.65
 23
36.866
 33
0
  0
LINE
  8
BEM
 62
     1
  6
CONTINUOUS
 10
369.65
 20
35.526
 30
0
 11
365.65
 21
35.526
 31
0
  0
POINT
  8
0
 62
     1
  6
CONTINUOUS
 10
323.65
 20
-24
 30
0
  0
POINT
  8
0
 62
     1
  6
CONTINUOUS
 10
323.65
 20
-25
 30
0
  0
POINT
  8
EndPoints
 62
     1
  6
CONTINUOUS
 10
307.65
 20
-24
 30
0
  0
POINT
  8
EndPoints
 62
     1
  6
CONTINUOUS
 10
307.65
 20
-25
 30
0
  0
LINE
  8
0
 62
     2
  6
CONTINUOUS
 10
323.65
 20
-25
 30
0
 11
320.55
 21
-25
 31
0
  0
LINE
  8
0
 62
     2
  6
CONTINUOUS
 10
320.55
 20
-25
 30
0
 11
320.55
 21
0
 31
0
  0
LINE
  8
0
 62
     2
  6
CONTINUOUS
 10
320.55
 20
0
 30
0
 11
310.75
 21
0
 31
0
  0
LINE
  8
0
 62
     2
  6
CONTINUOUS
 10
310.75
 20
0
 30
0
 11
310.75
 21
-25
 31
0
  0
LINE
  8
0
 62
     2
  6
CONTINUOUS
 10
310.75
 20
-25
 30
0
 11
307.65
 21
-25
 31
0
  0
POINT
  8
0
 62
     1
  6
CONTINUOUS
 10
377.65
 20
-24
 30
0
  0
POINT
  8
0
 62
     1
  6
CONTINUOUS
 10
377.65
 20
-25
 30
0
  0
POINT
  8
EndPoints
 62
     1
  6
CONTINUOUS
 10
353.65
 20
-24
 30
0
  0
POINT
  8
EndPoints
 62
     1
  6
CONTINUOUS
 10
353.65
 20
-25
 30
0
  0
LINE
  8
0
 62
     2
  6
CONTINUOUS
 10
353.65
 20
-25
 30
0
 11
361.65
 21
-25
 31
0
  0
LINE
  8
0
 62
     2
  6
CONTINUOUS
 10
361.65
 20
-25
 30
0
 11
361.65
 21
0.5
 31
0
  0
LINE
  8
0
 62
     2
  6
CONTINUOUS
 10
361.65
 20
0.5
 30
0
 11
369.65
 21
0.5
 31
0
  0
LINE
  8
0
 62
     2
  6
CONTINUOUS
 10
369.65
 20
0.5
 30
0
 11
369.65
 21
-25
 31
0
  0
LINE
  8
0
 62
     2
  6
CONTINUOUS
 10
369.65
 20
-25
 30
0
 11
377.65
 21
-25
 31
0
  0
INSERT
  2
OperationStart-00006
  8
OperationStart
 10
315.65
 20
0
 30
0
 50
0
  0
INSERT
  2
Fig_007
  8
0
 10
0
 20
0
 30
0
 50
0
  0
INSERT
  2
Fig_008
  8
0
 10
0
 20
0
 30
0
 50
0
  0
LINE
  8
BEM
 62
     1
  6
CONTINUOUS
 10
256.65
 20
2.1666666666667
 30
0
 11
256.65
 21
28.442
 31
0
  0
LINE
  8
BEM
 62
     1
  6
CONTINUOUS
 10
274.65
 20
2.1666666666667
 30
0
 11
274.65
 21
28.442
 31
0
  0
LINE
  8
0
 62
     2
  6
CONTINUOUS
 10
256.65
 20
0.5
 30
0
 11
274.65
 21
0.5
 31
0
  0
LINE
  8
0
 62
     3
  6
CONTINUOUS
 10
285.65
 20
-24
 30
0
 11
285.65
 21
-24
 31
20
  0
LINE
  8
0
 62
     3
  6
CONTINUOUS
 10
285.65
 20
-25.15
 30
0
 11
285.65
 21
-25.15
 31
20
  0
LINE
  8
0
 62
     3
  6
CONTINUOUS
 10
274.65
 20
-25.15
 30
0
 11
274.65
 21
-25.15
 31
20
  0
LINE
  8
0
 62
     3
  6
CONTINUOUS
 10
274.5
 20
-25
 30
0
 11
274.5
 21
-25
 31
20
  0
LINE
  8
0
 62
     3
  6
CONTINUOUS
 10
256.8
 20
-25
 30
0
 11
256.8
 21
-25
 31
20
  0
LINE
  8
0
 62
     3
  6
CONTINUOUS
 10
256.65
 20
-25.15
 30
0
 11
256.65
 21
-25.15
 31
20
  0
LINE
  8
0
 62
     3
  6
CONTINUOUS
 10
245.65
 20
-25.15
 30
0
 11
245.65
 21
-25.15
 31
20
  0
LINE
  8
0
 62
     3
  6
CONTINUOUS
 10
245.65
 20
-24
 30
0
 11
245.65
 21
-24
 31
20
  0
LINE
  8
0
 62
     3
  6
CONTINUOUS
 10
256.8
 20
0.35
 30
0
 11
256.8
 21
0.35
 31
20
  0
LINE
  8
0
 62
     3
  6
CONTINUOUS
 10
274.5
 20
0.35
 30
0
 11
274.5
 21
0.35
 31
20
  0
LINE
  8
0
 62
     2
  6
CONTINUOUS
 10
274.5
 20
-1
 30
0
 11
274.65
 21
-1
 31
0
  0
LINE
  8
0
 62
     2
  6
CONTINUOUS
 10
256.65
 20
-1
 30
0
 11
256.8
 21
-1
 31
0
  0
POINT
  8
0
 62
     1
  6
CONTINUOUS
 10
285.65
 20
-24
 30
0
  0
POINT
  8
0
 62
     1
  6
CONTINUOUS
 10
285.65
 20
-25
 30
0
  0
POINT
  8
EndPoints
 62
     1
  6
CONTINUOUS
 10
245.65
 20
-24
 30
0
  0
POINT
  8
EndPoints
 62
     1
  6
CONTINUOUS
 10
245.65
 20
-25
 30
0
  0
LINE
  8
0
 62
     2
  6
CONTINUOUS
 10
245.65
 20
-25
 30
0
 11
253.65
 21
-25
 31
0
  0
LINE
  8
0
 62
     2
  6
CONTINUOUS
 10
253.65
 20
-25
 30
0
 11
256.65
 21
-25
 31
0
  0
LINE
  8
0
 62
     2
  6
CONTINUOUS
 10
256.65
 20
-25
 30
0
 11
256.65
 21
-1
 31
0
  0
LINE
  8
0
 62
     2
  6
CONTINUOUS
 10
256.65
 20
-1
 30
0
 11
274.65
 21
-1
 31
0
  0
LINE
  8
0
 62
     2
  6
CONTINUOUS
 10
274.65
 20
-1
 30
0
 11
274.65
 21
-25
 31
0
  0
LINE
  8
0
 62
     2
  6
CONTINUOUS
 10
274.65
 20
-25
 30
0
 11
277.65
 21
-25
 31
0
  0
LINE
  8
0
 62
     2
  6
CONTINUOUS
 10
277.65
 20
-25
 30
0
 11
285.65
 21
-25
 31
0
  0
INSERT
  2
Fig_001
  8
0
 10
0
 20
0
 30
0
 50
0
  0
INSERT
  2
GENSEC-Fig_007-00024-1600151572
  8
0
 10
0
 20
0
 30
0
 50
0
  0
TEXT
  8
BEM
 62
     1
  6
CONTINUOUS
 10
427.987
 20
27.811
 30
0
 40
5
 41
0.8
 50
0
 51
0
  1
9.6
  0
LINE
  8
BEM
 62
     1
  6
CONTINUOUS
 10
400.85
 20
2.1666666666667
 30
0
 11
400.85
 21
31.811
 31
0
  0
LINE
  8
BEM
 62
     1
  6
CONTINUOUS
 10
410.45
 20
2.1666666666667
 30
0
 11
410.45
 21
31.811
 31
0
  0
SOLID
  8
BEM
 62
     1
  6
CONTINUOUS
 10
400.85
 20
26.811
 30
0
 11
396.85
 21
25.471
 31
0
 12
396.85
 22
28.151
 32
0
 13
396.85
 23
28.151
 33
0
  0
LINE
  8
BEM
 62
     1
  6
CONTINUOUS
 10
400.85
 20
26.811
 30
0
 11
392.85
 21
26.811
 31
0
  0
SOLID
  8
BEM
 62
     1
  6
CONTINUOUS
 10
410.45
 20
26.811
 30
0
 11
414.45
 21
28.151
 31
0
 12
414.45
 22
25.471
 32
0
 13
414.45
 23
25.471
 33
0
  0
LINE
  8
BEM
 62
     1
  6
CONTINUOUS
 10
410.45
 20
26.811
 30
0
 11
438.65366666667
 21
26.811
 31
0
  0
POINT
  8
0
 62
     1
  6
CONTINUOUS
 10
412.45
 20
-24
 30
0
  0
POINT
  8
0
 62
     1
  6
CONTINUOUS
 10
412.45
 20
-25
 30
0
  0
POINT
  8
EndPoints
 62
     1
  6
CONTINUOUS
 10
398.85
 20
-24
 30
0
  0
POINT
  8
EndPoints
 62
     1
  6
CONTINUOUS
 10
398.85
 20
-25
 30
0
  0
LINE
  8
0
 62
     2
  6
CONTINUOUS
 10
412.45
 20
-25
 30
0
 11
410.45
 21
-25
 31
0
  0
LINE
  8
0
 62
     2
  6
CONTINUOUS
 10
410.45
 20
-25
 30
0
 11
410.45
 21
0.5
 31
0
  0
LINE
  8
0
 62
     2
  6
CONTINUOUS
 10
410.45
 20
0.5
 30
0
 11
400.85
 21
0.5
 31
0
  0
LINE
  8
0
 62
     2
  6
CONTINUOUS
 10
400.85
 20
0.5
 30
0
 11
400.85
 21
-25
 31
0
  0
LINE
  8
0
 62
     2
  6
CONTINUOUS
 10
400.85
 20
-25
 30
0
 11
398.85
 21
-25
 31
0
  0
INSERT
  2
Fig_006
  8
0
 10
0
 20
0
 30
0
 50
0
  0
INSERT
  2
GENSEC-Fig_006-00036-1600238389
  8
0
 10
0
 20
0
 30
0
 50
0
  0
INSERT
  2
OperationStart-00007
  8
OperationStart
 10
405.65
 20
0
 30
0
 50
0
  0
ENDSEC
  0
EOF
