  0
SECTION
  2
HEADER
  9
$INSUNITS
 70
     4
  9
$MEASUREMENT
 70
     1
  9
$DIMALT
 70
     1
  9
$DIMALTD
 70
     3
  9
$DIMALTF
 40
0.039370078740157
  0
ENDSEC
  0
SECTION
  2
TABLES
  0
TABLE
  2
LTYPE
 70
     5
  0
LTYPE
  2
CONTINUOUS
 70
     0
  3
CONTINUOUS
 72
    65
 73
     0
 40
0
  0
LTYPE
  2
DASHED
 70
     0
  3
DASHED
 72
    65
 73
     2
 40
0.75
 49
0.5
 49
-0.25
  0
LTYPE
  2
DOT
 70
     0
  3
DOT
 72
    65
 73
     2
 40
0.25
 49
0
 49
-0.25
  0
LTYPE
  2
CENTER
 70
     0
  3
CENTER
 72
    65
 73
     4
 40
2
 49
1.25
 49
-0.25
 49
0.25
 49
-0.25
  0
LTYPE
  2
DASHDOT
 70
     0
  3
DASHDOT
 72
    65
 73
     4
 40
1
 49
0.5
 49
-0.25
 49
0
 49
-0.25
  0
ENDTAB
  0
TABLE
  2
LAYER
 70
     5
  0
LAYER
  2
0
 70
     0
 62
     1
  6
CONTINUOUS
  0
LAYER
  2
BEM
 70
     0
 62
     1
  6
CONTINUOUS
  0
LAYER
  2
OperationStart
 70
     0
 62
     1
  6
CONTINUOUS
  0
LAYER
  2
EndPoints
 70
     0
 62
     1
  6
CONTINUOUS
  0
LAYER
  2
c-elements
 70
     0
 62
     1
  6
CONTINUOUS
  0
ENDTAB
  0
ENDSEC
  0
SECTION
  2
BLOCKS
  0
BLOCK
  2
Fig_000
 10
0
 20
0
 30
0
 70
    64
  8
0
  0
POINT
  8
0
 62
     1
  6
CONTINUOUS
 10
44.641
 20
2.663
 30
0
  0
POINT
  8
0
 62
     1
  6
CONTINUOUS
 10
44.641
 20
-4
 30
0
  0
LINE
  8
0
 62
     2
  6
CONTINUOUS
 10
45.3
 20
-4
 30
0
 11
24.65
 21
-4
 31
0
  0
LINE
  8
0
 62
     2
  6
CONTINUOUS
 10
24.65
 20
-4
 30
0
 11
13
 21
-4
 31
0
  0
LINE
  8
0
 62
     2
  6
CONTINUOUS
 10
13
 20
-4
 30
0
 11
4
 21
-9.5
 31
0
  0
LINE
  8
0
 62
     2
  6
CONTINUOUS
 10
4
 20
-9.5
 30
0
 11
4
 21
-15
 31
0
  0
LINE
  8
0
 62
     2
  6
CONTINUOUS
 10
4
 20
-15
 30
0
 11
8.2
 21
-15
 31
0
  0
LINE
  8
0
 62
     2
  6
CONTINUOUS
 10
8.2
 20
-15
 30
0
 11
8.2
 21
-13
 31
0
  0
LINE
  8
0
 62
     2
  6
CONTINUOUS
 10
8.2
 20
-13
 30
0
 11
45.3
 21
-13
 31
0
  0
LINE
  8
0
 62
     2
  6
CONTINUOUS
 10
45.3
 20
-13
 30
0
 11
45.3
 21
-4
 31
0
  0
ENDBLK
  0
BLOCK
  2
OperationStart-00000
 10
0
 20
0
 30
0
 70
    64
  8
0
  0
ENDBLK
  0
BLOCK
  2
Fig_001
 10
0
 20
0
 30
0
 70
    64
  8
0
  0
POINT
  8
0
 62
     1
  6
CONTINUOUS
 10
46.3
 20
-98.32
 30
0
  0
POINT
  8
0
 62
     1
  6
CONTINUOUS
 10
46.3
 20
-103.32
 30
0
  0
POINT
  8
EndPoints
 62
     1
  6
CONTINUOUS
 10
45.3
 20
-33.3
 30
0
  0
POINT
  8
EndPoints
 62
     1
  6
CONTINUOUS
 10
40.3
 20
-33.3
 30
0
  0
LINE
  8
0
 62
     2
  6
CONTINUOUS
 10
40.3
 20
-33.3
 30
0
 11
41.3
 21
-34.3
 31
0
  0
LINE
  8
0
 62
     2
  6
CONTINUOUS
 10
41.3
 20
-34.3
 30
0
 11
45.3
 21
-38.3
 31
0
  0
LINE
  8
0
 62
     2
  6
CONTINUOUS
 10
45.3
 20
-38.3
 30
0
 11
46.3
 21
-39.3
 31
0
  0
LINE
  8
0
 62
     2
  6
CONTINUOUS
 10
46.3
 20
-39.3
 30
0
 11
46.3
 21
-50.3
 31
0
  0
LINE
  8
0
 62
     2
  6
CONTINUOUS
 10
46.3
 20
-50.3
 30
0
 11
45.3
 21
-51.3
 31
0
  0
LINE
  8
0
 62
     2
  6
CONTINUOUS
 10
45.3
 20
-51.3
 30
0
 11
41.3
 21
-55.3
 31
0
  0
LINE
  8
0
 62
     2
  6
CONTINUOUS
 10
41.3
 20
-55.3
 30
0
 11
41.13
 21
-55.47
 31
0
  0
LINE
  8
0
 62
     2
  6
CONTINUOUS
 10
41.13
 20
-55.47
 30
0
 11
41.3
 21
-55.64
 31
0
  0
LINE
  8
0
 62
     2
  6
CONTINUOUS
 10
41.3
 20
-55.64
 30
0
 11
45.3
 21
-59.64
 31
0
  0
LINE
  8
0
 62
     2
  6
CONTINUOUS
 10
45.3
 20
-59.64
 30
0
 11
46.3
 21
-60.64
 31
0
  0
LINE
  8
0
 62
     2
  6
CONTINUOUS
 10
46.3
 20
-60.64
 30
0
 11
46.3
 21
-71.64
 31
0
  0
LINE
  8
0
 62
     2
  6
CONTINUOUS
 10
46.3
 20
-71.64
 30
0
 11
45.3
 21
-72.64
 31
0
  0
LINE
  8
0
 62
     2
  6
CONTINUOUS
 10
45.3
 20
-72.64
 30
0
 11
41.3
 21
-76.64
 31
0
  0
LINE
  8
0
 62
     2
  6
CONTINUOUS
 10
41.3
 20
-76.64
 30
0
 11
41.13
 21
-76.81
 31
0
  0
LINE
  8
0
 62
     2
  6
CONTINUOUS
 10
41.13
 20
-76.81
 30
0
 11
41.3
 21
-76.98
 31
0
  0
LINE
  8
0
 62
     2
  6
CONTINUOUS
 10
41.3
 20
-76.98
 30
0
 11
45.3
 21
-80.98
 31
0
  0
LINE
  8
0
 62
     2
  6
CONTINUOUS
 10
45.3
 20
-80.98
 30
0
 11
46.3
 21
-81.98
 31
0
  0
LINE
  8
0
 62
     2
  6
CONTINUOUS
 10
46.3
 20
-81.98
 30
0
 11
46.3
 21
-92.979999999997
 31
0
  0
LINE
  8
0
 62
     2
  6
CONTINUOUS
 10
46.3
 20
-92.979999999997
 30
0
 11
45.3
 21
-93.98
 31
0
  0
LINE
  8
0
 62
     2
  6
CONTINUOUS
 10
45.3
 20
-93.98
 30
0
 11
41.3
 21
-97.98
 31
0
  0
LINE
  8
0
 62
     2
  6
CONTINUOUS
 10
41.3
 20
-97.98
 30
0
 11
41.129999999999
 21
-98.149999999999
 31
0
  0
LINE
  8
0
 62
     2
  6
CONTINUOUS
 10
41.129999999999
 20
-98.149999999999
 30
0
 11
41.3
 21
-98.32
 31
0
  0
LINE
  8
0
 62
     2
  6
CONTINUOUS
 10
41.3
 20
-98.32
 30
0
 11
45.3
 21
-102.32
 31
0
  0
LINE
  8
0
 62
     2
  6
CONTINUOUS
 10
45.3
 20
-102.32
 30
0
 11
46.3
 21
-103.32
 31
0
  0
ENDBLK
  0
BLOCK
  2
Fig_002
 10
0
 20
0
 30
0
 70
    64
  8
0
  0
POINT
  8
0
 62
     1
  6
CONTINUOUS
 10
46.3
 20
-54.47
 30
0
  0
POINT
  8
0
 62
     1
  6
CONTINUOUS
 10
46.3
 20
-55.47
 30
0
  0
POINT
  8
EndPoints
 62
     1
  6
CONTINUOUS
 10
0
 20
-97.15
 30
0
  0
POINT
  8
EndPoints
 62
     1
  6
CONTINUOUS
 10
0
 20
-98.15
 30
0
  0
LINE
  8
0
 62
     2
  6
CONTINUOUS
 10
0
 20
-98.15
 30
0
 11
45.3
 21
-98.15
 31
0
  0
LINE
  8
0
 62
     2
  6
CONTINUOUS
 10
45.3
 20
-98.15
 30
0
 11
46.3
 21
-98.15
 31
0
  0
LINE
  8
0
 62
     2
  6
CONTINUOUS
 10
46.3
 20
-98.15
 30
0
 11
46.3
 21
-76.81
 31
0
  0
LINE
  8
0
 62
     2
  6
CONTINUOUS
 10
46.3
 20
-76.81
 30
0
 11
45.3
 21
-76.81
 31
0
  0
LINE
  8
0
 62
     2
  6
CONTINUOUS
 10
45.3
 20
-76.81
 30
0
 11
0
 21
-76.81
 31
0
  0
LINE
  8
0
 62
     2
  6
CONTINUOUS
 10
0
 20
-76.81
 30
0
 11
0
 21
-55.47
 31
0
  0
LINE
  8
0
 62
     2
  6
CONTINUOUS
 10
0
 20
-55.47
 30
0
 11
45.3
 21
-55.47
 31
0
  0
LINE
  8
0
 62
     2
  6
CONTINUOUS
 10
45.3
 20
-55.47
 30
0
 11
46.3
 21
-55.47
 31
0
  0
ENDBLK
  0
BLOCK
  2
OperationStart-00001
 10
0
 20
0
 30
0
 70
    64
  8
0
  0
ENDBLK
  0
BLOCK
  2
GENSEC-Fig_001-00003-1615226440
 10
0
 20
0
 30
0
 70
    64
  8
0
  0
LINE
  8
0
 62
     3
  6
CONTINUOUS
 10
46.3
 20
-98.32
 30
0
 11
46.3
 21
-98.32
 31
10
  0
LINE
  8
0
 62
     6
  6
CONTINUOUS
 10
46.3
 20
-98.32
 30
0
 11
46.3
 21
-103.32
 31
0
  0
LINE
  8
0
 62
     6
  6
CONTINUOUS
 10
46.3
 20
-98.32
 30
10
 11
46.3
 21
-103.32
 31
10
  0
LINE
  8
0
 62
     3
  6
CONTINUOUS
 10
46.3
 20
-103.32
 30
0
 11
46.3
 21
-103.32
 31
10
  0
LINE
  8
0
 62
     6
  6
CONTINUOUS
 10
46.3
 20
-103.32
 30
0
 11
45.3
 21
-102.32
 31
0
  0
LINE
  8
0
 62
     6
  6
CONTINUOUS
 10
46.3
 20
-103.32
 30
10
 11
45.3
 21
-102.32
 31
10
  0
LINE
  8
0
 62
     3
  6
CONTINUOUS
 10
45.3
 20
-102.32
 30
0
 11
45.3
 21
-102.32
 31
10
  0
LINE
  8
0
 62
     6
  6
CONTINUOUS
 10
45.3
 20
-102.32
 30
0
 11
41.3
 21
-98.32
 31
0
  0
LINE
  8
0
 62
     6
  6
CONTINUOUS
 10
45.3
 20
-102.32
 30
10
 11
41.3
 21
-98.32
 31
10
  0
LINE
  8
0
 62
     3
  6
CONTINUOUS
 10
41.3
 20
-98.32
 30
0
 11
41.3
 21
-98.32
 31
10
  0
LINE
  8
0
 62
     6
  6
CONTINUOUS
 10
41.3
 20
-98.32
 30
0
 11
41.129999999999
 21
-98.149999999999
 31
0
  0
LINE
  8
0
 62
     6
  6
CONTINUOUS
 10
41.3
 20
-98.32
 30
10
 11
41.129999999999
 21
-98.149999999999
 31
10
  0
LINE
  8
0
 62
     3
  6
CONTINUOUS
 10
41.129999999999
 20
-98.149999999999
 30
0
 11
41.129999999999
 21
-98.149999999999
 31
10
  0
LINE
  8
0
 62
     6
  6
CONTINUOUS
 10
41.129999999999
 20
-98.149999999999
 30
0
 11
41.3
 21
-97.98
 31
0
  0
LINE
  8
0
 62
     6
  6
CONTINUOUS
 10
41.129999999999
 20
-98.149999999999
 30
10
 11
41.3
 21
-97.98
 31
10
  0
LINE
  8
0
 62
     3
  6
CONTINUOUS
 10
41.3
 20
-97.98
 30
0
 11
41.3
 21
-97.98
 31
10
  0
LINE
  8
0
 62
     6
  6
CONTINUOUS
 10
41.3
 20
-97.98
 30
0
 11
45.3
 21
-93.98
 31
0
  0
LINE
  8
0
 62
     6
  6
CONTINUOUS
 10
41.3
 20
-97.98
 30
10
 11
45.3
 21
-93.98
 31
10
  0
LINE
  8
0
 62
     3
  6
CONTINUOUS
 10
45.3
 20
-93.98
 30
0
 11
45.3
 21
-93.98
 31
10
  0
LINE
  8
0
 62
     6
  6
CONTINUOUS
 10
45.3
 20
-93.98
 30
0
 11
46.3
 21
-92.979999999997
 31
0
  0
LINE
  8
0
 62
     6
  6
CONTINUOUS
 10
45.3
 20
-93.98
 30
10
 11
46.3
 21
-92.979999999997
 31
10
  0
LINE
  8
0
 62
     3
  6
CONTINUOUS
 10
46.3
 20
-92.979999999997
 30
0
 11
46.3
 21
-92.979999999997
 31
10
  0
LINE
  8
0
 62
     6
  6
CONTINUOUS
 10
46.3
 20
-92.979999999997
 30
0
 11
46.3
 21
-81.98
 31
0
  0
LINE
  8
0
 62
     6
  6
CONTINUOUS
 10
46.3
 20
-92.979999999997
 30
10
 11
46.3
 21
-81.98
 31
10
  0
LINE
  8
0
 62
     3
  6
CONTINUOUS
 10
46.3
 20
-81.98
 30
0
 11
46.3
 21
-81.98
 31
10
  0
LINE
  8
0
 62
     6
  6
CONTINUOUS
 10
46.3
 20
-81.98
 30
0
 11
45.3
 21
-80.98
 31
0
  0
LINE
  8
0
 62
     6
  6
CONTINUOUS
 10
46.3
 20
-81.98
 30
10
 11
45.3
 21
-80.98
 31
10
  0
LINE
  8
0
 62
     3
  6
CONTINUOUS
 10
45.3
 20
-80.98
 30
0
 11
45.3
 21
-80.98
 31
10
  0
LINE
  8
0
 62
     6
  6
CONTINUOUS
 10
45.3
 20
-80.98
 30
0
 11
41.3
 21
-76.98
 31
0
  0
LINE
  8
0
 62
     6
  6
CONTINUOUS
 10
45.3
 20
-80.98
 30
10
 11
41.3
 21
-76.98
 31
10
  0
LINE
  8
0
 62
     3
  6
CONTINUOUS
 10
41.3
 20
-76.98
 30
0
 11
41.3
 21
-76.98
 31
10
  0
LINE
  8
0
 62
     6
  6
CONTINUOUS
 10
41.3
 20
-76.98
 30
0
 11
41.13
 21
-76.81
 31
0
  0
LINE
  8
0
 62
     6
  6
CONTINUOUS
 10
41.3
 20
-76.98
 30
10
 11
41.13
 21
-76.81
 31
10
  0
LINE
  8
0
 62
     3
  6
CONTINUOUS
 10
41.13
 20
-76.81
 30
0
 11
41.13
 21
-76.81
 31
10
  0
LINE
  8
0
 62
     6
  6
CONTINUOUS
 10
41.13
 20
-76.81
 30
0
 11
41.3
 21
-76.64
 31
0
  0
LINE
  8
0
 62
     6
  6
CONTINUOUS
 10
41.13
 20
-76.81
 30
10
 11
41.3
 21
-76.64
 31
10
  0
LINE
  8
0
 62
     3
  6
CONTINUOUS
 10
41.3
 20
-76.64
 30
0
 11
41.3
 21
-76.64
 31
10
  0
LINE
  8
0
 62
     6
  6
CONTINUOUS
 10
41.3
 20
-76.64
 30
0
 11
45.3
 21
-72.64
 31
0
  0
LINE
  8
0
 62
     6
  6
CONTINUOUS
 10
41.3
 20
-76.64
 30
10
 11
45.3
 21
-72.64
 31
10
  0
LINE
  8
0
 62
     3
  6
CONTINUOUS
 10
45.3
 20
-72.64
 30
0
 11
45.3
 21
-72.64
 31
10
  0
LINE
  8
0
 62
     6
  6
CONTINUOUS
 10
45.3
 20
-72.64
 30
0
 11
46.3
 21
-71.64
 31
0
  0
LINE
  8
0
 62
     6
  6
CONTINUOUS
 10
45.3
 20
-72.64
 30
10
 11
46.3
 21
-71.64
 31
10
  0
LINE
  8
0
 62
     3
  6
CONTINUOUS
 10
46.3
 20
-71.64
 30
0
 11
46.3
 21
-71.64
 31
10
  0
LINE
  8
0
 62
     6
  6
CONTINUOUS
 10
46.3
 20
-71.64
 30
0
 11
46.3
 21
-60.64
 31
0
  0
LINE
  8
0
 62
     6
  6
CONTINUOUS
 10
46.3
 20
-71.64
 30
10
 11
46.3
 21
-60.64
 31
10
  0
LINE
  8
0
 62
     3
  6
CONTINUOUS
 10
46.3
 20
-60.64
 30
0
 11
46.3
 21
-60.64
 31
10
  0
LINE
  8
0
 62
     6
  6
CONTINUOUS
 10
46.3
 20
-60.64
 30
0
 11
45.3
 21
-59.64
 31
0
  0
LINE
  8
0
 62
     6
  6
CONTINUOUS
 10
46.3
 20
-60.64
 30
10
 11
45.3
 21
-59.64
 31
10
  0
LINE
  8
0
 62
     3
  6
CONTINUOUS
 10
45.3
 20
-59.64
 30
0
 11
45.3
 21
-59.64
 31
10
  0
LINE
  8
0
 62
     6
  6
CONTINUOUS
 10
45.3
 20
-59.64
 30
0
 11
41.3
 21
-55.64
 31
0
  0
LINE
  8
0
 62
     6
  6
CONTINUOUS
 10
45.3
 20
-59.64
 30
10
 11
41.3
 21
-55.64
 31
10
  0
LINE
  8
0
 62
     3
  6
CONTINUOUS
 10
41.3
 20
-55.64
 30
0
 11
41.3
 21
-55.64
 31
10
  0
LINE
  8
0
 62
     6
  6
CONTINUOUS
 10
41.3
 20
-55.64
 30
0
 11
41.13
 21
-55.47
 31
0
  0
LINE
  8
0
 62
     6
  6
CONTINUOUS
 10
41.3
 20
-55.64
 30
10
 11
41.13
 21
-55.47
 31
10
  0
LINE
  8
0
 62
     3
  6
CONTINUOUS
 10
41.13
 20
-55.47
 30
0
 11
41.13
 21
-55.47
 31
10
  0
LINE
  8
0
 62
     6
  6
CONTINUOUS
 10
41.13
 20
-55.47
 30
0
 11
41.3
 21
-55.3
 31
0
  0
LINE
  8
0
 62
     6
  6
CONTINUOUS
 10
41.13
 20
-55.47
 30
10
 11
41.3
 21
-55.3
 31
10
  0
LINE
  8
0
 62
     3
  6
CONTINUOUS
 10
41.3
 20
-55.3
 30
0
 11
41.3
 21
-55.3
 31
10
  0
LINE
  8
0
 62
     6
  6
CONTINUOUS
 10
41.3
 20
-55.3
 30
0
 11
45.3
 21
-51.3
 31
0
  0
LINE
  8
0
 62
     6
  6
CONTINUOUS
 10
41.3
 20
-55.3
 30
10
 11
45.3
 21
-51.3
 31
10
  0
LINE
  8
0
 62
     3
  6
CONTINUOUS
 10
45.3
 20
-51.3
 30
0
 11
45.3
 21
-51.3
 31
10
  0
LINE
  8
0
 62
     6
  6
CONTINUOUS
 10
45.3
 20
-51.3
 30
0
 11
46.3
 21
-50.3
 31
0
  0
LINE
  8
0
 62
     6
  6
CONTINUOUS
 10
45.3
 20
-51.3
 30
10
 11
46.3
 21
-50.3
 31
10
  0
LINE
  8
0
 62
     3
  6
CONTINUOUS
 10
46.3
 20
-50.3
 30
0
 11
46.3
 21
-50.3
 31
10
  0
LINE
  8
0
 62
     6
  6
CONTINUOUS
 10
46.3
 20
-50.3
 30
0
 11
46.3
 21
-39.3
 31
0
  0
LINE
  8
0
 62
     6
  6
CONTINUOUS
 10
46.3
 20
-50.3
 30
10
 11
46.3
 21
-39.3
 31
10
  0
LINE
  8
0
 62
     3
  6
CONTINUOUS
 10
46.3
 20
-39.3
 30
0
 11
46.3
 21
-39.3
 31
10
  0
LINE
  8
0
 62
     6
  6
CONTINUOUS
 10
46.3
 20
-39.3
 30
0
 11
45.3
 21
-38.3
 31
0
  0
LINE
  8
0
 62
     6
  6
CONTINUOUS
 10
46.3
 20
-39.3
 30
10
 11
45.3
 21
-38.3
 31
10
  0
LINE
  8
0
 62
     3
  6
CONTINUOUS
 10
45.3
 20
-38.3
 30
0
 11
45.3
 21
-38.3
 31
10
  0
LINE
  8
0
 62
     6
  6
CONTINUOUS
 10
45.3
 20
-38.3
 30
0
 11
41.3
 21
-34.3
 31
0
  0
LINE
  8
0
 62
     6
  6
CONTINUOUS
 10
45.3
 20
-38.3
 30
10
 11
41.3
 21
-34.3
 31
10
  0
LINE
  8
0
 62
     3
  6
CONTINUOUS
 10
41.3
 20
-34.3
 30
0
 11
41.3
 21
-34.3
 31
10
  0
LINE
  8
0
 62
     6
  6
CONTINUOUS
 10
41.3
 20
-34.3
 30
0
 11
40.3
 21
-33.3
 31
0
  0
LINE
  8
0
 62
     6
  6
CONTINUOUS
 10
41.3
 20
-34.3
 30
10
 11
40.3
 21
-33.3
 31
10
  0
LINE
  8
0
 62
     3
  6
CONTINUOUS
 10
40.3
 20
-33.3
 30
0
 11
40.3
 21
-33.3
 31
10
  0
LINE
  8
0
 62
     6
  6
CONTINUOUS
 10
40.3
 20
-33.3
 30
0
 11
45.3
 21
-33.3
 31
0
  0
LINE
  8
0
 62
     6
  6
CONTINUOUS
 10
40.3
 20
-33.3
 30
10
 11
45.3
 21
-33.3
 31
10
  0
LINE
  8
0
 62
     3
  6
CONTINUOUS
 10
45.3
 20
-33.3
 30
0
 11
45.3
 21
-33.3
 31
10
  0
ENDBLK
  0
BLOCK
  2
Fig_005
 10
0
 20
0
 30
0
 70
    64
  8
0
  0
POINT
  8
0
 62
     1
  6
CONTINUOUS
 10
37.3
 20
-44.8
 30
0
  0
POINT
  8
0
 62
     1
  6
CONTINUOUS
 10
39.8
 20
-44.8
 30
0
  0
ARC
  8
0
 62
     2
  6
CONTINUOUS
 10
37.3
 20
-44.8
 30
0
 40
2.5
 50
90
 51
-90
  0
ARC
  8
0
 62
     2
  6
CONTINUOUS
 10
37.3
 20
-44.8
 30
0
 40
2.5
 50
-90
 51
90
  0
ENDBLK
  0
BLOCK
  2
Fig_003
 10
0
 20
0
 30
0
 70
    64
  8
0
  0
POINT
  8
0
 62
     1
  6
CONTINUOUS
 10
24.3
 20
-44.8
 30
0
  0
POINT
  8
0
 62
     1
  6
CONTINUOUS
 10
24.3
 20
-50.3
 30
0
  0
ARC
  8
0
 62
     2
  6
CONTINUOUS
 10
24.3
 20
-44.8
 30
0
 40
5.5
 50
-90
 51
90
  0
LINE
  8
0
 62
     2
  6
CONTINUOUS
 10
24.3
 20
-39.3
 30
0
 11
21.8
 21
-39.3
 31
0
  0
LINE
  8
0
 62
     2
  6
CONTINUOUS
 10
21.8
 20
-39.3
 30
0
 11
19.3
 21
-39.3
 31
0
  0
ARC
  8
0
 62
     2
  6
CONTINUOUS
 10
19.3
 20
-44.8
 30
0
 40
5.5
 50
90
 51
-90
  0
LINE
  8
0
 62
     2
  6
CONTINUOUS
 10
19.3
 20
-50.3
 30
0
 11
24.3
 21
-50.3
 31
0
  0
ENDBLK
  0
BLOCK
  2
GENSEC-Fig_002-00006-1615226450
 10
0
 20
0
 30
0
 70
    64
  8
0
  0
LINE
  8
0
 62
     3
  6
CONTINUOUS
 10
46.3
 20
-54.47
 30
0
 11
46.3
 21
-54.47
 31
10
  0
LINE
  8
0
 62
     6
  6
CONTINUOUS
 10
46.3
 20
-54.47
 30
0
 11
46.3
 21
-55.47
 31
0
  0
LINE
  8
0
 62
     6
  6
CONTINUOUS
 10
46.3
 20
-54.47
 30
10
 11
46.3
 21
-55.47
 31
10
  0
LINE
  8
0
 62
     3
  6
CONTINUOUS
 10
46.3
 20
-55.47
 30
0
 11
46.3
 21
-55.47
 31
10
  0
LINE
  8
0
 62
     6
  6
CONTINUOUS
 10
46.3
 20
-55.47
 30
0
 11
45.3
 21
-55.47
 31
0
  0
LINE
  8
0
 62
     6
  6
CONTINUOUS
 10
46.3
 20
-55.47
 30
10
 11
45.3
 21
-55.47
 31
10
  0
LINE
  8
0
 62
     3
  6
CONTINUOUS
 10
45.3
 20
-55.47
 30
0
 11
45.3
 21
-55.47
 31
10
  0
LINE
  8
0
 62
     6
  6
CONTINUOUS
 10
45.3
 20
-55.47
 30
0
 11
0
 21
-55.47
 31
0
  0
LINE
  8
0
 62
     6
  6
CONTINUOUS
 10
45.3
 20
-55.47
 30
10
 11
0
 21
-55.47
 31
10
  0
LINE
  8
0
 62
     3
  6
CONTINUOUS
 10
0
 20
-55.47
 30
0
 11
0
 21
-55.47
 31
10
  0
LINE
  8
0
 62
     6
  6
CONTINUOUS
 10
0
 20
-55.47
 30
0
 11
0
 21
-76.81
 31
0
  0
LINE
  8
0
 62
     6
  6
CONTINUOUS
 10
0
 20
-55.47
 30
10
 11
0
 21
-76.81
 31
10
  0
LINE
  8
0
 62
     3
  6
CONTINUOUS
 10
0
 20
-76.81
 30
0
 11
0
 21
-76.81
 31
10
  0
LINE
  8
0
 62
     6
  6
CONTINUOUS
 10
0
 20
-76.81
 30
0
 11
45.3
 21
-76.81
 31
0
  0
LINE
  8
0
 62
     6
  6
CONTINUOUS
 10
0
 20
-76.81
 30
10
 11
45.3
 21
-76.81
 31
10
  0
LINE
  8
0
 62
     3
  6
CONTINUOUS
 10
45.3
 20
-76.81
 30
0
 11
45.3
 21
-76.81
 31
10
  0
LINE
  8
0
 62
     6
  6
CONTINUOUS
 10
45.3
 20
-76.81
 30
0
 11
46.3
 21
-76.81
 31
0
  0
LINE
  8
0
 62
     6
  6
CONTINUOUS
 10
45.3
 20
-76.81
 30
10
 11
46.3
 21
-76.81
 31
10
  0
LINE
  8
0
 62
     3
  6
CONTINUOUS
 10
46.3
 20
-76.81
 30
0
 11
46.3
 21
-76.81
 31
10
  0
LINE
  8
0
 62
     6
  6
CONTINUOUS
 10
46.3
 20
-76.81
 30
0
 11
46.3
 21
-98.15
 31
0
  0
LINE
  8
0
 62
     6
  6
CONTINUOUS
 10
46.3
 20
-76.81
 30
10
 11
46.3
 21
-98.15
 31
10
  0
LINE
  8
0
 62
     3
  6
CONTINUOUS
 10
46.3
 20
-98.15
 30
0
 11
46.3
 21
-98.15
 31
10
  0
LINE
  8
0
 62
     6
  6
CONTINUOUS
 10
46.3
 20
-98.15
 30
0
 11
45.3
 21
-98.15
 31
0
  0
LINE
  8
0
 62
     6
  6
CONTINUOUS
 10
46.3
 20
-98.15
 30
10
 11
45.3
 21
-98.15
 31
10
  0
LINE
  8
0
 62
     3
  6
CONTINUOUS
 10
45.3
 20
-98.15
 30
0
 11
45.3
 21
-98.15
 31
10
  0
LINE
  8
0
 62
     6
  6
CONTINUOUS
 10
45.3
 20
-98.15
 30
0
 11
0
 21
-98.15
 31
0
  0
LINE
  8
0
 62
     6
  6
CONTINUOUS
 10
45.3
 20
-98.15
 30
10
 11
0
 21
-98.15
 31
10
  0
LINE
  8
0
 62
     3
  6
CONTINUOUS
 10
0
 20
-98.15
 30
0
 11
0
 21
-98.15
 31
10
  0
LINE
  8
0
 62
     6
  6
CONTINUOUS
 10
0
 20
-98.15
 30
0
 11
0
 21
-97.15
 31
0
  0
LINE
  8
0
 62
     6
  6
CONTINUOUS
 10
0
 20
-98.15
 30
10
 11
0
 21
-97.15
 31
10
  0
LINE
  8
0
 62
     3
  6
CONTINUOUS
 10
0
 20
-97.15
 30
0
 11
0
 21
-97.15
 31
10
  0
ENDBLK
  0
BLOCK
  2
OperationStart-00002
 10
0
 20
0
 30
0
 70
    64
  8
0
  0
ENDBLK
  0
ENDSEC
  0
SECTION
  2
ENTITIES
  0
LINE
  8
0
 62
     2
  6
CONTINUOUS
 10
-91.9
 20
-21.65
 30
0
 11
-91.9
 21
-42.3
 31
0
  0
LINE
  8
0
 62
     2
  6
CONTINUOUS
 10
-97.4
 20
-1
 30
0
 11
-91.9
 21
-10
 31
0
  0
LINE
  8
0
 62
     2
  6
CONTINUOUS
 10
-102.9
 20
-5.2
 30
0
 11
-100.9
 21
-5.2
 31
0
  0
LINE
  8
0
 62
     2
  6
CONTINUOUS
 10
-100.9
 20
-42.3
 30
0
 11
-100.9
 21
-5.2
 31
0
  0
LINE
  8
0
 62
     2
  6
CONTINUOUS
 10
-102.9
 20
-5.2
 30
0
 11
-102.9
 21
-1
 31
0
  0
LINE
  8
0
 62
     2
  6
CONTINUOUS
 10
-91.9
 20
-42.3
 30
0
 11
-100.9
 21
-42.3
 31
0
  0
LINE
  8
0
 62
     2
  6
CONTINUOUS
 10
-102.9
 20
-1
 30
0
 11
-97.4
 21
-1
 31
0
  0
LINE
  8
0
 62
     2
  6
CONTINUOUS
 10
-91.9
 20
-10
 30
0
 11
-91.9
 21
-21.65
 31
0
  0
TEXT
  8
BEM
 62
     1
  6
CONTINUOUS
 10
-141.687
 20
-31.231
 30
0
 40
5
 41
0.8
 50
90
 51
0
  1
41.3
  0
LINE
  8
BEM
 62
     1
  6
CONTINUOUS
 10
-102.56666666667
 20
-42.3
 30
0
 11
-145.687
 21
-42.3
 31
0
  0
LINE
  8
BEM
 62
     1
  6
CONTINUOUS
 10
-104.56666666667
 20
-0.99999999999997
 30
0
 11
-145.687
 21
-0.99999999999997
 31
0
  0
SOLID
  8
BEM
 62
     1
  6
CONTINUOUS
 10
-140.687
 20
-42.3
 30
0
 11
-142.027
 21
-38.3
 31
0
 12
-139.347
 22
-38.3
 32
0
 13
-139.347
 23
-38.3
 33
0
  0
LINE
  8
BEM
 62
     1
  6
CONTINUOUS
 10
-140.687
 20
-42.3
 30
0
 11
-140.687
 21
-21.65
 31
0
  0
SOLID
  8
BEM
 62
     1
  6
CONTINUOUS
 10
-140.687
 20
-0.99999999999997
 30
0
 11
-139.347
 21
-5
 31
0
 12
-142.027
 22
-5
 32
0
 13
-142.027
 23
-5
 33
0
  0
LINE
  8
BEM
 62
     1
  6
CONTINUOUS
 10
-140.687
 20
-0.99999999999997
 30
0
 11
-140.687
 21
-21.65
 31
0
  0
LINE
  8
0
 62
     2
  6
CONTINUOUS
 10
-75.3
 20
-1
 30
0
 11
-54.3
 21
-1
 31
0
  0
CIRCLE
  8
0
 62
     2
  6
CONTINUOUS
 10
-64.8
 20
-34.3
 30
0
 40
2.15
  0
LINE
  8
0
 62
     2
  6
CONTINUOUS
 10
-59.3
 20
-18.8
 30
0
 11
-59.3
 21
-21.3
 31
0
  0
ARC
  8
0
 62
     2
  6
CONTINUOUS
 10
-64.8
 20
-21.3
 30
0
 40
5.5
 50
180
 51
0
  0
LINE
  8
0
 62
     2
  6
CONTINUOUS
 10
-70.3
 20
-21.3
 30
0
 11
-70.3
 21
-16.3
 31
0
  0
ARC
  8
0
 62
     2
  6
CONTINUOUS
 10
-64.8
 20
-16.3
 30
0
 40
5.5
 50
0
 51
180
  0
LINE
  8
0
 62
     2
  6
CONTINUOUS
 10
-59.3
 20
-16.3
 30
0
 11
-59.3
 21
-18.8
 31
0
  0
LINE
  8
0
 62
     2
  6
CONTINUOUS
 10
-54.3
 20
-1
 30
0
 11
-54.3
 21
-38.3
 31
0
  0
LINE
  8
0
 62
     2
  6
CONTINUOUS
 10
-54.3
 20
-38.3
 30
0
 11
-58.3
 21
-42.3
 31
0
  0
LINE
  8
0
 62
     2
  6
CONTINUOUS
 10
-58.3
 20
-42.3
 30
0
 11
-64.8
 21
-42.3
 31
0
  0
LINE
  8
0
 62
     2
  6
CONTINUOUS
 10
-64.8
 20
-42.3
 30
0
 11
-71.3
 21
-42.3
 31
0
  0
LINE
  8
0
 62
     2
  6
CONTINUOUS
 10
-71.3
 20
-42.3
 30
0
 11
-75.3
 21
-38.3
 31
0
  0
LINE
  8
0
 62
     2
  6
CONTINUOUS
 10
-75.3
 20
-38.3
 30
0
 11
-75.3
 21
-1
 31
0
  0
LINE
  8
0
 62
     2
  6
CONTINUOUS
 10
-102.9
 20
-1
 30
0
 11
-97.4
 21
-1
 31
0
  0
LINE
  8
BEM
 62
     1
  6
CONTINUOUS
 10
3.6
 20
0.66666666666667
 30
0
 11
3.6
 21
13.476
 31
0
  0
SOLID
  8
BEM
 62
     1
  6
CONTINUOUS
 10
3.6
 20
8.476
 30
0
 11
-0.40000000000003
 21
7.136
 31
0
 12
-0.40000000000003
 22
9.816
 32
0
 13
-0.40000000000003
 23
9.816
 33
0
  0
LINE
  8
BEM
 62
     1
  6
CONTINUOUS
 10
3.6
 20
8.476
 30
0
 11
-4.4
 21
8.476
 31
0
  0
INSERT
  2
OperationStart-00000
  8
OperationStart
 10
0
 20
0
 30
0
 50
0
  0
INSERT
  2
Fig_000
  8
0
 10
0
 20
0
 30
0
 50
0
  0
LINE
  8
0
 62
     2
  6
CONTINUOUS
 10
4
 20
-55.3
 30
0
 11
4
 21
-34.3
 31
0
  0
LINE
  8
0
 62
     2
  6
CONTINUOUS
 10
4
 20
-34.3
 30
0
 11
41.3
 21
-34.3
 31
0
  0
LINE
  8
0
 62
     2
  6
CONTINUOUS
 10
45.3
 20
-38.3
 30
0
 11
45.3
 21
-44.8
 31
0
  0
LINE
  8
0
 62
     2
  6
CONTINUOUS
 10
45.3
 20
-44.8
 30
0
 11
45.3
 21
-51.3
 31
0
  0
LINE
  8
0
 62
     2
  6
CONTINUOUS
 10
41.3
 20
-55.3
 30
0
 11
4
 21
-55.3
 31
0
  0
TEXT
  8
BEM
 62
     1
  6
CONTINUOUS
 10
108.45
 20
-77.024
 30
0
 40
5
 41
0.8
 50
90
 51
0
  1
84
  0
LINE
  8
BEM
 62
     1
  6
CONTINUOUS
 10
46.966666666667
 20
-118.3
 30
0
 11
114.45
 21
-118.3
 31
0
  0
LINE
  8
BEM
 62
     1
  6
CONTINUOUS
 10
46.966666666667
 20
-34.3
 30
0
 11
114.45
 21
-34.3
 31
0
  0
SOLID
  8
BEM
 62
     1
  6
CONTINUOUS
 10
109.45
 20
-118.3
 30
0
 11
108.11
 21
-114.3
 31
0
 12
110.79
 22
-114.3
 32
0
 13
110.79
 23
-114.3
 33
0
  0
LINE
  8
BEM
 62
     1
  6
CONTINUOUS
 10
109.45
 20
-118.3
 30
0
 11
109.45
 21
-76.3
 31
0
  0
SOLID
  8
BEM
 62
     1
  6
CONTINUOUS
 10
109.45
 20
-34.3
 30
0
 11
110.79
 21
-38.3
 31
0
 12
108.11
 22
-38.3
 32
0
 13
108.11
 23
-38.3
 33
0
  0
LINE
  8
BEM
 62
     1
  6
CONTINUOUS
 10
109.45
 20
-34.3
 30
0
 11
109.45
 21
-76.3
 31
0
  0
LINE
  8
0
 62
     2
  6
CONTINUOUS
 10
4
 20
-76.64
 30
0
 11
4
 21
-55.64
 31
0
  0
LINE
  8
0
 62
     2
  6
CONTINUOUS
 10
21.8
 20
-60.64
 30
0
 11
24.3
 21
-60.64
 31
0
  0
ARC
  8
0
 62
     2
  6
CONTINUOUS
 10
24.3
 20
-66.14
 30
0
 40
5.5
 50
-90
 51
90
  0
LINE
  8
0
 62
     2
  6
CONTINUOUS
 10
24.3
 20
-71.64
 30
0
 11
19.3
 21
-71.64
 31
0
  0
ARC
  8
0
 62
     2
  6
CONTINUOUS
 10
19.3
 20
-66.14
 30
0
 40
5.5
 50
90
 51
-90
  0
LINE
  8
0
 62
     2
  6
CONTINUOUS
 10
19.3
 20
-60.64
 30
0
 11
21.8
 21
-60.64
 31
0
  0
LINE
  8
0
 62
     2
  6
CONTINUOUS
 10
4
 20
-55.64
 30
0
 11
41.3
 21
-55.64
 31
0
  0
LINE
  8
0
 62
     2
  6
CONTINUOUS
 10
45.3
 20
-59.64
 30
0
 11
45.3
 21
-66.14
 31
0
  0
LINE
  8
0
 62
     2
  6
CONTINUOUS
 10
45.3
 20
-66.14
 30
0
 11
45.3
 21
-72.64
 31
0
  0
LINE
  8
0
 62
     2
  6
CONTINUOUS
 10
41.3
 20
-76.64
 30
0
 11
4
 21
-76.64
 31
0
  0
LINE
  8
0
 62
     2
  6
CONTINUOUS
 10
4
 20
-97.98
 30
0
 11
4
 21
-76.98
 31
0
  0
LINE
  8
0
 62
     2
  6
CONTINUOUS
 10
21.8
 20
-81.98
 30
0
 11
24.3
 21
-81.98
 31
0
  0
ARC
  8
0
 62
     2
  6
CONTINUOUS
 10
24.3
 20
-87.48
 30
0
 40
5.5
 50
-90
 51
90
  0
LINE
  8
0
 62
     2
  6
CONTINUOUS
 10
24.3
 20
-92.98
 30
0
 11
19.3
 21
-92.98
 31
0
  0
ARC
  8
0
 62
     2
  6
CONTINUOUS
 10
19.3
 20
-87.48
 30
0
 40
5.5
 50
90
 51
-90
  0
LINE
  8
0
 62
     2
  6
CONTINUOUS
 10
19.3
 20
-81.98
 30
0
 11
21.8
 21
-81.98
 31
0
  0
LINE
  8
0
 62
     2
  6
CONTINUOUS
 10
4
 20
-76.98
 30
0
 11
41.3
 21
-76.98
 31
0
  0
LINE
  8
0
 62
     2
  6
CONTINUOUS
 10
45.3
 20
-80.98
 30
0
 11
45.3
 21
-87.48
 31
0
  0
LINE
  8
0
 62
     2
  6
CONTINUOUS
 10
45.3
 20
-87.48
 30
0
 11
45.3
 21
-93.98
 31
0
  0
LINE
  8
0
 62
     2
  6
CONTINUOUS
 10
41.3
 20
-97.98
 30
0
 11
4
 21
-97.98
 31
0
  0
LINE
  8
0
 62
     2
  6
CONTINUOUS
 10
4
 20
-119.32
 30
0
 11
4
 21
-98.32
 31
0
  0
LINE
  8
0
 62
     2
  6
CONTINUOUS
 10
21.8
 20
-103.32
 30
0
 11
24.3
 21
-103.32
 31
0
  0
ARC
  8
0
 62
     2
  6
CONTINUOUS
 10
24.3
 20
-108.82
 30
0
 40
5.5
 50
-90
 51
90
  0
LINE
  8
0
 62
     2
  6
CONTINUOUS
 10
24.3
 20
-114.32
 30
0
 11
19.3
 21
-114.32
 31
0
  0
ARC
  8
0
 62
     2
  6
CONTINUOUS
 10
19.3
 20
-108.82
 30
0
 40
5.5
 50
90
 51
-90
  0
LINE
  8
0
 62
     2
  6
CONTINUOUS
 10
19.3
 20
-103.32
 30
0
 11
21.8
 21
-103.32
 31
0
  0
LINE
  8
0
 62
     2
  6
CONTINUOUS
 10
4
 20
-98.32
 30
0
 11
41.3
 21
-98.32
 31
0
  0
LINE
  8
0
 62
     2
  6
CONTINUOUS
 10
45.3
 20
-102.32
 30
0
 11
45.3
 21
-108.82
 31
0
  0
LINE
  8
0
 62
     2
  6
CONTINUOUS
 10
45.3
 20
-108.82
 30
0
 11
45.3
 21
-115.32
 31
0
  0
LINE
  8
0
 62
     2
  6
CONTINUOUS
 10
45.3
 20
-115.32
 30
0
 11
41.3
 21
-119.32
 31
0
  0
LINE
  8
0
 62
     2
  6
CONTINUOUS
 10
41.3
 20
-119.32
 30
0
 11
4
 21
-119.32
 31
0
  0
INSERT
  2
Fig_001
  8
0
 10
0
 20
0
 30
0
 50
0
  0
INSERT
  2
Fig_002
  8
0
 10
0
 20
0
 30
0
 50
0
  0
INSERT
  2
OperationStart-00001
  8
OperationStart
 10
4
 20
-34.3
 30
0
 50
0
  0
INSERT
  2
Fig_003
  8
0
 10
0
 20
0
 30
0
 50
0
  0
INSERT
  2
Fig_005
  8
0
 10
0
 20
0
 30
0
 50
0
  0
INSERT
  2
Fig_005
  8
0
 10
0
 20
-21.34
 30
0
 50
0
  0
INSERT
  2
Fig_003
  8
0
 10
0
 20
-21.34
 30
0
 50
0
  0
INSERT
  2
Fig_003
  8
0
 10
0
 20
-42.68
 30
0
 50
0
  0
INSERT
  2
Fig_005
  8
0
 10
0
 20
-42.68
 30
0
 50
0
  0
INSERT
  2
Fig_005
  8
0
 10
0
 20
-64.02
 30
0
 50
0
  0
INSERT
  2
Fig_003
  8
0
 10
0
 20
-64.02
 30
0
 50
0
  0
INSERT
  2
OperationStart-00002
  8
OperationStart
 10
4
 20
-34.3
 30
0
 50
0
  0
TEXT
  8
BEM
 62
     1
  6
CONTINUOUS
 10
-17.689
 20
-96.55
 30
0
 40
5
 41
0.8
 50
90
 51
0
  1
85.02
  0
LINE
  8
BEM
 62
     1
  6
CONTINUOUS
 10
2.3333333333333
 20
-119.32
 30
0
 11
-21.689
 21
-119.32
 31
0
  0
LINE
  8
BEM
 62
     1
  6
CONTINUOUS
 10
2.3333333333333
 20
-34.3
 30
0
 11
-21.689
 21
-34.3
 31
0
  0
SOLID
  8
BEM
 62
     1
  6
CONTINUOUS
 10
-16.689
 20
-119.32
 30
0
 11
-18.029
 21
-115.32
 31
0
 12
-15.349
 22
-115.32
 32
0
 13
-15.349
 23
-115.32
 33
0
  0
LINE
  8
BEM
 62
     1
  6
CONTINUOUS
 10
-16.689
 20
-119.32
 30
0
 11
-16.689
 21
-76.81
 31
0
  0
SOLID
  8
BEM
 62
     1
  6
CONTINUOUS
 10
-16.689
 20
-34.3
 30
0
 11
-15.349
 21
-38.3
 31
0
 12
-18.029
 22
-38.3
 32
0
 13
-18.029
 23
-38.3
 33
0
  0
LINE
  8
BEM
 62
     1
  6
CONTINUOUS
 10
-16.689
 20
-34.3
 30
0
 11
-16.689
 21
-76.81
 31
0
  0
INSERT
  2
GENSEC-Fig_001-00003-1615226440
  8
0
 10
0
 20
0
 30
0
 50
0
  0
INSERT
  2
GENSEC-Fig_002-00006-1615226450
  8
0
 10
0
 20
0
 30
0
 50
0
  0
ENDSEC
  0
EOF
