  0
SECTION
  2
HEADER
  9
$INSUNITS
 70
     4
  9
$MEASUREMENT
 70
     1
  9
$DIMALT
 70
     1
  9
$DIMALTD
 70
     3
  9
$DIMALTF
 40
0.039370078740157
  0
ENDSEC
  0
SECTION
  2
TABLES
  0
TABLE
  2
LTYPE
 70
     5
  0
LTYPE
  2
CONTINUOUS
 70
     0
  3
CONTINUOUS
 72
    65
 73
     0
 40
0
  0
LTYPE
  2
DASHED
 70
     0
  3
DASHED
 72
    65
 73
     2
 40
0.75
 49
0.5
 49
-0.25
  0
LTYPE
  2
DOT
 70
     0
  3
DOT
 72
    65
 73
     2
 40
0.25
 49
0
 49
-0.25
  0
LTYPE
  2
CENTER
 70
     0
  3
CENTER
 72
    65
 73
     4
 40
2
 49
1.25
 49
-0.25
 49
0.25
 49
-0.25
  0
LTYPE
  2
DASHDOT
 70
     0
  3
DASHDOT
 72
    65
 73
     4
 40
1
 49
0.5
 49
-0.25
 49
0
 49
-0.25
  0
ENDTAB
  0
TABLE
  2
LAYER
 70
     4
  0
LAYER
  2
0
 70
     0
 62
     1
  6
CONTINUOUS
  0
LAYER
  2
BEM
 70
     0
 62
     1
  6
CONTINUOUS
  0
LAYER
  2
OperationStart
 70
     0
 62
     1
  6
CONTINUOUS
  0
LAYER
  2
c-elements
 70
     0
 62
     1
  6
CONTINUOUS
  0
ENDTAB
  0
ENDSEC
  0
SECTION
  2
BLOCKS
  0
BLOCK
  2
rect_75_8_145_2_0_0_1_0_
 10
0
 20
0
 30
0
 70
    64
  8
0
  0
LINE
  8
0
 62
     2
  6
CONTINUOUS
 10
0
 20
-72.6
 30
0
 11
-37.9
 21
-72.6
 31
0
  0
LINE
  8
0
 62
     2
  6
CONTINUOUS
 10
-37.9
 20
-72.6
 30
0
 11
-37.9
 21
72.6
 31
0
  0
LINE
  8
0
 62
     2
  6
CONTINUOUS
 10
-37.9
 20
72.6
 30
0
 11
37.9
 21
72.6
 31
0
  0
LINE
  8
0
 62
     2
  6
CONTINUOUS
 10
37.9
 20
72.6
 30
0
 11
37.9
 21
-72.6
 31
0
  0
LINE
  8
0
 62
     2
  6
CONTINUOUS
 10
37.9
 20
-72.6
 30
0
 11
0
 21
-72.6
 31
0
  0
ENDBLK
  0
BLOCK
  2
Fig_000
 10
0
 20
0
 30
0
 70
    64
  8
0
  0
POINT
  8
0
 62
     1
  6
CONTINUOUS
 10
-46.692
 20
-21.306
 30
0
  0
POINT
  8
0
 62
     1
  6
CONTINUOUS
 10
-46.692
 20
-16.982
 30
0
  0
LINE
  8
0
 62
     2
  6
CONTINUOUS
 10
-37.393639698147
 20
-16.982
 30
0
 11
-54.039
 21
-16.982
 31
0
  0
LINE
  8
0
 62
     2
  6
CONTINUOUS
 10
-54.039
 20
-16.982
 30
0
 11
-54.039
 21
-9.982
 31
0
  0
LINE
  8
0
 62
     2
  6
CONTINUOUS
 10
-54.039
 20
-9.982
 30
0
 11
-62.216124344468
 21
-9.982
 31
0
  0
ARC
  8
0
 62
     2
  6
CONTINUOUS
 10
-63.539
 20
-11.482
 30
0
 40
2
 50
48.59037789073
 51
-120
  0
LINE
  8
0
 62
     2
  6
CONTINUOUS
 10
-64.539
 20
-13.214050807569
 30
0
 11
-64.539
 21
-52.749949192431
 31
0
  0
ARC
  8
0
 62
     2
  6
CONTINUOUS
 10
-63.539
 20
-54.482
 30
0
 40
2
 50
120
 51
-30.000000000001
  0
LINE
  8
0
 62
     2
  6
CONTINUOUS
 10
-61.806949192431
 20
-55.482
 30
0
 11
-37.539
 21
-55.482
 31
0
  0
LINE
  8
0
 62
     2
  6
CONTINUOUS
 10
-37.539
 20
-55.482
 30
0
 11
-11.831893218813
 21
-55.482
 31
0
  0
LINE
  8
0
 62
     2
  6
CONTINUOUS
 10
-11.831893218813
 20
-55.482
 30
0
 11
-10.039
 21
-53.689106781187
 31
0
  0
LINE
  8
0
 62
     2
  6
CONTINUOUS
 10
-10.039
 20
-53.689106781187
 30
0
 11
-10.039
 21
-49.982
 31
0
  0
LINE
  8
0
 62
     2
  6
CONTINUOUS
 10
-10.039
 20
-49.982
 30
0
 11
-12.539
 21
-49.982
 31
0
  0
LINE
  8
0
 62
     2
  6
CONTINUOUS
 10
-12.539
 20
-49.982
 30
0
 11
-12.539
 21
-34.482
 31
0
  0
ARC
  8
0
 62
     2
  6
CONTINUOUS
 10
-23.038999405011
 20
-34.482001421615
 30
0
 40
10.499999405011
 50
7.7573827390715e-006
 51
45.421608465838
  0
ARC
  8
0
 62
     2
  6
CONTINUOUS
 10
-40.53
 20
-52.34
 30
0
 40
35.496829716794
 50
45.543591655318
 51
76.450491711505
  0
ARC
  8
0
 62
     2
  6
CONTINUOUS
 10
-40.53
 20
-52.34
 30
0
 40
35.496829716794
 50
76.450491711505
 51
84.930960066663
  0
ENDBLK
  0
BLOCK
  2
OperationStart-00000
 10
0
 20
0
 30
0
 70
    64
  8
0
  0
ENDBLK
  0
BLOCK
  2
GENSEC-Fig_000-00000-1587579610
 10
0
 20
0
 30
0
 70
    64
  8
0
  0
LINE
  8
0
 62
     3
  6
CONTINUOUS
 10
-46.692
 20
-21.306
 30
0
 11
-46.692
 21
-21.306
 31
14
  0
LINE
  8
0
 62
     6
  6
CONTINUOUS
 10
-46.692
 20
-21.306
 30
0
 11
-46.692
 21
-16.982
 31
0
  0
LINE
  8
0
 62
     6
  6
CONTINUOUS
 10
-46.692
 20
-21.306
 30
14
 11
-46.692
 21
-16.982
 31
14
  0
LINE
  8
0
 62
     3
  6
CONTINUOUS
 10
-46.692
 20
-16.982
 30
0
 11
-46.692
 21
-16.982
 31
14
  0
LINE
  8
0
 62
     6
  6
CONTINUOUS
 10
-46.692
 20
-16.982
 30
0
 11
-54.039
 21
-16.982
 31
0
  0
LINE
  8
0
 62
     6
  6
CONTINUOUS
 10
-46.692
 20
-16.982
 30
14
 11
-54.039
 21
-16.982
 31
14
  0
LINE
  8
0
 62
     3
  6
CONTINUOUS
 10
-54.039
 20
-16.982
 30
0
 11
-54.039
 21
-16.982
 31
14
  0
LINE
  8
0
 62
     6
  6
CONTINUOUS
 10
-54.039
 20
-16.982
 30
0
 11
-54.039
 21
-9.982
 31
0
  0
LINE
  8
0
 62
     6
  6
CONTINUOUS
 10
-54.039
 20
-16.982
 30
14
 11
-54.039
 21
-9.982
 31
14
  0
LINE
  8
0
 62
     3
  6
CONTINUOUS
 10
-54.039
 20
-9.982
 30
0
 11
-54.039
 21
-9.982
 31
14
  0
LINE
  8
0
 62
     6
  6
CONTINUOUS
 10
-54.039
 20
-9.982
 30
0
 11
-62.216124344468
 21
-9.982
 31
0
  0
LINE
  8
0
 62
     6
  6
CONTINUOUS
 10
-54.039
 20
-9.982
 30
14
 11
-62.216124344468
 21
-9.982
 31
14
  0
LINE
  8
0
 62
     3
  6
CONTINUOUS
 10
-62.216124344468
 20
-9.982
 30
0
 11
-62.216124344468
 21
-9.982
 31
14
  0
LINE
  8
0
 62
     6
  6
CONTINUOUS
 10
-62.216124344468
 20
-9.982
 30
0
 11
-62.352934253069
 21
-9.8716435040787
 31
0
  0
LINE
  8
0
 62
     6
  6
CONTINUOUS
 10
-62.216124344468
 20
-9.982
 30
14
 11
-62.352934253069
 21
-9.8716435040787
 31
14
  0
LINE
  8
0
 62
     6
  6
CONTINUOUS
 10
-62.352934253069
 20
-9.8716435040787
 30
0
 11
-62.4989051874
 21
-9.7737252033695
 31
0
  0
LINE
  8
0
 62
     6
  6
CONTINUOUS
 10
-62.352934253069
 20
-9.8716435040787
 30
14
 11
-62.4989051874
 21
-9.7737252033695
 31
14
  0
LINE
  8
0
 62
     6
  6
CONTINUOUS
 10
-62.4989051874
 20
-9.7737252033695
 30
0
 11
-62.652909685946
 21
-9.6890014067657
 31
0
  0
LINE
  8
0
 62
     6
  6
CONTINUOUS
 10
-62.4989051874
 20
-9.7737252033695
 30
14
 11
-62.652909685946
 21
-9.6890014067657
 31
14
  0
LINE
  8
0
 62
     6
  6
CONTINUOUS
 10
-62.652909685946
 20
-9.6890014067657
 30
0
 11
-62.81375823693
 21
-9.6181265104359
 31
0
  0
LINE
  8
0
 62
     6
  6
CONTINUOUS
 10
-62.652909685946
 20
-9.6890014067657
 30
14
 11
-62.81375823693
 21
-9.6181265104359
 31
14
  0
LINE
  8
0
 62
     6
  6
CONTINUOUS
 10
-62.81375823693
 20
-9.6181265104359
 30
0
 11
-62.980208465958
 21
-9.5616479433493
 31
0
  0
LINE
  8
0
 62
     6
  6
CONTINUOUS
 10
-62.81375823693
 20
-9.6181265104359
 30
14
 11
-62.980208465958
 21
-9.5616479433493
 31
14
  0
LINE
  8
0
 62
     6
  6
CONTINUOUS
 10
-62.980208465958
 20
-9.5616479433493
 30
0
 11
-63.150974731963
 21
-9.5200019390008
 31
0
  0
LINE
  8
0
 62
     6
  6
CONTINUOUS
 10
-62.980208465958
 20
-9.5616479433493
 30
14
 11
-63.150974731963
 21
-9.5200019390008
 31
14
  0
LINE
  8
0
 62
     6
  6
CONTINUOUS
 10
-63.150974731963
 20
-9.5200019390008
 30
0
 11
-63.324738057341
 21
-9.4935101659983
 31
0
  0
LINE
  8
0
 62
     6
  6
CONTINUOUS
 10
-63.150974731963
 20
-9.5200019390008
 30
14
 11
-63.324738057341
 21
-9.4935101659983
 31
14
  0
LINE
  8
0
 62
     6
  6
CONTINUOUS
 10
-63.324738057341
 20
-9.4935101659983
 30
0
 11
-63.500156315572
 21
-9.4823772435332
 31
0
  0
LINE
  8
0
 62
     6
  6
CONTINUOUS
 10
-63.324738057341
 20
-9.4935101659983
 30
14
 11
-63.500156315572
 21
-9.4823772435332
 31
14
  0
LINE
  8
0
 62
     6
  6
CONTINUOUS
 10
-63.500156315572
 20
-9.4823772435332
 30
0
 11
-63.675874597637
 21
-9.4866891609271
 31
0
  0
LINE
  8
0
 62
     6
  6
CONTINUOUS
 10
-63.500156315572
 20
-9.4823772435332
 30
14
 11
-63.675874597637
 21
-9.4866891609271
 31
14
  0
LINE
  8
0
 62
     6
  6
CONTINUOUS
 10
-63.675874597637
 20
-9.4866891609271
 30
0
 11
-63.85053567717
 21
-9.5064126134614
 31
0
  0
LINE
  8
0
 62
     6
  6
CONTINUOUS
 10
-63.675874597637
 20
-9.4866891609271
 30
14
 11
-63.85053567717
 21
-9.5064126134614
 31
14
  0
LINE
  8
0
 62
     6
  6
CONTINUOUS
 10
-63.85053567717
 20
-9.5064126134614
 30
0
 11
-64.022790493507
 21
-9.5413952596182
 31
0
  0
LINE
  8
0
 62
     6
  6
CONTINUOUS
 10
-63.85053567717
 20
-9.5064126134614
 30
14
 11
-64.022790493507
 21
-9.5413952596182
 31
14
  0
LINE
  8
0
 62
     6
  6
CONTINUOUS
 10
-64.022790493507
 20
-9.5413952596182
 30
0
 11
-64.191308571665
 21
-9.5913668977476
 31
0
  0
LINE
  8
0
 62
     6
  6
CONTINUOUS
 10
-64.022790493507
 20
-9.5413952596182
 30
14
 11
-64.191308571665
 21
-9.5913668977476
 31
14
  0
LINE
  8
0
 62
     6
  6
CONTINUOUS
 10
-64.191308571665
 20
-9.5913668977476
 30
0
 11
-64.354788298766
 21
-9.6559415530723
 31
0
  0
LINE
  8
0
 62
     6
  6
CONTINUOUS
 10
-64.191308571665
 20
-9.5913668977476
 30
14
 11
-64.354788298766
 21
-9.6559415530723
 31
14
  0
LINE
  8
0
 62
     6
  6
CONTINUOUS
 10
-64.354788298766
 20
-9.6559415530723
 30
0
 11
-64.511966977536
 21
-9.7346204589087
 31
0
  0
LINE
  8
0
 62
     6
  6
CONTINUOUS
 10
-64.354788298766
 20
-9.6559415530723
 30
14
 11
-64.511966977536
 21
-9.7346204589087
 31
14
  0
LINE
  8
0
 62
     6
  6
CONTINUOUS
 10
-64.511966977536
 20
-9.7346204589087
 30
0
 11
-64.66163057922
 21
-9.8267959090798
 31
0
  0
LINE
  8
0
 62
     6
  6
CONTINUOUS
 10
-64.511966977536
 20
-9.7346204589087
 30
14
 11
-64.66163057922
 21
-9.8267959090798
 31
14
  0
LINE
  8
0
 62
     6
  6
CONTINUOUS
 10
-64.66163057922
 20
-9.8267959090798
 30
0
 11
-64.802623120596
 21
-9.9317559517625
 31
0
  0
LINE
  8
0
 62
     6
  6
CONTINUOUS
 10
-64.66163057922
 20
-9.8267959090798
 30
14
 11
-64.802623120596
 21
-9.9317559517625
 31
14
  0
LINE
  8
0
 62
     6
  6
CONTINUOUS
 10
-64.802623120596
 20
-9.9317559517625
 30
0
 11
-64.93385559264
 21
-10.048689888516
 31
0
  0
LINE
  8
0
 62
     6
  6
CONTINUOUS
 10
-64.802623120596
 20
-9.9317559517625
 30
14
 11
-64.93385559264
 21
-10.048689888516
 31
14
  0
LINE
  8
0
 62
     6
  6
CONTINUOUS
 10
-64.93385559264
 20
-10.048689888516
 30
0
 11
-65.054314371903
 21
-10.176694536017
 31
0
  0
LINE
  8
0
 62
     6
  6
CONTINUOUS
 10
-64.93385559264
 20
-10.048689888516
 30
14
 11
-65.054314371903
 21
-10.176694536017
 31
14
  0
LINE
  8
0
 62
     6
  6
CONTINUOUS
 10
-65.054314371903
 20
-10.176694536017
 30
0
 11
-65.163069049613
 21
-10.314781202135
 31
0
  0
LINE
  8
0
 62
     6
  6
CONTINUOUS
 10
-65.054314371903
 20
-10.176694536017
 30
14
 11
-65.163069049613
 21
-10.314781202135
 31
14
  0
LINE
  8
0
 62
     6
  6
CONTINUOUS
 10
-65.163069049613
 20
-10.314781202135
 30
0
 11
-65.259279618035
 21
-10.461883322471
 31
0
  0
LINE
  8
0
 62
     6
  6
CONTINUOUS
 10
-65.163069049613
 20
-10.314781202135
 30
14
 11
-65.259279618035
 21
-10.461883322471
 31
14
  0
LINE
  8
0
 62
     6
  6
CONTINUOUS
 10
-65.259279618035
 20
-10.461883322471
 30
0
 11
-65.34220295859
 21
-10.616864698367
 31
0
  0
LINE
  8
0
 62
     6
  6
CONTINUOUS
 10
-65.259279618035
 20
-10.461883322471
 30
14
 11
-65.34220295859
 21
-10.616864698367
 31
14
  0
LINE
  8
0
 62
     6
  6
CONTINUOUS
 10
-65.34220295859
 20
-10.616864698367
 30
0
 11
-65.41119858161
 21
-10.778528272766
 31
0
  0
LINE
  8
0
 62
     6
  6
CONTINUOUS
 10
-65.34220295859
 20
-10.616864698367
 30
14
 11
-65.41119858161
 21
-10.778528272766
 31
14
  0
LINE
  8
0
 62
     6
  6
CONTINUOUS
 10
-65.41119858161
 20
-10.778528272766
 30
0
 11
-65.465733573401
 21
-10.945625376133
 31
0
  0
LINE
  8
0
 62
     6
  6
CONTINUOUS
 10
-65.41119858161
 20
-10.778528272766
 30
14
 11
-65.465733573401
 21
-10.945625376133
 31
14
  0
LINE
  8
0
 62
     6
  6
CONTINUOUS
 10
-65.465733573401
 20
-10.945625376133
 30
0
 11
-65.505386712405
 21
-11.116865371025
 31
0
  0
LINE
  8
0
 62
     6
  6
CONTINUOUS
 10
-65.465733573401
 20
-10.945625376133
 30
14
 11
-65.505386712405
 21
-11.116865371025
 31
14
  0
LINE
  8
0
 62
     6
  6
CONTINUOUS
 10
-65.505386712405
 20
-11.116865371025
 30
0
 11
-65.52985172266
 21
-11.290925620814
 31
0
  0
LINE
  8
0
 62
     6
  6
CONTINUOUS
 10
-65.505386712405
 20
-11.116865371025
 30
14
 11
-65.52985172266
 21
-11.290925620814
 31
14
  0
LINE
  8
0
 62
     6
  6
CONTINUOUS
 10
-65.52985172266
 20
-11.290925620814
 30
0
 11
-65.538939639441
 21
-11.466461705572
 31
0
  0
LINE
  8
0
 62
     6
  6
CONTINUOUS
 10
-65.52985172266
 20
-11.290925620814
 30
14
 11
-65.538939639441
 21
-11.466461705572
 31
14
  0
LINE
  8
0
 62
     6
  6
CONTINUOUS
 10
-65.538939639441
 20
-11.466461705572
 30
0
 11
-65.532580268797
 21
-11.642117806202
 31
0
  0
LINE
  8
0
 62
     6
  6
CONTINUOUS
 10
-65.538939639441
 20
-11.466461705572
 30
14
 11
-65.532580268797
 21
-11.642117806202
 31
14
  0
LINE
  8
0
 62
     6
  6
CONTINUOUS
 10
-65.532580268797
 20
-11.642117806202
 30
0
 11
-65.510822729725
 21
-11.816537176619
 31
0
  0
LINE
  8
0
 62
     6
  6
CONTINUOUS
 10
-65.532580268797
 20
-11.642117806202
 30
14
 11
-65.510822729725
 21
-11.816537176619
 31
14
  0
LINE
  8
0
 62
     6
  6
CONTINUOUS
 10
-65.510822729725
 20
-11.816537176619
 30
0
 11
-65.473835074776
 21
-11.988372623093
 31
0
  0
LINE
  8
0
 62
     6
  6
CONTINUOUS
 10
-65.510822729725
 20
-11.816537176619
 30
14
 11
-65.473835074776
 21
-11.988372623093
 31
14
  0
LINE
  8
0
 62
     6
  6
CONTINUOUS
 10
-65.473835074776
 20
-11.988372623093
 30
0
 11
-65.42190299204
 21
-12.1562969098
 31
0
  0
LINE
  8
0
 62
     6
  6
CONTINUOUS
 10
-65.473835074776
 20
-11.988372623093
 30
14
 11
-65.42190299204
 21
-12.1562969098
 31
14
  0
LINE
  8
0
 62
     6
  6
CONTINUOUS
 10
-65.42190299204
 20
-12.1562969098
 30
0
 11
-65.355427598529
 21
-12.319013010236
 31
0
  0
LINE
  8
0
 62
     6
  6
CONTINUOUS
 10
-65.42190299204
 20
-12.1562969098
 30
14
 11
-65.355427598529
 21
-12.319013010236
 31
14
  0
LINE
  8
0
 62
     6
  6
CONTINUOUS
 10
-65.355427598529
 20
-12.319013010236
 30
0
 11
-65.274922341992
 21
-12.475264125283
 31
0
  0
LINE
  8
0
 62
     6
  6
CONTINUOUS
 10
-65.355427598529
 20
-12.319013010236
 30
14
 11
-65.274922341992
 21
-12.475264125283
 31
14
  0
LINE
  8
0
 62
     6
  6
CONTINUOUS
 10
-65.274922341992
 20
-12.475264125283
 30
0
 11
-65.181009035115
 21
-12.623843390575
 31
0
  0
LINE
  8
0
 62
     6
  6
CONTINUOUS
 10
-65.274922341992
 20
-12.475264125283
 30
14
 11
-65.181009035115
 21
-12.623843390575
 31
14
  0
LINE
  8
0
 62
     6
  6
CONTINUOUS
 10
-65.181009035115
 20
-12.623843390575
 30
0
 11
-65.074413052712
 21
-12.76360319817
 31
0
  0
LINE
  8
0
 62
     6
  6
CONTINUOUS
 10
-65.181009035115
 20
-12.623843390575
 30
14
 11
-65.074413052712
 21
-12.76360319817
 31
14
  0
LINE
  8
0
 62
     6
  6
CONTINUOUS
 10
-65.074413052712
 20
-12.76360319817
 30
0
 11
-64.955957729021
 21
-12.89346406053
 31
0
  0
LINE
  8
0
 62
     6
  6
CONTINUOUS
 10
-65.074413052712
 20
-12.76360319817
 30
14
 11
-64.955957729021
 21
-12.89346406053
 31
14
  0
LINE
  8
0
 62
     6
  6
CONTINUOUS
 10
-64.955957729021
 20
-12.89346406053
 30
0
 11
-64.826557998371
 21
-13.012422948348
 31
0
  0
LINE
  8
0
 62
     6
  6
CONTINUOUS
 10
-64.955957729021
 20
-12.89346406053
 30
14
 11
-64.826557998371
 21
-13.012422948348
 31
14
  0
LINE
  8
0
 62
     6
  6
CONTINUOUS
 10
-64.826557998371
 20
-13.012422948348
 30
0
 11
-64.687213328342
 21
-13.11956103783
 31
0
  0
LINE
  8
0
 62
     6
  6
CONTINUOUS
 10
-64.826557998371
 20
-13.012422948348
 30
14
 11
-64.687213328342
 21
-13.11956103783
 31
14
  0
LINE
  8
0
 62
     6
  6
CONTINUOUS
 10
-64.687213328342
 20
-13.11956103783
 30
0
 11
-64.539
 21
-13.214050807569
 31
0
  0
LINE
  8
0
 62
     6
  6
CONTINUOUS
 10
-64.687213328342
 20
-13.11956103783
 30
14
 11
-64.539
 21
-13.214050807569
 31
14
  0
LINE
  8
0
 62
     3
  6
CONTINUOUS
 10
-64.539
 20
-13.214050807569
 30
0
 11
-64.539
 21
-13.214050807569
 31
14
  0
LINE
  8
0
 62
     6
  6
CONTINUOUS
 10
-64.539
 20
-13.214050807569
 30
0
 11
-64.539
 21
-52.749949192431
 31
0
  0
LINE
  8
0
 62
     6
  6
CONTINUOUS
 10
-64.539
 20
-13.214050807569
 30
14
 11
-64.539
 21
-52.749949192431
 31
14
  0
LINE
  8
0
 62
     3
  6
CONTINUOUS
 10
-64.539
 20
-52.749949192431
 30
0
 11
-64.539
 21
-52.749949192431
 31
14
  0
LINE
  8
0
 62
     6
  6
CONTINUOUS
 10
-64.539
 20
-52.749949192431
 30
0
 11
-64.689637320437
 21
-52.846141278467
 31
0
  0
LINE
  8
0
 62
     6
  6
CONTINUOUS
 10
-64.539
 20
-52.749949192431
 30
14
 11
-64.689637320437
 21
-52.846141278467
 31
14
  0
LINE
  8
0
 62
     6
  6
CONTINUOUS
 10
-64.689637320437
 20
-52.846141278467
 30
0
 11
-64.83108550173
 21
-52.955397544801
 31
0
  0
LINE
  8
0
 62
     6
  6
CONTINUOUS
 10
-64.689637320437
 20
-52.846141278467
 30
14
 11
-64.83108550173
 21
-52.955397544801
 31
14
  0
LINE
  8
0
 62
     6
  6
CONTINUOUS
 10
-64.83108550173
 20
-52.955397544801
 30
0
 11
-64.962214920324
 21
-53.076845456696
 31
0
  0
LINE
  8
0
 62
     6
  6
CONTINUOUS
 10
-64.83108550173
 20
-52.955397544801
 30
14
 11
-64.962214920324
 21
-53.076845456696
 31
14
  0
LINE
  8
0
 62
     6
  6
CONTINUOUS
 10
-64.962214920324
 20
-53.076845456696
 30
0
 11
-65.081978359644
 21
-53.209515115347
 31
0
  0
LINE
  8
0
 62
     6
  6
CONTINUOUS
 10
-64.962214920324
 20
-53.076845456696
 30
14
 11
-65.081978359644
 21
-53.209515115347
 31
14
  0
LINE
  8
0
 62
     6
  6
CONTINUOUS
 10
-65.081978359644
 20
-53.209515115347
 30
0
 11
-65.189419373303
 21
-53.352347003622
 31
0
  0
LINE
  8
0
 62
     6
  6
CONTINUOUS
 10
-65.081978359644
 20
-53.209515115347
 30
14
 11
-65.189419373303
 21
-53.352347003622
 31
14
  0
LINE
  8
0
 62
     6
  6
CONTINUOUS
 10
-65.189419373303
 20
-53.352347003622
 30
0
 11
-65.283679923406
 21
-53.504200447503
 31
0
  0
LINE
  8
0
 62
     6
  6
CONTINUOUS
 10
-65.189419373303
 20
-53.352347003622
 30
14
 11
-65.283679923406
 21
-53.504200447503
 31
14
  0
LINE
  8
0
 62
     6
  6
CONTINUOUS
 10
-65.283679923406
 20
-53.504200447503
 30
0
 11
-65.364007232953
 21
-53.663862725657
 31
0
  0
LINE
  8
0
 62
     6
  6
CONTINUOUS
 10
-65.283679923406
 20
-53.504200447503
 30
14
 11
-65.364007232953
 21
-53.663862725657
 31
14
  0
LINE
  8
0
 62
     6
  6
CONTINUOUS
 10
-65.364007232953
 20
-53.663862725657
 30
0
 11
-65.429759797612
 21
-53.830058754386
 31
0
  0
LINE
  8
0
 62
     6
  6
CONTINUOUS
 10
-65.364007232953
 20
-53.663862725657
 30
14
 11
-65.429759797612
 21
-53.830058754386
 31
14
  0
LINE
  8
0
 62
     6
  6
CONTINUOUS
 10
-65.429759797612
 20
-53.830058754386
 30
0
 11
-65.480412508859
 21
-54.001461270609
 31
0
  0
LINE
  8
0
 62
     6
  6
CONTINUOUS
 10
-65.429759797612
 20
-53.830058754386
 30
14
 11
-65.480412508859
 21
-54.001461270609
 31
14
  0
LINE
  8
0
 62
     6
  6
CONTINUOUS
 10
-65.480412508859
 20
-54.001461270609
 30
0
 11
-65.515560847561
 21
-54.176701431562
 31
0
  0
LINE
  8
0
 62
     6
  6
CONTINUOUS
 10
-65.480412508859
 20
-54.001461270609
 30
14
 11
-65.515560847561
 21
-54.176701431562
 31
14
  0
LINE
  8
0
 62
     6
  6
CONTINUOUS
 10
-65.515560847561
 20
-54.176701431562
 30
0
 11
-65.534924114517
 21
-54.354379746551
 31
0
  0
LINE
  8
0
 62
     6
  6
CONTINUOUS
 10
-65.515560847561
 20
-54.176701431562
 30
14
 11
-65.534924114517
 21
-54.354379746551
 31
14
  0
LINE
  8
0
 62
     6
  6
CONTINUOUS
 10
-65.534924114517
 20
-54.354379746551
 30
0
 11
-65.538347672162
 21
-54.533077253465
 31
0
  0
LINE
  8
0
 62
     6
  6
CONTINUOUS
 10
-65.534924114517
 20
-54.354379746551
 30
14
 11
-65.538347672162
 21
-54.533077253465
 31
14
  0
LINE
  8
0
 62
     6
  6
CONTINUOUS
 10
-65.538347672162
 20
-54.533077253465
 30
0
 11
-65.525804179519
 21
-54.711366850797
 31
0
  0
LINE
  8
0
 62
     6
  6
CONTINUOUS
 10
-65.538347672162
 20
-54.533077253465
 30
14
 11
-65.525804179519
 21
-54.711366850797
 31
14
  0
LINE
  8
0
 62
     6
  6
CONTINUOUS
 10
-65.525804179519
 20
-54.711366850797
 30
0
 11
-65.497393810552
 21
-54.887824694656
 31
0
  0
LINE
  8
0
 62
     6
  6
CONTINUOUS
 10
-65.525804179519
 20
-54.711366850797
 30
14
 11
-65.497393810552
 21
-54.887824694656
 31
14
  0
LINE
  8
0
 62
     6
  6
CONTINUOUS
 10
-65.497393810552
 20
-54.887824694656
 30
0
 11
-65.453343454157
 21
-55.061041569775
 31
0
  0
LINE
  8
0
 62
     6
  6
CONTINUOUS
 10
-65.497393810552
 20
-54.887824694656
 30
14
 11
-65.453343454157
 21
-55.061041569775
 31
14
  0
LINE
  8
0
 62
     6
  6
CONTINUOUS
 10
-65.453343454157
 20
-55.061041569775
 30
0
 11
-65.394004902204
 21
-55.229634143682
 31
0
  0
LINE
  8
0
 62
     6
  6
CONTINUOUS
 10
-65.453343454157
 20
-55.061041569775
 30
14
 11
-65.394004902204
 21
-55.229634143682
 31
14
  0
LINE
  8
0
 62
     6
  6
CONTINUOUS
 10
-65.394004902204
 20
-55.229634143682
 30
0
 11
-65.31985204008
 21
-55.392256014176
 31
0
  0
LINE
  8
0
 62
     6
  6
CONTINUOUS
 10
-65.394004902204
 20
-55.229634143682
 30
14
 11
-65.31985204008
 21
-55.392256014176
 31
14
  0
LINE
  8
0
 62
     6
  6
CONTINUOUS
 10
-65.31985204008
 20
-55.392256014176
 30
0
 11
-65.231477062175
 21
-55.547608461871
 31
0
  0
LINE
  8
0
 62
     6
  6
CONTINUOUS
 10
-65.31985204008
 20
-55.392256014176
 30
14
 11
-65.231477062175
 21
-55.547608461871
 31
14
  0
LINE
  8
0
 62
     6
  6
CONTINUOUS
 10
-65.231477062175
 20
-55.547608461871
 30
0
 11
-65.129585742547
 21
-55.694450821933
 31
0
  0
LINE
  8
0
 62
     6
  6
CONTINUOUS
 10
-65.231477062175
 20
-55.547608461871
 30
14
 11
-65.129585742547
 21
-55.694450821933
 31
14
  0
LINE
  8
0
 62
     6
  6
CONTINUOUS
 10
-65.129585742547
 20
-55.694450821933
 30
0
 11
-65.014991798512
 21
-55.831610392197
 31
0
  0
LINE
  8
0
 62
     6
  6
CONTINUOUS
 10
-65.129585742547
 20
-55.694450821933
 30
14
 11
-65.014991798512
 21
-55.831610392197
 31
14
  0
LINE
  8
0
 62
     6
  6
CONTINUOUS
 10
-65.014991798512
 20
-55.831610392197
 30
0
 11
-64.888610392197
 21
-55.957991798512
 31
0
  0
LINE
  8
0
 62
     6
  6
CONTINUOUS
 10
-65.014991798512
 20
-55.831610392197
 30
14
 11
-64.888610392197
 21
-55.957991798512
 31
14
  0
LINE
  8
0
 62
     6
  6
CONTINUOUS
 10
-64.888610392197
 20
-55.957991798512
 30
0
 11
-64.751450821933
 21
-56.072585742547
 31
0
  0
LINE
  8
0
 62
     6
  6
CONTINUOUS
 10
-64.888610392197
 20
-55.957991798512
 30
14
 11
-64.751450821933
 21
-56.072585742547
 31
14
  0
LINE
  8
0
 62
     6
  6
CONTINUOUS
 10
-64.751450821933
 20
-56.072585742547
 30
0
 11
-64.604608461871
 21
-56.174477062175
 31
0
  0
LINE
  8
0
 62
     6
  6
CONTINUOUS
 10
-64.751450821933
 20
-56.072585742547
 30
14
 11
-64.604608461871
 21
-56.174477062175
 31
14
  0
LINE
  8
0
 62
     6
  6
CONTINUOUS
 10
-64.604608461871
 20
-56.174477062175
 30
0
 11
-64.449256014176
 21
-56.26285204008
 31
0
  0
LINE
  8
0
 62
     6
  6
CONTINUOUS
 10
-64.604608461871
 20
-56.174477062175
 30
14
 11
-64.449256014176
 21
-56.26285204008
 31
14
  0
LINE
  8
0
 62
     6
  6
CONTINUOUS
 10
-64.449256014176
 20
-56.26285204008
 30
0
 11
-64.286634143682
 21
-56.337004902204
 31
0
  0
LINE
  8
0
 62
     6
  6
CONTINUOUS
 10
-64.449256014176
 20
-56.26285204008
 30
14
 11
-64.286634143682
 21
-56.337004902204
 31
14
  0
LINE
  8
0
 62
     6
  6
CONTINUOUS
 10
-64.286634143682
 20
-56.337004902204
 30
0
 11
-64.118041569775
 21
-56.396343454157
 31
0
  0
LINE
  8
0
 62
     6
  6
CONTINUOUS
 10
-64.286634143682
 20
-56.337004902204
 30
14
 11
-64.118041569775
 21
-56.396343454157
 31
14
  0
LINE
  8
0
 62
     6
  6
CONTINUOUS
 10
-64.118041569775
 20
-56.396343454157
 30
0
 11
-63.944824694656
 21
-56.440393810552
 31
0
  0
LINE
  8
0
 62
     6
  6
CONTINUOUS
 10
-64.118041569775
 20
-56.396343454157
 30
14
 11
-63.944824694656
 21
-56.440393810552
 31
14
  0
LINE
  8
0
 62
     6
  6
CONTINUOUS
 10
-63.944824694656
 20
-56.440393810552
 30
0
 11
-63.768366850797
 21
-56.468804179519
 31
0
  0
LINE
  8
0
 62
     6
  6
CONTINUOUS
 10
-63.944824694656
 20
-56.440393810552
 30
14
 11
-63.768366850797
 21
-56.468804179519
 31
14
  0
LINE
  8
0
 62
     6
  6
CONTINUOUS
 10
-63.768366850797
 20
-56.468804179519
 30
0
 11
-63.590077253465
 21
-56.481347672162
 31
0
  0
LINE
  8
0
 62
     6
  6
CONTINUOUS
 10
-63.768366850797
 20
-56.468804179519
 30
14
 11
-63.590077253465
 21
-56.481347672162
 31
14
  0
LINE
  8
0
 62
     6
  6
CONTINUOUS
 10
-63.590077253465
 20
-56.481347672162
 30
0
 11
-63.411379746551
 21
-56.477924114517
 31
0
  0
LINE
  8
0
 62
     6
  6
CONTINUOUS
 10
-63.590077253465
 20
-56.481347672162
 30
14
 11
-63.411379746551
 21
-56.477924114517
 31
14
  0
LINE
  8
0
 62
     6
  6
CONTINUOUS
 10
-63.411379746551
 20
-56.477924114517
 30
0
 11
-63.233701431562
 21
-56.458560847561
 31
0
  0
LINE
  8
0
 62
     6
  6
CONTINUOUS
 10
-63.411379746551
 20
-56.477924114517
 30
14
 11
-63.233701431562
 21
-56.458560847561
 31
14
  0
LINE
  8
0
 62
     6
  6
CONTINUOUS
 10
-63.233701431562
 20
-56.458560847561
 30
0
 11
-63.058461270609
 21
-56.423412508859
 31
0
  0
LINE
  8
0
 62
     6
  6
CONTINUOUS
 10
-63.233701431562
 20
-56.458560847561
 30
14
 11
-63.058461270609
 21
-56.423412508859
 31
14
  0
LINE
  8
0
 62
     6
  6
CONTINUOUS
 10
-63.058461270609
 20
-56.423412508859
 30
0
 11
-62.887058754386
 21
-56.372759797612
 31
0
  0
LINE
  8
0
 62
     6
  6
CONTINUOUS
 10
-63.058461270609
 20
-56.423412508859
 30
14
 11
-62.887058754386
 21
-56.372759797612
 31
14
  0
LINE
  8
0
 62
     6
  6
CONTINUOUS
 10
-62.887058754386
 20
-56.372759797612
 30
0
 11
-62.720862725657
 21
-56.307007232953
 31
0
  0
LINE
  8
0
 62
     6
  6
CONTINUOUS
 10
-62.887058754386
 20
-56.372759797612
 30
14
 11
-62.720862725657
 21
-56.307007232953
 31
14
  0
LINE
  8
0
 62
     6
  6
CONTINUOUS
 10
-62.720862725657
 20
-56.307007232953
 30
0
 11
-62.561200447503
 21
-56.226679923406
 31
0
  0
LINE
  8
0
 62
     6
  6
CONTINUOUS
 10
-62.720862725657
 20
-56.307007232953
 30
14
 11
-62.561200447503
 21
-56.226679923406
 31
14
  0
LINE
  8
0
 62
     6
  6
CONTINUOUS
 10
-62.561200447503
 20
-56.226679923406
 30
0
 11
-62.409347003622
 21
-56.132419373303
 31
0
  0
LINE
  8
0
 62
     6
  6
CONTINUOUS
 10
-62.561200447503
 20
-56.226679923406
 30
14
 11
-62.409347003622
 21
-56.132419373303
 31
14
  0
LINE
  8
0
 62
     6
  6
CONTINUOUS
 10
-62.409347003622
 20
-56.132419373303
 30
0
 11
-62.266515115347
 21
-56.024978359644
 31
0
  0
LINE
  8
0
 62
     6
  6
CONTINUOUS
 10
-62.409347003622
 20
-56.132419373303
 30
14
 11
-62.266515115347
 21
-56.024978359644
 31
14
  0
LINE
  8
0
 62
     6
  6
CONTINUOUS
 10
-62.266515115347
 20
-56.024978359644
 30
0
 11
-62.133845456696
 21
-55.905214920324
 31
0
  0
LINE
  8
0
 62
     6
  6
CONTINUOUS
 10
-62.266515115347
 20
-56.024978359644
 30
14
 11
-62.133845456696
 21
-55.905214920324
 31
14
  0
LINE
  8
0
 62
     6
  6
CONTINUOUS
 10
-62.133845456696
 20
-55.905214920324
 30
0
 11
-62.012397544801
 21
-55.77408550173
 31
0
  0
LINE
  8
0
 62
     6
  6
CONTINUOUS
 10
-62.133845456696
 20
-55.905214920324
 30
14
 11
-62.012397544801
 21
-55.77408550173
 31
14
  0
LINE
  8
0
 62
     6
  6
CONTINUOUS
 10
-62.012397544801
 20
-55.77408550173
 30
0
 11
-61.903141278467
 21
-55.632637320437
 31
0
  0
LINE
  8
0
 62
     6
  6
CONTINUOUS
 10
-62.012397544801
 20
-55.77408550173
 30
14
 11
-61.903141278467
 21
-55.632637320437
 31
14
  0
LINE
  8
0
 62
     6
  6
CONTINUOUS
 10
-61.903141278467
 20
-55.632637320437
 30
0
 11
-61.806949192431
 21
-55.482
 31
0
  0
LINE
  8
0
 62
     6
  6
CONTINUOUS
 10
-61.903141278467
 20
-55.632637320437
 30
14
 11
-61.806949192431
 21
-55.482
 31
14
  0
LINE
  8
0
 62
     3
  6
CONTINUOUS
 10
-61.806949192431
 20
-55.482
 30
0
 11
-61.806949192431
 21
-55.482
 31
14
  0
LINE
  8
0
 62
     6
  6
CONTINUOUS
 10
-61.806949192431
 20
-55.482
 30
0
 11
-37.539
 21
-55.482
 31
0
  0
LINE
  8
0
 62
     6
  6
CONTINUOUS
 10
-61.806949192431
 20
-55.482
 30
14
 11
-37.539
 21
-55.482
 31
14
  0
LINE
  8
0
 62
     3
  6
CONTINUOUS
 10
-37.539
 20
-55.482
 30
0
 11
-37.539
 21
-55.482
 31
14
  0
LINE
  8
0
 62
     6
  6
CONTINUOUS
 10
-37.539
 20
-55.482
 30
0
 11
-11.831893218813
 21
-55.482
 31
0
  0
LINE
  8
0
 62
     6
  6
CONTINUOUS
 10
-37.539
 20
-55.482
 30
14
 11
-11.831893218813
 21
-55.482
 31
14
  0
LINE
  8
0
 62
     3
  6
CONTINUOUS
 10
-11.831893218813
 20
-55.482
 30
0
 11
-11.831893218813
 21
-55.482
 31
14
  0
LINE
  8
0
 62
     6
  6
CONTINUOUS
 10
-11.831893218813
 20
-55.482
 30
0
 11
-10.039
 21
-53.689106781187
 31
0
  0
LINE
  8
0
 62
     6
  6
CONTINUOUS
 10
-11.831893218813
 20
-55.482
 30
14
 11
-10.039
 21
-53.689106781187
 31
14
  0
LINE
  8
0
 62
     3
  6
CONTINUOUS
 10
-10.039
 20
-53.689106781187
 30
0
 11
-10.039
 21
-53.689106781187
 31
14
  0
LINE
  8
0
 62
     6
  6
CONTINUOUS
 10
-10.039
 20
-53.689106781187
 30
0
 11
-10.039
 21
-49.982
 31
0
  0
LINE
  8
0
 62
     6
  6
CONTINUOUS
 10
-10.039
 20
-53.689106781187
 30
14
 11
-10.039
 21
-49.982
 31
14
  0
LINE
  8
0
 62
     3
  6
CONTINUOUS
 10
-10.039
 20
-49.982
 30
0
 11
-10.039
 21
-49.982
 31
14
  0
LINE
  8
0
 62
     6
  6
CONTINUOUS
 10
-10.039
 20
-49.982
 30
0
 11
-12.539
 21
-49.982
 31
0
  0
LINE
  8
0
 62
     6
  6
CONTINUOUS
 10
-10.039
 20
-49.982
 30
14
 11
-12.539
 21
-49.982
 31
14
  0
LINE
  8
0
 62
     3
  6
CONTINUOUS
 10
-12.539
 20
-49.982
 30
0
 11
-12.539
 21
-49.982
 31
14
  0
LINE
  8
0
 62
     6
  6
CONTINUOUS
 10
-12.539
 20
-49.982
 30
0
 11
-12.539
 21
-34.482
 31
0
  0
LINE
  8
0
 62
     6
  6
CONTINUOUS
 10
-12.539
 20
-49.982
 30
14
 11
-12.539
 21
-34.482
 31
14
  0
LINE
  8
0
 62
     3
  6
CONTINUOUS
 10
-12.539
 20
-34.482
 30
0
 11
-12.539
 21
-34.482
 31
14
  0
LINE
  8
0
 62
     6
  6
CONTINUOUS
 10
-12.539
 20
-34.482
 30
0
 11
-12.546480865275
 21
-34.085715920318
 31
0
  0
LINE
  8
0
 62
     6
  6
CONTINUOUS
 10
-12.539
 20
-34.482
 30
14
 11
-12.546480865275
 21
-34.085715920318
 31
14
  0
LINE
  8
0
 62
     6
  6
CONTINUOUS
 10
-12.546480865275
 20
-34.085715920318
 30
0
 11
-12.568912694185
 21
-33.689996514416
 31
0
  0
LINE
  8
0
 62
     6
  6
CONTINUOUS
 10
-12.546480865275
 20
-34.085715920318
 30
14
 11
-12.568912694185
 21
-33.689996514416
 31
14
  0
LINE
  8
0
 62
     6
  6
CONTINUOUS
 10
-12.568912694185
 20
-33.689996514416
 30
0
 11
-12.606263523245
 21
-33.295405649439
 31
0
  0
LINE
  8
0
 62
     6
  6
CONTINUOUS
 10
-12.568912694185
 20
-33.689996514416
 30
14
 11
-12.606263523245
 21
-33.295405649439
 31
14
  0
LINE
  8
0
 62
     6
  6
CONTINUOUS
 10
-12.606263523245
 20
-33.295405649439
 30
0
 11
-12.658480130639
 21
-32.902505584451
 31
0
  0
LINE
  8
0
 62
     6
  6
CONTINUOUS
 10
-12.606263523245
 20
-33.295405649439
 30
14
 11
-12.658480130639
 21
-32.902505584451
 31
14
  0
LINE
  8
0
 62
     6
  6
CONTINUOUS
 10
-12.658480130639
 20
-32.902505584451
 30
0
 11
-12.725488112057
 21
-32.51185616927
 31
0
  0
LINE
  8
0
 62
     6
  6
CONTINUOUS
 10
-12.658480130639
 20
-32.902505584451
 30
14
 11
-12.725488112057
 21
-32.51185616927
 31
14
  0
LINE
  8
0
 62
     6
  6
CONTINUOUS
 10
-12.725488112057
 20
-32.51185616927
 30
0
 11
-12.807191986715
 21
-32.124014046724
 31
0
  0
LINE
  8
0
 62
     6
  6
CONTINUOUS
 10
-12.725488112057
 20
-32.51185616927
 30
14
 11
-12.807191986715
 21
-32.124014046724
 31
14
  0
LINE
  8
0
 62
     6
  6
CONTINUOUS
 10
-12.807191986715
 20
-32.124014046724
 30
0
 11
-12.903475333409
 21
-31.739531859485
 31
0
  0
LINE
  8
0
 62
     6
  6
CONTINUOUS
 10
-12.807191986715
 20
-32.124014046724
 30
14
 11
-12.903475333409
 21
-31.739531859485
 31
14
  0
LINE
  8
0
 62
     6
  6
CONTINUOUS
 10
-12.903475333409
 20
-31.739531859485
 30
0
 11
-13.0142009564
 21
-31.358957462595
 31
0
  0
LINE
  8
0
 62
     6
  6
CONTINUOUS
 10
-12.903475333409
 20
-31.739531859485
 30
14
 11
-13.0142009564
 21
-31.358957462595
 31
14
  0
LINE
  8
0
 62
     6
  6
CONTINUOUS
 10
-13.0142009564
 20
-31.358957462595
 30
0
 11
-13.139211080914
 21
-30.982833142823
 31
0
  0
LINE
  8
0
 62
     6
  6
CONTINUOUS
 10
-13.0142009564
 20
-31.358957462595
 30
14
 11
-13.139211080914
 21
-30.982833142823
 31
14
  0
LINE
  8
0
 62
     6
  6
CONTINUOUS
 10
-13.139211080914
 20
-30.982833142823
 30
0
 11
-13.27832757795
 21
-30.611694845947
 31
0
  0
LINE
  8
0
 62
     6
  6
CONTINUOUS
 10
-13.139211080914
 20
-30.982833142823
 30
14
 11
-13.27832757795
 21
-30.611694845947
 31
14
  0
LINE
  8
0
 62
     6
  6
CONTINUOUS
 10
-13.27832757795
 20
-30.611694845947
 30
0
 11
-13.431352218106
 21
-30.246071413082
 31
0
  0
LINE
  8
0
 62
     6
  6
CONTINUOUS
 10
-13.27832757795
 20
-30.611694845947
 30
14
 11
-13.431352218106
 21
-30.246071413082
 31
14
  0
LINE
  8
0
 62
     6
  6
CONTINUOUS
 10
-13.431352218106
 20
-30.246071413082
 30
0
 11
-13.598066954034
 21
-29.886483827118
 31
0
  0
LINE
  8
0
 62
     6
  6
CONTINUOUS
 10
-13.431352218106
 20
-30.246071413082
 30
14
 11
-13.598066954034
 21
-29.886483827118
 31
14
  0
LINE
  8
0
 62
     6
  6
CONTINUOUS
 10
-13.598066954034
 20
-29.886483827118
 30
0
 11
-13.778234231144
 21
-29.533444470369
 31
0
  0
LINE
  8
0
 62
     6
  6
CONTINUOUS
 10
-13.598066954034
 20
-29.886483827118
 30
14
 11
-13.778234231144
 21
-29.533444470369
 31
14
  0
LINE
  8
0
 62
     6
  6
CONTINUOUS
 10
-13.778234231144
 20
-29.533444470369
 30
0
 11
-13.971597326094
 21
-29.187456394467
 31
0
  0
LINE
  8
0
 62
     6
  6
CONTINUOUS
 10
-13.778234231144
 20
-29.533444470369
 30
14
 11
-13.971597326094
 21
-29.187456394467
 31
14
  0
LINE
  8
0
 62
     6
  6
CONTINUOUS
 10
-13.971597326094
 20
-29.187456394467
 30
0
 11
-14.177880712606
 21
-28.849012603559
 31
0
  0
LINE
  8
0
 62
     6
  6
CONTINUOUS
 10
-13.971597326094
 20
-29.187456394467
 30
14
 11
-14.177880712606
 21
-28.849012603559
 31
14
  0
LINE
  8
0
 62
     6
  6
CONTINUOUS
 10
-14.177880712606
 20
-28.849012603559
 30
0
 11
-14.396790454061
 21
-28.518595351813
 31
0
  0
LINE
  8
0
 62
     6
  6
CONTINUOUS
 10
-14.177880712606
 20
-28.849012603559
 30
14
 11
-14.396790454061
 21
-28.518595351813
 31
14
  0
LINE
  8
0
 62
     6
  6
CONTINUOUS
 10
-14.396790454061
 20
-28.518595351813
 30
0
 11
-14.628014622339
 21
-28.19667545625
 31
0
  0
LINE
  8
0
 62
     6
  6
CONTINUOUS
 10
-14.396790454061
 20
-28.518595351813
 30
14
 11
-14.628014622339
 21
-28.19667545625
 31
14
  0
LINE
  8
0
 62
     6
  6
CONTINUOUS
 10
-14.628014622339
 20
-28.19667545625
 30
0
 11
-14.871223742289
 21
-27.883711625867
 31
0
  0
LINE
  8
0
 62
     6
  6
CONTINUOUS
 10
-14.628014622339
 20
-28.19667545625
 30
14
 11
-14.871223742289
 21
-27.883711625867
 31
14
  0
LINE
  8
0
 62
     6
  6
CONTINUOUS
 10
-14.871223742289
 20
-27.883711625867
 30
0
 11
-15.126071261203
 21
-27.580149808014
 31
0
  0
LINE
  8
0
 62
     6
  6
CONTINUOUS
 10
-14.871223742289
 20
-27.883711625867
 30
14
 11
-15.126071261203
 21
-27.580149808014
 31
14
  0
LINE
  8
0
 62
     6
  6
CONTINUOUS
 10
-15.126071261203
 20
-27.580149808014
 30
0
 11
-15.392194042627
 21
-27.286422552959
 31
0
  0
LINE
  8
0
 62
     6
  6
CONTINUOUS
 10
-15.126071261203
 20
-27.580149808014
 30
14
 11
-15.392194042627
 21
-27.286422552959
 31
14
  0
LINE
  8
0
 62
     6
  6
CONTINUOUS
 10
-15.392194042627
 20
-27.286422552959
 30
0
 11
-15.669212883797
 21
-27.002948397537
 31
0
  0
LINE
  8
0
 62
     6
  6
CONTINUOUS
 10
-15.392194042627
 20
-27.286422552959
 30
14
 11
-15.669212883797
 21
-27.002948397537
 31
14
  0
LINE
  8
0
 62
     3
  6
CONTINUOUS
 10
-15.669212883797
 20
-27.002948397537
 30
0
 11
-15.669212883797
 21
-27.002948397537
 31
14
  0
LINE
  8
0
 62
     6
  6
CONTINUOUS
 10
-15.669212883797
 20
-27.002948397537
 30
0
 11
-16.200198442131
 21
-26.492646632628
 31
0
  0
LINE
  8
0
 62
     6
  6
CONTINUOUS
 10
-15.669212883797
 20
-27.002948397537
 30
14
 11
-16.200198442131
 21
-26.492646632628
 31
14
  0
LINE
  8
0
 62
     6
  6
CONTINUOUS
 10
-16.200198442131
 20
-26.492646632628
 30
0
 11
-16.741656296803
 21
-25.99347036512
 31
0
  0
LINE
  8
0
 62
     6
  6
CONTINUOUS
 10
-16.200198442131
 20
-26.492646632628
 30
14
 11
-16.741656296803
 21
-25.99347036512
 31
14
  0
LINE
  8
0
 62
     6
  6
CONTINUOUS
 10
-16.741656296803
 20
-25.99347036512
 30
0
 11
-17.293353387665
 21
-25.505634455861
 31
0
  0
LINE
  8
0
 62
     6
  6
CONTINUOUS
 10
-16.741656296803
 20
-25.99347036512
 30
14
 11
-17.293353387665
 21
-25.505634455861
 31
14
  0
LINE
  8
0
 62
     6
  6
CONTINUOUS
 10
-17.293353387665
 20
-25.505634455861
 30
0
 11
-17.855052247288
 21
-25.029348884458
 31
0
  0
LINE
  8
0
 62
     6
  6
CONTINUOUS
 10
-17.293353387665
 20
-25.505634455861
 30
14
 11
-17.855052247288
 21
-25.029348884458
 31
14
  0
LINE
  8
0
 62
     6
  6
CONTINUOUS
 10
-17.855052247288
 20
-25.029348884458
 30
0
 11
-18.426511103175
 21
-24.5648186589
 31
0
  0
LINE
  8
0
 62
     6
  6
CONTINUOUS
 10
-17.855052247288
 20
-25.029348884458
 30
14
 11
-18.426511103175
 21
-24.5648186589
 31
14
  0
LINE
  8
0
 62
     6
  6
CONTINUOUS
 10
-18.426511103175
 20
-24.5648186589
 30
0
 11
-19.007483981824
 21
-24.11224372731
 31
0
  0
LINE
  8
0
 62
     6
  6
CONTINUOUS
 10
-18.426511103175
 20
-24.5648186589
 30
14
 11
-19.007483981824
 21
-24.11224372731
 31
14
  0
LINE
  8
0
 62
     6
  6
CONTINUOUS
 10
-19.007483981824
 20
-24.11224372731
 30
0
 11
-19.597720814604
 21
-23.671818891885
 31
0
  0
LINE
  8
0
 62
     6
  6
CONTINUOUS
 10
-19.007483981824
 20
-24.11224372731
 30
14
 11
-19.597720814604
 21
-23.671818891885
 31
14
  0
LINE
  8
0
 62
     6
  6
CONTINUOUS
 10
-19.597720814604
 20
-23.671818891885
 30
0
 11
-20.196967545393
 21
-23.243733725047
 31
0
  0
LINE
  8
0
 62
     6
  6
CONTINUOUS
 10
-19.597720814604
 20
-23.671818891885
 30
14
 11
-20.196967545393
 21
-23.243733725047
 31
14
  0
LINE
  8
0
 62
     6
  6
CONTINUOUS
 10
-20.196967545393
 20
-23.243733725047
 30
0
 11
-20.804966239933
 21
-22.828172487844
 31
0
  0
LINE
  8
0
 62
     6
  6
CONTINUOUS
 10
-20.196967545393
 20
-23.243733725047
 30
14
 11
-20.804966239933
 21
-22.828172487844
 31
14
  0
LINE
  8
0
 62
     6
  6
CONTINUOUS
 10
-20.804966239933
 20
-22.828172487844
 30
0
 11
-21.42145519685
 21
-22.425314050637
 31
0
  0
LINE
  8
0
 62
     6
  6
CONTINUOUS
 10
-20.804966239933
 20
-22.828172487844
 30
14
 11
-21.42145519685
 21
-22.425314050637
 31
14
  0
LINE
  8
0
 62
     6
  6
CONTINUOUS
 10
-21.42145519685
 20
-22.425314050637
 30
0
 11
-22.046169060298
 21
-22.035331816112
 31
0
  0
LINE
  8
0
 62
     6
  6
CONTINUOUS
 10
-21.42145519685
 20
-22.425314050637
 30
14
 11
-22.046169060298
 21
-22.035331816112
 31
14
  0
LINE
  8
0
 62
     6
  6
CONTINUOUS
 10
-22.046169060298
 20
-22.035331816112
 30
0
 11
-22.678838934179
 21
-21.658393644642
 31
0
  0
LINE
  8
0
 62
     6
  6
CONTINUOUS
 10
-22.046169060298
 20
-22.035331816112
 30
14
 11
-22.678838934179
 21
-21.658393644642
 31
14
  0
LINE
  8
0
 62
     6
  6
CONTINUOUS
 10
-22.678838934179
 20
-21.658393644642
 30
0
 11
-23.319192497884
 21
-21.29466178203
 31
0
  0
LINE
  8
0
 62
     6
  6
CONTINUOUS
 10
-22.678838934179
 20
-21.658393644642
 30
14
 11
-23.319192497884
 21
-21.29466178203
 31
14
  0
LINE
  8
0
 62
     6
  6
CONTINUOUS
 10
-23.319192497884
 20
-21.29466178203
 30
0
 11
-23.966954123506
 21
-20.944292789679
 31
0
  0
LINE
  8
0
 62
     6
  6
CONTINUOUS
 10
-23.319192497884
 20
-21.29466178203
 30
14
 11
-23.966954123506
 21
-20.944292789679
 31
14
  0
LINE
  8
0
 62
     6
  6
CONTINUOUS
 10
-23.966954123506
 20
-20.944292789679
 30
0
 11
-24.621844994479
 21
-20.607437477201
 31
0
  0
LINE
  8
0
 62
     6
  6
CONTINUOUS
 10
-23.966954123506
 20
-20.944292789679
 30
14
 11
-24.621844994479
 21
-20.607437477201
 31
14
  0
LINE
  8
0
 62
     6
  6
CONTINUOUS
 10
-24.621844994479
 20
-20.607437477201
 30
0
 11
-25.283583225591
 21
-20.284240837502
 31
0
  0
LINE
  8
0
 62
     6
  6
CONTINUOUS
 10
-24.621844994479
 20
-20.607437477201
 30
14
 11
-25.283583225591
 21
-20.284240837502
 31
14
  0
LINE
  8
0
 62
     6
  6
CONTINUOUS
 10
-25.283583225591
 20
-20.284240837502
 30
0
 11
-25.951883984317
 21
-19.974841984376
 31
0
  0
LINE
  8
0
 62
     6
  6
CONTINUOUS
 10
-25.283583225591
 20
-20.284240837502
 30
14
 11
-25.951883984317
 21
-19.974841984376
 31
14
  0
LINE
  8
0
 62
     6
  6
CONTINUOUS
 10
-25.951883984317
 20
-19.974841984376
 30
0
 11
-26.626459613414
 21
-19.679374092623
 31
0
  0
LINE
  8
0
 62
     6
  6
CONTINUOUS
 10
-25.951883984317
 20
-19.974841984376
 30
14
 11
-26.626459613414
 21
-19.679374092623
 31
14
  0
LINE
  8
0
 62
     6
  6
CONTINUOUS
 10
-26.626459613414
 20
-19.679374092623
 30
0
 11
-27.307019754745
 21
-19.39796434073
 31
0
  0
LINE
  8
0
 62
     6
  6
CONTINUOUS
 10
-26.626459613414
 20
-19.679374092623
 30
14
 11
-27.307019754745
 21
-19.39796434073
 31
14
  0
LINE
  8
0
 62
     6
  6
CONTINUOUS
 10
-27.307019754745
 20
-19.39796434073
 30
0
 11
-27.993271474252
 21
-19.130733856125
 31
0
  0
LINE
  8
0
 62
     6
  6
CONTINUOUS
 10
-27.307019754745
 20
-19.39796434073
 30
14
 11
-27.993271474252
 21
-19.130733856125
 31
14
  0
LINE
  8
0
 62
     6
  6
CONTINUOUS
 10
-27.993271474252
 20
-19.130733856125
 30
0
 11
-28.684919388048
 21
-18.877797663044
 31
0
  0
LINE
  8
0
 62
     6
  6
CONTINUOUS
 10
-27.993271474252
 20
-19.130733856125
 30
14
 11
-28.684919388048
 21
-18.877797663044
 31
14
  0
LINE
  8
0
 62
     6
  6
CONTINUOUS
 10
-28.684919388048
 20
-18.877797663044
 30
0
 11
-29.381665789557
 21
-18.639264633019
 31
0
  0
LINE
  8
0
 62
     6
  6
CONTINUOUS
 10
-28.684919388048
 20
-18.877797663044
 30
14
 11
-29.381665789557
 21
-18.639264633019
 31
14
  0
LINE
  8
0
 62
     6
  6
CONTINUOUS
 10
-29.381665789557
 20
-18.639264633019
 30
0
 11
-30.083210777657
 21
-18.415237438016
 31
0
  0
LINE
  8
0
 62
     6
  6
CONTINUOUS
 10
-29.381665789557
 20
-18.639264633019
 30
14
 11
-30.083210777657
 21
-18.415237438016
 31
14
  0
LINE
  8
0
 62
     6
  6
CONTINUOUS
 10
-30.083210777657
 20
-18.415237438016
 30
0
 11
-30.789252385766
 21
-18.205812506245
 31
0
  0
LINE
  8
0
 62
     6
  6
CONTINUOUS
 10
-30.083210777657
 20
-18.415237438016
 30
14
 11
-30.789252385766
 21
-18.205812506245
 31
14
  0
LINE
  8
0
 62
     6
  6
CONTINUOUS
 10
-30.789252385766
 20
-18.205812506245
 30
0
 11
-31.499486711819
 21
-18.011079980649
 31
0
  0
LINE
  8
0
 62
     6
  6
CONTINUOUS
 10
-30.789252385766
 20
-18.205812506245
 30
14
 11
-31.499486711819
 21
-18.011079980649
 31
14
  0
LINE
  8
0
 62
     6
  6
CONTINUOUS
 10
-31.499486711819
 20
-18.011079980649
 30
0
 11
-32.213608049075
 21
-17.831123680108
 31
0
  0
LINE
  8
0
 62
     6
  6
CONTINUOUS
 10
-31.499486711819
 20
-18.011079980649
 30
14
 11
-32.213608049075
 21
-17.831123680108
 31
14
  0
LINE
  8
0
 62
     3
  6
CONTINUOUS
 10
-32.213608049075
 20
-17.831123680108
 30
0
 11
-32.213608049075
 21
-17.831123680108
 31
14
  0
LINE
  8
0
 62
     6
  6
CONTINUOUS
 10
-32.213608049075
 20
-17.831123680108
 30
0
 11
-32.945088579241
 21
-17.663004186027
 31
0
  0
LINE
  8
0
 62
     6
  6
CONTINUOUS
 10
-32.213608049075
 20
-17.831123680108
 30
14
 11
-32.945088579241
 21
-17.663004186027
 31
14
  0
LINE
  8
0
 62
     6
  6
CONTINUOUS
 10
-32.945088579241
 20
-17.663004186027
 30
0
 11
-33.679960147461
 21
-17.510387972852
 31
0
  0
LINE
  8
0
 62
     6
  6
CONTINUOUS
 10
-32.945088579241
 20
-17.663004186027
 30
14
 11
-33.679960147461
 21
-17.510387972852
 31
14
  0
LINE
  8
0
 62
     6
  6
CONTINUOUS
 10
-33.679960147461
 20
-17.510387972852
 30
0
 11
-34.417894209693
 21
-17.373343271752
 31
0
  0
LINE
  8
0
 62
     6
  6
CONTINUOUS
 10
-33.679960147461
 20
-17.510387972852
 30
14
 11
-34.417894209693
 21
-17.373343271752
 31
14
  0
LINE
  8
0
 62
     6
  6
CONTINUOUS
 10
-34.417894209693
 20
-17.373343271752
 30
0
 11
-35.158560852726
 21
-17.251931352236
 31
0
  0
LINE
  8
0
 62
     6
  6
CONTINUOUS
 10
-34.417894209693
 20
-17.373343271752
 30
14
 11
-35.158560852726
 21
-17.251931352236
 31
14
  0
LINE
  8
0
 62
     6
  6
CONTINUOUS
 10
-35.158560852726
 20
-17.251931352236
 30
0
 11
-35.901628941675
 21
-17.14620649476
 31
0
  0
LINE
  8
0
 62
     6
  6
CONTINUOUS
 10
-35.158560852726
 20
-17.251931352236
 30
14
 11
-35.901628941675
 21
-17.14620649476
 31
14
  0
LINE
  8
0
 62
     6
  6
CONTINUOUS
 10
-35.901628941675
 20
-17.14620649476
 30
0
 11
-36.646766268023
 21
-17.056215966455
 31
0
  0
LINE
  8
0
 62
     6
  6
CONTINUOUS
 10
-35.901628941675
 20
-17.14620649476
 30
14
 11
-36.646766268023
 21
-17.056215966455
 31
14
  0
LINE
  8
0
 62
     6
  6
CONTINUOUS
 10
-36.646766268023
 20
-17.056215966455
 30
0
 11
-37.393639698147
 21
-16.982
 31
0
  0
LINE
  8
0
 62
     6
  6
CONTINUOUS
 10
-36.646766268023
 20
-17.056215966455
 30
14
 11
-37.393639698147
 21
-16.982
 31
14
  0
LINE
  8
0
 62
     3
  6
CONTINUOUS
 10
-37.393639698147
 20
-16.982
 30
0
 11
-37.393639698147
 21
-16.982
 31
14
  0
LINE
  8
0
 62
     6
  6
CONTINUOUS
 10
-37.393639698147
 20
-16.982
 30
0
 11
-46.692
 21
-16.982
 31
0
  0
LINE
  8
0
 62
     6
  6
CONTINUOUS
 10
-37.393639698147
 20
-16.982
 30
14
 11
-46.692
 21
-16.982
 31
14
  0
LINE
  8
0
 62
     3
  6
CONTINUOUS
 10
-46.692
 20
-16.982
 30
0
 11
-46.692
 21
-16.982
 31
14
  0
LINE
  8
0
 62
     6
  6
CONTINUOUS
 10
-46.692
 20
-16.982
 30
0
 11
-46.692
 21
-17.282
 31
0
  0
LINE
  8
0
 62
     6
  6
CONTINUOUS
 10
-46.692
 20
-16.982
 30
14
 11
-46.692
 21
-17.282
 31
14
  0
LINE
  8
0
 62
     3
  6
CONTINUOUS
 10
-46.692
 20
-17.282
 30
0
 11
-46.692
 21
-17.282
 31
14
  0
ENDBLK
  0
ENDSEC
  0
SECTION
  2
ENTITIES
  0
INSERT
  2
rect_75_8_145_2_0_0_1_0_
  8
0
 10
-37.9
 20
-72.6
 30
0
 50
0
  0
TEXT
  8
BEM
 62
     1
  6
CONTINUOUS
 10
-88.571
 20
-49.94
 30
0
 40
5
 41
0.8
 50
90
 51
0
  1
45.5
  0
LINE
  8
BEM
 62
     1
  6
CONTINUOUS
 10
-63.473615859098
 20
-55.482
 30
0
 11
-92.571
 21
-55.482
 31
0
  0
LINE
  8
BEM
 62
     1
  6
CONTINUOUS
 10
-63.882791011135
 20
-9.982
 30
0
 11
-92.571
 21
-9.982
 31
0
  0
SOLID
  8
BEM
 62
     1
  6
CONTINUOUS
 10
-87.571
 20
-55.482
 30
0
 11
-88.911
 21
-51.482
 31
0
 12
-86.231
 22
-51.482
 32
0
 13
-86.231
 23
-51.482
 33
0
  0
LINE
  8
BEM
 62
     1
  6
CONTINUOUS
 10
-87.571
 20
-55.482
 30
0
 11
-87.571
 21
-32.732
 31
0
  0
SOLID
  8
BEM
 62
     1
  6
CONTINUOUS
 10
-87.571
 20
-9.982
 30
0
 11
-86.231
 21
-13.982
 31
0
 12
-88.911
 22
-13.982
 32
0
 13
-88.911
 23
-13.982
 33
0
  0
LINE
  8
BEM
 62
     1
  6
CONTINUOUS
 10
-87.571
 20
-9.982
 30
0
 11
-87.571
 21
-32.732
 31
0
  0
TEXT
  8
BEM
 62
     1
  6
CONTINUOUS
 10
16.685
 20
-66.167
 30
0
 40
5
 41
0.8
 50
0
 51
0
  1
54.5
  0
LINE
  8
BEM
 62
     1
  6
CONTINUOUS
 10
-64.539
 20
-54.416615859098
 30
0
 11
-64.539
 21
-72.167
 31
0
  0
LINE
  8
BEM
 62
     1
  6
CONTINUOUS
 10
-10.039
 20
-55.355773447854
 30
0
 11
-10.039
 21
-72.167
 31
0
  0
SOLID
  8
BEM
 62
     1
  6
CONTINUOUS
 10
-64.539
 20
-67.167
 30
0
 11
-68.539
 21
-68.507
 31
0
 12
-68.539
 22
-65.827
 32
0
 13
-68.539
 23
-65.827
 33
0
  0
LINE
  8
BEM
 62
     1
  6
CONTINUOUS
 10
-64.539
 20
-67.167
 30
0
 11
-72.539
 21
-67.167
 31
0
  0
SOLID
  8
BEM
 62
     1
  6
CONTINUOUS
 10
-10.039
 20
-67.167
 30
0
 11
-6.039
 21
-65.827
 31
0
 12
-6.039
 22
-68.507
 32
0
 13
-6.039
 23
-68.507
 33
0
  0
LINE
  8
BEM
 62
     1
  6
CONTINUOUS
 10
-10.039
 20
-67.167
 30
0
 11
31.351666666667
 21
-67.167
 31
0
  0
INSERT
  2
OperationStart-00000
  8
OperationStart
 10
0
 20
0
 30
0
 50
0
  0
INSERT
  2
Fig_000
  8
0
 10
0
 20
0
 30
0
 50
0
  0
INSERT
  2
GENSEC-Fig_000-00000-1587579610
  8
0
 10
0
 20
0
 30
0
 50
0
  0
TEXT
  8
BEM
 62
     1
  6
CONTINUOUS
 10
33.187
 20
-30.495
 30
0
 40
5
 41
0.8
 50
90
 51
0
  1
41.95
  0
LINE
  8
BEM
 62
     1
  6
CONTINUOUS
 10
1.6666666666667
 20
-41.955
 30
0
 11
39.187
 21
-41.955
 31
0
  0
LINE
  8
BEM
 62
     1
  6
CONTINUOUS
 10
1.6666666666667
 20
-2.0410779985789e-016
 30
0
 11
39.187
 21
-4.7990234118187e-015
 31
0
  0
SOLID
  8
BEM
 62
     1
  6
CONTINUOUS
 10
34.187
 20
-41.955
 30
0
 11
32.847
 21
-37.955
 31
0
 12
35.527
 22
-37.955
 32
0
 13
35.527
 23
-37.955
 33
0
  0
LINE
  8
BEM
 62
     1
  6
CONTINUOUS
 10
34.187
 20
-41.955
 30
0
 11
34.187
 21
-20.9775
 31
0
  0
SOLID
  8
BEM
 62
     1
  6
CONTINUOUS
 10
34.187
 20
-4.1867000122451e-015
 30
0
 11
35.527
 21
-4
 31
0
 12
32.847
 22
-4
 32
0
 13
32.847
 23
-4
 33
0
  0
LINE
  8
BEM
 62
     1
  6
CONTINUOUS
 10
34.187
 20
-4.1867000122451e-015
 30
0
 11
34.187
 21
-20.9775
 31
0
  0
TEXT
  8
BEM
 62
     1
  6
CONTINUOUS
 10
-30.824
 20
24.675
 30
0
 40
5
 41
0.8
 50
0
 51
0
  1
46.54
  0
LINE
  8
BEM
 62
     1
  6
CONTINUOUS
 10
-46.54
 20
1.6666666666667
 30
0
 11
-46.54
 21
28.675
 31
0
  0
LINE
  8
BEM
 62
     1
  6
CONTINUOUS
 10
1.0205389992895e-016
 20
1.6666666666667
 30
0
 11
1.7558373482775e-015
 21
28.675
 31
0
  0
SOLID
  8
BEM
 62
     1
  6
CONTINUOUS
 10
-46.54
 20
23.675
 30
0
 11
-42.54
 21
25.015
 31
0
 12
-42.54
 22
22.335
 32
0
 13
-42.54
 23
22.335
 33
0
  0
LINE
  8
BEM
 62
     1
  6
CONTINUOUS
 10
-46.54
 20
23.675
 30
0
 11
-23.27
 21
23.675
 31
0
  0
SOLID
  8
BEM
 62
     1
  6
CONTINUOUS
 10
1.4496756484907e-015
 20
23.675
 30
0
 11
-4
 21
22.335
 31
0
 12
-4
 22
25.015
 32
0
 13
-4
 23
25.015
 33
0
  0
LINE
  8
BEM
 62
     1
  6
CONTINUOUS
 10
1.4496756484907e-015
 20
23.675
 30
0
 11
-23.27
 21
23.675
 31
0
  0
ENDSEC
  0
EOF
