  0
SECTION
  2
HEADER
  9
$INSUNITS
 70
     4
  9
$MEASUREMENT
 70
     1
  9
$DIMALT
 70
     1
  9
$DIMALTD
 70
     3
  9
$DIMALTF
 40
0.039370078740157
  0
ENDSEC
  0
SECTION
  2
TABLES
  0
TABLE
  2
LTYPE
 70
     5
  0
LTYPE
  2
CONTINUOUS
 70
     0
  3
CONTINUOUS
 72
    65
 73
     0
 40
0
  0
LTYPE
  2
DASHED
 70
     0
  3
DASHED
 72
    65
 73
     2
 40
0.75
 49
0.5
 49
-0.25
  0
LTYPE
  2
DOT
 70
     0
  3
DOT
 72
    65
 73
     2
 40
0.25
 49
0
 49
-0.25
  0
LTYPE
  2
CENTER
 70
     0
  3
CENTER
 72
    65
 73
     4
 40
2
 49
1.25
 49
-0.25
 49
0.25
 49
-0.25
  0
LTYPE
  2
DASHDOT
 70
     0
  3
DASHDOT
 72
    65
 73
     4
 40
1
 49
0.5
 49
-0.25
 49
0
 49
-0.25
  0
ENDTAB
  0
TABLE
  2
LAYER
 70
     6
  0
LAYER
  2
0
 70
     0
 62
     1
  6
CONTINUOUS
  0
LAYER
  2
c-elements
 70
     0
 62
     1
  6
CONTINUOUS
  0
LAYER
  2
LAYER0
 70
     0
 62
     1
  6
CONTINUOUS
  0
LAYER
  2
BEM
 70
     0
 62
     1
  6
CONTINUOUS
  0
LAYER
  2
OperationStart
 70
     0
 62
     1
  6
CONTINUOUS
  0
LAYER
  2
EndPoints
 70
     0
 62
     1
  6
CONTINUOUS
  0
ENDTAB
  0
ENDSEC
  0
SECTION
  2
BLOCKS
  0
BLOCK
  2
rect_121_132_0_0_1_0_
 10
0
 20
0
 30
0
 70
    64
  8
0
  0
LINE
  8
0
 62
     2
  6
CONTINUOUS
 10
0
 20
-66
 30
0
 11
-60.5
 21
-66
 31
0
  0
LINE
  8
0
 62
     2
  6
CONTINUOUS
 10
-60.5
 20
-66
 30
0
 11
-60.5
 21
66
 31
0
  0
LINE
  8
0
 62
     2
  6
CONTINUOUS
 10
-60.5
 20
66
 30
0
 11
60.5
 21
66
 31
0
  0
LINE
  8
0
 62
     2
  6
CONTINUOUS
 10
60.5
 20
66
 30
0
 11
60.5
 21
-66
 31
0
  0
LINE
  8
0
 62
     2
  6
CONTINUOUS
 10
60.5
 20
-66
 30
0
 11
0
 21
-66
 31
0
  0
ENDBLK
  0
BLOCK
  2
Fig_000
 10
0
 20
0
 30
0
 70
    64
  8
0
  0
POINT
  8
0
 62
     1
  6
CONTINUOUS
 10
-36.5
 20
-39.4
 30
0
  0
POINT
  8
0
 62
     1
  6
CONTINUOUS
 10
-34
 20
-39.4
 30
0
  0
ARC
  8
0
 62
     2
  6
CONTINUOUS
 10
-36.5
 20
-39.4
 30
0
 40
2.5
 50
1.2299890243165e-005
 51
-179.99998770013
  0
ARC
  8
0
 62
     2
  6
CONTINUOUS
 10
-36.5
 20
-39.4
 30
0
 40
2.5
 50
-179.99998770013
 51
1.2299890243165e-005
  0
ENDBLK
  0
BLOCK
  2
Fig_001
 10
0
 20
0
 30
0
 70
    64
  8
0
  0
POINT
  8
0
 62
     1
  6
CONTINUOUS
 10
-23
 20
-39.4
 30
0
  0
POINT
  8
0
 62
     1
  6
CONTINUOUS
 10
-19.6
 20
-39.399999999999
 30
0
  0
ARC
  8
0
 62
     2
  6
CONTINUOUS
 10
-23
 20
-39.4
 30
0
 40
3.4
 50
1.6284439969093e-011
 51
-179.99999999982
  0
ARC
  8
0
 62
     2
  6
CONTINUOUS
 10
-23
 20
-39.4
 30
0
 40
3.4
 50
-179.99999999982
 51
1.6284439969093e-011
  0
ENDBLK
  0
BLOCK
  2
Fig_002
 10
0
 20
0
 30
0
 70
    64
  8
0
  0
POINT
  8
0
 62
     1
  6
CONTINUOUS
 10
-23
 20
-100
 30
0
  0
POINT
  8
0
 62
     1
  6
CONTINUOUS
 10
-19
 20
-100
 30
0
  0
ARC
  8
0
 62
     2
  6
CONTINUOUS
 10
-23
 20
-100
 30
-5
 40
4
 50
-1.221332997682e-012
 51
179.9999999986
  0
ARC
  8
0
 62
     2
  6
CONTINUOUS
 10
-23
 20
-100
 30
-5
 40
4
 50
179.9999999986
 51
-1.221332997682e-012
  0
ENDBLK
  0
BLOCK
  2
OperationStart-00000
 10
0
 20
0
 30
0
 70
    64
  8
0
  0
ENDBLK
  0
BLOCK
  2
GENSEC-Fig_005-00075-1661495396
 10
0
 20
0
 30
0
 70
    64
  8
0
  0
LINE
  8
0
 62
     3
  6
CONTINUOUS
 10
-341.817
 20
-6
 30
0
 11
-341.817
 21
-6
 31
135
  0
LINE
  8
0
 62
     6
  6
CONTINUOUS
 10
-341.817
 20
-6
 30
0
 11
-341.817
 21
-7.0000000000001
 31
0
  0
LINE
  8
0
 62
     6
  6
CONTINUOUS
 10
-341.817
 20
-6
 30
135
 11
-341.817
 21
-7.0000000000001
 31
135
  0
LINE
  8
0
 62
     3
  6
CONTINUOUS
 10
-341.817
 20
-7.0000000000001
 30
0
 11
-341.817
 21
-7.0000000000001
 31
135
  0
LINE
  8
0
 62
     6
  6
CONTINUOUS
 10
-341.817
 20
-7.0000000000001
 30
0
 11
-341.93753668026
 21
-6.9927088740981
 31
0
  0
LINE
  8
0
 62
     6
  6
CONTINUOUS
 10
-341.817
 20
-7.0000000000001
 30
135
 11
-341.93753668026
 21
-6.9927088740981
 31
135
  0
LINE
  8
0
 62
     6
  6
CONTINUOUS
 10
-341.93753668026
 20
-6.9927088740981
 30
0
 11
-342.05631566429
 21
-6.9709418174261
 31
0
  0
LINE
  8
0
 62
     6
  6
CONTINUOUS
 10
-341.93753668026
 20
-6.9927088740981
 30
135
 11
-342.05631566429
 21
-6.9709418174261
 31
135
  0
LINE
  8
0
 62
     6
  6
CONTINUOUS
 10
-342.05631566429
 20
-6.9709418174261
 30
0
 11
-342.17160488704
 21
-6.9350162426855
 31
0
  0
LINE
  8
0
 62
     6
  6
CONTINUOUS
 10
-342.05631566429
 20
-6.9709418174261
 30
135
 11
-342.17160488704
 21
-6.9350162426855
 31
135
  0
LINE
  8
0
 62
     6
  6
CONTINUOUS
 10
-342.17160488704
 20
-6.9350162426855
 30
0
 11
-342.28172317204
 21
-6.8854560256533
 31
0
  0
LINE
  8
0
 62
     6
  6
CONTINUOUS
 10
-342.17160488704
 20
-6.9350162426855
 30
135
 11
-342.28172317204
 21
-6.8854560256533
 31
135
  0
LINE
  8
0
 62
     6
  6
CONTINUOUS
 10
-342.28172317204
 20
-6.8854560256533
 30
0
 11
-342.38506474673
 21
-6.8229838658937
 31
0
  0
LINE
  8
0
 62
     6
  6
CONTINUOUS
 10
-342.28172317204
 20
-6.8854560256533
 30
135
 11
-342.38506474673
 21
-6.8229838658937
 31
135
  0
LINE
  8
0
 62
     6
  6
CONTINUOUS
 10
-342.38506474673
 20
-6.8229838658937
 30
0
 11
-342.48012265824
 21
-6.7485107481711
 31
0
  0
LINE
  8
0
 62
     6
  6
CONTINUOUS
 10
-342.38506474673
 20
-6.8229838658937
 30
135
 11
-342.48012265824
 21
-6.7485107481711
 31
135
  0
LINE
  8
0
 62
     6
  6
CONTINUOUS
 10
-342.48012265824
 20
-6.7485107481711
 30
0
 11
-342.56551074817
 21
-6.6631226582408
 31
0
  0
LINE
  8
0
 62
     6
  6
CONTINUOUS
 10
-342.48012265824
 20
-6.7485107481711
 30
135
 11
-342.56551074817
 21
-6.6631226582408
 31
135
  0
LINE
  8
0
 62
     6
  6
CONTINUOUS
 10
-342.56551074817
 20
-6.6631226582408
 30
0
 11
-342.63998386589
 21
-6.5680647467312
 31
0
  0
LINE
  8
0
 62
     6
  6
CONTINUOUS
 10
-342.56551074817
 20
-6.6631226582408
 30
135
 11
-342.63998386589
 21
-6.5680647467312
 31
135
  0
LINE
  8
0
 62
     6
  6
CONTINUOUS
 10
-342.63998386589
 20
-6.5680647467312
 30
0
 11
-342.70245602565
 21
-6.4647231720438
 31
0
  0
LINE
  8
0
 62
     6
  6
CONTINUOUS
 10
-342.63998386589
 20
-6.5680647467312
 30
135
 11
-342.70245602565
 21
-6.4647231720438
 31
135
  0
LINE
  8
0
 62
     6
  6
CONTINUOUS
 10
-342.70245602565
 20
-6.4647231720438
 30
0
 11
-342.75201624269
 21
-6.3546048870425
 31
0
  0
LINE
  8
0
 62
     6
  6
CONTINUOUS
 10
-342.70245602565
 20
-6.4647231720438
 30
135
 11
-342.75201624269
 21
-6.3546048870425
 31
135
  0
LINE
  8
0
 62
     6
  6
CONTINUOUS
 10
-342.75201624269
 20
-6.3546048870425
 30
0
 11
-342.78794181743
 21
-6.2393156642875
 31
0
  0
LINE
  8
0
 62
     6
  6
CONTINUOUS
 10
-342.75201624269
 20
-6.3546048870425
 30
135
 11
-342.78794181743
 21
-6.2393156642875
 31
135
  0
LINE
  8
0
 62
     6
  6
CONTINUOUS
 10
-342.78794181743
 20
-6.2393156642875
 30
0
 11
-342.8097088741
 21
-6.1205366802553
 31
0
  0
LINE
  8
0
 62
     6
  6
CONTINUOUS
 10
-342.78794181743
 20
-6.2393156642875
 30
135
 11
-342.8097088741
 21
-6.1205366802553
 31
135
  0
LINE
  8
0
 62
     6
  6
CONTINUOUS
 10
-342.8097088741
 20
-6.1205366802553
 30
0
 11
-342.817
 21
-5.9999999999999
 31
0
  0
LINE
  8
0
 62
     6
  6
CONTINUOUS
 10
-342.8097088741
 20
-6.1205366802553
 30
135
 11
-342.817
 21
-5.9999999999999
 31
135
  0
LINE
  8
0
 62
     3
  6
CONTINUOUS
 10
-342.817
 20
-5.9999999999999
 30
0
 11
-342.817
 21
-5.9999999999999
 31
135
  0
LINE
  8
0
 62
     6
  6
CONTINUOUS
 10
-342.817
 20
-5.9999999999999
 30
0
 11
-342.8242911259
 21
-5.8794633197446
 31
0
  0
LINE
  8
0
 62
     6
  6
CONTINUOUS
 10
-342.817
 20
-5.9999999999999
 30
135
 11
-342.8242911259
 21
-5.8794633197446
 31
135
  0
LINE
  8
0
 62
     6
  6
CONTINUOUS
 10
-342.8242911259
 20
-5.8794633197446
 30
0
 11
-342.84605818257
 21
-5.7606843357124
 31
0
  0
LINE
  8
0
 62
     6
  6
CONTINUOUS
 10
-342.8242911259
 20
-5.8794633197446
 30
135
 11
-342.84605818257
 21
-5.7606843357124
 31
135
  0
LINE
  8
0
 62
     6
  6
CONTINUOUS
 10
-342.84605818257
 20
-5.7606843357124
 30
0
 11
-342.88198375731
 21
-5.6453951129574
 31
0
  0
LINE
  8
0
 62
     6
  6
CONTINUOUS
 10
-342.84605818257
 20
-5.7606843357124
 30
135
 11
-342.88198375731
 21
-5.6453951129574
 31
135
  0
LINE
  8
0
 62
     6
  6
CONTINUOUS
 10
-342.88198375731
 20
-5.6453951129574
 30
0
 11
-342.93154397435
 21
-5.5352768279562
 31
0
  0
LINE
  8
0
 62
     6
  6
CONTINUOUS
 10
-342.88198375731
 20
-5.6453951129574
 30
135
 11
-342.93154397435
 21
-5.5352768279562
 31
135
  0
LINE
  8
0
 62
     6
  6
CONTINUOUS
 10
-342.93154397435
 20
-5.5352768279562
 30
0
 11
-342.99401613411
 21
-5.4319352532688
 31
0
  0
LINE
  8
0
 62
     6
  6
CONTINUOUS
 10
-342.93154397435
 20
-5.5352768279562
 30
135
 11
-342.99401613411
 21
-5.4319352532688
 31
135
  0
LINE
  8
0
 62
     6
  6
CONTINUOUS
 10
-342.99401613411
 20
-5.4319352532688
 30
0
 11
-343.06848925183
 21
-5.3368773417591
 31
0
  0
LINE
  8
0
 62
     6
  6
CONTINUOUS
 10
-342.99401613411
 20
-5.4319352532688
 30
135
 11
-343.06848925183
 21
-5.3368773417591
 31
135
  0
LINE
  8
0
 62
     6
  6
CONTINUOUS
 10
-343.06848925183
 20
-5.3368773417591
 30
0
 11
-343.15387734176
 21
-5.2514892518288
 31
0
  0
LINE
  8
0
 62
     6
  6
CONTINUOUS
 10
-343.06848925183
 20
-5.3368773417591
 30
135
 11
-343.15387734176
 21
-5.2514892518288
 31
135
  0
LINE
  8
0
 62
     6
  6
CONTINUOUS
 10
-343.15387734176
 20
-5.2514892518288
 30
0
 11
-343.24893525327
 21
-5.1770161341063
 31
0
  0
LINE
  8
0
 62
     6
  6
CONTINUOUS
 10
-343.15387734176
 20
-5.2514892518288
 30
135
 11
-343.24893525327
 21
-5.1770161341063
 31
135
  0
LINE
  8
0
 62
     6
  6
CONTINUOUS
 10
-343.24893525327
 20
-5.1770161341063
 30
0
 11
-343.35227682796
 21
-5.1145439743467
 31
0
  0
LINE
  8
0
 62
     6
  6
CONTINUOUS
 10
-343.24893525327
 20
-5.1770161341063
 30
135
 11
-343.35227682796
 21
-5.1145439743467
 31
135
  0
LINE
  8
0
 62
     6
  6
CONTINUOUS
 10
-343.35227682796
 20
-5.1145439743467
 30
0
 11
-343.46239511296
 21
-5.0649837573145
 31
0
  0
LINE
  8
0
 62
     6
  6
CONTINUOUS
 10
-343.35227682796
 20
-5.1145439743467
 30
135
 11
-343.46239511296
 21
-5.0649837573145
 31
135
  0
LINE
  8
0
 62
     6
  6
CONTINUOUS
 10
-343.46239511296
 20
-5.0649837573145
 30
0
 11
-343.57768433571
 21
-5.0290581825739
 31
0
  0
LINE
  8
0
 62
     6
  6
CONTINUOUS
 10
-343.46239511296
 20
-5.0649837573145
 30
135
 11
-343.57768433571
 21
-5.0290581825739
 31
135
  0
LINE
  8
0
 62
     6
  6
CONTINUOUS
 10
-343.57768433571
 20
-5.0290581825739
 30
0
 11
-343.69646331974
 21
-5.0072911259019
 31
0
  0
LINE
  8
0
 62
     6
  6
CONTINUOUS
 10
-343.57768433571
 20
-5.0290581825739
 30
135
 11
-343.69646331974
 21
-5.0072911259019
 31
135
  0
LINE
  8
0
 62
     6
  6
CONTINUOUS
 10
-343.69646331974
 20
-5.0072911259019
 30
0
 11
-343.817
 21
-4.9999999999999
 31
0
  0
LINE
  8
0
 62
     6
  6
CONTINUOUS
 10
-343.69646331974
 20
-5.0072911259019
 30
135
 11
-343.817
 21
-4.9999999999999
 31
135
  0
LINE
  8
0
 62
     3
  6
CONTINUOUS
 10
-343.817
 20
-4.9999999999999
 30
0
 11
-343.817
 21
-4.9999999999999
 31
135
  0
LINE
  8
0
 62
     6
  6
CONTINUOUS
 10
-343.817
 20
-4.9999999999999
 30
0
 11
-347.517
 21
-4.9999999999999
 31
0
  0
LINE
  8
0
 62
     6
  6
CONTINUOUS
 10
-343.817
 20
-4.9999999999999
 30
135
 11
-347.517
 21
-4.9999999999999
 31
135
  0
LINE
  8
0
 62
     3
  6
CONTINUOUS
 10
-347.517
 20
-4.9999999999999
 30
0
 11
-347.517
 21
-4.9999999999999
 31
135
  0
LINE
  8
0
 62
     6
  6
CONTINUOUS
 10
-347.517
 20
-4.9999999999999
 30
0
 11
-347.52452162635
 21
-5.0667562801868
 31
0
  0
LINE
  8
0
 62
     6
  6
CONTINUOUS
 10
-347.517
 20
-4.9999999999999
 30
135
 11
-347.52452162635
 21
-5.0667562801868
 31
135
  0
LINE
  8
0
 62
     6
  6
CONTINUOUS
 10
-347.52452162635
 20
-5.0667562801868
 30
0
 11
-347.54670933963
 21
-5.1301651217352
 31
0
  0
LINE
  8
0
 62
     6
  6
CONTINUOUS
 10
-347.52452162635
 20
-5.0667562801868
 30
135
 11
-347.54670933963
 21
-5.1301651217352
 31
135
  0
LINE
  8
0
 62
     6
  6
CONTINUOUS
 10
-347.54670933963
 20
-5.1301651217352
 30
0
 11
-347.58245055526
 21
-5.1870469405576
 31
0
  0
LINE
  8
0
 62
     6
  6
CONTINUOUS
 10
-347.54670933963
 20
-5.1301651217352
 30
135
 11
-347.58245055526
 21
-5.1870469405576
 31
135
  0
LINE
  8
0
 62
     6
  6
CONTINUOUS
 10
-347.58245055526
 20
-5.1870469405576
 30
0
 11
-347.62995305944
 21
-5.2345494447403
 31
0
  0
LINE
  8
0
 62
     6
  6
CONTINUOUS
 10
-347.58245055526
 20
-5.1870469405576
 30
135
 11
-347.62995305944
 21
-5.2345494447403
 31
135
  0
LINE
  8
0
 62
     6
  6
CONTINUOUS
 10
-347.62995305944
 20
-5.2345494447403
 30
0
 11
-347.68683487826
 21
-5.2702906603706
 31
0
  0
LINE
  8
0
 62
     6
  6
CONTINUOUS
 10
-347.62995305944
 20
-5.2345494447403
 30
135
 11
-347.68683487826
 21
-5.2702906603706
 31
135
  0
LINE
  8
0
 62
     6
  6
CONTINUOUS
 10
-347.68683487826
 20
-5.2702906603706
 30
0
 11
-347.75024371981
 21
-5.2924783736545
 31
0
  0
LINE
  8
0
 62
     6
  6
CONTINUOUS
 10
-347.68683487826
 20
-5.2702906603706
 30
135
 11
-347.75024371981
 21
-5.2924783736545
 31
135
  0
LINE
  8
0
 62
     6
  6
CONTINUOUS
 10
-347.75024371981
 20
-5.2924783736545
 30
0
 11
-347.817
 21
-5.2999999999999
 31
0
  0
LINE
  8
0
 62
     6
  6
CONTINUOUS
 10
-347.75024371981
 20
-5.2924783736545
 30
135
 11
-347.817
 21
-5.2999999999999
 31
135
  0
LINE
  8
0
 62
     6
  6
CONTINUOUS
 10
-347.817
 20
-5.2999999999999
 30
0
 11
-347.88375628019
 21
-5.2924783736544
 31
0
  0
LINE
  8
0
 62
     6
  6
CONTINUOUS
 10
-347.817
 20
-5.2999999999999
 30
135
 11
-347.88375628019
 21
-5.2924783736544
 31
135
  0
LINE
  8
0
 62
     6
  6
CONTINUOUS
 10
-347.88375628019
 20
-5.2924783736544
 30
0
 11
-347.94716512174
 21
-5.2702906603706
 31
0
  0
LINE
  8
0
 62
     6
  6
CONTINUOUS
 10
-347.88375628019
 20
-5.2924783736544
 30
135
 11
-347.94716512174
 21
-5.2702906603706
 31
135
  0
LINE
  8
0
 62
     6
  6
CONTINUOUS
 10
-347.94716512174
 20
-5.2702906603706
 30
0
 11
-348.00404694056
 21
-5.2345494447403
 31
0
  0
LINE
  8
0
 62
     6
  6
CONTINUOUS
 10
-347.94716512174
 20
-5.2702906603706
 30
135
 11
-348.00404694056
 21
-5.2345494447403
 31
135
  0
LINE
  8
0
 62
     6
  6
CONTINUOUS
 10
-348.00404694056
 20
-5.2345494447403
 30
0
 11
-348.05154944474
 21
-5.1870469405575
 31
0
  0
LINE
  8
0
 62
     6
  6
CONTINUOUS
 10
-348.00404694056
 20
-5.2345494447403
 30
135
 11
-348.05154944474
 21
-5.1870469405575
 31
135
  0
LINE
  8
0
 62
     6
  6
CONTINUOUS
 10
-348.05154944474
 20
-5.1870469405575
 30
0
 11
-348.08729066037
 21
-5.1301651217351
 31
0
  0
LINE
  8
0
 62
     6
  6
CONTINUOUS
 10
-348.05154944474
 20
-5.1870469405575
 30
135
 11
-348.08729066037
 21
-5.1301651217351
 31
135
  0
LINE
  8
0
 62
     6
  6
CONTINUOUS
 10
-348.08729066037
 20
-5.1301651217351
 30
0
 11
-348.10947837365
 21
-5.0667562801868
 31
0
  0
LINE
  8
0
 62
     6
  6
CONTINUOUS
 10
-348.08729066037
 20
-5.1301651217351
 30
135
 11
-348.10947837365
 21
-5.0667562801868
 31
135
  0
LINE
  8
0
 62
     6
  6
CONTINUOUS
 10
-348.10947837365
 20
-5.0667562801868
 30
0
 11
-348.117
 21
-4.9999999999999
 31
0
  0
LINE
  8
0
 62
     6
  6
CONTINUOUS
 10
-348.10947837365
 20
-5.0667562801868
 30
135
 11
-348.117
 21
-4.9999999999999
 31
135
  0
LINE
  8
0
 62
     6
  6
CONTINUOUS
 10
-348.117
 20
-4.9999999999999
 30
0
 11
-348.10947837365
 21
-4.933243719813
 31
0
  0
LINE
  8
0
 62
     6
  6
CONTINUOUS
 10
-348.117
 20
-4.9999999999999
 30
135
 11
-348.10947837365
 21
-4.933243719813
 31
135
  0
LINE
  8
0
 62
     6
  6
CONTINUOUS
 10
-348.10947837365
 20
-4.933243719813
 30
0
 11
-348.08729066037
 21
-4.8698348782646
 31
0
  0
LINE
  8
0
 62
     6
  6
CONTINUOUS
 10
-348.10947837365
 20
-4.933243719813
 30
135
 11
-348.08729066037
 21
-4.8698348782646
 31
135
  0
LINE
  8
0
 62
     6
  6
CONTINUOUS
 10
-348.08729066037
 20
-4.8698348782646
 30
0
 11
-348.05154944474
 21
-4.8129530594423
 31
0
  0
LINE
  8
0
 62
     6
  6
CONTINUOUS
 10
-348.08729066037
 20
-4.8698348782646
 30
135
 11
-348.05154944474
 21
-4.8129530594423
 31
135
  0
LINE
  8
0
 62
     6
  6
CONTINUOUS
 10
-348.05154944474
 20
-4.8129530594423
 30
0
 11
-348.00404694056
 21
-4.7654505552595
 31
0
  0
LINE
  8
0
 62
     6
  6
CONTINUOUS
 10
-348.05154944474
 20
-4.8129530594423
 30
135
 11
-348.00404694056
 21
-4.7654505552595
 31
135
  0
LINE
  8
0
 62
     6
  6
CONTINUOUS
 10
-348.00404694056
 20
-4.7654505552595
 30
0
 11
-347.94716512174
 21
-4.7297093396291
 31
0
  0
LINE
  8
0
 62
     6
  6
CONTINUOUS
 10
-348.00404694056
 20
-4.7654505552595
 30
135
 11
-347.94716512174
 21
-4.7297093396291
 31
135
  0
LINE
  8
0
 62
     6
  6
CONTINUOUS
 10
-347.94716512174
 20
-4.7297093396291
 30
0
 11
-347.88375628019
 21
-4.7075216263453
 31
0
  0
LINE
  8
0
 62
     6
  6
CONTINUOUS
 10
-347.94716512174
 20
-4.7297093396291
 30
135
 11
-347.88375628019
 21
-4.7075216263453
 31
135
  0
LINE
  8
0
 62
     6
  6
CONTINUOUS
 10
-347.88375628019
 20
-4.7075216263453
 30
0
 11
-347.817
 21
-4.6999999999999
 31
0
  0
LINE
  8
0
 62
     6
  6
CONTINUOUS
 10
-347.88375628019
 20
-4.7075216263453
 30
135
 11
-347.817
 21
-4.6999999999999
 31
135
  0
LINE
  8
0
 62
     3
  6
CONTINUOUS
 10
-347.817
 20
-4.6999999999999
 30
0
 11
-347.817
 21
-4.6999999999999
 31
135
  0
LINE
  8
0
 62
     6
  6
CONTINUOUS
 10
-347.817
 20
-4.6999999999999
 30
0
 11
-347.817
 21
0
 31
0
  0
LINE
  8
0
 62
     6
  6
CONTINUOUS
 10
-347.817
 20
-4.6999999999999
 30
135
 11
-347.817
 21
0
 31
135
  0
LINE
  8
0
 62
     3
  6
CONTINUOUS
 10
-347.817
 20
0
 30
0
 11
-347.817
 21
0
 31
135
  0
LINE
  8
0
 62
     6
  6
CONTINUOUS
 10
-347.817
 20
0
 30
0
 11
-354.817
 21
0
 31
0
  0
LINE
  8
0
 62
     6
  6
CONTINUOUS
 10
-347.817
 20
0
 30
135
 11
-354.817
 21
0
 31
135
  0
LINE
  8
0
 62
     3
  6
CONTINUOUS
 10
-354.817
 20
0
 30
0
 11
-354.817
 21
0
 31
135
  0
LINE
  8
0
 62
     6
  6
CONTINUOUS
 10
-354.817
 20
0
 30
0
 11
-354.817
 21
1
 31
0
  0
LINE
  8
0
 62
     6
  6
CONTINUOUS
 10
-354.817
 20
0
 30
135
 11
-354.817
 21
1
 31
135
  0
LINE
  8
0
 62
     3
  6
CONTINUOUS
 10
-354.817
 20
1
 30
0
 11
-354.817
 21
1
 31
135
  0
ENDBLK
  0
BLOCK
  2
OperationStart-00002
 10
0
 20
0
 30
0
 70
    64
  8
0
  0
ENDBLK
  0
BLOCK
  2
Fig_003
 10
0
 20
0
 30
0
 70
    64
  8
0
  0
POINT
  8
0
 62
     1
  6
CONTINUOUS
 10
52.75
 20
-133
 30
0
  0
POINT
  8
0
 62
     1
  6
CONTINUOUS
 10
51.75
 20
-133
 30
0
  0
POINT
  8
EndPoints
 62
     1
  6
CONTINUOUS
 10
52.75
 20
1
 30
0
  0
LINE
  8
0
 62
     2
  6
CONTINUOUS
 10
51.75
 20
1
 30
0
 11
51.75
 21
-133
 31
0
  0
ENDBLK
  0
BLOCK
  2
Fig_004
 10
0
 20
0
 30
0
 70
    64
  8
0
  0
POINT
  8
0
 62
     1
  6
CONTINUOUS
 10
-52.75
 20
1
 30
0
  0
POINT
  8
0
 62
     1
  6
CONTINUOUS
 10
-51.75
 20
1
 30
0
  0
POINT
  8
EndPoints
 62
     1
  6
CONTINUOUS
 10
-52.75
 20
-133
 30
0
  0
LINE
  8
0
 62
     2
  6
CONTINUOUS
 10
-51.75
 20
-133
 30
0
 11
-51.75
 21
1
 31
0
  0
ENDBLK
  0
BLOCK
  2
OperationStart-00001
 10
0
 20
0
 30
0
 70
    64
  8
0
  0
ENDBLK
  0
BLOCK
  2
Fig_005
 10
0
 20
0
 30
0
 70
    64
  8
0
  0
POINT
  8
0
 62
     1
  6
CONTINUOUS
 10
-341.817
 20
-6
 30
0
  0
POINT
  8
0
 62
     1
  6
CONTINUOUS
 10
-342.817
 20
-5.9999999999999
 30
0
  0
POINT
  8
EndPoints
 62
     1
  6
CONTINUOUS
 10
-354.817
 20
1
 30
0
  0
POINT
  8
EndPoints
 62
     1
  6
CONTINUOUS
 10
-354.817
 20
0
 30
0
  0
ARC
  8
0
 62
     2
  6
CONTINUOUS
 10
-343.817
 20
-5.9999999999999
 30
0
 40
0.99999999999994
 50
-3.2568879938188e-012
 51
90.000000000003
  0
LINE
  8
0
 62
     2
  6
CONTINUOUS
 10
-343.817
 20
-4.9999999999999
 30
0
 11
-347.517
 21
-4.9999999999999
 31
0
  0
ARC
  8
0
 62
     2
  6
CONTINUOUS
 10
-347.817
 20
-4.9999999999999
 30
0
 40
0.29999999999998
 50
90
 51
-5.4281466563642e-012
  0
LINE
  8
0
 62
     2
  6
CONTINUOUS
 10
-347.817
 20
-4.6999999999999
 30
0
 11
-347.817
 21
0
 31
0
  0
LINE
  8
0
 62
     2
  6
CONTINUOUS
 10
-347.817
 20
0
 30
0
 11
-354.817
 21
0
 31
0
  0
ENDBLK
  0
BLOCK
  2
Fig_006
 10
0
 20
0
 30
0
 70
    64
  8
0
  0
POINT
  8
0
 62
     1
  6
CONTINUOUS
 10
-207.414
 20
-10
 30
0
  0
POINT
  8
0
 62
     1
  6
CONTINUOUS
 10
-208.414
 20
-10
 30
0
  0
POINT
  8
EndPoints
 62
     1
  6
CONTINUOUS
 10
-220.414
 20
1
 30
0
  0
POINT
  8
EndPoints
 62
     1
  6
CONTINUOUS
 10
-220.414
 20
0
 30
0
  0
ARC
  8
0
 62
     2
  6
CONTINUOUS
 10
-209.414
 20
-9.9999999999999
 30
0
 40
0.99999999999989
 50
-9.770663981457e-012
 51
90.000000000007
  0
LINE
  8
0
 62
     2
  6
CONTINUOUS
 10
-209.414
 20
-8.9999999999999
 30
0
 11
-213.114
 21
-8.9999999999999
 31
0
  0
ARC
  8
0
 62
     2
  6
CONTINUOUS
 10
-213.414
 20
-8.9999999999999
 30
0
 40
0.29999999999995
 50
90.000000000016
 51
-1.0856293312731e-011
  0
LINE
  8
0
 62
     2
  6
CONTINUOUS
 10
-213.414
 20
-8.6999999999999
 30
0
 11
-213.414
 21
0
 31
0
  0
LINE
  8
0
 62
     2
  6
CONTINUOUS
 10
-213.414
 20
0
 30
0
 11
-220.414
 21
0
 31
0
  0
ENDBLK
  0
ENDSEC
  0
SECTION
  2
ENTITIES
  0
INSERT
  2
rect_121_132_0_0_1_0_
  8
0
 10
8.0826688743725e-015
 20
66
 30
0
 50
180
  0
LINE
  8
0
 62
     2
  6
CONTINUOUS
 10
-302.067
 20
362.497
 30
-11
 11
-405.567
 21
362.497
 31
-11
  0
ARC
  8
0
 62
     2
  6
CONTINUOUS
 10
-362.497
 20
-10
 30
302.067
 40
1
 50
180
 51
-90
210
-1
220
0
230
0
  0
LINE
  8
0
 62
     2
  6
CONTINUOUS
 10
-405.567
 20
363.497
 30
-10
 11
-302.067
 21
363.497
 31
-10
  0
ARC
  8
0
 62
     2
  6
CONTINUOUS
 10
362.497
 20
-10
 30
-405.567
 40
1
 50
-90
 51
0
210
1
220
0
230
0
  0
ARC
  8
0
 62
     2
  6
CONTINUOUS
 10
-390.317
 20
307.297
 30
-11
 40
2.5
 50
-179.99999999982
 51
7.8165311747025e-012
  0
ARC
  8
0
 62
     2
  6
CONTINUOUS
 10
-390.317
 20
307.297
 30
-11
 40
2.5
 50
0.059267532258595
 51
-179.99999999982
  0
LINE
  8
0
 62
     2
  6
CONTINUOUS
 10
-387.81699999665
 20
307.297
 30
-11
 11
-387.81700133751
 21
307.29958603348
 31
-11
  0
ARC
  8
0
 62
     2
  6
CONTINUOUS
 10
-317.317
 20
329.097
 30
-11
 40
2.5
 50
-179.99999999982
 51
5.211020783135e-012
  0
ARC
  8
0
 62
     2
  6
CONTINUOUS
 10
-317.317
 20
329.097
 30
-11
 40
2.5
 50
0.059267532263806
 51
-179.99999999982
  0
LINE
  8
0
 62
     2
  6
CONTINUOUS
 10
-314.81699999665
 20
329.097
 30
-11
 11
-314.81700133751
 21
329.09958603348
 31
-11
  0
ARC
  8
0
 62
     2
  6
CONTINUOUS
 10
-330.817
 20
318.197
 30
-11
 40
2.5
 50
-179.99999999982
 51
1.042204156627e-011
  0
ARC
  8
0
 62
     2
  6
CONTINUOUS
 10
-330.817
 20
318.197
 30
-11
 40
2.5
 50
0.059267532258595
 51
-179.99999999982
  0
LINE
  8
0
 62
     2
  6
CONTINUOUS
 10
-328.31699999665
 20
318.197
 30
-11
 11
-328.31700133751
 21
318.19958603348
 31
-11
  0
ARC
  8
0
 62
     2
  6
CONTINUOUS
 10
-376.817
 20
318.197
 30
-11
 40
2.5
 50
-179.99999999982
 51
1.042204156627e-011
  0
ARC
  8
0
 62
     2
  6
CONTINUOUS
 10
-376.817
 20
318.197
 30
-11
 40
2.5
 50
0.0592675322612
 51
-179.99999999982
  0
LINE
  8
0
 62
     2
  6
CONTINUOUS
 10
-374.31699999665
 20
318.197
 30
-11
 11
-374.31700133751
 21
318.19958603348
 31
-11
  0
ARC
  8
0
 62
     2
  6
CONTINUOUS
 10
-390.317
 20
329.097
 30
-11
 40
2.5
 50
-179.99998770013
 51
6.1499425078402e-006
  0
ARC
  8
0
 62
     2
  6
CONTINUOUS
 10
-390.317
 20
329.097
 30
-11
 40
2.5
 50
0.059267532263806
 51
-179.99998770013
  0
LINE
  8
0
 62
     2
  6
CONTINUOUS
 10
-387.81699999665
 20
329.09700026834
 30
-11
 11
-387.81700133751
 21
329.09958603348
 31
-11
  0
ARC
  8
0
 62
     2
  6
CONTINUOUS
 10
-353.817
 20
329.097
 30
-11
 40
2.5
 50
-179.99999999982
 51
5.2110207831351e-012
  0
ARC
  8
0
 62
     2
  6
CONTINUOUS
 10
-353.817
 20
329.097
 30
-11
 40
2.5
 50
0.059267532258596
 51
-179.99999999982
  0
LINE
  8
0
 62
     2
  6
CONTINUOUS
 10
-351.31699999665
 20
329.097
 30
-11
 11
-351.31700133751
 21
329.09958603348
 31
-11
  0
ARC
  8
0
 62
     2
  6
CONTINUOUS
 10
-317.317
 20
307.297
 30
-11
 40
2.5
 50
-179.99999999982
 51
0
  0
ARC
  8
0
 62
     2
  6
CONTINUOUS
 10
-317.317
 20
307.297
 30
-11
 40
2.5
 50
0.059267532258595
 51
-179.99999999982
  0
LINE
  8
0
 62
     2
  6
CONTINUOUS
 10
-314.817
 20
307.297
 30
-11
 11
-314.81700133751
 21
307.29958603348
 31
-11
  0
ARC
  8
0
 62
     2
  6
CONTINUOUS
 10
-353.817
 20
307.297
 30
-11
 40
2.5
 50
-179.99999999982
 51
7.8165311747026e-012
  0
ARC
  8
0
 62
     2
  6
CONTINUOUS
 10
-353.817
 20
307.297
 30
-11
 40
2.5
 50
0.059267532253385
 51
-179.99999999982
  0
LINE
  8
0
 62
     2
  6
CONTINUOUS
 10
-351.31699999665
 20
307.297
 30
-11
 11
-351.31700133751
 21
307.29958603348
 31
-11
  0
ARC
  8
0
 62
     2
  6
CONTINUOUS
 10
-376.817
 20
307.297
 30
-11
 40
3.4
 50
-179.99999999982
 51
7.6632658575515e-012
  0
ARC
  8
0
 62
     2
  6
CONTINUOUS
 10
-376.817
 20
307.297
 30
-11
 40
3.4
 50
0.059267532250548
 51
-179.99999999982
  0
LINE
  8
0
 62
     2
  6
CONTINUOUS
 10
-373.41699999545
 20
307.297
 30
-11
 11
-373.41700181902
 21
307.30051700554
 31
-11
  0
ARC
  8
0
 62
     2
  6
CONTINUOUS
 10
-317.317
 20
318.197
 30
-11
 40
3.4
 50
-179.99999999982
 51
9.5790823219394e-012
  0
ARC
  8
0
 62
     2
  6
CONTINUOUS
 10
-317.317
 20
318.197
 30
-11
 40
3.4
 50
0.059267532258212
 51
-179.99999999982
  0
LINE
  8
0
 62
     2
  6
CONTINUOUS
 10
-313.91699999545
 20
318.197
 30
-11
 11
-313.91700181902
 21
318.20051700554
 31
-11
  0
ARC
  8
0
 62
     2
  6
CONTINUOUS
 10
-330.817
 20
307.297
 30
-11
 40
3.4
 50
-179.99999999982
 51
0
  0
ARC
  8
0
 62
     2
  6
CONTINUOUS
 10
-330.817
 20
307.297
 30
-11
 40
3.4
 50
0.059267532250548
 51
-179.99999999982
  0
LINE
  8
0
 62
     2
  6
CONTINUOUS
 10
-327.417
 20
307.297
 30
-11
 11
-327.41700181902
 21
307.30051700554
 31
-11
  0
ARC
  8
0
 62
     2
  6
CONTINUOUS
 10
-330.817
 20
329.097
 30
-11
 40
3.4
 50
-179.99998770013
 51
6.1499432741667e-006
  0
ARC
  8
0
 62
     2
  6
CONTINUOUS
 10
-330.817
 20
329.097
 30
-11
 40
3.4
 50
0.059267532256296
 51
-179.99998770013
  0
LINE
  8
0
 62
     2
  6
CONTINUOUS
 10
-327.41699999545
 20
329.09700036495
 30
-11
 11
-327.41700181902
 21
329.10051700554
 31
-11
  0
ARC
  8
0
 62
     2
  6
CONTINUOUS
 10
-353.817
 20
318.197
 30
-11
 40
3.4
 50
-179.99999999982
 51
9.5790823219395e-012
  0
ARC
  8
0
 62
     2
  6
CONTINUOUS
 10
-353.817
 20
318.197
 30
-11
 40
3.4
 50
0.059267532262044
 51
-179.99999999982
  0
LINE
  8
0
 62
     2
  6
CONTINUOUS
 10
-350.41699999545
 20
318.197
 30
-11
 11
-350.41700181902
 21
318.20051700554
 31
-11
  0
ARC
  8
0
 62
     2
  6
CONTINUOUS
 10
-376.817
 20
329.097
 30
-11
 40
3.4
 50
-179.99998770013
 51
6.1499432741669e-006
  0
ARC
  8
0
 62
     2
  6
CONTINUOUS
 10
-376.817
 20
329.097
 30
-11
 40
3.4
 50
0.059267532258212
 51
-179.99998770013
  0
LINE
  8
0
 62
     2
  6
CONTINUOUS
 10
-373.41699999545
 20
329.09700036495
 30
-11
 11
-373.41700181902
 21
329.10051700554
 31
-11
  0
ARC
  8
0
 62
     2
  6
CONTINUOUS
 10
-390.317
 20
318.197
 30
-11
 40
3.4
 50
-179.99999999982
 51
9.5790823219394e-012
  0
ARC
  8
0
 62
     2
  6
CONTINUOUS
 10
-390.317
 20
318.197
 30
-11
 40
3.4
 50
0.059267532258212
 51
-179.99999999982
  0
LINE
  8
0
 62
     2
  6
CONTINUOUS
 10
-386.91699999545
 20
318.197
 30
-11
 11
-386.91700181902
 21
318.20051700554
 31
-11
  0
ARC
  8
0
 62
     2
  6
CONTINUOUS
 10
-376.817
 20
268.497
 30
-11
 40
4
 50
179.9999999986
 51
0
  0
ARC
  8
0
 62
     2
  6
CONTINUOUS
 10
-376.817
 20
268.497
 30
-11
 40
4
 50
0
 51
179.9999999986
  0
ARC
  8
0
 62
     2
  6
CONTINUOUS
 10
-330.817
 20
268.497
 30
-11
 40
4
 50
179.9999999986
 51
-8.1422199845466e-013
  0
ARC
  8
0
 62
     2
  6
CONTINUOUS
 10
-330.817
 20
268.497
 30
-11
 40
4
 50
-8.1422199845466e-013
 51
179.9999999986
  0
ARC
  8
0
 62
     2
  6
CONTINUOUS
 10
-330.817
 20
243.497
 30
-11
 40
4
 50
180
 51
-2.9893346411253e-008
  0
ARC
  8
0
 62
     2
  6
CONTINUOUS
 10
-330.817
 20
243.497
 30
-11
 40
4
 50
0.059267532259002
 51
180
  0
LINE
  8
0
 62
     2
  6
CONTINUOUS
 10
-326.81699999465
 20
243.49699999791
 30
-11
 11
-326.81700214002
 21
243.50113765357
 31
-11
  0
ARC
  8
0
 62
     2
  6
CONTINUOUS
 10
-376.817
 20
243.497
 30
-11
 40
4
 50
179.9999999986
 51
7.7351089749661e-012
  0
ARC
  8
0
 62
     2
  6
CONTINUOUS
 10
-376.817
 20
243.497
 30
-11
 40
4
 50
0.059267532257374
 51
179.9999999986
  0
LINE
  8
0
 62
     2
  6
CONTINUOUS
 10
-372.81699999465
 20
243.497
 30
-11
 11
-372.81700214002
 21
243.50113765357
 31
-11
  0
LINE
  8
0
 62
     2
  6
CONTINUOUS
 10
-405.567
 20
363.497
 30
-6
 11
-302.067
 21
363.497
 31
-6
  0
LINE
  8
0
 62
     2
  6
CONTINUOUS
 10
-405.567
 20
363.497
 30
-10
 11
-405.567
 21
363.497
 31
-6
  0
LINE
  8
0
 62
     2
  6
CONTINUOUS
 10
-302.067
 20
363.497
 30
-6
 11
-302.067
 21
363.497
 31
-10
  0
LINE
  8
0
 62
     2
  6
CONTINUOUS
 10
-387.81699999665
 20
307.297
 30
-11
 11
-387.817
 21
307.297
 31
0
  0
LINE
  8
0
 62
     2
  6
CONTINUOUS
 10
-392.817
 20
307.29699999999
 30
0
 11
-392.817
 21
307.29699999999
 31
-11
  0
ARC
  8
0
 62
     2
  6
CONTINUOUS
 10
-390.317
 20
307.297
 30
0
 40
2.5
 50
-179.99999999982
 51
1.8238572765384e-011
  0
ARC
  8
0
 62
     2
  6
CONTINUOUS
 10
-390.317
 20
307.297
 30
0
 40
2.5
 50
1.8238572765384e-011
 51
-179.99999999982
  0
LINE
  8
0
 62
     2
  6
CONTINUOUS
 10
-314.81699999665
 20
329.097
 30
-11
 11
-314.817
 21
329.097
 31
0
  0
LINE
  8
0
 62
     2
  6
CONTINUOUS
 10
-319.817
 20
329.09699999999
 30
0
 11
-319.817
 21
329.09699999999
 31
-11
  0
ARC
  8
0
 62
     2
  6
CONTINUOUS
 10
-317.317
 20
329.097
 30
0
 40
2.5
 50
-179.99999999982
 51
1.5633062370329e-011
  0
ARC
  8
0
 62
     2
  6
CONTINUOUS
 10
-317.317
 20
329.097
 30
0
 40
2.5
 50
1.5633062370329e-011
 51
-179.99999999982
  0
LINE
  8
0
 62
     2
  6
CONTINUOUS
 10
-328.31699999665
 20
318.197
 30
-11
 11
-328.317
 21
318.197
 31
0
  0
LINE
  8
0
 62
     2
  6
CONTINUOUS
 10
-333.317
 20
318.19699999999
 30
0
 11
-333.317
 21
318.19699999999
 31
-11
  0
ARC
  8
0
 62
     2
  6
CONTINUOUS
 10
-330.817
 20
318.197
 30
0
 40
2.5
 50
-179.99999999982
 51
1.5633062370329e-011
  0
ARC
  8
0
 62
     2
  6
CONTINUOUS
 10
-330.817
 20
318.197
 30
0
 40
2.5
 50
1.5633062370329e-011
 51
-179.99999999982
  0
LINE
  8
0
 62
     2
  6
CONTINUOUS
 10
-374.31699999665
 20
318.197
 30
-11
 11
-374.317
 21
318.197
 31
0
  0
LINE
  8
0
 62
     2
  6
CONTINUOUS
 10
-379.317
 20
318.19699999999
 30
0
 11
-379.317
 21
318.19699999999
 31
-11
  0
ARC
  8
0
 62
     2
  6
CONTINUOUS
 10
-376.817
 20
318.197
 30
0
 40
2.5
 50
-179.99999999982
 51
1.5633062370329e-011
  0
ARC
  8
0
 62
     2
  6
CONTINUOUS
 10
-376.817
 20
318.197
 30
0
 40
2.5
 50
1.5633062370329e-011
 51
-179.99999999982
  0
LINE
  8
0
 62
     2
  6
CONTINUOUS
 10
-387.81699999665
 20
329.09700026834
 30
-11
 11
-387.817
 21
329.09700053668
 31
0
  0
LINE
  8
0
 62
     2
  6
CONTINUOUS
 10
-392.817
 20
329.09699946332
 30
0
 11
-392.817
 21
329.09699946332
 31
-11
  0
ARC
  8
0
 62
     2
  6
CONTINUOUS
 10
-390.317
 20
329.097
 30
0
 40
2.5
 50
-179.99998770013
 51
1.2299887637654e-005
  0
ARC
  8
0
 62
     2
  6
CONTINUOUS
 10
-390.317
 20
329.097
 30
0
 40
2.4999999999999
 50
1.2299887637654e-005
 51
-179.99998770013
  0
LINE
  8
0
 62
     2
  6
CONTINUOUS
 10
-351.31699999665
 20
329.097
 30
-11
 11
-351.317
 21
329.097
 31
0
  0
LINE
  8
0
 62
     2
  6
CONTINUOUS
 10
-356.317
 20
329.09699999999
 30
0
 11
-356.317
 21
329.09699999999
 31
-11
  0
ARC
  8
0
 62
     2
  6
CONTINUOUS
 10
-353.817
 20
329.097
 30
0
 40
2.5
 50
-179.99999999982
 51
1.5633062370329e-011
  0
ARC
  8
0
 62
     2
  6
CONTINUOUS
 10
-353.817
 20
329.097
 30
0
 40
2.5
 50
1.5633062370329e-011
 51
-179.99999999982
  0
LINE
  8
0
 62
     2
  6
CONTINUOUS
 10
-314.817
 20
307.297
 30
-11
 11
-314.817
 21
307.297
 31
0
  0
LINE
  8
0
 62
     2
  6
CONTINUOUS
 10
-319.817
 20
307.29699999999
 30
0
 11
-319.817
 21
307.29699999999
 31
-11
  0
ARC
  8
0
 62
     2
  6
CONTINUOUS
 10
-317.317
 20
307.297
 30
0
 40
2.5
 50
-179.99999999982
 51
0
  0
ARC
  8
0
 62
     2
  6
CONTINUOUS
 10
-317.317
 20
307.297
 30
0
 40
2.5
 50
0
 51
-179.99999999982
  0
LINE
  8
0
 62
     2
  6
CONTINUOUS
 10
-351.31699999665
 20
307.297
 30
-11
 11
-351.317
 21
307.297
 31
0
  0
LINE
  8
0
 62
     2
  6
CONTINUOUS
 10
-356.317
 20
307.29699999999
 30
0
 11
-356.317
 21
307.29699999999
 31
-11
  0
ARC
  8
0
 62
     2
  6
CONTINUOUS
 10
-353.817
 20
307.297
 30
0
 40
2.5
 50
-179.99999999982
 51
1.8238572765384e-011
  0
ARC
  8
0
 62
     2
  6
CONTINUOUS
 10
-353.817
 20
307.297
 30
0
 40
2.5
 50
1.8238572765384e-011
 51
-179.99999999982
  0
LINE
  8
0
 62
     2
  6
CONTINUOUS
 10
-373.41699999545
 20
307.297
 30
-11
 11
-373.417
 21
307.297
 31
0
  0
LINE
  8
0
 62
     2
  6
CONTINUOUS
 10
-380.217
 20
307.29699999999
 30
0
 11
-380.217
 21
307.29699999999
 31
-11
  0
ARC
  8
0
 62
     2
  6
CONTINUOUS
 10
-376.817
 20
307.297
 30
0
 40
3.4
 50
-179.99999999982
 51
1.7242348202569e-011
  0
ARC
  8
0
 62
     2
  6
CONTINUOUS
 10
-376.817
 20
307.297
 30
0
 40
3.4
 50
1.7242348202569e-011
 51
-179.99999999982
  0
LINE
  8
0
 62
     2
  6
CONTINUOUS
 10
-313.91699999545
 20
318.197
 30
-11
 11
-313.917
 21
318.197
 31
0
  0
LINE
  8
0
 62
     2
  6
CONTINUOUS
 10
-320.717
 20
318.19699999999
 30
0
 11
-320.717
 21
318.19699999999
 31
-11
  0
ARC
  8
0
 62
     2
  6
CONTINUOUS
 10
-317.317
 20
318.197
 30
0
 40
3.4
 50
-179.99999999982
 51
1.7242348202569e-011
  0
ARC
  8
0
 62
     2
  6
CONTINUOUS
 10
-317.317
 20
318.197
 30
0
 40
3.4
 50
1.7242348202569e-011
 51
-179.99999999982
  0
LINE
  8
0
 62
     2
  6
CONTINUOUS
 10
-327.417
 20
307.297
 30
-11
 11
-327.417
 21
307.297
 31
0
  0
LINE
  8
0
 62
     2
  6
CONTINUOUS
 10
-334.217
 20
307.29699999999
 30
0
 11
-334.217
 21
307.29699999999
 31
-11
  0
ARC
  8
0
 62
     2
  6
CONTINUOUS
 10
-330.817
 20
307.297
 30
0
 40
3.4
 50
-179.99999999982
 51
0
  0
ARC
  8
0
 62
     2
  6
CONTINUOUS
 10
-330.817
 20
307.297
 30
0
 40
3.4
 50
0
 51
-179.99999999982
  0
LINE
  8
0
 62
     2
  6
CONTINUOUS
 10
-327.41699999545
 20
329.09700036495
 30
-11
 11
-327.417
 21
329.09700072989
 31
0
  0
LINE
  8
0
 62
     2
  6
CONTINUOUS
 10
-334.217
 20
329.09699927011
 30
0
 11
-334.217
 21
329.09699927011
 31
-11
  0
ARC
  8
0
 62
     2
  6
CONTINUOUS
 10
-330.817
 20
329.097
 30
0
 40
3.4
 50
-179.99998770013
 51
1.2299888480613e-005
  0
ARC
  8
0
 62
     2
  6
CONTINUOUS
 10
-330.817
 20
329.097
 30
0
 40
3.4
 50
1.2299888480613e-005
 51
-179.99998770013
  0
LINE
  8
0
 62
     2
  6
CONTINUOUS
 10
-350.41699999545
 20
318.197
 30
-11
 11
-350.417
 21
318.197
 31
0
  0
LINE
  8
0
 62
     2
  6
CONTINUOUS
 10
-357.217
 20
318.19699999999
 30
0
 11
-357.217
 21
318.19699999999
 31
-11
  0
ARC
  8
0
 62
     2
  6
CONTINUOUS
 10
-353.817
 20
318.197
 30
0
 40
3.4
 50
-179.99999999982
 51
1.5326531735617e-011
  0
ARC
  8
0
 62
     2
  6
CONTINUOUS
 10
-353.817
 20
318.197
 30
0
 40
3.4
 50
1.5326531735617e-011
 51
-179.99999999982
  0
LINE
  8
0
 62
     2
  6
CONTINUOUS
 10
-373.41699999545
 20
329.09700036495
 30
-11
 11
-373.417
 21
329.09700072989
 31
0
  0
LINE
  8
0
 62
     2
  6
CONTINUOUS
 10
-380.217
 20
329.09699927011
 30
0
 11
-380.217
 21
329.09699927011
 31
-11
  0
ARC
  8
0
 62
     2
  6
CONTINUOUS
 10
-376.817
 20
329.097
 30
0
 40
3.4
 50
-179.99998770013
 51
1.2299888480613e-005
  0
ARC
  8
0
 62
     2
  6
CONTINUOUS
 10
-376.817
 20
329.097
 30
0
 40
3.4
 50
1.2299888480613e-005
 51
-179.99998770013
  0
LINE
  8
0
 62
     2
  6
CONTINUOUS
 10
-386.91699999545
 20
318.197
 30
-11
 11
-386.917
 21
318.197
 31
0
  0
LINE
  8
0
 62
     2
  6
CONTINUOUS
 10
-393.717
 20
318.19699999999
 30
0
 11
-393.717
 21
318.19699999999
 31
-11
  0
ARC
  8
0
 62
     2
  6
CONTINUOUS
 10
-390.317
 20
318.197
 30
0
 40
3.4
 50
-179.99999999982
 51
1.7242348202569e-011
  0
ARC
  8
0
 62
     2
  6
CONTINUOUS
 10
-390.317
 20
318.197
 30
0
 40
3.4
 50
1.7242348202569e-011
 51
-179.99999999982
  0
LINE
  8
0
 62
     2
  6
CONTINUOUS
 10
-372.817
 20
268.497
 30
-11
 11
-372.817
 21
268.497
 31
-5
  0
LINE
  8
0
 62
     2
  6
CONTINUOUS
 10
-380.817
 20
268.4970000001
 30
-5
 11
-380.817
 21
268.4970000001
 31
-11
  0
ARC
  8
0
 62
     2
  6
CONTINUOUS
 10
-376.817
 20
268.497
 30
-5
 40
4
 50
179.9999999986
 51
0
  0
ARC
  8
0
 62
     2
  6
CONTINUOUS
 10
-376.817
 20
268.497
 30
-5
 40
4
 50
0
 51
179.9999999986
  0
LINE
  8
0
 62
     2
  6
CONTINUOUS
 10
-326.817
 20
268.497
 30
-11
 11
-326.817
 21
268.497
 31
-5
  0
LINE
  8
0
 62
     2
  6
CONTINUOUS
 10
-334.817
 20
268.4970000001
 30
-5
 11
-334.817
 21
268.4970000001
 31
-11
  0
ARC
  8
0
 62
     2
  6
CONTINUOUS
 10
-330.817
 20
268.497
 30
-5
 40
4
 50
179.9999999986
 51
-1.6284439969093e-012
  0
ARC
  8
0
 62
     2
  6
CONTINUOUS
 10
-330.817
 20
268.497
 30
-5
 40
4
 50
-1.6284439969093e-012
 51
179.9999999986
  0
LINE
  8
0
 62
     2
  6
CONTINUOUS
 10
-326.81699999465
 20
243.49699999791
 30
-11
 11
-326.817
 21
243.49699999583
 31
-5
  0
LINE
  8
0
 62
     2
  6
CONTINUOUS
 10
-334.81699999344
 20
243.4972290538
 30
-5
 11
-334.817
 21
243.497
 31
-11
  0
ARC
  8
0
 62
     2
  6
CONTINUOUS
 10
-330.817
 20
243.497
 30
-5
 40
4
 50
179.99671904604
 51
-5.978587868053e-008
  0
ARC
  8
0
 62
     2
  6
CONTINUOUS
 10
-330.817
 20
243.497
 30
-5
 40
4
 50
-5.978587868053e-008
 51
179.99671904604
  0
LINE
  8
0
 62
     2
  6
CONTINUOUS
 10
-372.81699999465
 20
243.497
 30
-11
 11
-372.817
 21
243.497
 31
-5
  0
LINE
  8
0
 62
     2
  6
CONTINUOUS
 10
-380.817
 20
243.4970000001
 30
-5
 11
-380.817
 21
243.4970000001
 31
-11
  0
ARC
  8
0
 62
     2
  6
CONTINUOUS
 10
-376.817
 20
243.497
 30
-5
 40
4
 50
179.9999999986
 51
1.6691550968321e-011
  0
ARC
  8
0
 62
     2
  6
CONTINUOUS
 10
-376.817
 20
243.497
 30
-5
 40
4
 50
1.6691550968321e-011
 51
179.9999999986
  0
LINE
  8
0
 62
     2
  6
CONTINUOUS
 10
-405.567
 20
0
 30
0
 11
-405.567
 21
0
 31
-11
  0
LINE
  8
0
 62
     2
  6
CONTINUOUS
 10
-302.067
 20
0
 30
-11
 11
-302.067
 21
0
 31
0
  0
LINE
  8
0
 62
     2
  6
CONTINUOUS
 10
-302.067
 20
368.497
 30
-6
 11
-302.067
 21
368.497
 31
0
  0
LINE
  8
0
 62
     2
  6
CONTINUOUS
 10
-302.067
 20
363.497
 30
-6
 11
-302.067
 21
368.497
 31
-6
  0
LINE
  8
0
 62
     2
  6
CONTINUOUS
 10
-405.567
 20
368.497
 30
-6
 11
-405.567
 21
363.497
 31
-6
  0
LINE
  8
0
 62
     2
  6
CONTINUOUS
 10
-405.567
 20
368.497
 30
0
 11
-405.567
 21
368.497
 31
-6
  0
LINE
  8
0
 62
     2
  6
CONTINUOUS
 10
-405.567
 20
368.497
 30
-6
 11
-302.067
 21
368.497
 31
-6
  0
ARC
  8
0
 62
     2
  6
CONTINUOUS
 10
-376.817
 20
243.497
 30
0
 40
5.5
 50
-179.90588186226
 51
0
  0
ARC
  8
0
 62
     2
  6
CONTINUOUS
 10
-376.817
 20
243.497
 30
0
 40
5.5
 50
0
 51
-179.99999999982
  0
ARC
  8
0
 62
     2
  6
CONTINUOUS
 10
-376.817
 20
243.497
 30
0
 40
5.5
 50
-179.99999999982
 51
-179.90588186226
  0
ARC
  8
0
 62
     2
  6
CONTINUOUS
 10
-376.817
 20
268.497
 30
0
 40
5.5
 50
-179.90588186226
 51
0
  0
ARC
  8
0
 62
     2
  6
CONTINUOUS
 10
-376.817
 20
268.497
 30
0
 40
5.5
 50
0
 51
-179.99999999982
  0
ARC
  8
0
 62
     2
  6
CONTINUOUS
 10
-376.817
 20
268.497
 30
0
 40
5.5
 50
-179.99999999982
 51
-179.90588186226
  0
ARC
  8
0
 62
     2
  6
CONTINUOUS
 10
-330.817
 20
268.497
 30
0
 40
5.5
 50
-179.90588186226
 51
0
  0
ARC
  8
0
 62
     2
  6
CONTINUOUS
 10
-330.817
 20
268.497
 30
0
 40
5.5
 50
0
 51
-179.99999999982
  0
ARC
  8
0
 62
     2
  6
CONTINUOUS
 10
-330.817
 20
268.497
 30
0
 40
5.5
 50
-179.99999999982
 51
-179.90588186226
  0
ARC
  8
0
 62
     2
  6
CONTINUOUS
 10
-330.817
 20
243.497
 30
0
 40
5.5
 50
-179.90588186226
 51
0
  0
ARC
  8
0
 62
     2
  6
CONTINUOUS
 10
-330.817
 20
243.497
 30
0
 40
5.5
 50
0
 51
-179.99999999982
  0
ARC
  8
0
 62
     2
  6
CONTINUOUS
 10
-330.817
 20
243.497
 30
0
 40
5.5
 50
-179.99999999982
 51
-179.90588186226
  0
LINE
  8
0
 62
     2
  6
CONTINUOUS
 10
-302.067
 20
368.497
 30
0
 11
-405.567
 21
368.497
 31
0
  0
ARC
  8
0
 62
     2
  6
CONTINUOUS
 10
-376.817
 20
268.497
 30
-5
 40
5.5
 50
0
 51
-179.99671904604
  0
ARC
  8
0
 62
     2
  6
CONTINUOUS
 10
-376.817
 20
268.497
 30
-5
 40
5.5
 50
-179.99671904604
 51
0
  0
ARC
  8
0
 62
     2
  6
CONTINUOUS
 10
-330.817
 20
268.497
 30
-5
 40
5.5
 50
0
 51
-179.99671904604
  0
ARC
  8
0
 62
     2
  6
CONTINUOUS
 10
-330.817
 20
268.497
 30
-5
 40
5.5
 50
-179.99671904604
 51
0
  0
ARC
  8
0
 62
     2
  6
CONTINUOUS
 10
-376.817
 20
243.497
 30
-5
 40
5.5
 50
0
 51
-179.99671904604
  0
ARC
  8
0
 62
     2
  6
CONTINUOUS
 10
-376.817
 20
243.497
 30
-5
 40
5.5
 50
-179.99671904604
 51
0
  0
LINE
  8
0
 62
     2
  6
CONTINUOUS
 10
-371.317
 20
243.497
 30
-5
 11
-371.317
 21
243.497
 31
0
  0
LINE
  8
0
 62
     2
  6
CONTINUOUS
 10
-382.317
 20
243.49699999998
 30
0
 11
-382.31699999098
 21
243.49668505103
 31
-5
  0
LINE
  8
0
 62
     2
  6
CONTINUOUS
 10
-371.317
 20
268.497
 30
-5
 11
-371.317
 21
268.497
 31
0
  0
LINE
  8
0
 62
     2
  6
CONTINUOUS
 10
-382.317
 20
268.49699999998
 30
0
 11
-382.31699999098
 21
268.49668505103
 31
-5
  0
LINE
  8
0
 62
     2
  6
CONTINUOUS
 10
-325.317
 20
268.497
 30
-5
 11
-325.317
 21
268.497
 31
0
  0
LINE
  8
0
 62
     2
  6
CONTINUOUS
 10
-336.317
 20
268.49699999998
 30
0
 11
-336.31699999098
 21
268.49668505103
 31
-5
  0
LINE
  8
0
 62
     2
  6
CONTINUOUS
 10
-325.317
 20
243.497
 30
-5
 11
-325.317
 21
243.497
 31
0
  0
ARC
  8
0
 62
     2
  6
CONTINUOUS
 10
-330.817
 20
243.497
 30
-5
 40
5.5
 50
-179.99671904604
 51
0
  0
LINE
  8
0
 62
     2
  6
CONTINUOUS
 10
-336.317
 20
243.49699999998
 30
0
 11
-336.31699999098
 21
243.49668505103
 31
-5
  0
ARC
  8
0
 62
     2
  6
CONTINUOUS
 10
-330.817
 20
243.497
 30
-5
 40
5.5
 50
0
 51
-179.99671904604
  0
LINE
  8
0
 62
     2
  6
CONTINUOUS
 10
-167.664
 20
358.497
 30
-11
 11
-271.164
 21
358.497
 31
-11
  0
ARC
  8
0
 62
     2
  6
CONTINUOUS
 10
-358.497
 20
-10
 30
167.664
 40
1
 50
180
 51
-90.000000000003
210
-1
220
0
230
0
  0
LINE
  8
0
 62
     2
  6
CONTINUOUS
 10
-271.164
 20
359.497
 30
-10
 11
-167.664
 21
359.497
 31
-10
  0
ARC
  8
0
 62
     2
  6
CONTINUOUS
 10
358.497
 20
-10
 30
-271.164
 40
1
 50
-89.999999999997
 51
0
210
1
220
0
230
0
  0
ARC
  8
0
 62
     2
  6
CONTINUOUS
 10
-255.914
 20
307.297
 30
-11
 40
2.5
 50
-179.99999999982
 51
9.1192863704864e-012
  0
ARC
  8
0
 62
     2
  6
CONTINUOUS
 10
-255.914
 20
307.297
 30
-11
 40
2.5
 50
0.059267532255989
 51
-179.99999999982
  0
LINE
  8
0
 62
     2
  6
CONTINUOUS
 10
-253.41399999665
 20
307.297
 30
-11
 11
-253.41400133751
 21
307.29958603348
 31
-11
  0
ARC
  8
0
 62
     2
  6
CONTINUOUS
 10
-182.914
 20
329.097
 30
-11
 40
2.5
 50
-179.99999999982
 51
9.1192863704864e-012
  0
ARC
  8
0
 62
     2
  6
CONTINUOUS
 10
-182.914
 20
329.097
 30
-11
 40
2.4999999999999
 50
0.059267532261203
 51
-179.99999999982
  0
LINE
  8
0
 62
     2
  6
CONTINUOUS
 10
-180.41399999665
 20
329.097
 30
-11
 11
-180.41400133751
 21
329.09958603348
 31
-11
  0
ARC
  8
0
 62
     2
  6
CONTINUOUS
 10
-196.414
 20
318.197
 30
-11
 40
2.5000000000001
 50
-179.99998770013
 51
6.1499451133507e-006
  0
ARC
  8
0
 62
     2
  6
CONTINUOUS
 10
-196.414
 20
318.197
 30
-11
 40
2.5
 50
0.059267532269017
 51
-179.99998770013
  0
LINE
  8
0
 62
     2
  6
CONTINUOUS
 10
-193.91399999665
 20
318.19700026834
 30
-11
 11
-193.91400133751
 21
318.19958603348
 31
-11
  0
ARC
  8
0
 62
     2
  6
CONTINUOUS
 10
-242.414
 20
318.197
 30
-11
 40
2.5000000000001
 50
-179.99998770013
 51
6.1499451133507e-006
  0
ARC
  8
0
 62
     2
  6
CONTINUOUS
 10
-242.414
 20
318.197
 30
-11
 40
2.4999999999999
 50
0.059267532269019
 51
-179.99998770013
  0
LINE
  8
0
 62
     2
  6
CONTINUOUS
 10
-239.91399999665
 20
318.19700026834
 30
-11
 11
-239.91400133751
 21
318.19958603348
 31
-11
  0
ARC
  8
0
 62
     2
  6
CONTINUOUS
 10
-255.914
 20
329.097
 30
-11
 40
2.4999999999999
 50
-179.99998770013
 51
6.1499451133505e-006
  0
ARC
  8
0
 62
     2
  6
CONTINUOUS
 10
-255.914
 20
329.097
 30
-11
 40
2.5
 50
0.05926753224687
 51
-179.99998770013
  0
LINE
  8
0
 62
     2
  6
CONTINUOUS
 10
-253.41399999665
 20
329.09700026834
 30
-11
 11
-253.41400133751
 21
329.09958603348
 31
-11
  0
ARC
  8
0
 62
     2
  6
CONTINUOUS
 10
-219.414
 20
329.097
 30
-11
 40
2.4999999999999
 50
-179.99998770013
 51
6.1499451133505e-006
  0
ARC
  8
0
 62
     2
  6
CONTINUOUS
 10
-219.414
 20
329.097
 30
-11
 40
2.5
 50
0.059267532263806
 51
-179.99998770013
  0
LINE
  8
0
 62
     2
  6
CONTINUOUS
 10
-216.91399999665
 20
329.09700026834
 30
-11
 11
-216.91400133751
 21
329.09958603348
 31
-11
  0
ARC
  8
0
 62
     2
  6
CONTINUOUS
 10
-182.914
 20
307.297
 30
-11
 40
2.5
 50
-179.99999999982
 51
9.1192863704864e-012
  0
ARC
  8
0
 62
     2
  6
CONTINUOUS
 10
-182.914
 20
307.297
 30
-11
 40
2.4999999999999
 50
0.059267532266414
 51
-179.99999999982
  0
LINE
  8
0
 62
     2
  6
CONTINUOUS
 10
-180.41399999665
 20
307.297
 30
-11
 11
-180.41400133751
 21
307.29958603348
 31
-11
  0
ARC
  8
0
 62
     2
  6
CONTINUOUS
 10
-219.414
 20
307.297
 30
-11
 40
2.4999999999999
 50
180
 51
9.119286370486e-012
  0
ARC
  8
0
 62
     2
  6
CONTINUOUS
 10
-219.414
 20
307.297
 30
-11
 40
2.5
 50
0.059267532266411
 51
180
  0
LINE
  8
0
 62
     2
  6
CONTINUOUS
 10
-216.91399999665
 20
307.297
 30
-11
 11
-216.91400133751
 21
307.29958603348
 31
-11
  0
ARC
  8
0
 62
     2
  6
CONTINUOUS
 10
-242.414
 20
307.297
 30
-11
 40
3.4000000000001
 50
-179.99999999982
 51
8.6211740897456e-012
  0
ARC
  8
0
 62
     2
  6
CONTINUOUS
 10
-242.414
 20
307.297
 30
-11
 40
3.4
 50
0.059267532255339
 51
-179.99999999982
  0
LINE
  8
0
 62
     2
  6
CONTINUOUS
 10
-239.01399999545
 20
307.297
 30
-11
 11
-239.01400181902
 21
307.30051700554
 31
-11
  0
ARC
  8
0
 62
     2
  6
CONTINUOUS
 10
-182.914
 20
318.197
 30
-11
 40
3.4000000000001
 50
-179.99999999982
 51
8.6211740897456e-012
  0
ARC
  8
0
 62
     2
  6
CONTINUOUS
 10
-182.914
 20
318.197
 30
-11
 40
3.4
 50
0.059267532246718
 51
-179.99999999982
  0
LINE
  8
0
 62
     2
  6
CONTINUOUS
 10
-179.51399999545
 20
318.197
 30
-11
 11
-179.51400181902
 21
318.20051700554
 31
-11
  0
ARC
  8
0
 62
     2
  6
CONTINUOUS
 10
-196.414
 20
307.297
 30
-11
 40
3.4
 50
-179.99999999982
 51
8.6211740897456e-012
  0
ARC
  8
0
 62
     2
  6
CONTINUOUS
 10
-196.414
 20
307.297
 30
-11
 40
3.4
 50
0.059267532253423
 51
-179.99999999982
  0
LINE
  8
0
 62
     2
  6
CONTINUOUS
 10
-193.01399999545
 20
307.297
 30
-11
 11
-193.01400181902
 21
307.30051700554
 31
-11
  0
ARC
  8
0
 62
     2
  6
CONTINUOUS
 10
-196.414
 20
329.097
 30
-11
 40
3.4
 50
-179.99999999982
 51
8.6211740897456e-012
  0
ARC
  8
0
 62
     2
  6
CONTINUOUS
 10
-196.414
 20
329.097
 30
-11
 40
3.4
 50
0.059267532252465
 51
-179.99999999982
  0
LINE
  8
0
 62
     2
  6
CONTINUOUS
 10
-193.01399999545
 20
329.097
 30
-11
 11
-193.01400181902
 21
329.10051700554
 31
-11
  0
ARC
  8
0
 62
     2
  6
CONTINUOUS
 10
-219.414
 20
318.197
 30
-11
 40
3.3999999999999
 50
-179.99999999982
 51
8.6211740897453e-012
  0
ARC
  8
0
 62
     2
  6
CONTINUOUS
 10
-219.414
 20
318.197
 30
-11
 40
3.4000000000001
 50
0.059267532254379
 51
-179.99999999982
  0
LINE
  8
0
 62
     2
  6
CONTINUOUS
 10
-216.01399999545
 20
318.197
 30
-11
 11
-216.01400181902
 21
318.20051700554
 31
-11
  0
ARC
  8
0
 62
     2
  6
CONTINUOUS
 10
-242.414
 20
329.097
 30
-11
 40
3.4000000000001
 50
-179.99999999982
 51
8.6211740897456e-012
  0
ARC
  8
0
 62
     2
  6
CONTINUOUS
 10
-242.414
 20
329.097
 30
-11
 40
3.4
 50
0.059267532254381
 51
-179.99999999982
  0
LINE
  8
0
 62
     2
  6
CONTINUOUS
 10
-239.01399999545
 20
329.097
 30
-11
 11
-239.01400181902
 21
329.10051700554
 31
-11
  0
ARC
  8
0
 62
     2
  6
CONTINUOUS
 10
-255.914
 20
318.197
 30
-11
 40
3.4
 50
-179.99999999982
 51
8.6211740897456e-012
  0
ARC
  8
0
 62
     2
  6
CONTINUOUS
 10
-255.914
 20
318.197
 30
-11
 40
3.4
 50
0.05926753224097
 51
-179.99999999982
  0
LINE
  8
0
 62
     2
  6
CONTINUOUS
 10
-252.51399999545
 20
318.197
 30
-11
 11
-252.51400181902
 21
318.20051700554
 31
-11
  0
ARC
  8
0
 62
     2
  6
CONTINUOUS
 10
-242.414
 20
268.497
 30
-11
 40
4
 50
179.9999999986
 51
-1.6284439969093e-012
  0
ARC
  8
0
 62
     2
  6
CONTINUOUS
 10
-242.414
 20
268.497
 30
-11
 40
4
 50
-1.6284439969093e-012
 51
179.9999999986
  0
ARC
  8
0
 62
     2
  6
CONTINUOUS
 10
-196.414
 20
268.497
 30
-11
 40
4
 50
179.9999999986
 51
-1.6284439969093e-012
  0
ARC
  8
0
 62
     2
  6
CONTINUOUS
 10
-196.414
 20
268.497
 30
-11
 40
4
 50
-1.6284439969093e-012
 51
179.9999999986
  0
ARC
  8
0
 62
     2
  6
CONTINUOUS
 10
-196.414
 20
243.497
 30
-11
 40
4
 50
180
 51
-2.9892939300255e-008
  0
ARC
  8
0
 62
     2
  6
CONTINUOUS
 10
-196.414
 20
243.497
 30
-11
 40
4
 50
0.059267532252082
 51
180
  0
LINE
  8
0
 62
     2
  6
CONTINUOUS
 10
-192.41399999465
 20
243.49699999791
 30
-11
 11
-192.41400214002
 21
243.50113765357
 31
-11
  0
ARC
  8
0
 62
     2
  6
CONTINUOUS
 10
-242.414
 20
243.497
 30
-11
 40
4
 50
179.9999999986
 51
8.9564419710134e-012
  0
ARC
  8
0
 62
     2
  6
CONTINUOUS
 10
-242.414
 20
243.497
 30
-11
 40
4
 50
0.059267532264295
 51
179.9999999986
  0
LINE
  8
0
 62
     2
  6
CONTINUOUS
 10
-238.41399999465
 20
243.497
 30
-11
 11
-238.41400214002
 21
243.50113765357
 31
-11
  0
LINE
  8
0
 62
     2
  6
CONTINUOUS
 10
-271.164
 20
359.497
 30
-6
 11
-167.664
 21
359.497
 31
-6
  0
LINE
  8
0
 62
     2
  6
CONTINUOUS
 10
-271.164
 20
359.497
 30
-10
 11
-271.164
 21
359.497
 31
-6
  0
LINE
  8
0
 62
     2
  6
CONTINUOUS
 10
-167.664
 20
359.497
 30
-6
 11
-167.664
 21
359.497
 31
-10
  0
LINE
  8
0
 62
     2
  6
CONTINUOUS
 10
-253.41399999665
 20
307.297
 30
-11
 11
-253.414
 21
307.297
 31
0
  0
LINE
  8
0
 62
     2
  6
CONTINUOUS
 10
-258.414
 20
307.29699999999
 30
0
 11
-258.414
 21
307.29699999999
 31
-11
  0
ARC
  8
0
 62
     2
  6
CONTINUOUS
 10
-255.914
 20
307.297
 30
0
 40
2.5
 50
-179.99999999982
 51
1.8238572765384e-011
  0
ARC
  8
0
 62
     2
  6
CONTINUOUS
 10
-255.914
 20
307.297
 30
0
 40
2.5
 50
1.8238572765384e-011
 51
-179.99999999982
  0
LINE
  8
0
 62
     2
  6
CONTINUOUS
 10
-180.41399999665
 20
329.097
 30
-11
 11
-180.414
 21
329.097
 31
0
  0
LINE
  8
0
 62
     2
  6
CONTINUOUS
 10
-185.414
 20
329.09699999999
 30
0
 11
-185.414
 21
329.09699999999
 31
-11
  0
ARC
  8
0
 62
     2
  6
CONTINUOUS
 10
-182.914
 20
329.097
 30
0
 40
2.5
 50
-179.99999999982
 51
1.6935817567857e-011
  0
ARC
  8
0
 62
     2
  6
CONTINUOUS
 10
-182.914
 20
329.097
 30
0
 40
2.5
 50
1.6935817567857e-011
 51
-179.99999999982
  0
LINE
  8
0
 62
     2
  6
CONTINUOUS
 10
-193.91399999665
 20
318.19700026834
 30
-11
 11
-193.914
 21
318.19700053668
 31
0
  0
LINE
  8
0
 62
     2
  6
CONTINUOUS
 10
-198.914
 20
318.19699946332
 30
0
 11
-198.914
 21
318.19699946332
 31
-11
  0
ARC
  8
0
 62
     2
  6
CONTINUOUS
 10
-196.414
 20
318.197
 30
0
 40
2.5000000000001
 50
-179.99998770013
 51
1.229988894041e-005
  0
ARC
  8
0
 62
     2
  6
CONTINUOUS
 10
-196.414
 20
318.197
 30
0
 40
2.4999999999999
 50
1.229988894041e-005
 51
-179.99998770013
  0
LINE
  8
0
 62
     2
  6
CONTINUOUS
 10
-239.91399999665
 20
318.19700026834
 30
-11
 11
-239.914
 21
318.19700053668
 31
0
  0
LINE
  8
0
 62
     2
  6
CONTINUOUS
 10
-244.914
 20
318.19699946332
 30
0
 11
-244.914
 21
318.19699946332
 31
-11
  0
ARC
  8
0
 62
     2
  6
CONTINUOUS
 10
-242.414
 20
318.197
 30
0
 40
2.5000000000001
 50
-179.99998770013
 51
1.229988894041e-005
  0
ARC
  8
0
 62
     2
  6
CONTINUOUS
 10
-242.414
 20
318.197
 30
0
 40
2.4999999999999
 50
1.229988894041e-005
 51
-179.99998770013
  0
LINE
  8
0
 62
     2
  6
CONTINUOUS
 10
-253.41399999665
 20
329.09700026834
 30
-11
 11
-253.414
 21
329.09700053668
 31
0
  0
LINE
  8
0
 62
     2
  6
CONTINUOUS
 10
-258.414
 20
329.09699946332
 30
0
 11
-258.414
 21
329.09699946332
 31
-11
  0
ARC
  8
0
 62
     2
  6
CONTINUOUS
 10
-255.914
 20
329.097
 30
0
 40
2.4999999999999
 50
-179.99998770013
 51
1.2299890243164e-005
  0
ARC
  8
0
 62
     2
  6
CONTINUOUS
 10
-255.914
 20
329.097
 30
0
 40
2.5000000000001
 50
1.2299890243164e-005
 51
-179.99998770013
  0
LINE
  8
0
 62
     2
  6
CONTINUOUS
 10
-216.91399999665
 20
329.09700026834
 30
-11
 11
-216.914
 21
329.09700053668
 31
0
  0
LINE
  8
0
 62
     2
  6
CONTINUOUS
 10
-221.914
 20
329.09699946332
 30
0
 11
-221.914
 21
329.09699946332
 31
-11
  0
ARC
  8
0
 62
     2
  6
CONTINUOUS
 10
-219.414
 20
329.097
 30
0
 40
2.4999999999999
 50
-179.99998770013
 51
1.2299888940409e-005
  0
ARC
  8
0
 62
     2
  6
CONTINUOUS
 10
-219.414
 20
329.097
 30
0
 40
2.5000000000001
 50
1.2299888940409e-005
 51
-179.99998770013
  0
LINE
  8
0
 62
     2
  6
CONTINUOUS
 10
-180.41399999665
 20
307.297
 30
-11
 11
-180.414
 21
307.297
 31
0
  0
LINE
  8
0
 62
     2
  6
CONTINUOUS
 10
-185.414
 20
307.29699999999
 30
0
 11
-185.414
 21
307.29699999999
 31
-11
  0
ARC
  8
0
 62
     2
  6
CONTINUOUS
 10
-182.914
 20
307.297
 30
0
 40
2.5
 50
-179.99999999982
 51
1.8238572765384e-011
  0
ARC
  8
0
 62
     2
  6
CONTINUOUS
 10
-182.914
 20
307.297
 30
0
 40
2.5
 50
1.8238572765384e-011
 51
-179.99999999982
  0
LINE
  8
0
 62
     2
  6
CONTINUOUS
 10
-216.91399999665
 20
307.297
 30
-11
 11
-216.914
 21
307.297
 31
0
  0
LINE
  8
0
 62
     2
  6
CONTINUOUS
 10
-221.914
 20
307.297
 30
0
 11
-221.914
 21
307.297
 31
-11
  0
ARC
  8
0
 62
     2
  6
CONTINUOUS
 10
-219.414
 20
307.297
 30
0
 40
2.4999999999999
 50
180
 51
1.8238572765384e-011
  0
ARC
  8
0
 62
     2
  6
CONTINUOUS
 10
-219.414
 20
307.297
 30
0
 40
2.5000000000001
 50
1.8238572765384e-011
 51
180
  0
LINE
  8
0
 62
     2
  6
CONTINUOUS
 10
-239.01399999545
 20
307.297
 30
-11
 11
-239.014
 21
307.297
 31
0
  0
LINE
  8
0
 62
     2
  6
CONTINUOUS
 10
-245.814
 20
307.29699999999
 30
0
 11
-245.814
 21
307.29699999999
 31
-11
  0
ARC
  8
0
 62
     2
  6
CONTINUOUS
 10
-242.414
 20
307.297
 30
0
 40
3.4000000000001
 50
-179.99999999982
 51
1.7242348202569e-011
  0
ARC
  8
0
 62
     2
  6
CONTINUOUS
 10
-242.414
 20
307.297
 30
0
 40
3.4
 50
1.7242348202569e-011
 51
-179.99999999982
  0
LINE
  8
0
 62
     2
  6
CONTINUOUS
 10
-179.51399999545
 20
318.197
 30
-11
 11
-179.514
 21
318.197
 31
0
  0
LINE
  8
0
 62
     2
  6
CONTINUOUS
 10
-186.314
 20
318.19699999999
 30
0
 11
-186.314
 21
318.19699999999
 31
-11
  0
ARC
  8
0
 62
     2
  6
CONTINUOUS
 10
-182.914
 20
318.197
 30
0
 40
3.4000000000001
 50
-179.99999999982
 51
1.7242348202569e-011
  0
ARC
  8
0
 62
     2
  6
CONTINUOUS
 10
-182.914
 20
318.197
 30
0
 40
3.4
 50
1.7242348202569e-011
 51
-179.99999999982
  0
LINE
  8
0
 62
     2
  6
CONTINUOUS
 10
-193.01399999545
 20
307.297
 30
-11
 11
-193.014
 21
307.297
 31
0
  0
LINE
  8
0
 62
     2
  6
CONTINUOUS
 10
-199.814
 20
307.29699999999
 30
0
 11
-199.814
 21
307.29699999999
 31
-11
  0
ARC
  8
0
 62
     2
  6
CONTINUOUS
 10
-196.414
 20
307.297
 30
0
 40
3.4
 50
-179.99999999982
 51
1.7242348202569e-011
  0
ARC
  8
0
 62
     2
  6
CONTINUOUS
 10
-196.414
 20
307.297
 30
0
 40
3.4
 50
1.7242348202569e-011
 51
-179.99999999982
  0
LINE
  8
0
 62
     2
  6
CONTINUOUS
 10
-193.01399999545
 20
329.097
 30
-11
 11
-193.014
 21
329.097
 31
0
  0
LINE
  8
0
 62
     2
  6
CONTINUOUS
 10
-199.814
 20
329.09699999999
 30
0
 11
-199.814
 21
329.09699999999
 31
-11
  0
ARC
  8
0
 62
     2
  6
CONTINUOUS
 10
-196.414
 20
329.097
 30
0
 40
3.4
 50
-179.99999999982
 51
1.6284439969093e-011
  0
ARC
  8
0
 62
     2
  6
CONTINUOUS
 10
-196.414
 20
329.097
 30
0
 40
3.4
 50
1.6284439969093e-011
 51
-179.99999999982
  0
LINE
  8
0
 62
     2
  6
CONTINUOUS
 10
-216.01399999545
 20
318.197
 30
-11
 11
-216.014
 21
318.197
 31
0
  0
LINE
  8
0
 62
     2
  6
CONTINUOUS
 10
-222.814
 20
318.19699999999
 30
0
 11
-222.814
 21
318.19699999999
 31
-11
  0
ARC
  8
0
 62
     2
  6
CONTINUOUS
 10
-219.414
 20
318.197
 30
0
 40
3.3999999999999
 50
-179.99999999982
 51
1.7242348202569e-011
  0
ARC
  8
0
 62
     2
  6
CONTINUOUS
 10
-219.414
 20
318.197
 30
0
 40
3.4000000000001
 50
1.7242348202569e-011
 51
-179.99999999982
  0
LINE
  8
0
 62
     2
  6
CONTINUOUS
 10
-239.01399999545
 20
329.097
 30
-11
 11
-239.014
 21
329.097
 31
0
  0
LINE
  8
0
 62
     2
  6
CONTINUOUS
 10
-245.814
 20
329.09699999999
 30
0
 11
-245.814
 21
329.09699999999
 31
-11
  0
ARC
  8
0
 62
     2
  6
CONTINUOUS
 10
-242.414
 20
329.097
 30
0
 40
3.4000000000001
 50
-179.99999999982
 51
1.6284439969093e-011
  0
ARC
  8
0
 62
     2
  6
CONTINUOUS
 10
-242.414
 20
329.097
 30
0
 40
3.4
 50
1.6284439969093e-011
 51
-179.99999999982
  0
LINE
  8
0
 62
     2
  6
CONTINUOUS
 10
-252.51399999545
 20
318.197
 30
-11
 11
-252.514
 21
318.197
 31
0
  0
LINE
  8
0
 62
     2
  6
CONTINUOUS
 10
-259.314
 20
318.19699999999
 30
0
 11
-259.314
 21
318.19699999999
 31
-11
  0
ARC
  8
0
 62
     2
  6
CONTINUOUS
 10
-255.914
 20
318.197
 30
0
 40
3.4
 50
-179.99999999982
 51
1.7242348202569e-011
  0
ARC
  8
0
 62
     2
  6
CONTINUOUS
 10
-255.914
 20
318.197
 30
0
 40
3.4
 50
1.7242348202569e-011
 51
-179.99999999982
  0
LINE
  8
0
 62
     2
  6
CONTINUOUS
 10
-238.414
 20
268.497
 30
-11
 11
-238.414
 21
268.497
 31
-5
  0
LINE
  8
0
 62
     2
  6
CONTINUOUS
 10
-246.414
 20
268.4970000001
 30
-5
 11
-246.414
 21
268.4970000001
 31
-11
  0
ARC
  8
0
 62
     2
  6
CONTINUOUS
 10
-242.414
 20
268.497
 30
-5
 40
4
 50
179.9999999986
 51
-1.6284439969093e-012
  0
ARC
  8
0
 62
     2
  6
CONTINUOUS
 10
-242.414
 20
268.497
 30
-5
 40
4
 50
-1.6284439969093e-012
 51
179.9999999986
  0
LINE
  8
0
 62
     2
  6
CONTINUOUS
 10
-192.414
 20
268.497
 30
-11
 11
-192.414
 21
268.497
 31
-5
  0
LINE
  8
0
 62
     2
  6
CONTINUOUS
 10
-200.414
 20
268.4970000001
 30
-5
 11
-200.414
 21
268.4970000001
 31
-11
  0
ARC
  8
0
 62
     2
  6
CONTINUOUS
 10
-196.414
 20
268.497
 30
-5
 40
4
 50
179.9999999986
 51
-1.6284439969093e-012
  0
ARC
  8
0
 62
     2
  6
CONTINUOUS
 10
-196.414
 20
268.497
 30
-5
 40
4
 50
-1.6284439969093e-012
 51
179.9999999986
  0
LINE
  8
0
 62
     2
  6
CONTINUOUS
 10
-192.41399999465
 20
243.49699999791
 30
-11
 11
-192.414
 21
243.49699999583
 31
-5
  0
LINE
  8
0
 62
     2
  6
CONTINUOUS
 10
-200.41399999344
 20
243.4972290538
 30
-5
 11
-200.414
 21
243.497
 31
-11
  0
ARC
  8
0
 62
     2
  6
CONTINUOUS
 10
-196.414
 20
243.497
 30
-5
 40
4.0000000000001
 50
179.99671904604
 51
-5.9785471569531e-008
  0
ARC
  8
0
 62
     2
  6
CONTINUOUS
 10
-196.414
 20
243.497
 30
-5
 40
4
 50
-5.9785471569531e-008
 51
179.99671904604
  0
LINE
  8
0
 62
     2
  6
CONTINUOUS
 10
-238.41399999465
 20
243.497
 30
-11
 11
-238.414
 21
243.497
 31
-5
  0
LINE
  8
0
 62
     2
  6
CONTINUOUS
 10
-246.414
 20
243.4970000001
 30
-5
 11
-246.414
 21
243.4970000001
 31
-11
  0
ARC
  8
0
 62
     2
  6
CONTINUOUS
 10
-242.414
 20
243.497
 30
-5
 40
4
 50
179.9999999986
 51
1.6691550968321e-011
  0
ARC
  8
0
 62
     2
  6
CONTINUOUS
 10
-242.414
 20
243.497
 30
-5
 40
4
 50
1.6691550968321e-011
 51
179.9999999986
  0
LINE
  8
0
 62
     2
  6
CONTINUOUS
 10
-271.164
 20
0
 30
0
 11
-271.164
 21
0
 31
-11
  0
LINE
  8
0
 62
     2
  6
CONTINUOUS
 10
-167.664
 20
368.497
 30
-6
 11
-167.664
 21
368.497
 31
0
  0
LINE
  8
0
 62
     2
  6
CONTINUOUS
 10
-167.664
 20
359.497
 30
-6
 11
-167.664
 21
368.497
 31
-6
  0
LINE
  8
0
 62
     2
  6
CONTINUOUS
 10
-271.164
 20
368.497
 30
-6
 11
-271.164
 21
359.497
 31
-6
  0
LINE
  8
0
 62
     2
  6
CONTINUOUS
 10
-271.164
 20
368.497
 30
0
 11
-271.164
 21
368.497
 31
-6
  0
LINE
  8
0
 62
     2
  6
CONTINUOUS
 10
-271.164
 20
368.497
 30
-6
 11
-167.664
 21
368.497
 31
-6
  0
ARC
  8
0
 62
     2
  6
CONTINUOUS
 10
-242.414
 20
243.497
 30
0
 40
5.5
 50
-179.90588186227
 51
0
  0
ARC
  8
0
 62
     2
  6
CONTINUOUS
 10
-242.414
 20
243.497
 30
0
 40
5.5
 50
0
 51
-179.99999999982
  0
ARC
  8
0
 62
     2
  6
CONTINUOUS
 10
-242.414
 20
243.497
 30
0
 40
5.5
 50
-179.99999999982
 51
-179.90588186227
  0
ARC
  8
0
 62
     2
  6
CONTINUOUS
 10
-242.414
 20
268.497
 30
0
 40
5.5
 50
-179.90588186227
 51
0
  0
ARC
  8
0
 62
     2
  6
CONTINUOUS
 10
-242.414
 20
268.497
 30
0
 40
5.5
 50
0
 51
-179.99999999982
  0
ARC
  8
0
 62
     2
  6
CONTINUOUS
 10
-242.414
 20
268.497
 30
0
 40
5.5
 50
-179.99999999982
 51
-179.90588186227
  0
ARC
  8
0
 62
     2
  6
CONTINUOUS
 10
-196.414
 20
268.497
 30
0
 40
5.5
 50
-179.90588186226
 51
0
  0
ARC
  8
0
 62
     2
  6
CONTINUOUS
 10
-196.414
 20
268.497
 30
0
 40
5.5
 50
0
 51
-179.99999999982
  0
ARC
  8
0
 62
     2
  6
CONTINUOUS
 10
-196.414
 20
268.497
 30
0
 40
5.5
 50
-179.99999999982
 51
-179.90588186226
  0
ARC
  8
0
 62
     2
  6
CONTINUOUS
 10
-196.414
 20
243.497
 30
0
 40
5.5
 50
-179.90588186227
 51
0
  0
ARC
  8
0
 62
     2
  6
CONTINUOUS
 10
-196.414
 20
243.497
 30
0
 40
5.5
 50
0
 51
-179.99999999982
  0
ARC
  8
0
 62
     2
  6
CONTINUOUS
 10
-196.414
 20
243.497
 30
0
 40
5.5
 50
-179.99999999982
 51
-179.90588186227
  0
LINE
  8
0
 62
     2
  6
CONTINUOUS
 10
-167.664
 20
368.497
 30
0
 11
-271.164
 21
368.497
 31
0
  0
ARC
  8
0
 62
     2
  6
CONTINUOUS
 10
-242.414
 20
268.497
 30
-5
 40
5.5
 50
0
 51
-179.99671904604
  0
ARC
  8
0
 62
     2
  6
CONTINUOUS
 10
-242.414
 20
268.497
 30
-5
 40
5.5
 50
-179.99671904604
 51
0
  0
ARC
  8
0
 62
     2
  6
CONTINUOUS
 10
-196.414
 20
268.497
 30
-5
 40
5.5
 50
0
 51
-179.99671904604
  0
ARC
  8
0
 62
     2
  6
CONTINUOUS
 10
-196.414
 20
268.497
 30
-5
 40
5.5
 50
-179.99671904604
 51
0
  0
ARC
  8
0
 62
     2
  6
CONTINUOUS
 10
-242.414
 20
243.497
 30
-5
 40
5.5
 50
0
 51
-179.99671904604
  0
ARC
  8
0
 62
     2
  6
CONTINUOUS
 10
-242.414
 20
243.497
 30
-5
 40
5.5
 50
-179.99671904604
 51
0
  0
LINE
  8
0
 62
     2
  6
CONTINUOUS
 10
-236.914
 20
243.497
 30
-5
 11
-236.914
 21
243.497
 31
0
  0
LINE
  8
0
 62
     2
  6
CONTINUOUS
 10
-247.914
 20
243.49699999998
 30
0
 11
-247.91399999098
 21
243.49668505103
 31
-5
  0
LINE
  8
0
 62
     2
  6
CONTINUOUS
 10
-236.914
 20
268.497
 30
-5
 11
-236.914
 21
268.497
 31
0
  0
LINE
  8
0
 62
     2
  6
CONTINUOUS
 10
-247.914
 20
268.49699999998
 30
0
 11
-247.91399999098
 21
268.49668505103
 31
-5
  0
LINE
  8
0
 62
     2
  6
CONTINUOUS
 10
-190.914
 20
268.497
 30
-5
 11
-190.914
 21
268.497
 31
0
  0
LINE
  8
0
 62
     2
  6
CONTINUOUS
 10
-201.914
 20
268.49699999998
 30
0
 11
-201.91399999098
 21
268.49668505103
 31
-5
  0
LINE
  8
0
 62
     2
  6
CONTINUOUS
 10
-190.914
 20
243.497
 30
-5
 11
-190.914
 21
243.497
 31
0
  0
ARC
  8
0
 62
     2
  6
CONTINUOUS
 10
-196.414
 20
243.497
 30
-5
 40
5.5
 50
-179.99671904604
 51
0
  0
LINE
  8
0
 62
     2
  6
CONTINUOUS
 10
-201.914
 20
243.49699999998
 30
0
 11
-201.91399999098
 21
243.49668505103
 31
-5
  0
ARC
  8
0
 62
     2
  6
CONTINUOUS
 10
-196.414
 20
243.497
 30
-5
 40
5.5
 50
0
 51
-179.99671904604
  0
LINE
  8
0
 62
     2
  6
CONTINUOUS
 10
-405.567
 20
236.497
 30
0
 11
-302.067
 21
236.497
 31
0
  0
LINE
  8
0
 62
     2
  6
CONTINUOUS
 10
-271.164
 20
236.497
 30
0
 11
-167.664
 21
236.497
 31
0
  0
LINE
  8
0
 62
     2
  6
CONTINUOUS
 10
-167.664
 20
368.497
 30
0
 11
-167.664
 21
236.497
 31
0
  0
LINE
  8
0
 62
     2
  6
CONTINUOUS
 10
-167.664
 20
0
 30
-11
 11
-167.664
 21
0
 31
0
  0
LINE
  8
0
 62
     2
  6
CONTINUOUS
 10
-271.164
 20
236.497
 30
0
 11
-271.164
 21
368.497
 31
0
  0
LINE
  8
0
 62
     2
  6
CONTINUOUS
 10
-302.067
 20
368.497
 30
0
 11
-302.067
 21
236.497
 31
0
  0
LINE
  8
0
 62
     2
  6
CONTINUOUS
 10
-405.567
 20
236.497
 30
0
 11
-405.567
 21
368.497
 31
0
  0
LINE
  8
0
 62
     2
  6
CONTINUOUS
 10
-51.75
 20
10
 30
-11
 11
51.75
 21
9.9999999999999
 31
-11
  0
ARC
  8
0
 62
     2
  6
CONTINUOUS
 10
10
 20
-10
 30
-51.75
 40
1
 50
180
 51
-90.000000000003
210
1
220
-1.2246467991474e-016
230
0
  0
LINE
  8
0
 62
     2
  6
CONTINUOUS
 10
51.75
 20
9
 30
-10
 11
-51.75
 21
9
 31
-10
  0
ARC
  8
0
 62
     2
  6
CONTINUOUS
 10
-10
 20
-10
 30
-51.75
 40
1
 50
-89.999999999997
 51
0
210
-1
220
1.2246467991474e-016
230
0
  0
ARC
  8
0
 62
     2
  6
CONTINUOUS
 10
36.5
 20
61.2
 30
-11
 40
2.5
 50
1.7847746206126e-010
 51
-179.99999999999
  0
ARC
  8
0
 62
     2
  6
CONTINUOUS
 10
36.5
 20
61.2
 30
-11
 40
2.5
 50
-179.94073246774
 51
1.7847746206126e-010
  0
LINE
  8
0
 62
     2
  6
CONTINUOUS
 10
33.999999996654
 20
61.2
 30
-11
 11
34.000001337514
 21
61.197413966518
 31
-11
  0
ARC
  8
0
 62
     2
  6
CONTINUOUS
 10
-36.5
 20
39.4
 30
-11
 40
2.5
 50
1.7978021725879e-010
 51
-179.99999999999
  0
ARC
  8
0
 62
     2
  6
CONTINUOUS
 10
-36.5
 20
39.4
 30
-11
 40
2.4999999999999
 50
-179.94073246774
 51
1.7978021725879e-010
  0
LINE
  8
0
 62
     2
  6
CONTINUOUS
 10
-39.000000003346
 20
39.4
 30
-11
 11
-38.999998662486
 21
39.397413966517
 31
-11
  0
ARC
  8
0
 62
     2
  6
CONTINUOUS
 10
-23
 20
50.3
 30
-11
 40
2.5000000000001
 50
1.2299873307347e-005
 51
-179.99999385005
  0
ARC
  8
0
 62
     2
  6
CONTINUOUS
 10
-23
 20
50.3
 30
-11
 40
2.5
 50
-179.94073246773
 51
1.2299873307347e-005
  0
LINE
  8
0
 62
     2
  6
CONTINUOUS
 10
-25.500000003346
 20
50.299999731658
 30
-11
 11
-25.499998662486
 21
50.297413966517
 31
-11
  0
ARC
  8
0
 62
     2
  6
CONTINUOUS
 10
23
 20
50.3
 30
-11
 40
2.5000000000001
 50
1.2299873307347e-005
 51
-179.99999385005
  0
ARC
  8
0
 62
     2
  6
CONTINUOUS
 10
23
 20
50.3
 30
-11
 40
2.4999999999999
 50
-179.94073246773
 51
1.2299873307347e-005
  0
LINE
  8
0
 62
     2
  6
CONTINUOUS
 10
20.499999996654
 20
50.299999731658
 30
-11
 11
20.500001337514
 21
50.297413966517
 31
-11
  0
ARC
  8
0
 62
     2
  6
CONTINUOUS
 10
36.5
 20
39.4
 30
-11
 40
2.5
 50
-179.94073246775
 51
1.2299873307347e-005
  0
LINE
  8
0
 62
     2
  6
CONTINUOUS
 10
33.999999996654
 20
39.399999731658
 30
-11
 11
34.000001337514
 21
39.397413966518
 31
-11
  0
ARC
  8
0
 62
     2
  6
CONTINUOUS
 10
9.0090236679853e-014
 20
39.4
 30
-11
 40
2.4999999999999
 50
1.2299873307347e-005
 51
-179.99999385005
  0
ARC
  8
0
 62
     2
  6
CONTINUOUS
 10
9.0090236679853e-014
 20
39.4
 30
-11
 40
2.5
 50
-179.94073246774
 51
1.2299873307347e-005
  0
LINE
  8
0
 62
     2
  6
CONTINUOUS
 10
-2.5000000033462
 20
39.399999731658
 30
-11
 11
-2.4999986624857
 21
39.397413966517
 31
-11
  0
ARC
  8
0
 62
     2
  6
CONTINUOUS
 10
-36.5
 20
61.2
 30
-11
 40
2.5
 50
1.7847746206126e-010
 51
-179.99999999999
  0
ARC
  8
0
 62
     2
  6
CONTINUOUS
 10
-36.5
 20
61.2
 30
-11
 40
2.4999999999999
 50
-179.94073246773
 51
1.7847746206126e-010
  0
LINE
  8
0
 62
     2
  6
CONTINUOUS
 10
-39.000000003346
 20
61.2
 30
-11
 11
-38.999998662486
 21
61.197413966517
 31
-11
  0
ARC
  8
0
 62
     2
  6
CONTINUOUS
 10
9.2759966701994e-014
 20
61.2
 30
-11
 40
2.4999999999999
 50
0
 51
-179.99999999999
  0
ARC
  8
0
 62
     2
  6
CONTINUOUS
 10
9.2759966701994e-014
 20
61.2
 30
-11
 40
2.5
 50
-179.94073246773
 51
0
  0
LINE
  8
0
 62
     2
  6
CONTINUOUS
 10
-2.5000000033462
 20
61.2
 30
-11
 11
-2.4999986624857
 21
61.197413966517
 31
-11
  0
ARC
  8
0
 62
     2
  6
CONTINUOUS
 10
23
 20
61.2
 30
-11
 40
3.4000000000001
 50
1.7817093142654e-010
 51
-179.99999999999
  0
ARC
  8
0
 62
     2
  6
CONTINUOUS
 10
23
 20
61.2
 30
-11
 40
3.4
 50
-179.94073246774
 51
1.7817093142654e-010
  0
LINE
  8
0
 62
     2
  6
CONTINUOUS
 10
19.599999995449
 20
61.2
 30
-11
 11
19.600001819019
 21
61.196482994464
 31
-11
  0
ARC
  8
0
 62
     2
  6
CONTINUOUS
 10
-36.5
 20
50.3
 30
-11
 40
3.4000000000001
 50
1.7817093142654e-010
 51
-179.99999999999
  0
ARC
  8
0
 62
     2
  6
CONTINUOUS
 10
-36.5
 20
50.3
 30
-11
 40
3.4
 50
-179.94073246775
 51
1.7817093142654e-010
  0
LINE
  8
0
 62
     2
  6
CONTINUOUS
 10
-39.900000004551
 20
50.3
 30
-11
 11
-39.899998180981
 21
50.296482994465
 31
-11
  0
ARC
  8
0
 62
     2
  6
CONTINUOUS
 10
-23
 20
61.2
 30
-11
 40
3.4
 50
1.7817093142655e-010
 51
-179.99999999999
  0
ARC
  8
0
 62
     2
  6
CONTINUOUS
 10
-23
 20
61.2
 30
-11
 40
3.4
 50
-179.94073246775
 51
1.7817093142655e-010
  0
LINE
  8
0
 62
     2
  6
CONTINUOUS
 10
-26.400000004551
 20
61.2
 30
-11
 11
-26.399998180981
 21
61.196482994464
 31
-11
  0
ARC
  8
0
 62
     2
  6
CONTINUOUS
 10
-23
 20
39.4
 30
-11
 40
3.4
 50
1.800867478935e-010
 51
-179.99999999999
  0
ARC
  8
0
 62
     2
  6
CONTINUOUS
 10
-23
 20
39.4
 30
-11
 40
3.4
 50
-179.94073246775
 51
1.800867478935e-010
  0
LINE
  8
0
 62
     2
  6
CONTINUOUS
 10
-26.400000004551
 20
39.399999999999
 30
-11
 11
-26.399998180981
 21
39.396482994464
 31
-11
  0
ARC
  8
0
 62
     2
  6
CONTINUOUS
 10
9.1425101690923e-014
 20
50.3
 30
-11
 40
3.3999999999999
 50
1.7817093142656e-010
 51
-179.99999999999
  0
ARC
  8
0
 62
     2
  6
CONTINUOUS
 10
9.1425101690923e-014
 20
50.3
 30
-11
 40
3.4000000000001
 50
-179.94073246775
 51
1.7817093142656e-010
  0
LINE
  8
0
 62
     2
  6
CONTINUOUS
 10
-3.4000000045508
 20
50.3
 30
-11
 11
-3.3999981809807
 21
50.296482994464
 31
-11
  0
ARC
  8
0
 62
     2
  6
CONTINUOUS
 10
23
 20
39.4
 30
-11
 40
3.4000000000001
 50
1.7912883966002e-010
 51
-179.99999999999
  0
ARC
  8
0
 62
     2
  6
CONTINUOUS
 10
23
 20
39.4
 30
-11
 40
3.4
 50
-179.94073246775
 51
1.7912883966002e-010
  0
LINE
  8
0
 62
     2
  6
CONTINUOUS
 10
19.599999995449
 20
39.399999999999
 30
-11
 11
19.600001819019
 21
39.396482994464
 31
-11
  0
ARC
  8
0
 62
     2
  6
CONTINUOUS
 10
36.5
 20
50.3
 30
-11
 40
3.4
 50
1.7817093142655e-010
 51
-179.99999999999
  0
ARC
  8
0
 62
     2
  6
CONTINUOUS
 10
36.5
 20
50.3
 30
-11
 40
3.4
 50
-179.94073246776
 51
1.7817093142655e-010
  0
LINE
  8
0
 62
     2
  6
CONTINUOUS
 10
33.099999995449
 20
50.299999999999
 30
-11
 11
33.100001819019
 21
50.296482994465
 31
-11
  0
ARC
  8
0
 62
     2
  6
CONTINUOUS
 10
23
 20
100
 30
-11
 40
4
 50
-1.4012760593405e-009
 51
180
  0
ARC
  8
0
 62
     2
  6
CONTINUOUS
 10
23
 20
100
 30
-11
 40
4
 50
180
 51
-1.4012760593405e-009
  0
ARC
  8
0
 62
     2
  6
CONTINUOUS
 10
-23
 20
100
 30
-11
 40
4
 50
-1.4012760593405e-009
 51
180
  0
ARC
  8
0
 62
     2
  6
CONTINUOUS
 10
-23
 20
100
 30
-11
 40
4
 50
180
 51
-1.4012760593405e-009
  0
ARC
  8
0
 62
     2
  6
CONTINUOUS
 10
-23
 20
125
 30
-11
 40
4
 50
0
 51
179.99999997011
  0
ARC
  8
0
 62
     2
  6
CONTINUOUS
 10
-23
 20
125
 30
-11
 40
4
 50
-179.94073246775
 51
0
  0
LINE
  8
0
 62
     2
  6
CONTINUOUS
 10
-27.000000005354
 20
125.00000000209
 30
-11
 11
-26.999997859977
 21
124.99586234643
 31
-11
  0
ARC
  8
0
 62
     2
  6
CONTINUOUS
 10
23
 20
125
 30
-11
 40
4
 50
-1.4020902813389e-009
 51
-179.99999999999
  0
ARC
  8
0
 62
     2
  6
CONTINUOUS
 10
23
 20
125
 30
-11
 40
4
 50
-179.94073246774
 51
-1.4020902813389e-009
  0
LINE
  8
0
 62
     2
  6
CONTINUOUS
 10
18.999999994646
 20
125
 30
-11
 11
19.000002140023
 21
124.99586234643
 31
-11
  0
LINE
  8
0
 62
     2
  6
CONTINUOUS
 10
51.75
 20
9
 30
-6
 11
-51.75
 21
9
 31
-6
  0
LINE
  8
0
 62
     2
  6
CONTINUOUS
 10
51.75
 20
9
 30
-10
 11
51.75
 21
9
 31
-6
  0
LINE
  8
0
 62
     2
  6
CONTINUOUS
 10
-51.75
 20
9
 30
-6
 11
-51.75
 21
9
 31
-10
  0
LINE
  8
0
 62
     2
  6
CONTINUOUS
 10
33.999999996654
 20
61.2
 30
-11
 11
34
 21
61.199999999999
 31
0
  0
LINE
  8
0
 62
     2
  6
CONTINUOUS
 10
39
 20
61.200000000008
 30
0
 11
39
 21
61.200000000008
 31
-11
  0
ARC
  8
0
 62
     2
  6
CONTINUOUS
 10
36.5
 20
61.2
 30
0
 40
2.5
 50
1.7847746206126e-010
 51
-179.99999999998
  0
ARC
  8
0
 62
     2
  6
CONTINUOUS
 10
36.5
 20
61.2
 30
0
 40
2.5
 50
-179.99999999998
 51
1.7847746206126e-010
  0
LINE
  8
0
 62
     2
  6
CONTINUOUS
 10
-39.000000003346
 20
39.4
 30
-11
 11
-39
 21
39.399999999999
 31
0
  0
LINE
  8
0
 62
     2
  6
CONTINUOUS
 10
-34
 20
39.400000000008
 30
0
 11
-34
 21
39.400000000008
 31
-11
  0
ARC
  8
0
 62
     2
  6
CONTINUOUS
 10
-36.5
 20
39.4
 30
0
 40
2.5
 50
1.7978021725879e-010
 51
-179.99999999998
  0
ARC
  8
0
 62
     2
  6
CONTINUOUS
 10
-36.5
 20
39.4
 30
0
 40
2.5
 50
-179.99999999998
 51
1.7978021725879e-010
  0
LINE
  8
0
 62
     2
  6
CONTINUOUS
 10
-25.500000003346
 20
50.299999731658
 30
-11
 11
-25.5
 21
50.299999463316
 31
0
  0
LINE
  8
0
 62
     2
  6
CONTINUOUS
 10
-20.5
 20
50.300000536683
 30
0
 11
-20.5
 21
50.300000536683
 31
-11
  0
ARC
  8
0
 62
     2
  6
CONTINUOUS
 10
-23
 20
50.3
 30
0
 40
2.5000000000001
 50
1.2299873307347e-005
 51
-179.99998770011
  0
ARC
  8
0
 62
     2
  6
CONTINUOUS
 10
-23
 20
50.3
 30
0
 40
2.4999999999999
 50
-179.99998770011
 51
1.2299873307347e-005
  0
LINE
  8
0
 62
     2
  6
CONTINUOUS
 10
20.499999996654
 20
50.299999731658
 30
-11
 11
20.5
 21
50.299999463316
 31
0
  0
LINE
  8
0
 62
     2
  6
CONTINUOUS
 10
25.5
 20
50.300000536683
 30
0
 11
25.5
 21
50.300000536683
 31
-11
  0
ARC
  8
0
 62
     2
  6
CONTINUOUS
 10
23
 20
50.3
 30
0
 40
2.5000000000001
 50
1.2299873307347e-005
 51
-179.99998770011
  0
ARC
  8
0
 62
     2
  6
CONTINUOUS
 10
23
 20
50.3
 30
0
 40
2.4999999999999
 50
-179.99998770011
 51
1.2299873307347e-005
  0
LINE
  8
0
 62
     2
  6
CONTINUOUS
 10
39
 20
39.400000536683
 30
0
 11
39
 21
39.400000536683
 31
-11
  0
ARC
  8
0
 62
     2
  6
CONTINUOUS
 10
36.5
 20
39.4
 30
0
 40
2.4999999999999
 50
1.2299873307347e-005
 51
-179.99998770011
  0
LINE
  8
0
 62
     2
  6
CONTINUOUS
 10
-2.5000000033462
 20
39.399999731658
 30
-11
 11
-2.4999999999999
 21
39.399999463316
 31
0
  0
LINE
  8
0
 62
     2
  6
CONTINUOUS
 10
2.5
 20
39.400000536683
 30
0
 11
2.5
 21
39.400000536683
 31
-11
  0
ARC
  8
0
 62
     2
  6
CONTINUOUS
 10
9.0090236679853e-014
 20
39.4
 30
0
 40
2.4999999999999
 50
1.2299873307347e-005
 51
-179.99998770011
  0
ARC
  8
0
 62
     2
  6
CONTINUOUS
 10
9.0090236679853e-014
 20
39.4
 30
0
 40
2.5000000000001
 50
-179.99998770011
 51
1.2299873307347e-005
  0
LINE
  8
0
 62
     2
  6
CONTINUOUS
 10
-39.000000003346
 20
61.2
 30
-11
 11
-39
 21
61.199999999999
 31
0
  0
LINE
  8
0
 62
     2
  6
CONTINUOUS
 10
-34
 20
61.200000000008
 30
0
 11
-34
 21
61.200000000008
 31
-11
  0
ARC
  8
0
 62
     2
  6
CONTINUOUS
 10
-36.5
 20
61.2
 30
0
 40
2.5
 50
1.7847746206126e-010
 51
-179.99999999998
  0
ARC
  8
0
 62
     2
  6
CONTINUOUS
 10
-36.5
 20
61.2
 30
0
 40
2.5
 50
-179.99999999998
 51
1.7847746206126e-010
  0
LINE
  8
0
 62
     2
  6
CONTINUOUS
 10
-2.5000000033462
 20
61.2
 30
-11
 11
-2.5
 21
61.199999999999
 31
0
  0
LINE
  8
0
 62
     2
  6
CONTINUOUS
 10
2.5
 20
61.2
 30
0
 11
2.5
 21
61.2
 31
-11
  0
ARC
  8
0
 62
     2
  6
CONTINUOUS
 10
9.2759966701994e-014
 20
61.2
 30
0
 40
2.4999999999999
 50
0
 51
-179.99999999998
  0
ARC
  8
0
 62
     2
  6
CONTINUOUS
 10
9.2759966701994e-014
 20
61.2
 30
0
 40
2.5000000000001
 50
-179.99999999998
 51
0
  0
LINE
  8
0
 62
     2
  6
CONTINUOUS
 10
19.599999995449
 20
61.2
 30
-11
 11
19.6
 21
61.199999999999
 31
0
  0
LINE
  8
0
 62
     2
  6
CONTINUOUS
 10
26.4
 20
61.200000000011
 30
0
 11
26.4
 21
61.200000000011
 31
-11
  0
ARC
  8
0
 62
     2
  6
CONTINUOUS
 10
23
 20
61.2
 30
0
 40
3.4000000000001
 50
1.7817093142654e-010
 51
-179.99999999998
  0
ARC
  8
0
 62
     2
  6
CONTINUOUS
 10
23
 20
61.2
 30
0
 40
3.4
 50
-179.99999999998
 51
1.7817093142654e-010
  0
LINE
  8
0
 62
     2
  6
CONTINUOUS
 10
-39.900000004551
 20
50.3
 30
-11
 11
-39.9
 21
50.299999999999
 31
0
  0
LINE
  8
0
 62
     2
  6
CONTINUOUS
 10
-33.1
 20
50.300000000011
 30
0
 11
-33.1
 21
50.300000000011
 31
-11
  0
ARC
  8
0
 62
     2
  6
CONTINUOUS
 10
-36.5
 20
50.3
 30
0
 40
3.4000000000001
 50
1.7817093142654e-010
 51
-179.99999999998
  0
ARC
  8
0
 62
     2
  6
CONTINUOUS
 10
-36.5
 20
50.3
 30
0
 40
3.4
 50
-179.99999999998
 51
1.7817093142654e-010
  0
LINE
  8
0
 62
     2
  6
CONTINUOUS
 10
-26.400000004551
 20
61.2
 30
-11
 11
-26.4
 21
61.199999999999
 31
0
  0
LINE
  8
0
 62
     2
  6
CONTINUOUS
 10
-19.6
 20
61.200000000011
 30
0
 11
-19.6
 21
61.200000000011
 31
-11
  0
ARC
  8
0
 62
     2
  6
CONTINUOUS
 10
-23
 20
61.2
 30
0
 40
3.4
 50
1.7817093142655e-010
 51
-179.99999999998
  0
ARC
  8
0
 62
     2
  6
CONTINUOUS
 10
-23
 20
61.2
 30
0
 40
3.4
 50
-179.99999999998
 51
1.7817093142655e-010
  0
LINE
  8
0
 62
     2
  6
CONTINUOUS
 10
-26.400000004551
 20
39.399999999999
 30
-11
 11
-26.4
 21
39.399999999999
 31
0
  0
LINE
  8
0
 62
     2
  6
CONTINUOUS
 10
-19.6
 20
39.400000000011
 30
0
 11
-19.6
 21
39.400000000011
 31
-11
  0
ARC
  8
0
 62
     2
  6
CONTINUOUS
 10
-23
 20
39.4
 30
0
 40
3.4
 50
1.800867478935e-010
 51
-179.99999999998
  0
ARC
  8
0
 62
     2
  6
CONTINUOUS
 10
-23
 20
39.4
 30
0
 40
3.4
 50
-179.99999999998
 51
1.800867478935e-010
  0
LINE
  8
0
 62
     2
  6
CONTINUOUS
 10
-3.4000000045508
 20
50.3
 30
-11
 11
-3.4
 21
50.299999999999
 31
0
  0
LINE
  8
0
 62
     2
  6
CONTINUOUS
 10
3.4
 20
50.300000000011
 30
0
 11
3.4
 21
50.300000000011
 31
-11
  0
ARC
  8
0
 62
     2
  6
CONTINUOUS
 10
9.1425101690923e-014
 20
50.3
 30
0
 40
3.3999999999999
 50
1.7817093142656e-010
 51
-179.99999999998
  0
ARC
  8
0
 62
     2
  6
CONTINUOUS
 10
9.1425101690923e-014
 20
50.3
 30
0
 40
3.4000000000001
 50
-179.99999999998
 51
1.7817093142656e-010
  0
LINE
  8
0
 62
     2
  6
CONTINUOUS
 10
19.599999995449
 20
39.399999999999
 30
-11
 11
19.6
 21
39.399999999999
 31
0
  0
LINE
  8
0
 62
     2
  6
CONTINUOUS
 10
26.4
 20
39.400000000011
 30
0
 11
26.4
 21
39.400000000011
 31
-11
  0
LINE
  8
0
 62
     2
  6
CONTINUOUS
 10
33.099999995449
 20
50.299999999999
 30
-11
 11
33.1
 21
50.299999999999
 31
0
  0
LINE
  8
0
 62
     2
  6
CONTINUOUS
 10
39.9
 20
50.300000000011
 30
0
 11
39.9
 21
50.300000000011
 31
-11
  0
ARC
  8
0
 62
     2
  6
CONTINUOUS
 10
36.5
 20
50.3
 30
0
 40
3.4
 50
1.7817093142655e-010
 51
-179.99999999998
  0
ARC
  8
0
 62
     2
  6
CONTINUOUS
 10
36.5
 20
50.3
 30
0
 40
3.4
 50
-179.99999999998
 51
1.7817093142655e-010
  0
LINE
  8
0
 62
     2
  6
CONTINUOUS
 10
19
 20
100
 30
-11
 11
19
 21
100
 31
-5
  0
LINE
  8
0
 62
     2
  6
CONTINUOUS
 10
27
 20
99.999999999902
 30
-5
 11
27
 21
99.999999999902
 31
-11
  0
LINE
  8
0
 62
     2
  6
CONTINUOUS
 10
-27
 20
100
 30
-11
 11
-27
 21
100
 31
-5
  0
LINE
  8
0
 62
     2
  6
CONTINUOUS
 10
-19
 20
99.999999999902
 30
-5
 11
-19
 21
99.999999999902
 31
-11
  0
ARC
  8
0
 62
     2
  6
CONTINUOUS
 10
-23
 20
100
 30
-5
 40
4
 50
-1.4012760593405e-009
 51
180
  0
ARC
  8
0
 62
     2
  6
CONTINUOUS
 10
-23
 20
100
 30
-5
 40
4
 50
180
 51
-1.4012760593405e-009
  0
LINE
  8
0
 62
     2
  6
CONTINUOUS
 10
-27.000000005354
 20
125.00000000209
 30
-11
 11
-27
 21
125.00000000417
 31
-5
  0
LINE
  8
0
 62
     2
  6
CONTINUOUS
 10
-19.000000006558
 20
124.9997709462
 30
-5
 11
-19
 21
125
 31
-11
  0
ARC
  8
0
 62
     2
  6
CONTINUOUS
 10
-23
 20
125
 30
-5
 40
4.0000000000001
 50
-0.0032809539592911
 51
179.99999994021
  0
ARC
  8
0
 62
     2
  6
CONTINUOUS
 10
-23
 20
125
 30
-5
 40
4
 50
179.99999994021
 51
-0.0032809539592911
  0
LINE
  8
0
 62
     2
  6
CONTINUOUS
 10
18.999999994646
 20
125
 30
-11
 11
19
 21
125
 31
-5
  0
LINE
  8
0
 62
     2
  6
CONTINUOUS
 10
27
 20
124.9999999999
 30
-5
 11
27
 21
124.9999999999
 31
-11
  0
ARC
  8
0
 62
     2
  6
CONTINUOUS
 10
23
 20
125
 30
-5
 40
4
 50
-1.4020902813389e-009
 51
-179.99999999998
  0
ARC
  8
0
 62
     2
  6
CONTINUOUS
 10
23
 20
125
 30
-5
 40
4
 50
-179.99999999998
 51
-1.4020902813389e-009
  0
LINE
  8
0
 62
     2
  6
CONTINUOUS
 10
51.75
 20
135
 30
0
 11
51.75
 21
135
 31
-11
  0
LINE
  8
0
 62
     2
  6
CONTINUOUS
 10
-51.75
 20
6.3375471855875e-015
 30
-6
 11
-51.75
 21
6.3375471855875e-015
 31
0
  0
LINE
  8
0
 62
     2
  6
CONTINUOUS
 10
-51.75
 20
9
 30
-6
 11
-51.75
 21
6.3375471855875e-015
 31
-6
  0
LINE
  8
0
 62
     2
  6
CONTINUOUS
 10
51.75
 20
-6.3375471855875e-015
 30
-6
 11
51.75
 21
9
 31
-6
  0
LINE
  8
0
 62
     2
  6
CONTINUOUS
 10
51.75
 20
-6.3375471855875e-015
 30
0
 11
51.75
 21
-6.3375471855875e-015
 31
-6
  0
LINE
  8
0
 62
     2
  6
CONTINUOUS
 10
51.75
 20
-6.3375471855875e-015
 30
-6
 11
-51.75
 21
6.3375471855875e-015
 31
-6
  0
ARC
  8
0
 62
     2
  6
CONTINUOUS
 10
23
 20
125
 30
0
 40
5.5
 50
0.094118137733522
 51
180
  0
ARC
  8
0
 62
     2
  6
CONTINUOUS
 10
23
 20
125
 30
0
 40
5.5
 50
180
 51
1.7883275893331e-010
  0
ARC
  8
0
 62
     2
  6
CONTINUOUS
 10
23
 20
125
 30
0
 40
5.5
 50
1.7883275893331e-010
 51
0.094118137733522
  0
ARC
  8
0
 62
     2
  6
CONTINUOUS
 10
23
 20
100
 30
0
 40
5.5
 50
0.09411813773441
 51
180
  0
ARC
  8
0
 62
     2
  6
CONTINUOUS
 10
23
 20
100
 30
0
 40
5.5
 50
180
 51
1.7912883966003e-010
  0
ARC
  8
0
 62
     2
  6
CONTINUOUS
 10
23
 20
100
 30
0
 40
5.5
 50
1.7912883966003e-010
 51
0.09411813773441
  0
ARC
  8
0
 62
     2
  6
CONTINUOUS
 10
-23
 20
100
 30
0
 40
5.5
 50
0.094118137735594
 51
180
  0
ARC
  8
0
 62
     2
  6
CONTINUOUS
 10
-23
 20
100
 30
0
 40
5.5
 50
180
 51
1.7912883966003e-010
  0
ARC
  8
0
 62
     2
  6
CONTINUOUS
 10
-23
 20
100
 30
0
 40
5.5
 50
1.7912883966003e-010
 51
0.094118137735594
  0
ARC
  8
0
 62
     2
  6
CONTINUOUS
 10
-23
 20
125
 30
0
 40
5.5
 50
0.094118137734706
 51
180
  0
ARC
  8
0
 62
     2
  6
CONTINUOUS
 10
-23
 20
125
 30
0
 40
5.5
 50
180
 51
1.7883275893331e-010
  0
ARC
  8
0
 62
     2
  6
CONTINUOUS
 10
-23
 20
125
 30
0
 40
5.5
 50
1.7883275893331e-010
 51
0.094118137734706
  0
LINE
  8
0
 62
     2
  6
CONTINUOUS
 10
-51.75
 20
6.3375471855875e-015
 30
0
 11
51.75
 21
-6.3375471855875e-015
 31
0
  0
ARC
  8
0
 62
     2
  6
CONTINUOUS
 10
23
 20
100
 30
-5
 40
5.5
 50
180
 51
0.0032809539605495
  0
ARC
  8
0
 62
     2
  6
CONTINUOUS
 10
23
 20
100
 30
-5
 40
5.5
 50
0.0032809539605495
 51
180
  0
ARC
  8
0
 62
     2
  6
CONTINUOUS
 10
-23
 20
100
 30
-5
 40
5.5
 50
180
 51
0.0032809539605495
  0
ARC
  8
0
 62
     2
  6
CONTINUOUS
 10
-23
 20
100
 30
-5
 40
5.5
 50
0.0032809539605495
 51
180
  0
ARC
  8
0
 62
     2
  6
CONTINUOUS
 10
23
 20
125
 30
-5
 40
5.5
 50
180
 51
0.0032809539584769
  0
ARC
  8
0
 62
     2
  6
CONTINUOUS
 10
23
 20
125
 30
-5
 40
5.5
 50
0.0032809539584769
 51
180
  0
LINE
  8
0
 62
     2
  6
CONTINUOUS
 10
17.5
 20
125
 30
-5
 11
17.5
 21
125
 31
0
  0
LINE
  8
0
 62
     2
  6
CONTINUOUS
 10
28.5
 20
125.00000000002
 30
0
 11
28.499999990982
 21
125.00031494897
 31
-5
  0
LINE
  8
0
 62
     2
  6
CONTINUOUS
 10
17.5
 20
100
 30
-5
 11
17.5
 21
100
 31
0
  0
LINE
  8
0
 62
     2
  6
CONTINUOUS
 10
28.5
 20
100.00000000002
 30
0
 11
28.499999990982
 21
100.00031494897
 31
-5
  0
LINE
  8
0
 62
     2
  6
CONTINUOUS
 10
-28.5
 20
100
 30
-5
 11
-28.5
 21
100
 31
0
  0
LINE
  8
0
 62
     2
  6
CONTINUOUS
 10
-17.5
 20
100.00000000002
 30
0
 11
-17.500000009018
 21
100.00031494897
 31
-5
  0
LINE
  8
0
 62
     2
  6
CONTINUOUS
 10
-28.5
 20
125
 30
-5
 11
-28.5
 21
125
 31
0
  0
ARC
  8
0
 62
     2
  6
CONTINUOUS
 10
-23
 20
125
 30
-5
 40
5.5
 50
0.0032809539584769
 51
180
  0
LINE
  8
0
 62
     2
  6
CONTINUOUS
 10
-17.5
 20
125.00000000002
 30
0
 11
-17.500000009018
 21
125.00031494897
 31
-5
  0
ARC
  8
0
 62
     2
  6
CONTINUOUS
 10
-23
 20
125
 30
-5
 40
5.5
 50
180
 51
0.0032809539584769
  0
LINE
  8
0
 62
     2
  6
CONTINUOUS
 10
51.75
 20
132
 30
0
 11
-51.75
 21
132
 31
0
  0
LINE
  8
0
 62
     2
  6
CONTINUOUS
 10
-51.75
 20
6.3375471855875e-015
 30
0
 11
-51.75
 21
132
 31
0
  0
LINE
  8
0
 62
     2
  6
CONTINUOUS
 10
-51.75
 20
135
 30
-11
 11
-51.75
 21
135
 31
0
  0
LINE
  8
0
 62
     2
  6
CONTINUOUS
 10
51.75
 20
132
 30
0
 11
51.75
 21
-6.3375471855875e-015
 31
0
  0
INSERT
  2
OperationStart-00000
  8
OperationStart
 10
0
 20
0
 30
0
 50
0
  0
INSERT
  2
Fig_000
  8
0
 10
0
 20
0
 30
0
 50
180
  0
INSERT
  2
Fig_001
  8
0
 10
0
 20
0
 30
0
 50
180
  0
INSERT
  2
Fig_000
  8
0
 10
-36.5
 20
4.4699608168878e-015
 30
0
 50
180
  0
INSERT
  2
Fig_001
  8
0
 10
-46
 20
5.6333752760778e-015
 30
0
 50
180
  0
INSERT
  2
Fig_000
  8
0
 10
-73
 20
8.9399216337757e-015
 30
0
 50
180
  0
INSERT
  2
Fig_001
  8
0
 10
13.5
 20
10.9
 30
0
 50
180
  0
INSERT
  2
Fig_000
  8
0
 10
-13.5
 20
10.9
 30
0
 50
180
  0
INSERT
  2
Fig_001
  8
0
 10
-23
 20
10.9
 30
0
 50
180
  0
INSERT
  2
Fig_000
  8
0
 10
-59.5
 20
10.9
 30
0
 50
180
  0
INSERT
  2
Fig_001
  8
0
 10
-59.5
 20
10.9
 30
0
 50
180
  0
INSERT
  2
Fig_000
  8
0
 10
-73
 20
21.8
 30
0
 50
180
  0
INSERT
  2
Fig_001
  8
0
 10
-46
 20
21.8
 30
0
 50
180
  0
INSERT
  2
Fig_000
  8
0
 10
-36.5
 20
21.8
 30
0
 50
180
  0
INSERT
  2
Fig_001
  8
0
 10
-5.4173688838667e-014
 20
21.8
 30
0
 50
180
  0
INSERT
  2
Fig_000
  8
0
 10
6.661857624055e-014
 20
21.8
 30
0
 50
180
  0
INSERT
  2
Fig_002
  8
0
 10
0
 20
0
 30
0
 50
180
  0
INSERT
  2
Fig_002
  8
0
 10
-46
 20
5.6333752760778e-015
 30
0
 50
180
  0
INSERT
  2
Fig_002
  8
0
 10
-46
 20
25
 30
0
 50
180
  0
INSERT
  2
Fig_002
  8
0
 10
3.0616169978684e-015
 20
25
 30
0
 50
180
  0
INSERT
  2
OperationStart-00001
  8
OperationStart
 10
0
 20
0
 30
0
 50
0
  0
INSERT
  2
Fig_003
  8
0
 10
0
 20
0
 30
0
 50
180
  0
INSERT
  2
Fig_004
  8
0
 10
0
 20
0
 30
0
 50
180
  0
LINE
  8
0
 62
     2
  6
CONTINUOUS
 10
-342.817
 20
-135
 30
0
 11
-353.817
 21
-135
 31
0
  0
LINE
  8
0
 62
     2
  6
CONTINUOUS
 10
-342.817
 20
-5.9999999999999
 30
0
 11
-342.817
 21
-135
 31
0
  0
LINE
  8
0
 62
     2
  6
CONTINUOUS
 10
-353.817
 20
0
 30
0
 11
-347.817
 21
0
 31
0
  0
LINE
  8
0
 62
     2
  6
CONTINUOUS
 10
-353.817
 20
-135
 30
0
 11
-353.817
 21
0
 31
0
  0
LINE
  8
0
 62
     2
  6
CONTINUOUS
 10
-208.414
 20
-135
 30
4.4408920985006e-015
 11
-219.414
 21
-135
 31
4.4408920985006e-015
  0
LINE
  8
0
 62
     2
  6
CONTINUOUS
 10
-208.414
 20
-10
 30
4.4408920985006e-015
 11
-208.414
 21
-135
 31
4.4408920985006e-015
  0
LINE
  8
0
 62
     2
  6
CONTINUOUS
 10
-219.414
 20
0
 30
4.4408920985006e-015
 11
-213.414
 21
0
 31
4.4408920985006e-015
  0
LINE
  8
0
 62
     2
  6
CONTINUOUS
 10
-219.414
 20
-135
 30
4.4408920985006e-015
 11
-219.414
 21
0
 31
4.4408920985006e-015
  0
INSERT
  2
Fig_005
  8
0
 10
0
 20
0
 30
0
 50
0
  0
INSERT
  2
Fig_006
  8
0
 10
0
 20
0
 30
0
 50
0
  0
TEXT
  8
BEM
 62
     1
  6
CONTINUOUS
 10
-66.412
 20
3.992
 30
0
 40
2
 41
0.65
 50
180
 51
0
  1
8.75
  0
LINE
  8
BEM
 62
     1
  6
CONTINUOUS
 10
-51.75
 20
9.3333333333333
 30
0
 11
-51.75
 21
2.392
 31
0
  0
LINE
  8
BEM
 62
     1
  6
CONTINUOUS
 10
-60.5
 20
0.66666666666667
 30
0
 11
-60.5
 21
6.392
 31
0
  0
SOLID
  8
BEM
 62
     1
  6
CONTINUOUS
 10
-51.75
 20
4.392
 30
0
 11
-51.15
 21
4.592
 31
0
 12
-51.15
 22
4.192
 32
0
 13
-51.15
 23
4.192
 33
0
  0
LINE
  8
BEM
 62
     1
  6
CONTINUOUS
 10
-51.75
 20
4.392
 30
0
 11
-50.55
 21
4.392
 31
0
  0
SOLID
  8
BEM
 62
     1
  6
CONTINUOUS
 10
-60.5
 20
4.392
 30
0
 11
-61.1
 21
4.192
 31
0
 12
-61.1
 22
4.592
 32
0
 13
-61.1
 23
4.592
 33
0
  0
LINE
  8
BEM
 62
     1
  6
CONTINUOUS
 10
-60.5
 20
4.392
 30
0
 11
-71.178666666667
 21
4.392
 31
0
  0
INSERT
  2
GENSEC-Fig_005-00075-1661495396
  8
0
 10
0
 20
0
 30
0
 50
0
  0
INSERT
  2
OperationStart-00002
  8
OperationStart
 10
-219.414
 20
0
 30
0
 50
0
  0
ENDSEC
  0
EOF
