  0
SECTION
  2
HEADER
  9
$INSUNITS
 70
     4
  9
$MEASUREMENT
 70
     1
  9
$DIMALT
 70
     1
  9
$DIMALTD
 70
     3
  9
$DIMALTF
 40
0.039370078740157
  0
ENDSEC
  0
SECTION
  2
TABLES
  0
TABLE
  2
LTYPE
 70
     5
  0
LTYPE
  2
CONTINUOUS
 70
     0
  3
CONTINUOUS
 72
    65
 73
     0
 40
0
  0
LTYPE
  2
DASHED
 70
     0
  3
DASHED
 72
    65
 73
     2
 40
0.75
 49
0.5
 49
-0.25
  0
LTYPE
  2
DOT
 70
     0
  3
DOT
 72
    65
 73
     2
 40
0.25
 49
0
 49
-0.25
  0
LTYPE
  2
CENTER
 70
     0
  3
CENTER
 72
    65
 73
     4
 40
2
 49
1.25
 49
-0.25
 49
0.25
 49
-0.25
  0
LTYPE
  2
DASHDOT
 70
     0
  3
DASHDOT
 72
    65
 73
     4
 40
1
 49
0.5
 49
-0.25
 49
0
 49
-0.25
  0
ENDTAB
  0
TABLE
  2
LAYER
 70
     5
  0
LAYER
  2
0
 70
     0
 62
     1
  6
CONTINUOUS
  0
LAYER
  2
c-elements
 70
     0
 62
     1
  6
CONTINUOUS
  0
LAYER
  2
BEM
 70
     0
 62
     1
  6
CONTINUOUS
  0
LAYER
  2
EndPoints
 70
     0
 62
     1
  6
CONTINUOUS
  0
LAYER
  2
OperationStart
 70
     0
 62
     1
  6
CONTINUOUS
  0
ENDTAB
  0
ENDSEC
  0
SECTION
  2
BLOCKS
  0
BLOCK
  2
Fig_000
 10
0
 20
0
 30
0
 70
    64
  8
0
  0
POINT
  8
0
 62
     1
  6
CONTINUOUS
 10
88
 20
-7
 30
0
  0
POINT
  8
0
 62
     1
  6
CONTINUOUS
 10
87
 20
-7
 30
0
  0
POINT
  8
EndPoints
 62
     1
  6
CONTINUOUS
 10
185
 20
-8.5
 30
0
  0
LINE
  8
0
 62
     2
  6
CONTINUOUS
 10
186
 20
-8.5
 30
0
 11
186
 21
-0.6
 31
0
  0
LINE
  8
0
 62
     2
  6
CONTINUOUS
 10
186
 20
-0.6
 30
0
 11
90
 21
-0.6
 31
0
  0
ARC
  8
0
 62
     2
  6
CONTINUOUS
 10
90
 20
-3.6
 30
0
 40
3
 50
89.999999999999
 51
-180
  0
LINE
  8
0
 62
     2
  6
CONTINUOUS
 10
87
 20
-3.6
 30
0
 11
87
 21
-7
 31
0
  0
ENDBLK
  0
BLOCK
  2
Fig_001
 10
0
 20
0
 30
0
 70
    64
  8
0
  0
POINT
  8
0
 62
     1
  6
CONTINUOUS
 10
88
 20
7
 30
0
  0
POINT
  8
0
 62
     1
  6
CONTINUOUS
 10
87
 20
7
 30
0
  0
POINT
  8
EndPoints
 62
     1
  6
CONTINUOUS
 10
185
 20
7
 30
0
  0
LINE
  8
0
 62
     3
  6
CONTINUOUS
 10
87
 20
7
 30
0
 11
87
 21
3.6
 31
0
  0
ARC
  8
0
 62
     3
  6
CONTINUOUS
 10
90
 20
3.6
 30
0
 40
2.9999999999999
 50
180
 51
-89.999999999999
  0
LINE
  8
0
 62
     3
  6
CONTINUOUS
 10
90
 20
0.6
 30
0
 11
186
 21
0.6
 31
0
  0
LINE
  8
0
 62
     3
  6
CONTINUOUS
 10
186
 20
0.6
 30
0
 11
186
 21
7
 31
0
  0
ENDBLK
  0
BLOCK
  2
Fig_002
 10
0
 20
0
 30
0
 70
    64
  8
0
  0
POINT
  8
0
 62
     1
  6
CONTINUOUS
 10
88
 20
43
 30
0
  0
POINT
  8
0
 62
     1
  6
CONTINUOUS
 10
87
 20
43
 30
0
  0
POINT
  8
EndPoints
 62
     1
  6
CONTINUOUS
 10
185
 20
41.5
 30
0
  0
LINE
  8
0
 62
     2
  6
CONTINUOUS
 10
186
 20
41.5
 30
0
 11
186
 21
45
 31
0
  0
LINE
  8
0
 62
     2
  6
CONTINUOUS
 10
186
 20
45
 30
0
 11
88
 21
45
 31
0
  0
ARC
  8
0
 62
     2
  6
CONTINUOUS
 10
88
 20
44
 30
0
 40
1
 50
89.999999999999
 51
180
  0
LINE
  8
0
 62
     2
  6
CONTINUOUS
 10
87
 20
44
 30
0
 11
87
 21
43
 31
0
  0
ENDBLK
  0
BLOCK
  2
Fig_003
 10
0
 20
0
 30
0
 70
    64
  8
0
  0
POINT
  8
0
 62
     1
  6
CONTINUOUS
 10
88
 20
57
 30
0
  0
POINT
  8
0
 62
     1
  6
CONTINUOUS
 10
87
 20
57
 30
0
  0
POINT
  8
EndPoints
 62
     1
  6
CONTINUOUS
 10
185
 20
58.5
 30
0
  0
LINE
  8
0
 62
     3
  6
CONTINUOUS
 10
186
 20
58.5
 30
0
 11
186
 21
55
 31
0
  0
LINE
  8
0
 62
     3
  6
CONTINUOUS
 10
186
 20
55
 30
0
 11
88
 21
55
 31
0
  0
ARC
  8
0
 62
     3
  6
CONTINUOUS
 10
88
 20
56
 30
0
 40
0.99999999999999
 50
180
 51
-89.999999999999
  0
LINE
  8
0
 62
     3
  6
CONTINUOUS
 10
87
 20
56
 30
0
 11
87
 21
57
 31
0
  0
ENDBLK
  0
BLOCK
  2
Fig_004
 10
0
 20
0
 30
0
 70
    64
  8
0
  0
POINT
  8
0
 62
     1
  6
CONTINUOUS
 10
186
 20
41.5
 30
0
  0
POINT
  8
0
 62
     1
  6
CONTINUOUS
 10
185
 20
41.5
 30
0
  0
POINT
  8
EndPoints
 62
     1
  6
CONTINUOUS
 10
186
 20
58.5
 30
0
  0
LINE
  8
0
 62
     2
  6
CONTINUOUS
 10
185
 20
58.5
 30
0
 11
185
 21
41.5
 31
0
  0
ENDBLK
  0
BLOCK
  2
OperationStart-00000
 10
0
 20
0
 30
0
 70
    64
  8
0
  0
ENDBLK
  0
BLOCK
  2
GENSEC-Fig_000-00003-1673375312
 10
0
 20
0
 30
0
 70
    64
  8
0
  0
LINE
  8
0
 62
     3
  6
CONTINUOUS
 10
80
 20
-7
 30
0
 11
80
 21
-7
 31
76
  0
LINE
  8
0
 62
     6
  6
CONTINUOUS
 10
80
 20
-7
 30
0
 11
79
 21
-7
 31
0
  0
LINE
  8
0
 62
     6
  6
CONTINUOUS
 10
80
 20
-7
 30
76
 11
79
 21
-7
 31
76
  0
LINE
  8
0
 62
     3
  6
CONTINUOUS
 10
79
 20
-7
 30
0
 11
79
 21
-7
 31
76
  0
LINE
  8
0
 62
     6
  6
CONTINUOUS
 10
79
 20
-7
 30
0
 11
79
 21
-3.6
 31
0
  0
LINE
  8
0
 62
     6
  6
CONTINUOUS
 10
79
 20
-7
 30
76
 11
79
 21
-3.5999999999999
 31
76
  0
LINE
  8
0
 62
     3
  6
CONTINUOUS
 10
79
 20
-3.6
 30
0
 11
79
 21
-3.5999999999999
 31
76
  0
LINE
  8
0
 62
     6
  6
CONTINUOUS
 10
79
 20
-3.6
 30
0
 11
79.007643656169
 21
-3.3859824504023
 31
0
  0
LINE
  8
0
 62
     6
  6
CONTINUOUS
 10
79
 20
-3.5999999999999
 30
76
 11
79.007643656169
 21
-3.3859824504022
 31
76
  0
LINE
  8
0
 62
     6
  6
CONTINUOUS
 10
79.007643656169
 20
-3.3859824504023
 30
0
 11
79.030535674357
 21
-3.1730554851801
 31
0
  0
LINE
  8
0
 62
     6
  6
CONTINUOUS
 10
79.007643656169
 20
-3.3859824504022
 30
76
 11
79.030535674357
 21
-3.1730554851801
 31
76
  0
LINE
  8
0
 62
     6
  6
CONTINUOUS
 10
79.030535674357
 20
-3.1730554851801
 30
0
 11
79.068559402087
 21
-2.9623041313411
 31
0
  0
LINE
  8
0
 62
     6
  6
CONTINUOUS
 10
79.030535674357
 20
-3.1730554851801
 30
76
 11
79.068559402087
 21
-2.962304131341
 31
76
  0
LINE
  8
0
 62
     6
  6
CONTINUOUS
 10
79.068559402087
 20
-2.9623041313411
 30
0
 11
79.121521079156
 21
-2.7548023294757
 31
0
  0
LINE
  8
0
 62
     6
  6
CONTINUOUS
 10
79.068559402087
 20
-2.962304131341
 30
76
 11
79.121521079157
 21
-2.7548023294757
 31
76
  0
LINE
  8
0
 62
     6
  6
CONTINUOUS
 10
79.121521079156
 20
-2.7548023294757
 30
0
 11
79.189150825001
 21
-2.5516074612027
 31
0
  0
LINE
  8
0
 62
     6
  6
CONTINUOUS
 10
79.121521079157
 20
-2.7548023294757
 30
76
 11
79.189150825001
 21
-2.5516074612027
 31
76
  0
LINE
  8
0
 62
     6
  6
CONTINUOUS
 10
79.189150825001
 20
-2.5516074612027
 30
0
 11
79.271104013936
 21
-2.3537549609943
 31
0
  0
LINE
  8
0
 62
     6
  6
CONTINUOUS
 10
79.189150825001
 20
-2.5516074612027
 30
76
 11
79.271104013936
 21
-2.3537549609943
 31
76
  0
LINE
  8
0
 62
     6
  6
CONTINUOUS
 10
79.271104013936
 20
-2.3537549609943
 30
0
 11
79.366963031298
 21
-2.1622530398398
 31
0
  0
LINE
  8
0
 62
     6
  6
CONTINUOUS
 10
79.271104013936
 20
-2.3537549609943
 30
76
 11
79.366963031298
 21
-2.1622530398398
 31
76
  0
LINE
  8
0
 62
     6
  6
CONTINUOUS
 10
79.366963031298
 20
-2.1622530398398
 30
0
 11
79.476239401506
 21
-1.9780775476332
 31
0
  0
LINE
  8
0
 62
     6
  6
CONTINUOUS
 10
79.366963031298
 20
-2.1622530398398
 30
76
 11
79.476239401506
 21
-1.9780775476332
 31
76
  0
LINE
  8
0
 62
     6
  6
CONTINUOUS
 10
79.476239401506
 20
-1.9780775476332
 30
0
 11
79.598376277227
 21
-1.8021670004659
 31
0
  0
LINE
  8
0
 62
     6
  6
CONTINUOUS
 10
79.476239401506
 20
-1.9780775476332
 30
76
 11
79.598376277227
 21
-1.8021670004659
 31
76
  0
LINE
  8
0
 62
     6
  6
CONTINUOUS
 10
79.598376277227
 20
-1.8021670004659
 30
0
 11
79.732751276937
 21
-1.6354177981641
 31
0
  0
LINE
  8
0
 62
     6
  6
CONTINUOUS
 10
79.598376277227
 20
-1.8021670004659
 30
76
 11
79.732751276937
 21
-1.6354177981641
 31
76
  0
LINE
  8
0
 62
     6
  6
CONTINUOUS
 10
79.732751276937
 20
-1.6354177981641
 30
0
 11
79.87867965644
 21
-1.4786796564403
 31
0
  0
LINE
  8
0
 62
     6
  6
CONTINUOUS
 10
79.732751276937
 20
-1.6354177981641
 30
76
 11
79.87867965644
 21
-1.4786796564403
 31
76
  0
LINE
  8
0
 62
     6
  6
CONTINUOUS
 10
79.87867965644
 20
-1.4786796564403
 30
0
 11
80.035417798164
 21
-1.3327512769372
 31
0
  0
LINE
  8
0
 62
     6
  6
CONTINUOUS
 10
79.87867965644
 20
-1.4786796564403
 30
76
 11
80.035417798164
 21
-1.3327512769372
 31
76
  0
LINE
  8
0
 62
     6
  6
CONTINUOUS
 10
80.035417798164
 20
-1.3327512769372
 30
0
 11
80.202167000466
 21
-1.1983762772269
 31
0
  0
LINE
  8
0
 62
     6
  6
CONTINUOUS
 10
80.035417798164
 20
-1.3327512769372
 30
76
 11
80.202167000466
 21
-1.1983762772269
 31
76
  0
LINE
  8
0
 62
     6
  6
CONTINUOUS
 10
80.202167000466
 20
-1.1983762772269
 30
0
 11
80.378077547633
 21
-1.0762394015064
 31
0
  0
LINE
  8
0
 62
     6
  6
CONTINUOUS
 10
80.202167000466
 20
-1.1983762772269
 30
76
 11
80.378077547633
 21
-1.0762394015064
 31
76
  0
LINE
  8
0
 62
     6
  6
CONTINUOUS
 10
80.378077547633
 20
-1.0762394015064
 30
0
 11
80.56225303984
 21
-0.96696303129823
 31
0
  0
LINE
  8
0
 62
     6
  6
CONTINUOUS
 10
80.378077547633
 20
-1.0762394015064
 30
76
 11
80.56225303984
 21
-0.96696303129821
 31
76
  0
LINE
  8
0
 62
     6
  6
CONTINUOUS
 10
80.56225303984
 20
-0.96696303129823
 30
0
 11
80.753754960994
 21
-0.87110401393644
 31
0
  0
LINE
  8
0
 62
     6
  6
CONTINUOUS
 10
80.56225303984
 20
-0.96696303129821
 30
76
 11
80.753754960994
 21
-0.87110401393643
 31
76
  0
LINE
  8
0
 62
     6
  6
CONTINUOUS
 10
80.753754960994
 20
-0.87110401393644
 30
0
 11
80.951607461203
 21
-0.78915082500071
 31
0
  0
LINE
  8
0
 62
     6
  6
CONTINUOUS
 10
80.753754960994
 20
-0.87110401393643
 30
76
 11
80.951607461203
 21
-0.7891508250007
 31
76
  0
LINE
  8
0
 62
     6
  6
CONTINUOUS
 10
80.951607461203
 20
-0.78915082500071
 30
0
 11
81.154802329476
 21
-0.72152107915651
 31
0
  0
LINE
  8
0
 62
     6
  6
CONTINUOUS
 10
80.951607461203
 20
-0.7891508250007
 30
76
 11
81.154802329476
 21
-0.72152107915649
 31
76
  0
LINE
  8
0
 62
     6
  6
CONTINUOUS
 10
81.154802329476
 20
-0.72152107915651
 30
0
 11
81.362304131341
 21
-0.66855940208653
 31
0
  0
LINE
  8
0
 62
     6
  6
CONTINUOUS
 10
81.154802329476
 20
-0.72152107915649
 30
76
 11
81.362304131341
 21
-0.66855940208651
 31
76
  0
LINE
  8
0
 62
     6
  6
CONTINUOUS
 10
81.362304131341
 20
-0.66855940208653
 30
0
 11
81.57305548518
 21
-0.63053567435721
 31
0
  0
LINE
  8
0
 62
     6
  6
CONTINUOUS
 10
81.362304131341
 20
-0.66855940208651
 30
76
 11
81.57305548518
 21
-0.63053567435719
 31
76
  0
LINE
  8
0
 62
     6
  6
CONTINUOUS
 10
81.57305548518
 20
-0.63053567435721
 30
0
 11
81.785982450402
 21
-0.60764365616925
 31
0
  0
LINE
  8
0
 62
     6
  6
CONTINUOUS
 10
81.57305548518
 20
-0.63053567435719
 30
76
 11
81.785982450402
 21
-0.60764365616922
 31
76
  0
LINE
  8
0
 62
     6
  6
CONTINUOUS
 10
81.785982450402
 20
-0.60764365616925
 30
0
 11
82
 21
-0.60000000000002
 31
0
  0
LINE
  8
0
 62
     6
  6
CONTINUOUS
 10
81.785982450402
 20
-0.60764365616922
 30
76
 11
82
 21
-0.59999999999998
 31
76
  0
LINE
  8
0
 62
     3
  6
CONTINUOUS
 10
82
 20
-0.60000000000002
 30
0
 11
82
 21
-0.59999999999998
 31
76
  0
LINE
  8
0
 62
     6
  6
CONTINUOUS
 10
82
 20
-0.6
 30
0
 11
178
 21
-0.6
 31
0
  0
LINE
  8
0
 62
     6
  6
CONTINUOUS
 10
82
 20
-0.6
 30
76
 11
178
 21
-0.6
 31
76
  0
LINE
  8
0
 62
     3
  6
CONTINUOUS
 10
178
 20
-0.6
 30
0
 11
178
 21
-0.6
 31
76
  0
LINE
  8
0
 62
     6
  6
CONTINUOUS
 10
178
 20
-0.6
 30
0
 11
178
 21
-8.5
 31
0
  0
LINE
  8
0
 62
     6
  6
CONTINUOUS
 10
178
 20
-0.6
 30
76
 11
178
 21
-8.5
 31
76
  0
LINE
  8
0
 62
     3
  6
CONTINUOUS
 10
178
 20
-8.5
 30
0
 11
178
 21
-8.5
 31
76
  0
LINE
  8
0
 62
     6
  6
CONTINUOUS
 10
178
 20
-8.5
 30
0
 11
177
 21
-8.5
 31
0
  0
LINE
  8
0
 62
     6
  6
CONTINUOUS
 10
178
 20
-8.5
 30
76
 11
177
 21
-8.5
 31
76
  0
LINE
  8
0
 62
     3
  6
CONTINUOUS
 10
177
 20
-8.5
 30
0
 11
177
 21
-8.5
 31
76
  0
ENDBLK
  0
BLOCK
  2
GENSEC-Fig_001-00006-1673375297
 10
0
 20
0
 30
0
 70
    64
  8
0
  0
LINE
  8
0
 62
     3
  6
CONTINUOUS
 10
80
 20
7
 30
0
 11
80
 21
7
 31
76
  0
LINE
  8
0
 62
     6
  6
CONTINUOUS
 10
80
 20
7
 30
0
 11
79
 21
7
 31
0
  0
LINE
  8
0
 62
     6
  6
CONTINUOUS
 10
80
 20
7
 30
76
 11
79
 21
7
 31
76
  0
LINE
  8
0
 62
     3
  6
CONTINUOUS
 10
79
 20
7
 30
0
 11
79
 21
7
 31
76
  0
LINE
  8
0
 62
     6
  6
CONTINUOUS
 10
79
 20
7
 30
0
 11
79
 21
3.6
 31
0
  0
LINE
  8
0
 62
     6
  6
CONTINUOUS
 10
79
 20
7
 30
76
 11
79
 21
3.5999999999999
 31
76
  0
LINE
  8
0
 62
     3
  6
CONTINUOUS
 10
79
 20
3.6
 30
0
 11
79
 21
3.5999999999999
 31
76
  0
LINE
  8
0
 62
     6
  6
CONTINUOUS
 10
79
 20
3.6
 30
0
 11
79.007643656169
 21
3.3859824504023
 31
0
  0
LINE
  8
0
 62
     6
  6
CONTINUOUS
 10
79
 20
3.5999999999999
 30
76
 11
79.007643656169
 21
3.3859824504022
 31
76
  0
LINE
  8
0
 62
     6
  6
CONTINUOUS
 10
79.007643656169
 20
3.3859824504023
 30
0
 11
79.030535674357
 21
3.1730554851801
 31
0
  0
LINE
  8
0
 62
     6
  6
CONTINUOUS
 10
79.007643656169
 20
3.3859824504022
 30
76
 11
79.030535674357
 21
3.1730554851801
 31
76
  0
LINE
  8
0
 62
     6
  6
CONTINUOUS
 10
79.030535674357
 20
3.1730554851801
 30
0
 11
79.068559402087
 21
2.9623041313411
 31
0
  0
LINE
  8
0
 62
     6
  6
CONTINUOUS
 10
79.030535674357
 20
3.1730554851801
 30
76
 11
79.068559402087
 21
2.962304131341
 31
76
  0
LINE
  8
0
 62
     6
  6
CONTINUOUS
 10
79.068559402087
 20
2.9623041313411
 30
0
 11
79.121521079156
 21
2.7548023294757
 31
0
  0
LINE
  8
0
 62
     6
  6
CONTINUOUS
 10
79.068559402087
 20
2.962304131341
 30
76
 11
79.121521079157
 21
2.7548023294757
 31
76
  0
LINE
  8
0
 62
     6
  6
CONTINUOUS
 10
79.121521079156
 20
2.7548023294757
 30
0
 11
79.189150825001
 21
2.5516074612027
 31
0
  0
LINE
  8
0
 62
     6
  6
CONTINUOUS
 10
79.121521079157
 20
2.7548023294757
 30
76
 11
79.189150825001
 21
2.5516074612027
 31
76
  0
LINE
  8
0
 62
     6
  6
CONTINUOUS
 10
79.189150825001
 20
2.5516074612027
 30
0
 11
79.271104013936
 21
2.3537549609943
 31
0
  0
LINE
  8
0
 62
     6
  6
CONTINUOUS
 10
79.189150825001
 20
2.5516074612027
 30
76
 11
79.271104013936
 21
2.3537549609943
 31
76
  0
LINE
  8
0
 62
     6
  6
CONTINUOUS
 10
79.271104013936
 20
2.3537549609943
 30
0
 11
79.366963031298
 21
2.1622530398398
 31
0
  0
LINE
  8
0
 62
     6
  6
CONTINUOUS
 10
79.271104013936
 20
2.3537549609943
 30
76
 11
79.366963031298
 21
2.1622530398398
 31
76
  0
LINE
  8
0
 62
     6
  6
CONTINUOUS
 10
79.366963031298
 20
2.1622530398398
 30
0
 11
79.476239401506
 21
1.9780775476332
 31
0
  0
LINE
  8
0
 62
     6
  6
CONTINUOUS
 10
79.366963031298
 20
2.1622530398398
 30
76
 11
79.476239401506
 21
1.9780775476332
 31
76
  0
LINE
  8
0
 62
     6
  6
CONTINUOUS
 10
79.476239401506
 20
1.9780775476332
 30
0
 11
79.598376277227
 21
1.8021670004659
 31
0
  0
LINE
  8
0
 62
     6
  6
CONTINUOUS
 10
79.476239401506
 20
1.9780775476332
 30
76
 11
79.598376277227
 21
1.8021670004659
 31
76
  0
LINE
  8
0
 62
     6
  6
CONTINUOUS
 10
79.598376277227
 20
1.8021670004659
 30
0
 11
79.732751276937
 21
1.6354177981641
 31
0
  0
LINE
  8
0
 62
     6
  6
CONTINUOUS
 10
79.598376277227
 20
1.8021670004659
 30
76
 11
79.732751276937
 21
1.6354177981641
 31
76
  0
LINE
  8
0
 62
     6
  6
CONTINUOUS
 10
79.732751276937
 20
1.6354177981641
 30
0
 11
79.87867965644
 21
1.4786796564403
 31
0
  0
LINE
  8
0
 62
     6
  6
CONTINUOUS
 10
79.732751276937
 20
1.6354177981641
 30
76
 11
79.87867965644
 21
1.4786796564403
 31
76
  0
LINE
  8
0
 62
     6
  6
CONTINUOUS
 10
79.87867965644
 20
1.4786796564403
 30
0
 11
80.035417798164
 21
1.3327512769372
 31
0
  0
LINE
  8
0
 62
     6
  6
CONTINUOUS
 10
79.87867965644
 20
1.4786796564403
 30
76
 11
80.035417798164
 21
1.3327512769372
 31
76
  0
LINE
  8
0
 62
     6
  6
CONTINUOUS
 10
80.035417798164
 20
1.3327512769372
 30
0
 11
80.202167000466
 21
1.1983762772269
 31
0
  0
LINE
  8
0
 62
     6
  6
CONTINUOUS
 10
80.035417798164
 20
1.3327512769372
 30
76
 11
80.202167000466
 21
1.1983762772269
 31
76
  0
LINE
  8
0
 62
     6
  6
CONTINUOUS
 10
80.202167000466
 20
1.1983762772269
 30
0
 11
80.378077547633
 21
1.0762394015064
 31
0
  0
LINE
  8
0
 62
     6
  6
CONTINUOUS
 10
80.202167000466
 20
1.1983762772269
 30
76
 11
80.378077547633
 21
1.0762394015064
 31
76
  0
LINE
  8
0
 62
     6
  6
CONTINUOUS
 10
80.378077547633
 20
1.0762394015064
 30
0
 11
80.56225303984
 21
0.96696303129823
 31
0
  0
LINE
  8
0
 62
     6
  6
CONTINUOUS
 10
80.378077547633
 20
1.0762394015064
 30
76
 11
80.56225303984
 21
0.96696303129821
 31
76
  0
LINE
  8
0
 62
     6
  6
CONTINUOUS
 10
80.56225303984
 20
0.96696303129823
 30
0
 11
80.753754960994
 21
0.87110401393644
 31
0
  0
LINE
  8
0
 62
     6
  6
CONTINUOUS
 10
80.56225303984
 20
0.96696303129821
 30
76
 11
80.753754960994
 21
0.87110401393643
 31
76
  0
LINE
  8
0
 62
     6
  6
CONTINUOUS
 10
80.753754960994
 20
0.87110401393644
 30
0
 11
80.951607461203
 21
0.78915082500071
 31
0
  0
LINE
  8
0
 62
     6
  6
CONTINUOUS
 10
80.753754960994
 20
0.87110401393643
 30
76
 11
80.951607461203
 21
0.7891508250007
 31
76
  0
LINE
  8
0
 62
     6
  6
CONTINUOUS
 10
80.951607461203
 20
0.78915082500071
 30
0
 11
81.154802329476
 21
0.72152107915651
 31
0
  0
LINE
  8
0
 62
     6
  6
CONTINUOUS
 10
80.951607461203
 20
0.7891508250007
 30
76
 11
81.154802329476
 21
0.72152107915649
 31
76
  0
LINE
  8
0
 62
     6
  6
CONTINUOUS
 10
81.154802329476
 20
0.72152107915651
 30
0
 11
81.362304131341
 21
0.66855940208653
 31
0
  0
LINE
  8
0
 62
     6
  6
CONTINUOUS
 10
81.154802329476
 20
0.72152107915649
 30
76
 11
81.362304131341
 21
0.66855940208651
 31
76
  0
LINE
  8
0
 62
     6
  6
CONTINUOUS
 10
81.362304131341
 20
0.66855940208653
 30
0
 11
81.57305548518
 21
0.63053567435721
 31
0
  0
LINE
  8
0
 62
     6
  6
CONTINUOUS
 10
81.362304131341
 20
0.66855940208651
 30
76
 11
81.57305548518
 21
0.63053567435719
 31
76
  0
LINE
  8
0
 62
     6
  6
CONTINUOUS
 10
81.57305548518
 20
0.63053567435721
 30
0
 11
81.785982450402
 21
0.60764365616925
 31
0
  0
LINE
  8
0
 62
     6
  6
CONTINUOUS
 10
81.57305548518
 20
0.63053567435719
 30
76
 11
81.785982450402
 21
0.60764365616922
 31
76
  0
LINE
  8
0
 62
     6
  6
CONTINUOUS
 10
81.785982450402
 20
0.60764365616925
 30
0
 11
82
 21
0.60000000000002
 31
0
  0
LINE
  8
0
 62
     6
  6
CONTINUOUS
 10
81.785982450402
 20
0.60764365616922
 30
76
 11
82
 21
0.59999999999998
 31
76
  0
LINE
  8
0
 62
     3
  6
CONTINUOUS
 10
82
 20
0.60000000000002
 30
0
 11
82
 21
0.59999999999998
 31
76
  0
LINE
  8
0
 62
     6
  6
CONTINUOUS
 10
82
 20
0.6
 30
0
 11
178
 21
0.6
 31
0
  0
LINE
  8
0
 62
     6
  6
CONTINUOUS
 10
82
 20
0.6
 30
76
 11
178
 21
0.6
 31
76
  0
LINE
  8
0
 62
     3
  6
CONTINUOUS
 10
178
 20
0.6
 30
0
 11
178
 21
0.6
 31
76
  0
LINE
  8
0
 62
     6
  6
CONTINUOUS
 10
178
 20
0.6
 30
0
 11
178
 21
7
 31
0
  0
LINE
  8
0
 62
     6
  6
CONTINUOUS
 10
178
 20
0.6
 30
76
 11
178
 21
7
 31
76
  0
LINE
  8
0
 62
     3
  6
CONTINUOUS
 10
178
 20
7
 30
0
 11
178
 21
7
 31
76
  0
LINE
  8
0
 62
     6
  6
CONTINUOUS
 10
178
 20
7
 30
0
 11
177
 21
7
 31
0
  0
LINE
  8
0
 62
     6
  6
CONTINUOUS
 10
178
 20
7
 30
76
 11
177
 21
7
 31
76
  0
LINE
  8
0
 62
     3
  6
CONTINUOUS
 10
177
 20
7
 30
0
 11
177
 21
7
 31
76
  0
ENDBLK
  0
BLOCK
  2
OperationStart-00001
 10
0
 20
0
 30
0
 70
    64
  8
0
  0
ENDBLK
  0
BLOCK
  2
GENSEC-Fig_003-00006-1673356727
 10
0
 20
0
 30
0
 70
    64
  8
0
  0
LINE
  8
0
 62
     3
  6
CONTINUOUS
 10
80
 20
57
 30
0
 11
80
 21
57
 31
3
  0
LINE
  8
0
 62
     6
  6
CONTINUOUS
 10
80
 20
57
 30
0
 11
79
 21
57
 31
0
  0
LINE
  8
0
 62
     6
  6
CONTINUOUS
 10
80
 20
57
 30
3
 11
79
 21
57
 31
3
  0
LINE
  8
0
 62
     3
  6
CONTINUOUS
 10
79
 20
57
 30
0
 11
79
 21
57
 31
3
  0
LINE
  8
0
 62
     6
  6
CONTINUOUS
 10
79
 20
57
 30
0
 11
79
 21
56
 31
0
  0
LINE
  8
0
 62
     6
  6
CONTINUOUS
 10
79
 20
57
 30
3
 11
79
 21
56
 31
3
  0
LINE
  8
0
 62
     3
  6
CONTINUOUS
 10
79
 20
56
 30
0
 11
79
 21
56
 31
3
  0
LINE
  8
0
 62
     6
  6
CONTINUOUS
 10
79
 20
56
 30
0
 11
79.007291125902
 21
55.879463319745
 31
0
  0
LINE
  8
0
 62
     6
  6
CONTINUOUS
 10
79
 20
56
 30
3
 11
79.007291125902
 21
55.879463319745
 31
3
  0
LINE
  8
0
 62
     6
  6
CONTINUOUS
 10
79.007291125902
 20
55.879463319745
 30
0
 11
79.029058182574
 21
55.760684335712
 31
0
  0
LINE
  8
0
 62
     6
  6
CONTINUOUS
 10
79.007291125902
 20
55.879463319745
 30
3
 11
79.029058182574
 21
55.760684335712
 31
3
  0
LINE
  8
0
 62
     6
  6
CONTINUOUS
 10
79.029058182574
 20
55.760684335712
 30
0
 11
79.064983757315
 21
55.645395112957
 31
0
  0
LINE
  8
0
 62
     6
  6
CONTINUOUS
 10
79.029058182574
 20
55.760684335712
 30
3
 11
79.064983757315
 21
55.645395112957
 31
3
  0
LINE
  8
0
 62
     6
  6
CONTINUOUS
 10
79.064983757315
 20
55.645395112957
 30
0
 11
79.114543974347
 21
55.535276827956
 31
0
  0
LINE
  8
0
 62
     6
  6
CONTINUOUS
 10
79.064983757315
 20
55.645395112957
 30
3
 11
79.114543974347
 21
55.535276827956
 31
3
  0
LINE
  8
0
 62
     6
  6
CONTINUOUS
 10
79.114543974347
 20
55.535276827956
 30
0
 11
79.177016134106
 21
55.431935253269
 31
0
  0
LINE
  8
0
 62
     6
  6
CONTINUOUS
 10
79.114543974347
 20
55.535276827956
 30
3
 11
79.177016134106
 21
55.431935253269
 31
3
  0
LINE
  8
0
 62
     6
  6
CONTINUOUS
 10
79.177016134106
 20
55.431935253269
 30
0
 11
79.251489251829
 21
55.336877341759
 31
0
  0
LINE
  8
0
 62
     6
  6
CONTINUOUS
 10
79.177016134106
 20
55.431935253269
 30
3
 11
79.251489251829
 21
55.336877341759
 31
3
  0
LINE
  8
0
 62
     6
  6
CONTINUOUS
 10
79.251489251829
 20
55.336877341759
 30
0
 11
79.336877341759
 21
55.251489251829
 31
0
  0
LINE
  8
0
 62
     6
  6
CONTINUOUS
 10
79.251489251829
 20
55.336877341759
 30
3
 11
79.336877341759
 21
55.251489251829
 31
3
  0
LINE
  8
0
 62
     6
  6
CONTINUOUS
 10
79.336877341759
 20
55.251489251829
 30
0
 11
79.431935253269
 21
55.177016134106
 31
0
  0
LINE
  8
0
 62
     6
  6
CONTINUOUS
 10
79.336877341759
 20
55.251489251829
 30
3
 11
79.431935253269
 21
55.177016134106
 31
3
  0
LINE
  8
0
 62
     6
  6
CONTINUOUS
 10
79.431935253269
 20
55.177016134106
 30
0
 11
79.535276827956
 21
55.114543974347
 31
0
  0
LINE
  8
0
 62
     6
  6
CONTINUOUS
 10
79.431935253269
 20
55.177016134106
 30
3
 11
79.535276827956
 21
55.114543974347
 31
3
  0
LINE
  8
0
 62
     6
  6
CONTINUOUS
 10
79.535276827956
 20
55.114543974347
 30
0
 11
79.645395112957
 21
55.064983757315
 31
0
  0
LINE
  8
0
 62
     6
  6
CONTINUOUS
 10
79.535276827956
 20
55.114543974347
 30
3
 11
79.645395112957
 21
55.064983757315
 31
3
  0
LINE
  8
0
 62
     6
  6
CONTINUOUS
 10
79.645395112957
 20
55.064983757315
 30
0
 11
79.760684335712
 21
55.029058182574
 31
0
  0
LINE
  8
0
 62
     6
  6
CONTINUOUS
 10
79.645395112957
 20
55.064983757315
 30
3
 11
79.760684335712
 21
55.029058182574
 31
3
  0
LINE
  8
0
 62
     6
  6
CONTINUOUS
 10
79.760684335712
 20
55.029058182574
 30
0
 11
79.879463319745
 21
55.007291125902
 31
0
  0
LINE
  8
0
 62
     6
  6
CONTINUOUS
 10
79.760684335712
 20
55.029058182574
 30
3
 11
79.879463319745
 21
55.007291125902
 31
3
  0
LINE
  8
0
 62
     6
  6
CONTINUOUS
 10
79.879463319745
 20
55.007291125902
 30
0
 11
80
 21
55
 31
0
  0
LINE
  8
0
 62
     6
  6
CONTINUOUS
 10
79.879463319745
 20
55.007291125902
 30
3
 11
80
 21
55
 31
3
  0
LINE
  8
0
 62
     3
  6
CONTINUOUS
 10
80
 20
55
 30
0
 11
80
 21
55
 31
3
  0
LINE
  8
0
 62
     6
  6
CONTINUOUS
 10
80
 20
55
 30
0
 11
178
 21
55
 31
0
  0
LINE
  8
0
 62
     6
  6
CONTINUOUS
 10
80
 20
55
 30
3
 11
178
 21
55
 31
3
  0
LINE
  8
0
 62
     3
  6
CONTINUOUS
 10
178
 20
55
 30
0
 11
178
 21
55
 31
3
  0
LINE
  8
0
 62
     6
  6
CONTINUOUS
 10
178
 20
55
 30
0
 11
178
 21
58.5
 31
0
  0
LINE
  8
0
 62
     6
  6
CONTINUOUS
 10
178
 20
55
 30
3
 11
178
 21
58.5
 31
3
  0
LINE
  8
0
 62
     3
  6
CONTINUOUS
 10
178
 20
58.5
 30
0
 11
178
 21
58.5
 31
3
  0
LINE
  8
0
 62
     6
  6
CONTINUOUS
 10
178
 20
58.5
 30
0
 11
177
 21
58.5
 31
0
  0
LINE
  8
0
 62
     6
  6
CONTINUOUS
 10
178
 20
58.5
 30
3
 11
177
 21
58.5
 31
3
  0
LINE
  8
0
 62
     3
  6
CONTINUOUS
 10
177
 20
58.5
 30
0
 11
177
 21
58.5
 31
3
  0
ENDBLK
  0
BLOCK
  2
GENSEC-Fig_002-00009-1673356598
 10
0
 20
0
 30
0
 70
    64
  8
0
  0
LINE
  8
0
 62
     3
  6
CONTINUOUS
 10
80
 20
43
 30
0
 11
80
 21
43
 31
3
  0
LINE
  8
0
 62
     6
  6
CONTINUOUS
 10
80
 20
43
 30
0
 11
79
 21
43
 31
0
  0
LINE
  8
0
 62
     6
  6
CONTINUOUS
 10
80
 20
43
 30
3
 11
79
 21
43
 31
3
  0
LINE
  8
0
 62
     3
  6
CONTINUOUS
 10
79
 20
43
 30
0
 11
79
 21
43
 31
3
  0
LINE
  8
0
 62
     6
  6
CONTINUOUS
 10
79
 20
43
 30
0
 11
79
 21
44
 31
0
  0
LINE
  8
0
 62
     6
  6
CONTINUOUS
 10
79
 20
43
 30
3
 11
79
 21
44
 31
3
  0
LINE
  8
0
 62
     3
  6
CONTINUOUS
 10
79
 20
44
 30
0
 11
79
 21
44
 31
3
  0
LINE
  8
0
 62
     6
  6
CONTINUOUS
 10
79
 20
44
 30
0
 11
79.007291125902
 21
44.120536680255
 31
0
  0
LINE
  8
0
 62
     6
  6
CONTINUOUS
 10
79
 20
44
 30
3
 11
79.007291125902
 21
44.120536680255
 31
3
  0
LINE
  8
0
 62
     6
  6
CONTINUOUS
 10
79.007291125902
 20
44.120536680255
 30
0
 11
79.029058182574
 21
44.239315664288
 31
0
  0
LINE
  8
0
 62
     6
  6
CONTINUOUS
 10
79.007291125902
 20
44.120536680255
 30
3
 11
79.029058182574
 21
44.239315664288
 31
3
  0
LINE
  8
0
 62
     6
  6
CONTINUOUS
 10
79.029058182574
 20
44.239315664288
 30
0
 11
79.064983757315
 21
44.354604887043
 31
0
  0
LINE
  8
0
 62
     6
  6
CONTINUOUS
 10
79.029058182574
 20
44.239315664288
 30
3
 11
79.064983757315
 21
44.354604887043
 31
3
  0
LINE
  8
0
 62
     6
  6
CONTINUOUS
 10
79.064983757315
 20
44.354604887043
 30
0
 11
79.114543974347
 21
44.464723172044
 31
0
  0
LINE
  8
0
 62
     6
  6
CONTINUOUS
 10
79.064983757315
 20
44.354604887043
 30
3
 11
79.114543974347
 21
44.464723172044
 31
3
  0
LINE
  8
0
 62
     6
  6
CONTINUOUS
 10
79.114543974347
 20
44.464723172044
 30
0
 11
79.177016134106
 21
44.568064746731
 31
0
  0
LINE
  8
0
 62
     6
  6
CONTINUOUS
 10
79.114543974347
 20
44.464723172044
 30
3
 11
79.177016134106
 21
44.568064746731
 31
3
  0
LINE
  8
0
 62
     6
  6
CONTINUOUS
 10
79.177016134106
 20
44.568064746731
 30
0
 11
79.251489251829
 21
44.663122658241
 31
0
  0
LINE
  8
0
 62
     6
  6
CONTINUOUS
 10
79.177016134106
 20
44.568064746731
 30
3
 11
79.251489251829
 21
44.663122658241
 31
3
  0
LINE
  8
0
 62
     6
  6
CONTINUOUS
 10
79.251489251829
 20
44.663122658241
 30
0
 11
79.336877341759
 21
44.748510748171
 31
0
  0
LINE
  8
0
 62
     6
  6
CONTINUOUS
 10
79.251489251829
 20
44.663122658241
 30
3
 11
79.336877341759
 21
44.748510748171
 31
3
  0
LINE
  8
0
 62
     6
  6
CONTINUOUS
 10
79.336877341759
 20
44.748510748171
 30
0
 11
79.431935253269
 21
44.822983865894
 31
0
  0
LINE
  8
0
 62
     6
  6
CONTINUOUS
 10
79.336877341759
 20
44.748510748171
 30
3
 11
79.431935253269
 21
44.822983865894
 31
3
  0
LINE
  8
0
 62
     6
  6
CONTINUOUS
 10
79.431935253269
 20
44.822983865894
 30
0
 11
79.535276827956
 21
44.885456025653
 31
0
  0
LINE
  8
0
 62
     6
  6
CONTINUOUS
 10
79.431935253269
 20
44.822983865894
 30
3
 11
79.535276827956
 21
44.885456025653
 31
3
  0
LINE
  8
0
 62
     6
  6
CONTINUOUS
 10
79.535276827956
 20
44.885456025653
 30
0
 11
79.645395112957
 21
44.935016242685
 31
0
  0
LINE
  8
0
 62
     6
  6
CONTINUOUS
 10
79.535276827956
 20
44.885456025653
 30
3
 11
79.645395112957
 21
44.935016242685
 31
3
  0
LINE
  8
0
 62
     6
  6
CONTINUOUS
 10
79.645395112957
 20
44.935016242685
 30
0
 11
79.760684335712
 21
44.970941817426
 31
0
  0
LINE
  8
0
 62
     6
  6
CONTINUOUS
 10
79.645395112957
 20
44.935016242685
 30
3
 11
79.760684335712
 21
44.970941817426
 31
3
  0
LINE
  8
0
 62
     6
  6
CONTINUOUS
 10
79.760684335712
 20
44.970941817426
 30
0
 11
79.879463319745
 21
44.992708874098
 31
0
  0
LINE
  8
0
 62
     6
  6
CONTINUOUS
 10
79.760684335712
 20
44.970941817426
 30
3
 11
79.879463319745
 21
44.992708874098
 31
3
  0
LINE
  8
0
 62
     6
  6
CONTINUOUS
 10
79.879463319745
 20
44.992708874098
 30
0
 11
80
 21
45
 31
0
  0
LINE
  8
0
 62
     6
  6
CONTINUOUS
 10
79.879463319745
 20
44.992708874098
 30
3
 11
80
 21
45
 31
3
  0
LINE
  8
0
 62
     3
  6
CONTINUOUS
 10
80
 20
45
 30
0
 11
80
 21
45
 31
3
  0
LINE
  8
0
 62
     6
  6
CONTINUOUS
 10
80
 20
45
 30
0
 11
178
 21
45
 31
0
  0
LINE
  8
0
 62
     6
  6
CONTINUOUS
 10
80
 20
45
 30
3
 11
178
 21
45
 31
3
  0
LINE
  8
0
 62
     3
  6
CONTINUOUS
 10
178
 20
45
 30
0
 11
178
 21
45
 31
3
  0
LINE
  8
0
 62
     6
  6
CONTINUOUS
 10
178
 20
45
 30
0
 11
178
 21
41.5
 31
0
  0
LINE
  8
0
 62
     6
  6
CONTINUOUS
 10
178
 20
45
 30
3
 11
178
 21
41.5
 31
3
  0
LINE
  8
0
 62
     3
  6
CONTINUOUS
 10
178
 20
41.5
 30
0
 11
178
 21
41.5
 31
3
  0
LINE
  8
0
 62
     6
  6
CONTINUOUS
 10
178
 20
41.5
 30
0
 11
177
 21
41.5
 31
0
  0
LINE
  8
0
 62
     6
  6
CONTINUOUS
 10
178
 20
41.5
 30
3
 11
177
 21
41.5
 31
3
  0
LINE
  8
0
 62
     3
  6
CONTINUOUS
 10
177
 20
41.5
 30
0
 11
177
 21
41.5
 31
3
  0
ENDBLK
  0
BLOCK
  2
GENSEC-Fig_002-00009-1673375351
 10
0
 20
0
 30
0
 70
    64
  8
0
  0
LINE
  8
0
 62
     3
  6
CONTINUOUS
 10
80
 20
43
 30
0
 11
80
 21
43
 31
76
  0
LINE
  8
0
 62
     6
  6
CONTINUOUS
 10
80
 20
43
 30
0
 11
79
 21
43
 31
0
  0
LINE
  8
0
 62
     6
  6
CONTINUOUS
 10
80
 20
43
 30
76
 11
79
 21
43
 31
76
  0
LINE
  8
0
 62
     3
  6
CONTINUOUS
 10
79
 20
43
 30
0
 11
79
 21
43
 31
76
  0
LINE
  8
0
 62
     6
  6
CONTINUOUS
 10
79
 20
43
 30
0
 11
79
 21
44
 31
0
  0
LINE
  8
0
 62
     6
  6
CONTINUOUS
 10
79
 20
43
 30
76
 11
79
 21
44
 31
76
  0
LINE
  8
0
 62
     3
  6
CONTINUOUS
 10
79
 20
44
 30
0
 11
79
 21
44
 31
76
  0
LINE
  8
0
 62
     6
  6
CONTINUOUS
 10
79
 20
44
 30
0
 11
79.007291125902
 21
44.120536680255
 31
0
  0
LINE
  8
0
 62
     6
  6
CONTINUOUS
 10
79
 20
44
 30
76
 11
79.007291125902
 21
44.120536680255
 31
76
  0
LINE
  8
0
 62
     6
  6
CONTINUOUS
 10
79.007291125902
 20
44.120536680255
 30
0
 11
79.029058182574
 21
44.239315664288
 31
0
  0
LINE
  8
0
 62
     6
  6
CONTINUOUS
 10
79.007291125902
 20
44.120536680255
 30
76
 11
79.029058182574
 21
44.239315664288
 31
76
  0
LINE
  8
0
 62
     6
  6
CONTINUOUS
 10
79.029058182574
 20
44.239315664288
 30
0
 11
79.064983757315
 21
44.354604887043
 31
0
  0
LINE
  8
0
 62
     6
  6
CONTINUOUS
 10
79.029058182574
 20
44.239315664288
 30
76
 11
79.064983757315
 21
44.354604887043
 31
76
  0
LINE
  8
0
 62
     6
  6
CONTINUOUS
 10
79.064983757315
 20
44.354604887043
 30
0
 11
79.114543974347
 21
44.464723172044
 31
0
  0
LINE
  8
0
 62
     6
  6
CONTINUOUS
 10
79.064983757315
 20
44.354604887043
 30
76
 11
79.114543974347
 21
44.464723172044
 31
76
  0
LINE
  8
0
 62
     6
  6
CONTINUOUS
 10
79.114543974347
 20
44.464723172044
 30
0
 11
79.177016134106
 21
44.568064746731
 31
0
  0
LINE
  8
0
 62
     6
  6
CONTINUOUS
 10
79.114543974347
 20
44.464723172044
 30
76
 11
79.177016134106
 21
44.568064746731
 31
76
  0
LINE
  8
0
 62
     6
  6
CONTINUOUS
 10
79.177016134106
 20
44.568064746731
 30
0
 11
79.251489251829
 21
44.663122658241
 31
0
  0
LINE
  8
0
 62
     6
  6
CONTINUOUS
 10
79.177016134106
 20
44.568064746731
 30
76
 11
79.251489251829
 21
44.663122658241
 31
76
  0
LINE
  8
0
 62
     6
  6
CONTINUOUS
 10
79.251489251829
 20
44.663122658241
 30
0
 11
79.336877341759
 21
44.748510748171
 31
0
  0
LINE
  8
0
 62
     6
  6
CONTINUOUS
 10
79.251489251829
 20
44.663122658241
 30
76
 11
79.336877341759
 21
44.748510748171
 31
76
  0
LINE
  8
0
 62
     6
  6
CONTINUOUS
 10
79.336877341759
 20
44.748510748171
 30
0
 11
79.431935253269
 21
44.822983865894
 31
0
  0
LINE
  8
0
 62
     6
  6
CONTINUOUS
 10
79.336877341759
 20
44.748510748171
 30
76
 11
79.431935253269
 21
44.822983865894
 31
76
  0
LINE
  8
0
 62
     6
  6
CONTINUOUS
 10
79.431935253269
 20
44.822983865894
 30
0
 11
79.535276827956
 21
44.885456025653
 31
0
  0
LINE
  8
0
 62
     6
  6
CONTINUOUS
 10
79.431935253269
 20
44.822983865894
 30
76
 11
79.535276827956
 21
44.885456025653
 31
76
  0
LINE
  8
0
 62
     6
  6
CONTINUOUS
 10
79.535276827956
 20
44.885456025653
 30
0
 11
79.645395112957
 21
44.935016242685
 31
0
  0
LINE
  8
0
 62
     6
  6
CONTINUOUS
 10
79.535276827956
 20
44.885456025653
 30
76
 11
79.645395112957
 21
44.935016242685
 31
76
  0
LINE
  8
0
 62
     6
  6
CONTINUOUS
 10
79.645395112957
 20
44.935016242685
 30
0
 11
79.760684335712
 21
44.970941817426
 31
0
  0
LINE
  8
0
 62
     6
  6
CONTINUOUS
 10
79.645395112957
 20
44.935016242685
 30
76
 11
79.760684335712
 21
44.970941817426
 31
76
  0
LINE
  8
0
 62
     6
  6
CONTINUOUS
 10
79.760684335712
 20
44.970941817426
 30
0
 11
79.879463319745
 21
44.992708874098
 31
0
  0
LINE
  8
0
 62
     6
  6
CONTINUOUS
 10
79.760684335712
 20
44.970941817426
 30
76
 11
79.879463319745
 21
44.992708874098
 31
76
  0
LINE
  8
0
 62
     6
  6
CONTINUOUS
 10
79.879463319745
 20
44.992708874098
 30
0
 11
80
 21
45
 31
0
  0
LINE
  8
0
 62
     6
  6
CONTINUOUS
 10
79.879463319745
 20
44.992708874098
 30
76
 11
80
 21
45
 31
76
  0
LINE
  8
0
 62
     3
  6
CONTINUOUS
 10
80
 20
45
 30
0
 11
80
 21
45
 31
76
  0
LINE
  8
0
 62
     6
  6
CONTINUOUS
 10
80
 20
45
 30
0
 11
178
 21
45
 31
0
  0
LINE
  8
0
 62
     6
  6
CONTINUOUS
 10
80
 20
45
 30
76
 11
178
 21
45
 31
76
  0
LINE
  8
0
 62
     3
  6
CONTINUOUS
 10
178
 20
45
 30
0
 11
178
 21
45
 31
76
  0
LINE
  8
0
 62
     6
  6
CONTINUOUS
 10
178
 20
45
 30
0
 11
178
 21
41.5
 31
0
  0
LINE
  8
0
 62
     6
  6
CONTINUOUS
 10
178
 20
45
 30
76
 11
178
 21
41.5
 31
76
  0
LINE
  8
0
 62
     3
  6
CONTINUOUS
 10
178
 20
41.5
 30
0
 11
178
 21
41.5
 31
76
  0
LINE
  8
0
 62
     6
  6
CONTINUOUS
 10
178
 20
41.5
 30
0
 11
177
 21
41.5
 31
0
  0
LINE
  8
0
 62
     6
  6
CONTINUOUS
 10
178
 20
41.5
 30
76
 11
177
 21
41.5
 31
76
  0
LINE
  8
0
 62
     3
  6
CONTINUOUS
 10
177
 20
41.5
 30
0
 11
177
 21
41.5
 31
76
  0
ENDBLK
  0
BLOCK
  2
GENSEC-Fig_004-00012-1673356693
 10
0
 20
0
 30
0
 70
    64
  8
0
  0
LINE
  8
0
 62
     3
  6
CONTINUOUS
 10
178
 20
41.5
 30
0
 11
178
 21
41.5
 31
20
  0
LINE
  8
0
 62
     6
  6
CONTINUOUS
 10
178
 20
41.5
 30
0
 11
177
 21
41.5
 31
0
  0
LINE
  8
0
 62
     6
  6
CONTINUOUS
 10
178
 20
41.5
 30
20
 11
177
 21
41.5
 31
20
  0
LINE
  8
0
 62
     3
  6
CONTINUOUS
 10
177
 20
41.5
 30
0
 11
177
 21
41.5
 31
20
  0
LINE
  8
0
 62
     6
  6
CONTINUOUS
 10
177
 20
41.5
 30
0
 11
177
 21
58.5
 31
0
  0
LINE
  8
0
 62
     6
  6
CONTINUOUS
 10
177
 20
41.5
 30
20
 11
177
 21
58.5
 31
20
  0
LINE
  8
0
 62
     3
  6
CONTINUOUS
 10
177
 20
58.5
 30
0
 11
177
 21
58.5
 31
20
  0
LINE
  8
0
 62
     6
  6
CONTINUOUS
 10
177
 20
58.5
 30
0
 11
178
 21
58.5
 31
0
  0
LINE
  8
0
 62
     6
  6
CONTINUOUS
 10
177
 20
58.5
 30
20
 11
178
 21
58.5
 31
20
  0
LINE
  8
0
 62
     3
  6
CONTINUOUS
 10
178
 20
58.5
 30
0
 11
178
 21
58.5
 31
20
  0
ENDBLK
  0
BLOCK
  2
GENSEC-Fig_003-00012-1673417653
 10
0
 20
0
 30
0
 70
    64
  8
0
  0
LINE
  8
0
 62
     3
  6
CONTINUOUS
 10
80
 20
57
 30
0
 11
80
 21
57
 31
76
  0
LINE
  8
0
 62
     6
  6
CONTINUOUS
 10
80
 20
57
 30
0
 11
79
 21
57
 31
0
  0
LINE
  8
0
 62
     6
  6
CONTINUOUS
 10
80
 20
57
 30
76
 11
79
 21
57
 31
76
  0
LINE
  8
0
 62
     3
  6
CONTINUOUS
 10
79
 20
57
 30
0
 11
79
 21
57
 31
76
  0
LINE
  8
0
 62
     6
  6
CONTINUOUS
 10
79
 20
57
 30
0
 11
79
 21
56
 31
0
  0
LINE
  8
0
 62
     6
  6
CONTINUOUS
 10
79
 20
57
 30
76
 11
79
 21
56
 31
76
  0
LINE
  8
0
 62
     3
  6
CONTINUOUS
 10
79
 20
56
 30
0
 11
79
 21
56
 31
76
  0
LINE
  8
0
 62
     6
  6
CONTINUOUS
 10
79
 20
56
 30
0
 11
79.007291125902
 21
55.879463319745
 31
0
  0
LINE
  8
0
 62
     6
  6
CONTINUOUS
 10
79
 20
56
 30
76
 11
79.007291125902
 21
55.879463319745
 31
76
  0
LINE
  8
0
 62
     6
  6
CONTINUOUS
 10
79.007291125902
 20
55.879463319745
 30
0
 11
79.029058182574
 21
55.760684335712
 31
0
  0
LINE
  8
0
 62
     6
  6
CONTINUOUS
 10
79.007291125902
 20
55.879463319745
 30
76
 11
79.029058182574
 21
55.760684335712
 31
76
  0
LINE
  8
0
 62
     6
  6
CONTINUOUS
 10
79.029058182574
 20
55.760684335712
 30
0
 11
79.064983757315
 21
55.645395112957
 31
0
  0
LINE
  8
0
 62
     6
  6
CONTINUOUS
 10
79.029058182574
 20
55.760684335712
 30
76
 11
79.064983757315
 21
55.645395112957
 31
76
  0
LINE
  8
0
 62
     6
  6
CONTINUOUS
 10
79.064983757315
 20
55.645395112957
 30
0
 11
79.114543974347
 21
55.535276827956
 31
0
  0
LINE
  8
0
 62
     6
  6
CONTINUOUS
 10
79.064983757315
 20
55.645395112957
 30
76
 11
79.114543974347
 21
55.535276827956
 31
76
  0
LINE
  8
0
 62
     6
  6
CONTINUOUS
 10
79.114543974347
 20
55.535276827956
 30
0
 11
79.177016134106
 21
55.431935253269
 31
0
  0
LINE
  8
0
 62
     6
  6
CONTINUOUS
 10
79.114543974347
 20
55.535276827956
 30
76
 11
79.177016134106
 21
55.431935253269
 31
76
  0
LINE
  8
0
 62
     6
  6
CONTINUOUS
 10
79.177016134106
 20
55.431935253269
 30
0
 11
79.251489251829
 21
55.336877341759
 31
0
  0
LINE
  8
0
 62
     6
  6
CONTINUOUS
 10
79.177016134106
 20
55.431935253269
 30
76
 11
79.251489251829
 21
55.336877341759
 31
76
  0
LINE
  8
0
 62
     6
  6
CONTINUOUS
 10
79.251489251829
 20
55.336877341759
 30
0
 11
79.336877341759
 21
55.251489251829
 31
0
  0
LINE
  8
0
 62
     6
  6
CONTINUOUS
 10
79.251489251829
 20
55.336877341759
 30
76
 11
79.336877341759
 21
55.251489251829
 31
76
  0
LINE
  8
0
 62
     6
  6
CONTINUOUS
 10
79.336877341759
 20
55.251489251829
 30
0
 11
79.431935253269
 21
55.177016134106
 31
0
  0
LINE
  8
0
 62
     6
  6
CONTINUOUS
 10
79.336877341759
 20
55.251489251829
 30
76
 11
79.431935253269
 21
55.177016134106
 31
76
  0
LINE
  8
0
 62
     6
  6
CONTINUOUS
 10
79.431935253269
 20
55.177016134106
 30
0
 11
79.535276827956
 21
55.114543974347
 31
0
  0
LINE
  8
0
 62
     6
  6
CONTINUOUS
 10
79.431935253269
 20
55.177016134106
 30
76
 11
79.535276827956
 21
55.114543974347
 31
76
  0
LINE
  8
0
 62
     6
  6
CONTINUOUS
 10
79.535276827956
 20
55.114543974347
 30
0
 11
79.645395112957
 21
55.064983757315
 31
0
  0
LINE
  8
0
 62
     6
  6
CONTINUOUS
 10
79.535276827956
 20
55.114543974347
 30
76
 11
79.645395112957
 21
55.064983757315
 31
76
  0
LINE
  8
0
 62
     6
  6
CONTINUOUS
 10
79.645395112957
 20
55.064983757315
 30
0
 11
79.760684335712
 21
55.029058182574
 31
0
  0
LINE
  8
0
 62
     6
  6
CONTINUOUS
 10
79.645395112957
 20
55.064983757315
 30
76
 11
79.760684335712
 21
55.029058182574
 31
76
  0
LINE
  8
0
 62
     6
  6
CONTINUOUS
 10
79.760684335712
 20
55.029058182574
 30
0
 11
79.879463319745
 21
55.007291125902
 31
0
  0
LINE
  8
0
 62
     6
  6
CONTINUOUS
 10
79.760684335712
 20
55.029058182574
 30
76
 11
79.879463319745
 21
55.007291125902
 31
76
  0
LINE
  8
0
 62
     6
  6
CONTINUOUS
 10
79.879463319745
 20
55.007291125902
 30
0
 11
80
 21
55
 31
0
  0
LINE
  8
0
 62
     6
  6
CONTINUOUS
 10
79.879463319745
 20
55.007291125902
 30
76
 11
80
 21
55
 31
76
  0
LINE
  8
0
 62
     3
  6
CONTINUOUS
 10
80
 20
55
 30
0
 11
80
 21
55
 31
76
  0
LINE
  8
0
 62
     6
  6
CONTINUOUS
 10
80
 20
55
 30
0
 11
178
 21
55
 31
0
  0
LINE
  8
0
 62
     6
  6
CONTINUOUS
 10
80
 20
55
 30
76
 11
178
 21
55
 31
76
  0
LINE
  8
0
 62
     3
  6
CONTINUOUS
 10
178
 20
55
 30
0
 11
178
 21
55
 31
76
  0
LINE
  8
0
 62
     6
  6
CONTINUOUS
 10
178
 20
55
 30
0
 11
178
 21
58.5
 31
0
  0
LINE
  8
0
 62
     6
  6
CONTINUOUS
 10
178
 20
55
 30
76
 11
178
 21
58.5
 31
76
  0
LINE
  8
0
 62
     3
  6
CONTINUOUS
 10
178
 20
58.5
 30
0
 11
178
 21
58.5
 31
76
  0
LINE
  8
0
 62
     6
  6
CONTINUOUS
 10
178
 20
58.5
 30
0
 11
177
 21
58.5
 31
0
  0
LINE
  8
0
 62
     6
  6
CONTINUOUS
 10
178
 20
58.5
 30
76
 11
177
 21
58.5
 31
76
  0
LINE
  8
0
 62
     3
  6
CONTINUOUS
 10
177
 20
58.5
 30
0
 11
177
 21
58.5
 31
76
  0
ENDBLK
  0
BLOCK
  2
OperationStart-00002
 10
0
 20
0
 30
0
 70
    64
  8
0
  0
ENDBLK
  0
BLOCK
  2
GENSEC-Fig_004-00015-1673375409
 10
0
 20
0
 30
0
 70
    64
  8
0
  0
LINE
  8
0
 62
     3
  6
CONTINUOUS
 10
178
 20
41.5
 30
0
 11
178
 21
41.5
 31
76
  0
LINE
  8
0
 62
     6
  6
CONTINUOUS
 10
178
 20
41.5
 30
0
 11
177
 21
41.5
 31
0
  0
LINE
  8
0
 62
     6
  6
CONTINUOUS
 10
178
 20
41.5
 30
76
 11
177
 21
41.5
 31
76
  0
LINE
  8
0
 62
     3
  6
CONTINUOUS
 10
177
 20
41.5
 30
0
 11
177
 21
41.5
 31
76
  0
LINE
  8
0
 62
     6
  6
CONTINUOUS
 10
177
 20
41.5
 30
0
 11
177
 21
58.5
 31
0
  0
LINE
  8
0
 62
     6
  6
CONTINUOUS
 10
177
 20
41.5
 30
76
 11
177
 21
58.5
 31
76
  0
LINE
  8
0
 62
     3
  6
CONTINUOUS
 10
177
 20
58.5
 30
0
 11
177
 21
58.5
 31
76
  0
LINE
  8
0
 62
     6
  6
CONTINUOUS
 10
177
 20
58.5
 30
0
 11
178
 21
58.5
 31
0
  0
LINE
  8
0
 62
     6
  6
CONTINUOUS
 10
177
 20
58.5
 30
76
 11
178
 21
58.5
 31
76
  0
LINE
  8
0
 62
     3
  6
CONTINUOUS
 10
178
 20
58.5
 30
0
 11
178
 21
58.5
 31
76
  0
ENDBLK
  0
ENDSEC
  0
SECTION
  2
ENTITIES
  0
LINE
  8
0
 62
     2
  6
CONTINUOUS
 10
-7
 20
8.5
 30
0
 11
0
 21
8.5
 31
0
  0
LINE
  8
0
 62
     2
  6
CONTINUOUS
 10
0
 20
8.5
 30
0
 11
0
 21
6
 31
0
  0
LINE
  8
0
 62
     2
  6
CONTINUOUS
 10
177
 20
0.6
 30
0
 11
177
 21
-0.6
 31
0
  0
LINE
  8
0
 62
     2
  6
CONTINUOUS
 10
0
 20
-6
 30
0
 11
0
 21
-8.5
 31
0
  0
LINE
  8
0
 62
     2
  6
CONTINUOUS
 10
0
 20
-8.5
 30
0
 11
-7
 21
-8.5
 31
0
  0
LINE
  8
0
 62
     2
  6
CONTINUOUS
 10
-7
 20
-8.5
 30
0
 11
-7
 21
8.5
 31
0
  0
LINE
  8
0
 62
     2
  6
CONTINUOUS
 10
79
 20
-6
 30
0
 11
0
 21
-6
 31
0
  0
LINE
  8
0
 62
     2
  6
CONTINUOUS
 10
0
 20
6
 30
0
 11
79
 21
6
 31
0
  0
TEXT
  8
0
 62
     2
  6
CONTINUOUS
 10
104.123
 20
3.398
 30
0
 40
5
 41
0.8
 50
0
 51
0
  1
LEWY
  0
TEXT
  8
0
 62
     2
  6
CONTINUOUS
 10
96.077
 20
-8.122
 30
0
 40
5
 41
0.8
 50
0
 51
0
  1
PRAWY
  0
LINE
  8
0
 62
     2
  6
CONTINUOUS
 10
-7
 20
58.5
 30
0
 11
0
 21
58.5
 31
0
  0
LINE
  8
0
 62
     2
  6
CONTINUOUS
 10
0
 20
58.5
 30
0
 11
0
 21
56
 31
0
  0
LINE
  8
0
 62
     2
  6
CONTINUOUS
 10
0
 20
56
 30
0
 11
79
 21
56
 31
0
  0
LINE
  8
0
 62
     2
  6
CONTINUOUS
 10
-7
 20
41.5
 30
0
 11
0
 21
41.5
 31
0
  0
LINE
  8
0
 62
     2
  6
CONTINUOUS
 10
0
 20
41.5
 30
0
 11
0
 21
44
 31
0
  0
LINE
  8
0
 62
     2
  6
CONTINUOUS
 10
0
 20
44
 30
0
 11
79
 21
44
 31
0
  0
LINE
  8
0
 62
     2
  6
CONTINUOUS
 10
-7
 20
58.5
 30
0
 11
-7
 21
41.5
 31
0
  0
TEXT
  8
0
 62
     2
  6
CONTINUOUS
 10
91.442
 20
58.784
 30
0
 40
5
 41
0.8
 50
0
 51
0
  1
LEWY
  0
TEXT
  8
0
 62
     2
  6
CONTINUOUS
 10
91.042
 20
37.38
 30
0
 40
5
 41
0.8
 50
0
 51
0
  1
PRAWY
  0
TEXT
  8
0
 62
     2
  6
CONTINUOUS
 10
157.728
 20
35.549
 30
0
 40
5
 41
0.8
 50
0
 51
0
  1
PRAWY
  0
TEXT
  8
BEM
 62
     1
  6
CONTINUOUS
 10
-5.152
 20
26.818
 30
0
 40
5
 41
0.8
 50
0
 51
0
  1
7
  0
LINE
  8
BEM
 62
     1
  6
CONTINUOUS
 10
-7
 20
39.833333333333
 30
0
 11
-7
 21
20.818
 31
0
  0
LINE
  8
BEM
 62
     1
  6
CONTINUOUS
 10
0
 20
39.833333333333
 30
0
 11
-8.8817841970013e-016
 21
20.818
 31
0
  0
SOLID
  8
BEM
 62
     1
  6
CONTINUOUS
 10
-7
 20
25.818
 30
0
 11
-3
 21
27.158
 31
0
 12
-3
 22
24.478
 32
0
 13
-3
 23
24.478
 33
0
  0
LINE
  8
BEM
 62
     1
  6
CONTINUOUS
 10
-7
 20
25.818
 30
0
 11
-3.5
 21
25.818
 31
0
  0
SOLID
  8
BEM
 62
     1
  6
CONTINUOUS
 10
-8.8817841970013e-016
 20
25.818
 30
0
 11
-4
 21
24.478
 31
0
 12
-4
 22
27.158
 32
0
 13
-4
 23
27.158
 33
0
  0
LINE
  8
BEM
 62
     1
  6
CONTINUOUS
 10
-8.8817841970013e-016
 20
25.818
 30
0
 11
-3.5
 21
25.818
 31
0
  0
TEXT
  8
BEM
 62
     1
  6
CONTINUOUS
 10
4.388
 20
-3.153
 30
0
 40
5
 41
0.8
 50
90
 51
0
  1
12
  0
LINE
  8
BEM
 62
     1
  6
CONTINUOUS
 10
1.6666666666667
 20
-6
 30
0
 11
10.388
 21
-6
 31
0
  0
LINE
  8
BEM
 62
     1
  6
CONTINUOUS
 10
1.6666666666667
 20
6
 30
0
 11
10.388
 21
6
 31
0
  0
SOLID
  8
BEM
 62
     1
  6
CONTINUOUS
 10
5.388
 20
-6
 30
0
 11
4.048
 21
-2
 31
0
 12
6.728
 22
-2
 32
0
 13
6.728
 23
-2
 33
0
  0
LINE
  8
BEM
 62
     1
  6
CONTINUOUS
 10
5.388
 20
-6
 30
0
 11
5.388
 21
-8.8817841970013e-016
 31
0
  0
SOLID
  8
BEM
 62
     1
  6
CONTINUOUS
 10
5.388
 20
6
 30
0
 11
6.728
 21
2
 31
0
 12
4.048
 22
2
 32
0
 13
4.048
 23
2
 33
0
  0
LINE
  8
BEM
 62
     1
  6
CONTINUOUS
 10
5.388
 20
6
 30
0
 11
5.388
 21
-8.8817841970013e-016
 31
0
  0
TEXT
  8
BEM
 62
     1
  6
CONTINUOUS
 10
71.441
 20
-1.037
 30
0
 40
5
 41
0.8
 50
90
 51
0
  1
1.2
  0
LINE
  8
BEM
 62
     1
  6
CONTINUOUS
 10
77.333333333333
 20
-0.6
 30
0
 11
67.441
 21
-0.6
 31
0
  0
LINE
  8
BEM
 62
     1
  6
CONTINUOUS
 10
77.333333333333
 20
0.6
 30
0
 11
67.441
 21
0.6
 31
0
  0
SOLID
  8
BEM
 62
     1
  6
CONTINUOUS
 10
72.441
 20
-0.6
 30
0
 11
73.781
 21
-4.6
 31
0
 12
71.101
 22
-4.6
 32
0
 13
71.101
 23
-4.6
 33
0
  0
LINE
  8
BEM
 62
     1
  6
CONTINUOUS
 10
72.441
 20
-0.6
 30
0
 11
72.441
 21
-8.6
 31
0
  0
SOLID
  8
BEM
 62
     1
  6
CONTINUOUS
 10
72.441
 20
0.6
 30
0
 11
71.101
 21
4.6
 31
0
 12
73.781
 22
4.6
 32
0
 13
73.781
 23
4.6
 33
0
  0
LINE
  8
BEM
 62
     1
  6
CONTINUOUS
 10
72.441
 20
0.6
 30
0
 11
72.441
 21
9.6296666666667
 31
0
  0
TEXT
  8
BEM
 62
     1
  6
CONTINUOUS
 10
71.614
 20
47.554
 30
0
 40
5
 41
0.8
 50
90
 51
0
  1
10
  0
LINE
  8
BEM
 62
     1
  6
CONTINUOUS
 10
77.333333333333
 20
45
 30
0
 11
67.614
 21
45
 31
0
  0
LINE
  8
BEM
 62
     1
  6
CONTINUOUS
 10
77.333333333333
 20
55
 30
0
 11
67.614
 21
55
 31
0
  0
SOLID
  8
BEM
 62
     1
  6
CONTINUOUS
 10
72.614
 20
45
 30
0
 11
71.274
 21
49
 31
0
 12
73.954
 22
49
 32
0
 13
73.954
 23
49
 33
0
  0
LINE
  8
BEM
 62
     1
  6
CONTINUOUS
 10
72.614
 20
45
 30
0
 11
72.614
 21
50
 31
0
  0
SOLID
  8
BEM
 62
     1
  6
CONTINUOUS
 10
72.614
 20
55
 30
0
 11
73.954
 21
51
 31
0
 12
71.274
 22
51
 32
0
 13
71.274
 23
51
 33
0
  0
LINE
  8
BEM
 62
     1
  6
CONTINUOUS
 10
72.614
 20
55
 30
0
 11
72.614
 21
50
 31
0
  0
TEXT
  8
BEM
 62
     1
  6
CONTINUOUS
 10
98.743
 20
-36.907
 30
0
 40
5
 41
0.8
 50
0
 51
0
  1
185
  0
LINE
  8
BEM
 62
     1
  6
CONTINUOUS
 10
-8
 20
-10.166666666667
 30
0
 11
-8
 21
-42.907
 31
0
  0
LINE
  8
BEM
 62
     1
  6
CONTINUOUS
 10
177
 20
-10.166666666667
 30
0
 11
177
 21
-42.907
 31
0
  0
SOLID
  8
BEM
 62
     1
  6
CONTINUOUS
 10
-8
 20
-37.907
 30
0
 11
-4
 21
-36.567
 31
0
 12
-4
 22
-39.247
 32
0
 13
-4
 23
-39.247
 33
0
  0
LINE
  8
BEM
 62
     1
  6
CONTINUOUS
 10
-8
 20
-37.907
 30
0
 11
84.5
 21
-37.907
 31
0
  0
SOLID
  8
BEM
 62
     1
  6
CONTINUOUS
 10
177
 20
-37.907
 30
0
 11
173
 21
-39.247
 31
0
 12
173
 22
-36.567
 32
0
 13
173
 23
-36.567
 33
0
  0
LINE
  8
BEM
 62
     1
  6
CONTINUOUS
 10
177
 20
-37.907
 30
0
 11
84.5
 21
-37.907
 31
0
  0
TEXT
  8
BEM
 62
     1
  6
CONTINUOUS
 10
16.548
 20
-20.073
 30
0
 40
5
 41
0.8
 50
0
 51
0
  1
90
  0
LINE
  8
BEM
 62
     1
  6
CONTINUOUS
 10
-8
 20
-10.166666666667
 30
0
 11
-8
 21
-26.073
 31
0
  0
LINE
  8
BEM
 62
     1
  6
CONTINUOUS
 10
82
 20
-10.166666666667
 30
0
 11
82
 21
-26.073
 31
0
  0
SOLID
  8
BEM
 62
     1
  6
CONTINUOUS
 10
-8
 20
-21.073
 30
0
 11
-4
 21
-19.733
 31
0
 12
-4
 22
-22.413
 32
0
 13
-4
 23
-22.413
 33
0
  0
LINE
  8
BEM
 62
     1
  6
CONTINUOUS
 10
-8
 20
-21.073
 30
0
 11
37
 21
-21.073
 31
0
  0
SOLID
  8
BEM
 62
     1
  6
CONTINUOUS
 10
82
 20
-21.073
 30
0
 11
78
 21
-22.413
 31
0
 12
78
 22
-19.733
 32
0
 13
78
 23
-19.733
 33
0
  0
LINE
  8
BEM
 62
     1
  6
CONTINUOUS
 10
82
 20
-21.073
 30
0
 11
37
 21
-21.073
 31
0
  0
TEXT
  8
BEM
 62
     1
  6
CONTINUOUS
 10
136.085
 20
-21.316
 30
0
 40
5
 41
0.8
 50
0
 51
0
  1
95
  0
LINE
  8
BEM
 62
     1
  6
CONTINUOUS
 10
82
 20
-10.166666666667
 30
0
 11
82
 21
-27.316
 31
0
  0
LINE
  8
BEM
 62
     1
  6
CONTINUOUS
 10
177
 20
-10.166666666667
 30
0
 11
177
 21
-27.316
 31
0
  0
SOLID
  8
BEM
 62
     1
  6
CONTINUOUS
 10
82
 20
-22.316
 30
0
 11
86
 21
-20.976
 31
0
 12
86
 22
-23.656
 32
0
 13
86
 23
-23.656
 33
0
  0
LINE
  8
BEM
 62
     1
  6
CONTINUOUS
 10
82
 20
-22.316
 30
0
 11
129.5
 21
-22.316
 31
0
  0
SOLID
  8
BEM
 62
     1
  6
CONTINUOUS
 10
177
 20
-22.316
 30
0
 11
173
 21
-23.656
 31
0
 12
173
 22
-20.976
 32
0
 13
173
 23
-20.976
 33
0
  0
LINE
  8
BEM
 62
     1
  6
CONTINUOUS
 10
177
 20
-22.316
 30
0
 11
129.5
 21
-22.316
 31
0
  0
TEXT
  8
BEM
 62
     1
  6
CONTINUOUS
 10
-16.323
 20
14.561
 30
0
 40
5
 41
0.8
 50
0
 51
0
  1
1
  0
LINE
  8
BEM
 62
     1
  6
CONTINUOUS
 10
-8
 20
10.166666666667
 30
0
 11
-8
 21
18.561
 31
0
  0
LINE
  8
BEM
 62
     1
  6
CONTINUOUS
 10
-7
 20
10.166666666667
 30
0
 11
-7
 21
18.561
 31
0
  0
SOLID
  8
BEM
 62
     1
  6
CONTINUOUS
 10
-8
 20
13.561
 30
0
 11
-12
 21
12.221
 31
0
 12
-12
 22
14.901
 32
0
 13
-12
 23
14.901
 33
0
  0
LINE
  8
BEM
 62
     1
  6
CONTINUOUS
 10
-8
 20
13.561
 30
0
 11
-16.323
 21
13.561
 31
0
  0
SOLID
  8
BEM
 62
     1
  6
CONTINUOUS
 10
-7
 20
13.561
 30
0
 11
-3
 21
14.901
 31
0
 12
-3
 22
12.221
 32
0
 13
-3
 23
12.221
 33
0
  0
LINE
  8
BEM
 62
     1
  6
CONTINUOUS
 10
-7
 20
13.561
 30
0
 11
1
 21
13.561
 31
0
  0
INSERT
  2
GENSEC-Fig_002-00009-1673356598
  8
0
 10
0
 20
0
 30
0
 50
0
  0
INSERT
  2
GENSEC-Fig_004-00012-1673356693
  8
0
 10
0
 20
0
 30
0
 50
0
  0
INSERT
  2
GENSEC-Fig_003-00006-1673356727
  8
0
 10
0
 20
0
 30
0
 50
0
  0
INSERT
  2
OperationStart-00000
  8
OperationStart
 10
0
 20
0
 30
0
 50
0
  0
INSERT
  2
Fig_000
  8
0
 10
-8
 20
0
 30
0
 50
0
  0
INSERT
  2
Fig_001
  8
0
 10
-8
 20
0
 30
0
 50
0
  0
INSERT
  2
GENSEC-Fig_001-00006-1673375297
  8
0
 10
0
 20
0
 30
0
 50
0
  0
INSERT
  2
GENSEC-Fig_000-00003-1673375312
  8
0
 10
0
 20
0
 30
0
 50
0
  0
INSERT
  2
Fig_002
  8
0
 10
-8
 20
0
 30
0
 50
0
  0
INSERT
  2
GENSEC-Fig_002-00009-1673375351
  8
0
 10
0
 20
0
 30
0
 50
0
  0
INSERT
  2
Fig_003
  8
0
 10
-8
 20
0
 30
0
 50
0
  0
INSERT
  2
Fig_004
  8
0
 10
-8
 20
0
 30
0
 50
0
  0
INSERT
  2
GENSEC-Fig_004-00015-1673375409
  8
0
 10
0
 20
0
 30
0
 50
0
  0
INSERT
  2
OperationStart-00001
  8
OperationStart
 10
0
 20
50
 30
0
 50
0
  0
INSERT
  2
OperationStart-00002
  8
OperationStart
 10
0
 20
50
 30
0
 50
0
  0
INSERT
  2
GENSEC-Fig_003-00012-1673417653
  8
0
 10
0
 20
0
 30
0
 50
0
  0
ENDSEC
  0
EOF
